<svg version="1.1" viewBox="0.0 0.0 960.0 540.0" fill="none" stroke="none" stroke-linecap="square" stroke-miterlimit="10" xmlns:xlink="http://www.w3.org/1999/xlink" xmlns="http://www.w3.org/2000/svg"><clipPath id="g2c7e97ecb31_0_0.0"><path d="m0 0l960.0 0l0 540.0l-960.0 0l0 -540.0z" clip-rule="nonzero"/></clipPath><g clip-path="url(#g2c7e97ecb31_0_0.0)"><path fill="#ffffff" d="m0 0l960.0 0l0 540.0l-960.0 0z" fill-rule="evenodd"/><path fill="#000000" fill-opacity="0.0" d="m259.4882 155.07611l173.13385 0l0 142.07874l-173.13385 0z" fill-rule="evenodd"/><path stroke="#000000" stroke-width="4.0" stroke-linejoin="round" stroke-linecap="butt" d="m259.4882 155.07611l173.13385 0l0 142.07874l-173.13385 0z" fill-rule="evenodd"/><path fill="#000000" fill-opacity="0.0" d="m260.3071 259.3176l173.13385 0" fill-rule="evenodd"/><path stroke="#000000" stroke-width="4.0" stroke-linejoin="round" stroke-linecap="butt" d="m260.3071 259.3176l173.13385 0" fill-rule="evenodd"/><path fill="#000000" fill-opacity="0.0" d="m346.0551 155.07611l0 -62.362198" fill-rule="evenodd"/><path stroke="#000000" stroke-width="4.0" stroke-linejoin="round" stroke-linecap="butt" d="m346.0551 155.07611l0 -62.362198" fill-rule="evenodd"/><path fill="#000000" fill-opacity="0.0" d="m346.87402 299.34515l0 171.40155" fill-rule="evenodd"/><path stroke="#000000" stroke-width="4.0" stroke-linejoin="round" stroke-linecap="butt" d="m346.87402 299.34515l0 171.40155" fill-rule="evenodd"/><path fill="#000000" d="m341.53543 29.721785l0 0c0 -2.4961529 2.023529 -4.5196857 4.519684 -4.5196857l0 0c1.1987 0 2.348297 0.47618103 3.1958923 1.3237858c0.84762573 0.84760475 1.3237915 1.9972057 1.3237915 3.1959l0 0c0 2.4961529 -2.023529 4.5196857 -4.519684 4.5196857l0 0c-2.4961548 0 -4.519684 -2.0235329 -4.519684 -4.5196857z" fill-rule="evenodd"/><path stroke="#000000" stroke-width="1.0" stroke-linejoin="round" stroke-linecap="butt" d="m341.53543 29.721785l0 0c0 -2.4961529 2.023529 -4.5196857 4.519684 -4.5196857l0 0c1.1987 0 2.348297 0.47618103 3.1958923 1.3237858c0.84762573 0.84760475 1.3237915 1.9972057 1.3237915 3.1959l0 0c0 2.4961529 -2.023529 4.5196857 -4.519684 4.5196857l0 0c-2.4961548 0 -4.519684 -2.0235329 -4.519684 -4.5196857z" fill-rule="evenodd"/><path fill="#000000" d="m341.53543 17.637794l0 0c0 -2.496152 2.023529 -4.519684 4.519684 -4.519684l0 0c1.1987 0 2.348297 0.47617912 3.1958923 1.3237848c0.84762573 0.84760475 1.3237915 1.9972048 1.3237915 3.195899l0 0c0 2.4961548 -2.023529 4.5196857 -4.519684 4.5196857l0 0c-2.4961548 0 -4.519684 -2.023531 -4.519684 -4.5196857z" fill-rule="evenodd"/><path stroke="#000000" stroke-width="1.0" stroke-linejoin="round" stroke-linecap="butt" d="m341.53543 17.637794l0 0c0 -2.496152 2.023529 -4.519684 4.519684 -4.519684l0 0c1.1987 0 2.348297 0.47617912 3.1958923 1.3237848c0.84762573 0.84760475 1.3237915 1.9972048 1.3237915 3.195899l0 0c0 2.4961548 -2.023529 4.5196857 -4.519684 4.5196857l0 0c-2.4961548 0 -4.519684 -2.023531 -4.519684 -4.5196857z" fill-rule="evenodd"/><path fill="#000000" d="m341.53543 507.979l0 0c0 -2.4961548 2.023529 -4.519684 4.519684 -4.519684l0 0c1.1987 0 2.348297 0.47616577 3.1958923 1.3237915c0.84762573 0.8475952 1.3237915 1.9971924 1.3237915 3.1958923l0 0c0 2.4961548 -2.023529 4.5196533 -4.519684 4.5196533l0 0c-2.4961548 0 -4.519684 -2.0234985 -4.519684 -4.5196533z" fill-rule="evenodd"/><path stroke="#000000" stroke-width="1.0" stroke-linejoin="round" stroke-linecap="butt" d="m341.53543 507.979l0 0c0 -2.4961548 2.023529 -4.519684 4.519684 -4.519684l0 0c1.1987 0 2.348297 0.47616577 3.1958923 1.3237915c0.84762573 0.8475952 1.3237915 1.9971924 1.3237915 3.1958923l0 0c0 2.4961548 -2.023529 4.5196533 -4.519684 4.5196533l0 0c-2.4961548 0 -4.519684 -2.0234985 -4.519684 -4.5196533z" fill-rule="evenodd"/><path fill="#000000" fill-opacity="0.0" d="m482.35696 238.81364l118.4252 0l0 41.00789l-118.4252 0z" fill-rule="evenodd"/><path fill="#595959" d="m501.90384 264.6349q0.171875 0.296875 0.296875 0.609375q0.125 0.3125 0.25 0.640625q0.109375 -0.328125 0.234375 -0.640625q0.140625 -0.3125 0.3125 -0.625l5.8125 -10.562485q0.15625 -0.28125 0.328125 -0.34375q0.171875 -0.0625 0.484375 -0.0625l1.71875 0l0 17.20311l-2.046875 0l0 -12.640625q0 -0.25 0.015625 -0.53125q0.015625 -0.296875 0.03125 -0.59375l-5.890625 10.75q-0.296875 0.546875 -0.84375 0.546875l-0.328125 0q-0.546875 0 -0.84375 -0.546875l-6.015625 -10.78125q0.03125 0.3125 0.046875 0.609375q0.015625 0.296875 0.015625 0.546875l0 12.640625l-2.03125 0l0 -17.20311l1.703125 0q0.3125 0 0.484375 0.0625q0.171875 0.0625 0.328125 0.34375l5.9375 10.57811l0 0zm18.095795 -6.125q1.09375 0 2.015625 0.375q0.921875 0.359375 1.59375 1.046875q0.671875 0.6875 1.046875 1.703125q0.390625 1.015625 0.390625 2.3125q0 0.5 -0.109375 0.671875q-0.109375 0.15625 -0.40625 0.15625l-8.09375 0q0.03125 1.15625 0.3125 2.015625q0.28125 0.84375 0.78125 1.421875q0.515625 0.5625 1.203125 0.84375q0.703125 0.28125 1.5625 0.28125q0.8125 0 1.390625 -0.1875q0.578125 -0.1875 1.0 -0.390625q0.421875 -0.21875 0.703125 -0.40625q0.28125 -0.1875 0.484375 -0.1875q0.265625 0 0.40625 0.203125l0.609375 0.78125q-0.40625 0.484375 -0.953125 0.84375q-0.546875 0.34375 -1.1875 0.578125q-0.625 0.21875 -1.296875 0.328125q-0.671875 0.125 -1.328125 0.125q-1.265625 0 -2.328125 -0.421875q-1.0625 -0.4375 -1.84375 -1.25q-0.765625 -0.828125 -1.203125 -2.03125q-0.421875 -1.21875 -0.421875 -2.796875q0 -1.265625 0.390625 -2.359375q0.390625 -1.109375 1.109375 -1.921875q0.734375 -0.8125 1.796875 -1.265625q1.0625 -0.46875 2.375 -0.46875zm0.046875 1.5625q-1.546875 0 -2.4375 0.90625q-0.890625 0.890625 -1.09375 2.46875l6.609375 0q0 -0.734375 -0.203125 -1.359375q-0.203125 -0.625 -0.609375 -1.0625q-0.390625 -0.453125 -0.96875 -0.703125q-0.5625 -0.25 -1.296875 -0.25zm16.279175 10.78125q-0.453125 0 -0.578125 -0.4375l-0.1875 -1.484375q-0.78125 0.953125 -1.796875 1.53125q-1.0 0.5625 -2.296875 0.5625q-1.03125 0 -1.890625 -0.40625q-0.84375 -0.40625 -1.453125 -1.1875q-0.59375 -0.78125 -0.921875 -1.9375q-0.328125 -1.171875 -0.328125 -2.671875q0 -1.34375 0.359375 -2.5q0.359375 -1.171875 1.03125 -2.015625q0.6875 -0.859375 1.65625 -1.34375q0.984375 -0.484375 2.21875 -0.484375q1.109375 0 1.890625 0.390625q0.796875 0.375 1.421875 1.046875l0 -6.7343597l2.140625 0l0 17.67186l-1.265625 0zm-4.140625 -1.5625q1.046875 0 1.828125 -0.46875q0.78125 -0.484375 1.4375 -1.359375l0 -5.890625q-0.578125 -0.78125 -1.28125 -1.09375q-0.703125 -0.328125 -1.5625 -0.328125q-1.703125 0 -2.609375 1.21875q-0.90625 1.203125 -0.90625 3.453125q0 1.1875 0.203125 2.03125q0.203125 0.84375 0.59375 1.390625q0.390625 0.546875 0.96875 0.796875q0.578125 0.25 1.328125 0.25zm11.369263 -10.59375l0 12.15625l-2.140625 0l0 -12.15625l2.140625 0zm0.484375 -3.8124847q0 0.3125 -0.125 0.578125q-0.125 0.265625 -0.34375 0.484375q-0.203125 0.20310974 -0.484375 0.32810974q-0.265625 0.125 -0.578125 0.125q-0.3125 0 -0.59375 -0.125q-0.265625 -0.125 -0.484375 -0.32810974q-0.203125 -0.21875 -0.328125 -0.484375q-0.109375 -0.265625 -0.109375 -0.578125q0 -0.3125 0.109375 -0.59375q0.125 -0.28125 0.328125 -0.484375q0.21875 -0.21875 0.484375 -0.34375q0.28125 -0.125 0.59375 -0.125q0.3125 0 0.578125 0.125q0.28125 0.125 0.484375 0.34375q0.21875 0.203125 0.34375 0.484375q0.125 0.28125 0.125 0.59375zm12.222168 15.968735l-0.953125 0q-0.3125 0 -0.515625 -0.09375q-0.1875 -0.09375 -0.25 -0.40625l-0.234375 -1.125q-0.484375 0.421875 -0.9375 0.765625q-0.453125 0.34375 -0.953125 0.578125q-0.5 0.234375 -1.078125 0.34375q-0.5625 0.125 -1.265625 0.125q-0.703125 0 -1.328125 -0.1875q-0.609375 -0.203125 -1.078125 -0.59375q-0.453125 -0.40625 -0.71875 -1.0q-0.265625 -0.609375 -0.265625 -1.4375q0 -0.71875 0.390625 -1.390625q0.390625 -0.671875 1.265625 -1.1875q0.890625 -0.515625 2.3125 -0.84375q1.4375 -0.328125 3.5 -0.375l0 -0.953125q0 -1.40625 -0.609375 -2.125q-0.59375 -0.734375 -1.78125 -0.734375q-0.78125 0 -1.328125 0.203125q-0.53125 0.1875 -0.921875 0.4375q-0.390625 0.25 -0.671875 0.453125q-0.28125 0.1875 -0.546875 0.1875q-0.21875 0 -0.390625 -0.109375q-0.15625 -0.125 -0.25 -0.28125l-0.390625 -0.6875q1.015625 -0.96875 2.171875 -1.453125q1.171875 -0.484375 2.578125 -0.484375q1.03125 0 1.8125 0.34375q0.796875 0.328125 1.328125 0.9375q0.546875 0.59375 0.828125 1.453125q0.28125 0.84375 0.28125 1.859375l0 7.78125zm-5.546875 -1.3125q0.5625 0 1.03125 -0.109375q0.46875 -0.109375 0.875 -0.3125q0.421875 -0.21875 0.796875 -0.515625q0.375 -0.3125 0.734375 -0.6875l0 -2.53125q-1.46875 0.046875 -2.5 0.234375q-1.03125 0.1875 -1.6875 0.484375q-0.640625 0.296875 -0.9375 0.703125q-0.296875 0.40625 -0.296875 0.921875q0 0.46875 0.15625 0.828125q0.15625 0.34375 0.421875 0.5625q0.265625 0.21875 0.625 0.328125q0.359375 0.09375 0.78125 0.09375zm8.777466 1.3125l0 -12.15625l1.28125 0q0.453125 0 0.5625 0.4375l0.171875 1.328125q0.796875 -0.875 1.765625 -1.40625q0.984375 -0.546875 2.265625 -0.546875q1.0 0 1.75 0.328125q0.765625 0.328125 1.28125 0.9375q0.515625 0.609375 0.78125 1.46875q0.265625 0.84375 0.265625 1.875l0 7.734375l-2.140625 0l0 -7.734375q0 -1.390625 -0.640625 -2.140625q-0.625 -0.765625 -1.921875 -0.765625q-0.9375 0 -1.765625 0.453125q-0.828125 0.453125 -1.515625 1.234375l0 8.953125l-2.140625 0z" fill-rule="nonzero"/><path fill="#000000" fill-opacity="0.0" d="m137.36745 134.57217l69.29135 0l0 41.007874l-69.29135 0z" fill-rule="evenodd"/><path fill="#595959" d="m164.42995 158.01843q0 1.21875 -0.25 2.3125q-0.25 1.078125 -0.71875 2.03125q-0.46875 0.9375 -1.140625 1.703125q-0.671875 0.765625 -1.5 1.328125l4.40625 4.765625l-1.921875 0q-0.421875 0 -0.765625 -0.125q-0.328125 -0.109375 -0.609375 -0.40625l-3.015625 -3.296875q-0.6875 0.21875 -1.4375 0.34375q-0.734375 0.125 -1.53125 0.125q-1.890625 0 -3.453125 -0.640625q-1.5625 -0.65625 -2.6875 -1.8125q-1.109375 -1.171875 -1.71875 -2.78125q-0.609375 -1.609375 -0.609375 -3.546875q0 -1.9375 0.609375 -3.546875q0.609375 -1.609375 1.71875 -2.78125q1.125 -1.171875 2.6875 -1.8125q1.5625 -0.65625 3.453125 -0.65625q1.890625 0 3.453125 0.65625q1.578125 0.640625 2.6875 1.8125q1.125 1.171875 1.734375 2.78125q0.609375 1.609375 0.609375 3.546875zm-2.390625 0q0 -1.578125 -0.4375 -2.84375q-0.421875 -1.265625 -1.21875 -2.125q-0.796875 -0.875 -1.921875 -1.34375q-1.125 -0.46875 -2.515625 -0.46875q-1.375 0 -2.515625 0.46875q-1.125 0.46875 -1.921875 1.34375q-0.796875 0.859375 -1.234375 2.125q-0.421875 1.265625 -0.421875 2.84375q0 1.578125 0.421875 2.84375q0.4375 1.25 1.234375 2.125q0.796875 0.859375 1.921875 1.328125q1.140625 0.453125 2.515625 0.453125q1.390625 0 2.515625 -0.453125q1.125 -0.46875 1.921875 -1.328125q0.796875 -0.875 1.21875 -2.125q0.4375 -1.265625 0.4375 -2.84375zm10.917755 -8.796875q1.09375 0 2.015625 0.3125q0.921875 0.3125 1.59375 0.890625q0.671875 0.578125 1.03125 1.390625q0.375 0.8125 0.375 1.8125q0 0.8125 -0.21875 1.453125q-0.203125 0.640625 -0.59375 1.140625q-0.390625 0.484375 -0.9375 0.828125q-0.546875 0.328125 -1.234375 0.53125q1.671875 0.4375 2.515625 1.484375q0.859375 1.046875 0.859375 2.609375q0 1.1875 -0.453125 2.140625q-0.453125 0.953125 -1.234375 1.625q-0.78125 0.65625 -1.828125 1.015625q-1.03125 0.34375 -2.21875 0.34375q-1.359375 0 -2.34375 -0.328125q-0.96875 -0.34375 -1.640625 -0.9375q-0.671875 -0.609375 -1.109375 -1.4375q-0.421875 -0.828125 -0.71875 -1.78125l0.90625 -0.390625q0.25 -0.09375 0.515625 -0.09375q0.234375 0 0.421875 0.109375q0.1875 0.09375 0.28125 0.296875q0.015625 0.0625 0.03125 0.109375q0.03125 0.046875 0.0625 0.109375q0.171875 0.359375 0.40625 0.796875q0.234375 0.4375 0.640625 0.828125q0.421875 0.375 1.015625 0.640625q0.609375 0.265625 1.515625 0.265625q0.890625 0 1.5625 -0.296875q0.6875 -0.296875 1.140625 -0.765625q0.453125 -0.46875 0.671875 -1.046875q0.234375 -0.578125 0.234375 -1.140625q0 -0.6875 -0.1875 -1.265625q-0.1875 -0.578125 -0.671875 -1.0q-0.484375 -0.421875 -1.34375 -0.65625q-0.859375 -0.25 -2.203125 -0.25l0 -1.546875q1.09375 0 1.859375 -0.234375q0.78125 -0.234375 1.265625 -0.625q0.5 -0.390625 0.71875 -0.9375q0.234375 -0.5625 0.234375 -1.234375q0 -0.75 -0.234375 -1.296875q-0.234375 -0.546875 -0.65625 -0.90625q-0.40625 -0.359375 -0.96875 -0.53125q-0.546875 -0.1875 -1.203125 -0.1875q-0.640625 0 -1.203125 0.1875q-0.546875 0.1875 -0.96875 0.53125q-0.421875 0.34375 -0.71875 0.828125q-0.28125 0.46875 -0.421875 1.015625q-0.09375 0.34375 -0.296875 0.5q-0.1875 0.15625 -0.484375 0.15625q-0.0625 0 -0.125 0q-0.0625 -0.015625 -0.15625 -0.015625l-1.109375 -0.203125q0.15625 -1.171875 0.640625 -2.078125q0.484375 -0.90625 1.21875 -1.515625q0.734375 -0.609375 1.6875 -0.921875q0.96875 -0.328125 2.0625 -0.328125z" fill-rule="nonzero"/><path fill="#000000" fill-opacity="0.0" d="m467.87402 53.194225l492.12598 0l0 82.92912l-492.12598 0z" fill-rule="evenodd"/><path fill="#595959" d="m487.4209 79.01548q0.171875 0.296875 0.296875 0.609375q0.125 0.3125 0.25 0.640625q0.109375 -0.328125 0.234375 -0.640625q0.140625 -0.3125 0.3125 -0.625l5.8125 -10.5625q0.15625 -0.28125 0.328125 -0.34375q0.171875 -0.0625 0.484375 -0.0625l1.71875 0l0 17.203125l-2.046875 0l0 -12.640625q0 -0.25 0.015625 -0.53125q0.015625 -0.296875 0.03125 -0.59375l-5.890625 10.75q-0.296875 0.546875 -0.84375 0.546875l-0.328125 0q-0.546875 0 -0.84375 -0.546875l-6.015625 -10.78125q0.03125 0.3125 0.046875 0.609375q0.015625 0.296875 0.015625 0.546875l0 12.640625l-2.03125 0l0 -17.203125l1.703125 0q0.3125 0 0.484375 0.0625q0.171875 0.0625 0.328125 0.34375l5.9375 10.578125l0 0zm22.220764 6.21875l-0.953125 0q-0.3125 0 -0.515625 -0.09375q-0.1875 -0.09375 -0.25 -0.40625l-0.234375 -1.125q-0.484375 0.421875 -0.9375 0.765625q-0.453125 0.34375 -0.953125 0.578125q-0.5 0.234375 -1.078125 0.34375q-0.5625 0.125 -1.265625 0.125q-0.703125 0 -1.328125 -0.1875q-0.609375 -0.203125 -1.078125 -0.59375q-0.453125 -0.40625 -0.71875 -1.0q-0.265625 -0.609375 -0.265625 -1.4375q0 -0.71875 0.390625 -1.390625q0.390625 -0.671875 1.265625 -1.1875q0.890625 -0.515625 2.3125 -0.84375q1.4375 -0.328125 3.5 -0.375l0 -0.953125q0 -1.40625 -0.609375 -2.125q-0.59375 -0.734375 -1.78125 -0.734375q-0.78125 0 -1.328125 0.203125q-0.53125 0.1875 -0.921875 0.4375q-0.390625 0.25 -0.671875 0.453125q-0.28125 0.1875 -0.546875 0.1875q-0.21875 0 -0.390625 -0.109375q-0.15625 -0.125 -0.25 -0.28125l-0.390625 -0.6875q1.015625 -0.96875 2.171875 -1.453125q1.171875 -0.484375 2.578125 -0.484375q1.03125 0 1.8125 0.34375q0.796875 0.328125 1.328125 0.9375q0.546875 0.59375 0.828125 1.453125q0.28125 0.84375 0.28125 1.859375l0 7.78125zm-5.546875 -1.3125q0.5625 0 1.03125 -0.109375q0.46875 -0.109375 0.875 -0.3125q0.421875 -0.21875 0.796875 -0.515625q0.375 -0.3125 0.734375 -0.6875l0 -2.53125q-1.46875 0.046875 -2.5 0.234375q-1.03125 0.1875 -1.6875 0.484375q-0.640625 0.296875 -0.9375 0.703125q-0.296875 0.40625 -0.296875 0.921875q0 0.46875 0.15625 0.828125q0.15625 0.34375 0.421875 0.5625q0.265625 0.21875 0.625 0.328125q0.359375 0.09375 0.78125 0.09375zm11.621216 -4.921875l-4.09375 -5.921875l2.0625 0q0.25 0 0.375 0.09375q0.125 0.078125 0.21875 0.234375l2.96875 4.5625q0.109375 -0.34375 0.3125 -0.671875l2.625 -3.84375q0.125 -0.171875 0.234375 -0.265625q0.125 -0.109375 0.296875 -0.109375l1.96875 0l-4.09375 5.8125l4.265625 6.34375l-2.046875 0q-0.265625 0 -0.421875 -0.140625q-0.140625 -0.140625 -0.234375 -0.296875l-3.0625 -4.765625q-0.09375 0.34375 -0.25 0.625l-2.84375 4.140625q-0.109375 0.15625 -0.25 0.296875q-0.140625 0.140625 -0.375 0.140625l-1.90625 0l4.25 -6.234375zm11.627319 -5.921875l0 12.15625l-2.140625 0l0 -12.15625l2.140625 0zm0.484375 -3.8125q0 0.3125 -0.125 0.578125q-0.125 0.265625 -0.34375 0.484375q-0.203125 0.203125 -0.484375 0.328125q-0.265625 0.125 -0.578125 0.125q-0.3125 0 -0.59375 -0.125q-0.265625 -0.125 -0.484375 -0.328125q-0.203125 -0.21875 -0.328125 -0.484375q-0.109375 -0.265625 -0.109375 -0.578125q0 -0.3125 0.109375 -0.59375q0.125 -0.28125 0.328125 -0.484375q0.21875 -0.21875 0.484375 -0.34375q0.28125 -0.125 0.59375 -0.125q0.3125 0 0.578125 0.125q0.28125 0.125 0.484375 0.34375q0.21875 0.203125 0.34375 0.484375q0.125 0.28125 0.125 0.59375zm3.284668 15.96875l0 -12.15625l1.28125 0q0.453125 0 0.5625 0.4375l0.15625 1.25q0.671875 -0.828125 1.5 -1.34375q0.84375 -0.53125 1.953125 -0.53125q1.234375 0 1.984375 0.6875q0.765625 0.671875 1.109375 1.84375q0.25 -0.65625 0.65625 -1.140625q0.421875 -0.484375 0.9375 -0.796875q0.515625 -0.3125 1.09375 -0.453125q0.59375 -0.140625 1.1875 -0.140625q0.953125 0 1.703125 0.3125q0.75 0.296875 1.265625 0.890625q0.53125 0.578125 0.8125 1.4375q0.28125 0.859375 0.28125 1.96875l0 7.734375l-2.140625 0l0 -7.734375q0 -1.4375 -0.625 -2.171875q-0.625 -0.734375 -1.8125 -0.734375q-0.53125 0 -1.0 0.1875q-0.46875 0.1875 -0.84375 0.546875q-0.359375 0.359375 -0.5625 0.90625q-0.203125 0.546875 -0.203125 1.265625l0 7.734375l-2.140625 0l0 -7.734375q0 -1.46875 -0.59375 -2.1875q-0.578125 -0.71875 -1.71875 -0.71875q-0.78125 0 -1.46875 0.421875q-0.671875 0.421875 -1.234375 1.15625l0 9.0625l-2.140625 0zm21.547913 -12.15625l0 7.75q0 1.375 0.640625 2.140625q0.640625 0.75 1.921875 0.75q0.9375 0 1.765625 -0.4375q0.828125 -0.453125 1.515625 -1.234375l0 -8.96875l2.140625 0l0 12.15625l-1.265625 0q-0.453125 0 -0.578125 -0.4375l-0.171875 -1.3125q-0.796875 0.875 -1.78125 1.40625q-0.984375 0.53125 -2.25 0.53125q-1.0 0 -1.765625 -0.328125q-0.75 -0.328125 -1.265625 -0.921875q-0.515625 -0.609375 -0.78125 -1.453125q-0.25 -0.859375 -0.25 -1.890625l0 -7.75l2.125 0zm11.500366 12.15625l0 -12.15625l1.28125 0q0.453125 0 0.5625 0.4375l0.15625 1.25q0.671875 -0.828125 1.5 -1.34375q0.84375 -0.53125 1.953125 -0.53125q1.234375 0 1.984375 0.6875q0.765625 0.671875 1.109375 1.84375q0.25 -0.65625 0.65625 -1.140625q0.421875 -0.484375 0.9375 -0.796875q0.515625 -0.3125 1.09375 -0.453125q0.59375 -0.140625 1.1875 -0.140625q0.953125 0 1.703125 0.3125q0.75 0.296875 1.265625 0.890625q0.53125 0.578125 0.8125 1.4375q0.28125 0.859375 0.28125 1.96875l0 7.734375l-2.140625 0l0 -7.734375q0 -1.4375 -0.625 -2.171875q-0.625 -0.734375 -1.8125 -0.734375q-0.53125 0 -1.0 0.1875q-0.46875 0.1875 -0.84375 0.546875q-0.359375 0.359375 -0.5625 0.90625q-0.203125 0.546875 -0.203125 1.265625l0 7.734375l-2.140625 0l0 -7.734375q0 -1.46875 -0.59375 -2.1875q-0.578125 -0.71875 -1.71875 -0.71875q-0.78125 0 -1.46875 0.421875q-0.671875 0.421875 -1.234375 1.15625l0 9.0625l-2.140625 0zm24.33612 4.109375l0 -16.265625l1.28125 0q0.453125 0 0.5625 0.4375l0.1875 1.453125q0.78125 -0.953125 1.78125 -1.53125q1.0 -0.578125 2.3125 -0.578125q1.046875 0 1.890625 0.40625q0.859375 0.40625 1.453125 1.1875q0.59375 0.78125 0.921875 1.953125q0.328125 1.15625 0.328125 2.671875q0 1.34375 -0.359375 2.5q-0.359375 1.15625 -1.03125 2.015625q-0.671875 0.84375 -1.65625 1.328125q-0.96875 0.484375 -2.203125 0.484375q-1.125 0 -1.921875 -0.375q-0.796875 -0.375 -1.40625 -1.0625l0 5.375l-2.140625 0zm5.40625 -14.75q-1.03125 0 -1.828125 0.484375q-0.78125 0.46875 -1.4375 1.34375l0 5.890625q0.578125 0.78125 1.28125 1.109375q0.703125 0.328125 1.578125 0.328125q1.6875 0 2.59375 -1.203125q0.921875 -1.21875 0.921875 -3.46875q0 -1.1875 -0.21875 -2.03125q-0.203125 -0.859375 -0.609375 -1.40625q-0.390625 -0.546875 -0.96875 -0.796875q-0.578125 -0.25 -1.3125 -0.25zm12.763733 -1.703125q1.328125 0 2.40625 0.453125q1.078125 0.4375 1.828125 1.25q0.75 0.8125 1.140625 1.96875q0.40625 1.15625 0.40625 2.59375q0 1.4375 -0.40625 2.59375q-0.390625 1.140625 -1.140625 1.96875q-0.75 0.8125 -1.828125 1.25q-1.078125 0.4375 -2.40625 0.4375q-1.328125 0 -2.40625 -0.4375q-1.078125 -0.4375 -1.828125 -1.25q-0.75 -0.828125 -1.171875 -1.96875q-0.40625 -1.15625 -0.40625 -2.59375q0 -1.4375 0.40625 -2.59375q0.421875 -1.15625 1.171875 -1.96875q0.75 -0.8125 1.828125 -1.25q1.078125 -0.453125 2.40625 -0.453125zm0 10.84375q1.796875 0 2.6875 -1.203125q0.890625 -1.203125 0.890625 -3.375q0 -2.171875 -0.890625 -3.375q-0.890625 -1.21875 -2.6875 -1.21875q-0.90625 0 -1.578125 0.3125q-0.671875 0.3125 -1.125 0.90625q-0.453125 0.578125 -0.671875 1.4375q-0.21875 0.859375 -0.21875 1.9375q0 1.09375 0.21875 1.953125q0.21875 0.84375 0.671875 1.421875q0.453125 0.578125 1.125 0.890625q0.671875 0.3125 1.578125 0.3125zm10.797241 -10.65625l0 12.15625l-2.140625 0l0 -12.15625l2.140625 0zm0.484375 -3.8125q0 0.3125 -0.125 0.578125q-0.125 0.265625 -0.34375 0.484375q-0.203125 0.203125 -0.484375 0.328125q-0.265625 0.125 -0.578125 0.125q-0.3125 0 -0.59375 -0.125q-0.265625 -0.125 -0.484375 -0.328125q-0.203125 -0.21875 -0.328125 -0.484375q-0.109375 -0.265625 -0.109375 -0.578125q0 -0.3125 0.109375 -0.59375q0.125 -0.28125 0.328125 -0.484375q0.21875 -0.21875 0.484375 -0.34375q0.28125 -0.125 0.59375 -0.125q0.3125 0 0.578125 0.125q0.28125 0.125 0.484375 0.34375q0.21875 0.203125 0.34375 0.484375q0.125 0.28125 0.125 0.59375zm3.284668 15.96875l0 -12.15625l1.28125 0q0.453125 0 0.5625 0.4375l0.171875 1.328125q0.796875 -0.875 1.765625 -1.40625q0.984375 -0.546875 2.265625 -0.546875q1.0 0 1.75 0.328125q0.765625 0.328125 1.28125 0.9375q0.515625 0.609375 0.78125 1.46875q0.265625 0.84375 0.265625 1.875l0 7.734375l-2.140625 0l0 -7.734375q0 -1.390625 -0.640625 -2.140625q-0.625 -0.765625 -1.921875 -0.765625q-0.9375 0 -1.765625 0.453125q-0.828125 0.453125 -1.515625 1.234375l0 8.953125l-2.140625 0zm17.031616 0.1875q-1.4375 0 -2.21875 -0.796875q-0.765625 -0.8125 -0.765625 -2.3125l0 -7.453125l-1.46875 0q-0.1875 0 -0.328125 -0.109375q-0.125 -0.109375 -0.125 -0.359375l0 -0.84375l1.984375 -0.25l0.5 -3.765625q0.015625 -0.171875 0.140625 -0.28125q0.140625 -0.125 0.34375 -0.125l1.078125 0l0 4.1875l3.484375 0l0 1.546875l-3.484375 0l0 7.296875q0 0.78125 0.375 1.15625q0.375 0.359375 0.96875 0.359375q0.328125 0 0.578125 -0.078125q0.25 -0.09375 0.421875 -0.203125q0.1875 -0.109375 0.3125 -0.203125q0.125 -0.09375 0.21875 -0.09375q0.171875 0 0.296875 0.203125l0.625 1.03125q-0.546875 0.515625 -1.328125 0.8125q-0.78125 0.28125 -1.609375 0.28125zm8.31842 -12.34375l1.671875 0q0.265625 0 0.4375 0.140625q0.171875 0.125 0.234375 0.296875l2.328125 7.828125q0.09375 0.4375 0.171875 0.84375q0.078125 0.390625 0.140625 0.796875q0.09375 -0.40625 0.21875 -0.796875q0.125 -0.40625 0.25 -0.84375l2.578125 -7.875q0.046875 -0.171875 0.203125 -0.296875q0.15625 -0.125 0.375 -0.125l0.921875 0q0.25 0 0.40625 0.125q0.15625 0.125 0.203125 0.296875l2.515625 7.875q0.125 0.421875 0.234375 0.828125q0.109375 0.40625 0.203125 0.8125q0.046875 -0.40625 0.140625 -0.828125q0.109375 -0.4375 0.21875 -0.8125l2.375 -7.828125q0.0625 -0.1875 0.21875 -0.3125q0.171875 -0.125 0.40625 -0.125l1.609375 0l-3.9375 12.15625l-1.703125 0q-0.3125 0 -0.421875 -0.40625l-2.6875 -8.25q-0.09375 -0.265625 -0.15625 -0.546875q-0.0625 -0.28125 -0.125 -0.5625q-0.0625 0.28125 -0.125 0.5625q-0.046875 0.28125 -0.15625 0.5625l-2.71875 8.234375q-0.125 0.40625 -0.484375 0.40625l-1.609375 0l-3.9375 -12.15625zm22.33728 0l0 12.15625l-2.140625 0l0 -12.15625l2.140625 0zm0.484375 -3.8125q0 0.3125 -0.125 0.578125q-0.125 0.265625 -0.34375 0.484375q-0.203125 0.203125 -0.484375 0.328125q-0.265625 0.125 -0.578125 0.125q-0.3125 0 -0.59375 -0.125q-0.265625 -0.125 -0.484375 -0.328125q-0.203125 -0.21875 -0.328125 -0.484375q-0.109375 -0.265625 -0.109375 -0.578125q0 -0.3125 0.109375 -0.59375q0.125 -0.28125 0.328125 -0.484375q0.21875 -0.21875 0.484375 -0.34375q0.28125 -0.125 0.59375 -0.125q0.3125 0 0.578125 0.125q0.28125 0.125 0.484375 0.34375q0.21875 0.203125 0.34375 0.484375q0.125 0.28125 0.125 0.59375zm6.972168 16.15625q-1.4375 0 -2.21875 -0.796875q-0.765625 -0.8125 -0.765625 -2.3125l0 -7.453125l-1.46875 0q-0.1875 0 -0.328125 -0.109375q-0.125 -0.109375 -0.125 -0.359375l0 -0.84375l1.984375 -0.25l0.5 -3.765625q0.015625 -0.171875 0.140625 -0.28125q0.140625 -0.125 0.34375 -0.125l1.078125 0l0 4.1875l3.484375 0l0 1.546875l-3.484375 0l0 7.296875q0 0.78125 0.375 1.15625q0.375 0.359375 0.96875 0.359375q0.328125 0 0.578125 -0.078125q0.25 -0.09375 0.421875 -0.203125q0.1875 -0.109375 0.3125 -0.203125q0.125 -0.09375 0.21875 -0.09375q0.171875 0 0.296875 0.203125l0.625 1.03125q-0.546875 0.515625 -1.328125 0.8125q-0.78125 0.28125 -1.609375 0.28125zm5.2645264 -0.1875l0 -17.671875l2.140625 0l0 7.140625q0.78125 -0.828125 1.71875 -1.3125q0.953125 -0.5 2.1875 -0.5q1.0 0 1.75 0.328125q0.765625 0.328125 1.28125 0.9375q0.515625 0.609375 0.78125 1.46875q0.265625 0.84375 0.265625 1.875l0 7.734375l-2.140625 0l0 -7.734375q0 -1.390625 -0.640625 -2.140625q-0.625 -0.765625 -1.921875 -0.765625q-0.9375 0 -1.765625 0.453125q-0.828125 0.453125 -1.515625 1.234375l0 8.953125l-2.140625 0zm15.719116 -12.15625l0 12.15625l-2.140625 0l0 -12.15625l2.140625 0zm0.484375 -3.8125q0 0.3125 -0.125 0.578125q-0.125 0.265625 -0.34375 0.484375q-0.203125 0.203125 -0.484375 0.328125q-0.265625 0.125 -0.578125 0.125q-0.3125 0 -0.59375 -0.125q-0.265625 -0.125 -0.484375 -0.328125q-0.203125 -0.21875 -0.328125 -0.484375q-0.109375 -0.265625 -0.109375 -0.578125q0 -0.3125 0.109375 -0.59375q0.125 -0.28125 0.328125 -0.484375q0.21875 -0.21875 0.484375 -0.34375q0.28125 -0.125 0.59375 -0.125q0.3125 0 0.578125 0.125q0.28125 0.125 0.484375 0.34375q0.21875 0.203125 0.34375 0.484375q0.125 0.28125 0.125 0.59375zm3.284668 15.96875l0 -12.15625l1.28125 0q0.453125 0 0.5625 0.4375l0.171875 1.328125q0.796875 -0.875 1.765625 -1.40625q0.984375 -0.546875 2.265625 -0.546875q1.0 0 1.75 0.328125q0.765625 0.328125 1.28125 0.9375q0.515625 0.609375 0.78125 1.46875q0.265625 0.84375 0.265625 1.875l0 7.734375l-2.140625 0l0 -7.734375q0 -1.390625 -0.640625 -2.140625q-0.625 -0.765625 -1.921875 -0.765625q-0.9375 0 -1.765625 0.453125q-0.828125 0.453125 -1.515625 1.234375l0 8.953125l-2.140625 0zm19.663635 -1.625l3.703125 0l0 -11.734375q0 -0.53125 0.03125 -1.0625l-3.0625 2.625q-0.125 0.09375 -0.25 0.140625q-0.109375 0.046875 -0.21875 0.046875q-0.1875 0 -0.328125 -0.078125q-0.140625 -0.078125 -0.21875 -0.1875l-0.671875 -0.921875l5.109375 -4.4375l1.75 0l0 15.609375l3.375 0l0 1.625l-9.21875 0l0 -1.625zm11.545105 0.3125q0 -0.3125 0.109375 -0.59375q0.109375 -0.28125 0.3125 -0.484375q0.203125 -0.203125 0.46875 -0.3125q0.28125 -0.125 0.59375 -0.125q0.3125 0 0.578125 0.125q0.28125 0.109375 0.484375 0.3125q0.203125 0.203125 0.3125 0.484375q0.125 0.28125 0.125 0.59375q0 0.3125 -0.125 0.59375q-0.109375 0.265625 -0.3125 0.46875q-0.203125 0.203125 -0.484375 0.3125q-0.265625 0.125 -0.578125 0.125q-0.3125 0 -0.59375 -0.125q-0.265625 -0.109375 -0.46875 -0.3125q-0.203125 -0.203125 -0.3125 -0.46875q-0.109375 -0.28125 -0.109375 -0.59375zm15.759949 -14.953125q0 0.46875 -0.296875 0.765625q-0.28125 0.28125 -0.96875 0.28125l-5.390625 0l-0.796875 4.515625q1.34375 -0.28125 2.484375 -0.28125q1.34375 0 2.375 0.390625q1.03125 0.390625 1.71875 1.09375q0.703125 0.6875 1.046875 1.640625q0.359375 0.953125 0.359375 2.0625q0 1.375 -0.484375 2.484375q-0.484375 1.09375 -1.3125 1.890625q-0.828125 0.78125 -1.96875 1.203125q-1.125 0.40625 -2.421875 0.40625q-0.765625 0 -1.46875 -0.15625q-0.6875 -0.140625 -1.296875 -0.390625q-0.59375 -0.25 -1.109375 -0.578125q-0.515625 -0.328125 -0.90625 -0.6875l0.640625 -0.90625q0.21875 -0.3125 0.578125 -0.3125q0.234375 0 0.53125 0.1875q0.3125 0.1875 0.734375 0.421875q0.4375 0.21875 1.015625 0.40625q0.59375 0.1875 1.390625 0.1875q0.90625 0 1.625 -0.28125q0.71875 -0.296875 1.21875 -0.828125q0.515625 -0.53125 0.796875 -1.28125q0.28125 -0.75 0.28125 -1.671875q0 -0.796875 -0.234375 -1.4375q-0.234375 -0.65625 -0.71875 -1.109375q-0.46875 -0.46875 -1.1875 -0.71875q-0.703125 -0.25 -1.640625 -0.25q-0.65625 0 -1.359375 0.109375q-0.6875 0.109375 -1.421875 0.34375l-1.34375 -0.390625l1.390625 -8.046875l8.140625 0l0 0.9375zm12.255249 16.453125q-1.4375 0 -2.21875 -0.796875q-0.765625 -0.8125 -0.765625 -2.3125l0 -7.453125l-1.46875 0q-0.1875 0 -0.328125 -0.109375q-0.125 -0.109375 -0.125 -0.359375l0 -0.84375l1.984375 -0.25l0.5 -3.765625q0.015625 -0.171875 0.140625 -0.28125q0.140625 -0.125 0.34375 -0.125l1.078125 0l0 4.1875l3.484375 0l0 1.546875l-3.484375 0l0 7.296875q0 0.78125 0.375 1.15625q0.375 0.359375 0.96875 0.359375q0.328125 0 0.578125 -0.078125q0.25 -0.09375 0.421875 -0.203125q0.1875 -0.109375 0.3125 -0.203125q0.125 -0.09375 0.21875 -0.09375q0.171875 0 0.296875 0.203125l0.625 1.03125q-0.546875 0.515625 -1.328125 0.8125q-0.78125 0.28125 -1.609375 0.28125zm7.6395264 -12.34375l0 12.15625l-2.140625 0l0 -12.15625l2.140625 0zm0.484375 -3.8125q0 0.3125 -0.125 0.578125q-0.125 0.265625 -0.34375 0.484375q-0.203125 0.203125 -0.484375 0.328125q-0.265625 0.125 -0.578125 0.125q-0.3125 0 -0.59375 -0.125q-0.265625 -0.125 -0.484375 -0.328125q-0.203125 -0.21875 -0.328125 -0.484375q-0.109375 -0.265625 -0.109375 -0.578125q0 -0.3125 0.109375 -0.59375q0.125 -0.28125 0.328125 -0.484375q0.21875 -0.21875 0.484375 -0.34375q0.28125 -0.125 0.59375 -0.125q0.3125 0 0.578125 0.125q0.28125 0.125 0.484375 0.34375q0.21875 0.203125 0.34375 0.484375q0.125 0.28125 0.125 0.59375zm3.284668 15.96875l0 -12.15625l1.28125 0q0.453125 0 0.5625 0.4375l0.15625 1.25q0.671875 -0.828125 1.5 -1.34375q0.84375 -0.53125 1.953125 -0.53125q1.234375 0 1.984375 0.6875q0.765625 0.671875 1.109375 1.84375q0.25 -0.65625 0.65625 -1.140625q0.421875 -0.484375 0.9375 -0.796875q0.515625 -0.3125 1.09375 -0.453125q0.59375 -0.140625 1.1875 -0.140625q0.953125 0 1.703125 0.3125q0.75 0.296875 1.265625 0.890625q0.53125 0.578125 0.8125 1.4375q0.28125 0.859375 0.28125 1.96875l0 7.734375l-2.140625 0l0 -7.734375q0 -1.4375 -0.625 -2.171875q-0.625 -0.734375 -1.8125 -0.734375q-0.53125 0 -1.0 0.1875q-0.46875 0.1875 -0.84375 0.546875q-0.359375 0.359375 -0.5625 0.90625q-0.203125 0.546875 -0.203125 1.265625l0 7.734375l-2.140625 0l0 -7.734375q0 -1.46875 -0.59375 -2.1875q-0.578125 -0.71875 -1.71875 -0.71875q-0.78125 0 -1.46875 0.421875q-0.671875 0.421875 -1.234375 1.15625l0 9.0625l-2.140625 0zm24.516663 -12.34375q1.09375 0 2.015625 0.375q0.921875 0.359375 1.59375 1.046875q0.671875 0.6875 1.046875 1.703125q0.390625 1.015625 0.390625 2.3125q0 0.5 -0.109375 0.671875q-0.109375 0.15625 -0.40625 0.15625l-8.09375 0q0.03125 1.15625 0.3125 2.015625q0.28125 0.84375 0.78125 1.421875q0.515625 0.5625 1.203125 0.84375q0.703125 0.28125 1.5625 0.28125q0.8125 0 1.390625 -0.1875q0.578125 -0.1875 1.0 -0.390625q0.421875 -0.21875 0.703125 -0.40625q0.28125 -0.1875 0.484375 -0.1875q0.265625 0 0.40625 0.203125l0.609375 0.78125q-0.40625 0.484375 -0.953125 0.84375q-0.546875 0.34375 -1.1875 0.578125q-0.625 0.21875 -1.296875 0.328125q-0.671875 0.125 -1.328125 0.125q-1.265625 0 -2.328125 -0.421875q-1.0625 -0.4375 -1.84375 -1.25q-0.765625 -0.828125 -1.203125 -2.03125q-0.421875 -1.21875 -0.421875 -2.796875q0 -1.265625 0.390625 -2.359375q0.390625 -1.109375 1.109375 -1.921875q0.734375 -0.8125 1.796875 -1.265625q1.0625 -0.46875 2.375 -0.46875zm0.046875 1.5625q-1.546875 0 -2.4375 0.90625q-0.890625 0.890625 -1.09375 2.46875l6.609375 0q0 -0.734375 -0.203125 -1.359375q-0.203125 -0.625 -0.609375 -1.0625q-0.390625 -0.453125 -0.96875 -0.703125q-0.5625 -0.25 -1.296875 -0.25zm14.685486 0.625q-0.15625 0.265625 -0.453125 0.265625q-0.171875 0 -0.40625 -0.125q-0.234375 -0.140625 -0.5625 -0.296875q-0.328125 -0.15625 -0.78125 -0.296875q-0.453125 -0.140625 -1.078125 -0.140625q-0.546875 0 -0.984375 0.140625q-0.421875 0.140625 -0.734375 0.375q-0.296875 0.234375 -0.46875 0.5625q-0.15625 0.3125 -0.15625 0.6875q0 0.46875 0.265625 0.78125q0.28125 0.3125 0.71875 0.546875q0.453125 0.21875 1.015625 0.390625q0.5625 0.171875 1.15625 0.375q0.59375 0.1875 1.15625 0.4375q0.5625 0.234375 1.0 0.59375q0.453125 0.359375 0.71875 0.890625q0.265625 0.515625 0.265625 1.25q0 0.84375 -0.296875 1.5625q-0.296875 0.703125 -0.890625 1.234375q-0.578125 0.515625 -1.4375 0.8125q-0.84375 0.296875 -1.96875 0.296875q-1.265625 0 -2.296875 -0.40625q-1.03125 -0.421875 -1.75 -1.0625l0.5 -0.8125q0.09375 -0.15625 0.21875 -0.234375q0.140625 -0.09375 0.359375 -0.09375q0.21875 0 0.453125 0.171875q0.234375 0.15625 0.578125 0.359375q0.34375 0.203125 0.828125 0.375q0.484375 0.171875 1.21875 0.171875q0.625 0 1.09375 -0.15625q0.46875 -0.171875 0.78125 -0.4375q0.3125 -0.28125 0.453125 -0.640625q0.15625 -0.359375 0.15625 -0.765625q0 -0.515625 -0.265625 -0.84375q-0.265625 -0.328125 -0.71875 -0.5625q-0.4375 -0.234375 -1.015625 -0.40625q-0.5625 -0.171875 -1.15625 -0.359375q-0.59375 -0.203125 -1.171875 -0.4375q-0.5625 -0.25 -1.015625 -0.625q-0.4375 -0.375 -0.71875 -0.921875q-0.265625 -0.546875 -0.265625 -1.3125q0 -0.703125 0.28125 -1.34375q0.296875 -0.640625 0.84375 -1.125q0.5625 -0.484375 1.359375 -0.765625q0.8125 -0.296875 1.84375 -0.296875q1.203125 0 2.15625 0.375q0.953125 0.375 1.640625 1.03125l-0.46875 0.78125zm11.766846 10.34375q-1.4375 0 -2.21875 -0.796875q-0.765625 -0.8125 -0.765625 -2.3125l0 -7.453125l-1.46875 0q-0.1875 0 -0.328125 -0.109375q-0.125 -0.109375 -0.125 -0.359375l0 -0.84375l1.984375 -0.25l0.5 -3.765625q0.015625 -0.171875 0.140625 -0.28125q0.140625 -0.125 0.34375 -0.125l1.078125 0l0 4.1875l3.484375 0l0 1.546875l-3.484375 0l0 7.296875q0 0.78125 0.375 1.15625q0.375 0.359375 0.96875 0.359375q0.328125 0 0.578125 -0.078125q0.25 -0.09375 0.421875 -0.203125q0.1875 -0.109375 0.3125 -0.203125q0.125 -0.09375 0.21875 -0.09375q0.171875 0 0.296875 0.203125l0.625 1.03125q-0.546875 0.515625 -1.328125 0.8125q-0.78125 0.28125 -1.609375 0.28125zm5.2645264 -0.1875l0 -17.671875l2.140625 0l0 7.140625q0.78125 -0.828125 1.71875 -1.3125q0.953125 -0.5 2.1875 -0.5q1.0 0 1.75 0.328125q0.765625 0.328125 1.28125 0.9375q0.515625 0.609375 0.78125 1.46875q0.265625 0.84375 0.265625 1.875l0 7.734375l-2.140625 0l0 -7.734375q0 -1.390625 -0.640625 -2.140625q-0.625 -0.765625 -1.921875 -0.765625q-0.9375 0 -1.765625 0.453125q-0.828125 0.453125 -1.515625 1.234375l0 8.953125l-2.140625 0zm18.156616 -12.34375q1.09375 0 2.015625 0.375q0.921875 0.359375 1.59375 1.046875q0.671875 0.6875 1.046875 1.703125q0.390625 1.015625 0.390625 2.3125q0 0.5 -0.109375 0.671875q-0.109375 0.15625 -0.40625 0.15625l-8.09375 0q0.03125 1.15625 0.3125 2.015625q0.28125 0.84375 0.78125 1.421875q0.515625 0.5625 1.203125 0.84375q0.703125 0.28125 1.5625 0.28125q0.8125 0 1.390625 -0.1875q0.578125 -0.1875 1.0 -0.390625q0.421875 -0.21875 0.703125 -0.40625q0.28125 -0.1875 0.484375 -0.1875q0.265625 0 0.40625 0.203125l0.609375 0.78125q-0.40625 0.484375 -0.953125 0.84375q-0.546875 0.34375 -1.1875 0.578125q-0.625 0.21875 -1.296875 0.328125q-0.671875 0.125 -1.328125 0.125q-1.265625 0 -2.328125 -0.421875q-1.0625 -0.4375 -1.84375 -1.25q-0.765625 -0.828125 -1.203125 -2.03125q-0.421875 -1.21875 -0.421875 -2.796875q0 -1.265625 0.390625 -2.359375q0.390625 -1.109375 1.109375 -1.921875q0.734375 -0.8125 1.796875 -1.265625q1.0625 -0.46875 2.375 -0.46875zm0.046875 1.5625q-1.546875 0 -2.4375 0.90625q-0.890625 0.890625 -1.09375 2.46875l6.609375 0q0 -0.734375 -0.203125 -1.359375q-0.203125 -0.625 -0.609375 -1.0625q-0.390625 -0.453125 -0.96875 -0.703125q-0.5625 -0.25 -1.296875 -0.25zm15.442505 10.78125l-2.328125 0l0 -17.203125l2.328125 0l0 17.203125zm20.586792 -8.59375q0 1.21875 -0.25 2.3125q-0.25 1.078125 -0.71875 2.03125q-0.46875 0.9375 -1.140625 1.703125q-0.671875 0.765625 -1.5 1.328125l4.40625 4.765625l-1.921875 0q-0.421875 0 -0.765625 -0.125q-0.328125 -0.109375 -0.609375 -0.40625l-3.015625 -3.296875q-0.6875 0.21875 -1.4375 0.34375q-0.734375 0.125 -1.53125 0.125q-1.890625 0 -3.453125 -0.640625q-1.5625 -0.65625 -2.6875 -1.8125q-1.109375 -1.171875 -1.71875 -2.78125q-0.609375 -1.609375 -0.609375 -3.546875q0 -1.9375 0.609375 -3.546875q0.609375 -1.609375 1.71875 -2.78125q1.125 -1.171875 2.6875 -1.8125q1.5625 -0.65625 3.453125 -0.65625q1.890625 0 3.453125 0.65625q1.578125 0.640625 2.6875 1.8125q1.125 1.171875 1.734375 2.78125q0.609375 1.609375 0.609375 3.546875zm-2.390625 0q0 -1.578125 -0.4375 -2.84375q-0.421875 -1.265625 -1.21875 -2.125q-0.796875 -0.875 -1.921875 -1.34375q-1.125 -0.46875 -2.515625 -0.46875q-1.375 0 -2.515625 0.46875q-1.125 0.46875 -1.921875 1.34375q-0.796875 0.859375 -1.234375 2.125q-0.421875 1.265625 -0.421875 2.84375q0 1.578125 0.421875 2.84375q0.4375 1.25 1.234375 2.125q0.796875 0.859375 1.921875 1.328125q1.140625 0.453125 2.515625 0.453125q1.390625 0 2.515625 -0.453125q1.125 -0.46875 1.921875 -1.328125q0.796875 -0.875 1.21875 -2.125q0.4375 -1.265625 0.4375 -2.84375zm8.12085 1.421875l0 7.171875l-2.3125 0l0 -17.203125l4.859375 0q1.625 0 2.8125 0.34375q1.203125 0.328125 1.96875 0.953125q0.78125 0.625 1.140625 1.5q0.375 0.875 0.375 1.96875q0 0.921875 -0.296875 1.71875q-0.28125 0.78125 -0.828125 1.421875q-0.546875 0.625 -1.328125 1.078125q-0.78125 0.4375 -1.78125 0.65625q0.4375 0.25 0.765625 0.734375l5.015625 6.828125l-2.0625 0q-0.625 0 -0.9375 -0.484375l-4.453125 -6.15625q-0.203125 -0.28125 -0.453125 -0.40625q-0.234375 -0.125 -0.71875 -0.125l-1.765625 0zm0 -1.703125l2.4375 0q1.015625 0 1.78125 -0.234375q0.78125 -0.25 1.296875 -0.703125q0.53125 -0.453125 0.796875 -1.078125q0.265625 -0.625 0.265625 -1.375q0 -1.53125 -1.015625 -2.3125q-1.015625 -0.78125 -3.015625 -0.78125l-2.546875 0l0 6.484375z" fill-rule="nonzero"/><path fill="#595959" d="m487.56152 114.03423l-0.953125 0q-0.3125 0 -0.515625 -0.09375q-0.1875 -0.09375 -0.25 -0.40625l-0.234375 -1.125q-0.484375 0.421875 -0.9375 0.765625q-0.453125 0.34375 -0.953125 0.578125q-0.5 0.234375 -1.078125 0.34375q-0.5625 0.125 -1.265625 0.125q-0.703125 0 -1.328125 -0.1875q-0.609375 -0.203125 -1.078125 -0.59375q-0.453125 -0.40625 -0.71875 -1.0q-0.265625 -0.609375 -0.265625 -1.4375q0 -0.71875 0.390625 -1.390625q0.390625 -0.671875 1.265625 -1.1875q0.890625 -0.515625 2.3125 -0.84375q1.4375 -0.328125 3.5 -0.375l0 -0.953125q0 -1.40625 -0.609375 -2.125q-0.59375 -0.734375 -1.78125 -0.734375q-0.78125 0 -1.328125 0.203125q-0.53125 0.1875 -0.921875 0.4375q-0.390625 0.25 -0.671875 0.453125q-0.28125 0.1875 -0.546875 0.1875q-0.21875 0 -0.390625 -0.109375q-0.15625 -0.125 -0.25 -0.28125l-0.390625 -0.6875q1.015625 -0.96875 2.171875 -1.453125q1.171875 -0.484375 2.578125 -0.484375q1.03125 0 1.8125 0.34375q0.796875 0.328125 1.328125 0.9375q0.546875 0.59375 0.828125 1.453125q0.28125 0.84375 0.28125 1.859375l0 7.78125zm-5.546875 -1.3125q0.5625 0 1.03125 -0.109375q0.46875 -0.109375 0.875 -0.3125q0.421875 -0.21875 0.796875 -0.515625q0.375 -0.3125 0.734375 -0.6875l0 -2.53125q-1.46875 0.046875 -2.5 0.234375q-1.03125 0.1875 -1.6875 0.484375q-0.640625 0.296875 -0.9375 0.703125q-0.296875 0.40625 -0.296875 0.921875q0 0.46875 0.15625 0.828125q0.15625 0.34375 0.421875 0.5625q0.265625 0.21875 0.625 0.328125q0.359375 0.09375 0.78125 0.09375zm8.855591 1.3125l0 -17.671875l2.140625 0l0 7.265625q0.765625 -0.875 1.734375 -1.40625q0.984375 -0.53125 2.234375 -0.53125q1.0625 0 1.90625 0.390625q0.859375 0.390625 1.453125 1.1875q0.609375 0.78125 0.921875 1.9375q0.328125 1.15625 0.328125 2.671875q0 1.34375 -0.359375 2.5q-0.359375 1.15625 -1.046875 2.015625q-0.671875 0.84375 -1.65625 1.328125q-0.96875 0.484375 -2.1875 0.484375q-1.171875 0 -2.0 -0.453125q-0.828125 -0.46875 -1.4375 -1.28125l-0.109375 1.109375q-0.09375 0.453125 -0.546875 0.453125l-1.375 0zm5.421875 -10.640625q-1.046875 0 -1.84375 0.484375q-0.78125 0.46875 -1.4375 1.34375l0 5.890625q0.578125 0.78125 1.28125 1.109375q0.703125 0.328125 1.5625 0.328125q1.703125 0 2.609375 -1.203125q0.921875 -1.21875 0.921875 -3.46875q0 -1.1875 -0.21875 -2.03125q-0.203125 -0.859375 -0.609375 -1.40625q-0.390625 -0.546875 -0.96875 -0.796875q-0.5625 -0.25 -1.296875 -0.25zm12.837952 -1.703125q1.328125 0 2.40625 0.453125q1.078125 0.4375 1.828125 1.25q0.75 0.8125 1.140625 1.96875q0.40625 1.15625 0.40625 2.59375q0 1.4375 -0.40625 2.59375q-0.390625 1.140625 -1.140625 1.96875q-0.75 0.8125 -1.828125 1.25q-1.078125 0.4375 -2.40625 0.4375q-1.328125 0 -2.40625 -0.4375q-1.078125 -0.4375 -1.828125 -1.25q-0.75 -0.828125 -1.171875 -1.96875q-0.40625 -1.15625 -0.40625 -2.59375q0 -1.4375 0.40625 -2.59375q0.421875 -1.15625 1.171875 -1.96875q0.75 -0.8125 1.828125 -1.25q1.078125 -0.453125 2.40625 -0.453125zm0 10.84375q1.796875 0 2.6875 -1.203125q0.890625 -1.203125 0.890625 -3.375q0 -2.171875 -0.890625 -3.375q-0.890625 -1.21875 -2.6875 -1.21875q-0.90625 0 -1.578125 0.3125q-0.671875 0.3125 -1.125 0.90625q-0.453125 0.578125 -0.671875 1.4375q-0.21875 0.859375 -0.21875 1.9375q0 1.09375 0.21875 1.953125q0.21875 0.84375 0.671875 1.421875q0.453125 0.578125 1.125 0.890625q0.671875 0.3125 1.578125 0.3125zm6.5789795 -10.65625l1.75 0q0.25 0 0.421875 0.140625q0.171875 0.125 0.234375 0.296875l3.09375 7.828125q0.15625 0.4375 0.25 0.875q0.109375 0.421875 0.1875 0.84375q0.09375 -0.421875 0.203125 -0.84375q0.109375 -0.4375 0.28125 -0.875l3.109375 -7.828125q0.078125 -0.1875 0.234375 -0.3125q0.171875 -0.125 0.40625 -0.125l1.671875 0l-4.953125 12.15625l-1.9375 0l-4.953125 -12.15625zm18.319824 -0.1875q1.09375 0 2.015625 0.375q0.921875 0.359375 1.59375 1.046875q0.671875 0.6875 1.046875 1.703125q0.390625 1.015625 0.390625 2.3125q0 0.5 -0.109375 0.671875q-0.109375 0.15625 -0.40625 0.15625l-8.09375 0q0.03125 1.15625 0.3125 2.015625q0.28125 0.84375 0.78125 1.421875q0.515625 0.5625 1.203125 0.84375q0.703125 0.28125 1.5625 0.28125q0.8125 0 1.390625 -0.1875q0.578125 -0.1875 1.0 -0.390625q0.421875 -0.21875 0.703125 -0.40625q0.28125 -0.1875 0.484375 -0.1875q0.265625 0 0.40625 0.203125l0.609375 0.78125q-0.40625 0.484375 -0.953125 0.84375q-0.546875 0.34375 -1.1875 0.578125q-0.625 0.21875 -1.296875 0.328125q-0.671875 0.125 -1.328125 0.125q-1.265625 0 -2.328125 -0.421875q-1.0625 -0.4375 -1.84375 -1.25q-0.765625 -0.828125 -1.203125 -2.03125q-0.421875 -1.21875 -0.421875 -2.796875q0 -1.265625 0.390625 -2.359375q0.390625 -1.109375 1.109375 -1.921875q0.734375 -0.8125 1.796875 -1.265625q1.0625 -0.46875 2.375 -0.46875zm0.046875 1.5625q-1.546875 0 -2.4375 0.90625q-0.890625 0.890625 -1.09375 2.46875l6.609375 0q0 -0.734375 -0.203125 -1.359375q-0.203125 -0.625 -0.609375 -1.0625q-0.390625 -0.453125 -0.96875 -0.703125q-0.5625 -0.25 -1.296875 -0.25zm28.661255 2.1875q0 1.21875 -0.25 2.3125q-0.25 1.078125 -0.71875 2.03125q-0.46875 0.9375 -1.140625 1.703125q-0.671875 0.765625 -1.5 1.328125l4.40625 4.765625l-1.921875 0q-0.421875 0 -0.765625 -0.125q-0.328125 -0.109375 -0.609375 -0.40625l-3.015625 -3.296875q-0.6875 0.21875 -1.4375 0.34375q-0.734375 0.125 -1.53125 0.125q-1.890625 0 -3.453125 -0.640625q-1.5625 -0.65625 -2.6875 -1.8125q-1.109375 -1.171875 -1.71875 -2.78125q-0.609375 -1.609375 -0.609375 -3.546875q0 -1.9375 0.609375 -3.546875q0.609375 -1.609375 1.71875 -2.78125q1.125 -1.171875 2.6875 -1.8125q1.5625 -0.65625 3.453125 -0.65625q1.890625 0 3.453125 0.65625q1.578125 0.640625 2.6875 1.8125q1.125 1.171875 1.734375 2.78125q0.609375 1.609375 0.609375 3.546875zm-2.390625 0q0 -1.578125 -0.4375 -2.84375q-0.421875 -1.265625 -1.21875 -2.125q-0.796875 -0.875 -1.921875 -1.34375q-1.125 -0.46875 -2.515625 -0.46875q-1.375 0 -2.515625 0.46875q-1.125 0.46875 -1.921875 1.34375q-0.796875 0.859375 -1.234375 2.125q-0.421875 1.265625 -0.421875 2.84375q0 1.578125 0.421875 2.84375q0.4375 1.25 1.234375 2.125q0.796875 0.859375 1.921875 1.328125q1.140625 0.453125 2.515625 0.453125q1.390625 0 2.515625 -0.453125q1.125 -0.46875 1.921875 -1.328125q0.796875 -0.875 1.21875 -2.125q0.4375 -1.265625 0.4375 -2.84375zm10.917786 -8.796875q1.09375 0 2.015625 0.3125q0.921875 0.3125 1.59375 0.890625q0.671875 0.578125 1.03125 1.390625q0.375 0.8125 0.375 1.8125q0 0.8125 -0.21875 1.453125q-0.203125 0.640625 -0.59375 1.140625q-0.390625 0.484375 -0.9375 0.828125q-0.546875 0.328125 -1.234375 0.53125q1.671875 0.4375 2.515625 1.484375q0.859375 1.046875 0.859375 2.609375q0 1.1875 -0.453125 2.140625q-0.453125 0.953125 -1.234375 1.625q-0.78125 0.65625 -1.828125 1.015625q-1.03125 0.34375 -2.21875 0.34375q-1.359375 0 -2.34375 -0.328125q-0.96875 -0.34375 -1.640625 -0.9375q-0.671875 -0.609375 -1.109375 -1.4375q-0.421875 -0.828125 -0.71875 -1.78125l0.90625 -0.390625q0.25 -0.09375 0.515625 -0.09375q0.234375 0 0.421875 0.109375q0.1875 0.09375 0.28125 0.296875q0.015625 0.0625 0.03125 0.109375q0.03125 0.046875 0.0625 0.109375q0.171875 0.359375 0.40625 0.796875q0.234375 0.4375 0.640625 0.828125q0.421875 0.375 1.015625 0.640625q0.609375 0.265625 1.515625 0.265625q0.890625 0 1.5625 -0.296875q0.6875 -0.296875 1.140625 -0.765625q0.453125 -0.46875 0.671875 -1.046875q0.234375 -0.578125 0.234375 -1.140625q0 -0.6875 -0.1875 -1.265625q-0.1875 -0.578125 -0.671875 -1.0q-0.484375 -0.421875 -1.34375 -0.65625q-0.859375 -0.25 -2.203125 -0.25l0 -1.546875q1.09375 0 1.859375 -0.234375q0.78125 -0.234375 1.265625 -0.625q0.5 -0.390625 0.71875 -0.9375q0.234375 -0.5625 0.234375 -1.234375q0 -0.75 -0.234375 -1.296875q-0.234375 -0.546875 -0.65625 -0.90625q-0.40625 -0.359375 -0.96875 -0.53125q-0.546875 -0.1875 -1.203125 -0.1875q-0.640625 0 -1.203125 0.1875q-0.546875 0.1875 -0.96875 0.53125q-0.421875 0.34375 -0.71875 0.828125q-0.28125 0.46875 -0.421875 1.015625q-0.09375 0.34375 -0.296875 0.5q-0.1875 0.15625 -0.484375 0.15625q-0.0625 0 -0.125 0q-0.0625 -0.015625 -0.15625 -0.015625l-1.109375 -0.203125q0.15625 -1.171875 0.640625 -2.078125q0.484375 -0.90625 1.21875 -1.515625q0.734375 -0.609375 1.6875 -0.921875q0.96875 -0.328125 2.0625 -0.328125z" fill-rule="nonzero"/><path fill="#000000" fill-opacity="0.0" d="m73.1706 -2.8661418l148.18896 0l0 41.007874l-148.18896 0z" fill-rule="evenodd"/><path fill="#595959" d="m92.717476 22.955109q0.171875 0.296875 0.296875 0.609375q0.125 0.3125 0.25 0.640625q0.109375 -0.328125 0.234375 -0.640625q0.140625 -0.3125 0.3125 -0.625l5.8125 -10.562499q0.15625 -0.28125 0.328125 -0.34375q0.171875 -0.0625 0.484375 -0.0625l1.71875 0l0 17.203125l-2.046875 0l0 -12.640625q0 -0.25 0.015625 -0.53125q0.015625 -0.29687405 0.03125 -0.59374905l-5.890625 10.749999q-0.296875 0.546875 -0.84375 0.546875l-0.328125 0q-0.546875 0 -0.84375 -0.546875l-6.015625 -10.781249q0.03125 0.3125 0.046875 0.609375q0.015625 0.29687405 0.015625 0.54687405l0 12.640625l-2.03125 0l0 -17.203125l1.703125 0q0.3125 0 0.484375 0.0625q0.171875 0.0625 0.328125 0.34375l5.9375 10.578124l0 0zm22.22078 6.21875l-0.953125 0q-0.3125 0 -0.515625 -0.09375q-0.1875 -0.09375 -0.25 -0.40625l-0.234375 -1.125q-0.484375 0.421875 -0.9375 0.765625q-0.453125 0.34375 -0.953125 0.578125q-0.5 0.234375 -1.078125 0.34375q-0.5625 0.125 -1.265625 0.125q-0.703125 0 -1.328125 -0.1875q-0.609375 -0.203125 -1.078125 -0.59375q-0.453125 -0.40625 -0.71875 -1.0q-0.265625 -0.609375 -0.265625 -1.4375q0 -0.71875 0.390625 -1.390625q0.390625 -0.671875 1.265625 -1.1875q0.890625 -0.515625 2.3125 -0.84375q1.4375 -0.328125 3.5 -0.375l0 -0.953125q0 -1.40625 -0.609375 -2.125q-0.59375 -0.734375 -1.78125 -0.734375q-0.78125 0 -1.328125 0.203125q-0.53125 0.1875 -0.921875 0.4375q-0.390625 0.25 -0.671875 0.453125q-0.28125 0.1875 -0.546875 0.1875q-0.21875 0 -0.390625 -0.109375q-0.15625 -0.125 -0.25 -0.28125l-0.390625 -0.6875q1.015625 -0.96875 2.171875 -1.453125q1.171875 -0.484375 2.578125 -0.484375q1.03125 0 1.8125 0.34375q0.796875 0.328125 1.328125 0.9375q0.546875 0.59375 0.828125 1.453125q0.28125 0.84375 0.28125 1.859375l0 7.78125zm-5.546875 -1.3125q0.5625 0 1.03125 -0.109375q0.46875 -0.109375 0.875 -0.3125q0.421875 -0.21875 0.796875 -0.515625q0.375 -0.3125 0.734375 -0.6875l0 -2.53125q-1.46875 0.046875 -2.5 0.234375q-1.03125 0.1875 -1.6875 0.484375q-0.640625 0.296875 -0.9375 0.703125q-0.296875 0.40625 -0.296875 0.921875q0 0.46875 0.15625 0.828125q0.15625 0.34375 0.421875 0.5625q0.265625 0.21875 0.625 0.328125q0.359375 0.09375 0.78125 0.09375zm11.621216 -4.921875l-4.09375 -5.921875l2.0625 0q0.25 0 0.375 0.09375q0.125 0.078125 0.21875 0.234375l2.96875 4.5625q0.109375 -0.34375 0.3125 -0.671875l2.625 -3.84375q0.125 -0.171875 0.234375 -0.265625q0.125 -0.109375 0.296875 -0.109375l1.96875 0l-4.09375 5.8125l4.2656326 6.34375l-2.0468826 0q-0.265625 0 -0.421875 -0.140625q-0.140625 -0.140625 -0.234375 -0.296875l-3.0625 -4.765625q-0.09375 0.34375 -0.25 0.625l-2.84375 4.140625q-0.109375 0.15625 -0.25 0.296875q-0.140625 0.140625 -0.375 0.140625l-1.90625 0l4.25 -6.234375zm11.627342 -5.921875l0 12.15625l-2.140625 0l0 -12.15625l2.140625 0zm0.484375 -3.812499q0 0.3125 -0.125 0.578125q-0.125 0.265625 -0.34375 0.484375q-0.203125 0.203125 -0.484375 0.328125q-0.265625 0.125 -0.578125 0.125q-0.3125 0 -0.59375 -0.125q-0.265625 -0.125 -0.484375 -0.328125q-0.203125 -0.21875 -0.328125 -0.484375q-0.109375 -0.265625 -0.109375 -0.578125q0 -0.3125 0.109375 -0.59375q0.125 -0.28125 0.328125 -0.484375q0.21875 -0.21875 0.484375 -0.34375q0.28125 -0.125 0.59375 -0.125q0.3125 0 0.578125 0.125q0.28125 0.125 0.484375 0.34375q0.21875 0.203125 0.34375 0.484375q0.125 0.28125 0.125 0.59375zm3.284668 15.968749l0 -12.15625l1.28125 0q0.453125 0 0.5625 0.4375l0.15625 1.25q0.671875 -0.828125 1.5 -1.34375q0.84375 -0.53125 1.953125 -0.53125q1.234375 0 1.984375 0.6875q0.765625 0.671875 1.109375 1.84375q0.25 -0.65625 0.65625 -1.140625q0.421875 -0.484375 0.9375 -0.796875q0.515625 -0.3125 1.09375 -0.453125q0.59375 -0.140625 1.1875 -0.140625q0.953125 0 1.703125 0.3125q0.75 0.296875 1.265625 0.890625q0.53125 0.578125 0.8125 1.4375q0.28125 0.859375 0.28125 1.96875l0 7.734375l-2.140625 0l0 -7.734375q0 -1.4375 -0.625 -2.171875q-0.625 -0.734375 -1.8125 -0.734375q-0.53125 0 -1.0 0.1875q-0.46875 0.1875 -0.84375 0.546875q-0.359375 0.359375 -0.5625 0.90625q-0.203125 0.546875 -0.203125 1.265625l0 7.734375l-2.140625 0l0 -7.734375q0 -1.46875 -0.59375 -2.1875q-0.578125 -0.71875 -1.71875 -0.71875q-0.78125 0 -1.46875 0.421875q-0.671875 0.421875 -1.234375 1.15625l0 9.0625l-2.140625 0zm21.547882 -12.15625l0 7.75q0 1.375 0.640625 2.140625q0.640625 0.75 1.921875 0.75q0.9375 0 1.765625 -0.4375q0.828125 -0.453125 1.515625 -1.234375l0 -8.96875l2.140625 0l0 12.15625l-1.265625 0q-0.453125 0 -0.578125 -0.4375l-0.171875 -1.3125q-0.796875 0.875 -1.78125 1.40625q-0.984375 0.53125 -2.25 0.53125q-1.0 0 -1.765625 -0.328125q-0.75 -0.328125 -1.265625 -0.921875q-0.515625 -0.609375 -0.78125 -1.453125q-0.25 -0.859375 -0.25 -1.890625l0 -7.75l2.125 0zm11.500351 12.15625l0 -12.15625l1.28125 0q0.453125 0 0.5625 0.4375l0.15625 1.25q0.671875 -0.828125 1.5 -1.34375q0.84375 -0.53125 1.953125 -0.53125q1.234375 0 1.984375 0.6875q0.765625 0.671875 1.109375 1.84375q0.25 -0.65625 0.65625 -1.140625q0.421875 -0.484375 0.9375 -0.796875q0.515625 -0.3125 1.09375 -0.453125q0.59375 -0.140625 1.1875 -0.140625q0.953125 0 1.703125 0.3125q0.75 0.296875 1.265625 0.890625q0.53125 0.578125 0.8125 1.4375q0.28125 0.859375 0.28125 1.96875l0 7.734375l-2.140625 0l0 -7.734375q0 -1.4375 -0.625 -2.171875q-0.625 -0.734375 -1.8125 -0.734375q-0.53125 0 -1.0 0.1875q-0.46875 0.1875 -0.84375 0.546875q-0.359375 0.359375 -0.5625 0.90625q-0.203125 0.546875 -0.203125 1.265625l0 7.734375l-2.140625 0l0 -7.734375q0 -1.46875 -0.59375 -2.1875q-0.578125 -0.71875 -1.71875 -0.71875q-0.78125 0 -1.46875 0.421875q-0.671875 0.421875 -1.234375 1.15625l0 9.0625l-2.140625 0z" fill-rule="nonzero"/><path fill="#000000" fill-opacity="0.0" d="m221.35957 17.637794l118.42522 0" fill-rule="evenodd"/><path stroke="#6a7fdb" stroke-width="1.0" stroke-linejoin="round" stroke-linecap="butt" d="m221.35957 17.637794l112.42522 0" fill-rule="evenodd"/><path fill="#6a7fdb" stroke="#6a7fdb" stroke-width="1.0" stroke-linecap="butt" d="m333.7848 19.289528l4.538086 -1.6517334l-4.538086 -1.6517315z" fill-rule="evenodd"/><path fill="#000000" fill-opacity="0.0" d="m206.6588 155.07611l46.677155 0" fill-rule="evenodd"/><path stroke="#6a7fdb" stroke-width="1.0" stroke-linejoin="round" stroke-linecap="butt" d="m206.6588 155.07611l40.677155 0" fill-rule="evenodd"/><path fill="#6a7fdb" stroke="#6a7fdb" stroke-width="1.0" stroke-linecap="butt" d="m247.33595 156.72784l4.538101 -1.6517334l-4.538101 -1.6517334z" fill-rule="evenodd"/><path fill="#000000" fill-opacity="0.0" d="m140.46194 276.38058l69.291336 0l0 41.007874l-69.291336 0z" fill-rule="evenodd"/><path fill="#595959" d="m167.52444 299.82684q0 1.21875 -0.25 2.3125q-0.25 1.078125 -0.71875 2.03125q-0.46875 0.9375 -1.140625 1.703125q-0.671875 0.765625 -1.5 1.328125l4.40625 4.765625l-1.921875 0q-0.421875 0 -0.765625 -0.125q-0.328125 -0.109375 -0.609375 -0.40625l-3.015625 -3.296875q-0.6875 0.21875 -1.4375 0.34375q-0.734375 0.125 -1.53125 0.125q-1.890625 0 -3.453125 -0.640625q-1.5625 -0.65625 -2.6875 -1.8125q-1.109375 -1.171875 -1.71875 -2.78125q-0.609375 -1.609375 -0.609375 -3.546875q0 -1.9375 0.609375 -3.546875q0.609375 -1.609375 1.71875 -2.78125q1.125 -1.171875 2.6875 -1.8125q1.5625 -0.65625 3.453125 -0.65625q1.890625 0 3.453125 0.65625q1.578125 0.640625 2.6875 1.8125q1.125 1.171875 1.734375 2.78125q0.609375 1.609375 0.609375 3.546875zm-2.390625 0q0 -1.578125 -0.4375 -2.84375q-0.421875 -1.265625 -1.21875 -2.125q-0.796875 -0.875 -1.921875 -1.34375q-1.125 -0.46875 -2.515625 -0.46875q-1.375 0 -2.515625 0.46875q-1.125 0.46875 -1.921875 1.34375q-0.796875 0.859375 -1.234375 2.125q-0.421875 1.265625 -0.421875 2.84375q0 1.578125 0.421875 2.84375q0.4375 1.25 1.234375 2.125q0.796875 0.859375 1.921875 1.328125q1.140625 0.453125 2.515625 0.453125q1.390625 0 2.515625 -0.453125q1.125 -0.46875 1.921875 -1.328125q0.796875 -0.875 1.21875 -2.125q0.4375 -1.265625 0.4375 -2.84375zm6.917755 6.96875l3.703125 0l0 -11.734375q0 -0.53125 0.03125 -1.0625l-3.0625 2.625q-0.125 0.09375 -0.25 0.140625q-0.109375 0.046875 -0.21875 0.046875q-0.1875 0 -0.328125 -0.078125q-0.140625 -0.078125 -0.21875 -0.1875l-0.671875 -0.921875l5.109375 -4.4375l1.75 0l0 15.609375l3.375 0l0 1.625l-9.21875 0l0 -1.625z" fill-rule="nonzero"/><path fill="#000000" fill-opacity="0.0" d="m209.75328 296.88452l46.67717 0" fill-rule="evenodd"/><path stroke="#6a7fdb" stroke-width="1.0" stroke-linejoin="round" stroke-linecap="butt" d="m209.75328 296.88452l40.67717 0" fill-rule="evenodd"/><path fill="#6a7fdb" stroke="#6a7fdb" stroke-width="1.0" stroke-linecap="butt" d="m250.43045 298.53625l4.538086 -1.6517334l-4.538086 -1.6517334z" fill-rule="evenodd"/><path fill="#000000" fill-opacity="0.0" d="m73.178474 487.47507l148.18896 0l0 41.007843l-148.18896 0z" fill-rule="evenodd"/><path fill="#595959" d="m92.72535 513.2963q0.171875 0.296875 0.296875 0.609375q0.125 0.3125 0.25 0.640625q0.109375 -0.328125 0.234375 -0.640625q0.140625 -0.3125 0.3125 -0.625l5.8125 -10.5625q0.15625 -0.28125 0.328125 -0.34375q0.171875 -0.0625 0.484375 -0.0625l1.71875 0l0 17.203125l-2.046875 0l0 -12.640625q0 -0.25 0.015625 -0.53125q0.015625 -0.296875 0.03125 -0.59375l-5.890625 10.75q-0.296875 0.546875 -0.84375 0.546875l-0.328125 0q-0.546875 0 -0.84375 -0.546875l-6.015625 -10.78125q0.03125 0.3125 0.046875 0.609375q0.015625 0.296875 0.015625 0.546875l0 12.640625l-2.03125 0l0 -17.203125l1.703125 0q0.3125 0 0.484375 0.0625q0.171875 0.0625 0.328125 0.34375l5.9375 10.578125l0 0zm15.658279 -5.9375l0 12.15625l-2.140625 0l0 -12.15625l2.140625 0zm0.484375 -3.8125q0 0.3125 -0.125 0.578125q-0.125 0.265625 -0.34375 0.484375q-0.203125 0.203125 -0.484375 0.328125q-0.265625 0.125 -0.578125 0.125q-0.3125 0 -0.59375 -0.125q-0.265625 -0.125 -0.484375 -0.328125q-0.203125 -0.21875 -0.328125 -0.484375q-0.109375 -0.265625 -0.109375 -0.578125q0 -0.3125 0.109375 -0.59375q0.125 -0.28125 0.328125 -0.484375q0.21875 -0.21875 0.484375 -0.34375q0.28125 -0.125 0.59375 -0.125q0.3125 0 0.578125 0.125q0.28125 0.125 0.484375 0.34375q0.21875 0.203125 0.34375 0.484375q0.125 0.28125 0.125 0.59375zm3.284668 15.96875l0 -12.15625l1.28125 0q0.453125 0 0.5625 0.4375l0.171875 1.328125q0.796875 -0.875 1.765625 -1.40625q0.984375 -0.546875 2.265625 -0.546875q1.0 0 1.75 0.328125q0.765625 0.328125 1.28125 0.9375q0.515625 0.609375 0.78125 1.46875q0.265625 0.84375 0.265625 1.875l0 7.734375l-2.140625 0l0 -7.734375q0 -1.390625 -0.640625 -2.140625q-0.625 -0.765625 -1.921875 -0.765625q-0.9375 0 -1.765625 0.453125q-0.828125 0.453125 -1.515625 1.234375l0 8.953125l-2.140625 0zm15.719101 -12.15625l0 12.15625l-2.140625 0l0 -12.15625l2.140625 0zm0.48438263 -3.8125q0 0.3125 -0.125 0.578125q-0.125 0.265625 -0.34375763 0.484375q-0.203125 0.203125 -0.484375 0.328125q-0.265625 0.125 -0.578125 0.125q-0.3125 0 -0.59375 -0.125q-0.265625 -0.125 -0.484375 -0.328125q-0.203125 -0.21875 -0.328125 -0.484375q-0.109375 -0.265625 -0.109375 -0.578125q0 -0.3125 0.109375 -0.59375q0.125 -0.28125 0.328125 -0.484375q0.21875 -0.21875 0.484375 -0.34375q0.28125 -0.125 0.59375 -0.125q0.3125 0 0.578125 0.125q0.28125 0.125 0.484375 0.34375q0.21875763 0.203125 0.34375763 0.484375q0.125 0.28125 0.125 0.59375zm3.284668 15.96875l0 -12.15625l1.28125 0q0.453125 0 0.5625 0.4375l0.15625 1.25q0.671875 -0.828125 1.5 -1.34375q0.84375 -0.53125 1.953125 -0.53125q1.234375 0 1.984375 0.6875q0.765625 0.671875 1.109375 1.84375q0.25 -0.65625 0.65625 -1.140625q0.421875 -0.484375 0.9375 -0.796875q0.515625 -0.3125 1.09375 -0.453125q0.59375 -0.140625 1.1875 -0.140625q0.953125 0 1.703125 0.3125q0.75 0.296875 1.265625 0.890625q0.53125 0.578125 0.8125 1.4375q0.28125 0.859375 0.28125 1.96875l0 7.734375l-2.140625 0l0 -7.734375q0 -1.4375 -0.625 -2.171875q-0.625 -0.734375 -1.8125 -0.734375q-0.53125 0 -1.0 0.1875q-0.46875 0.1875 -0.84375 0.546875q-0.359375 0.359375 -0.5625 0.90625q-0.203125 0.546875 -0.203125 1.265625l0 7.734375l-2.140625 0l0 -7.734375q0 -1.46875 -0.59375 -2.1875q-0.578125 -0.71875 -1.71875 -0.71875q-0.78125 0 -1.46875 0.421875q-0.671875 0.421875 -1.234375 1.15625l0 9.0625l-2.140625 0zm21.547882 -12.15625l0 7.75q0 1.375 0.640625 2.140625q0.640625 0.75 1.921875 0.75q0.9375 0 1.765625 -0.4375q0.828125 -0.453125 1.515625 -1.234375l0 -8.96875l2.140625 0l0 12.15625l-1.265625 0q-0.453125 0 -0.578125 -0.4375l-0.171875 -1.3125q-0.796875 0.875 -1.78125 1.40625q-0.984375 0.53125 -2.25 0.53125q-1.0 0 -1.765625 -0.328125q-0.75 -0.328125 -1.265625 -0.921875q-0.515625 -0.609375 -0.78125 -1.453125q-0.25 -0.859375 -0.25 -1.890625l0 -7.75l2.125 0zm11.500351 12.15625l0 -12.15625l1.28125 0q0.453125 0 0.5625 0.4375l0.15625 1.25q0.671875 -0.828125 1.5 -1.34375q0.84375 -0.53125 1.953125 -0.53125q1.234375 0 1.984375 0.6875q0.765625 0.671875 1.109375 1.84375q0.25 -0.65625 0.65625 -1.140625q0.421875 -0.484375 0.9375 -0.796875q0.515625 -0.3125 1.09375 -0.453125q0.59375 -0.140625 1.1875 -0.140625q0.953125 0 1.703125 0.3125q0.75 0.296875 1.265625 0.890625q0.53125 0.578125 0.8125 1.4375q0.28125 0.859375 0.28125 1.96875l0 7.734375l-2.140625 0l0 -7.734375q0 -1.4375 -0.625 -2.171875q-0.625 -0.734375 -1.8125 -0.734375q-0.53125 0 -1.0 0.1875q-0.46875 0.1875 -0.84375 0.546875q-0.359375 0.359375 -0.5625 0.90625q-0.203125 0.546875 -0.203125 1.265625l0 7.734375l-2.140625 0l0 -7.734375q0 -1.46875 -0.59375 -2.1875q-0.578125 -0.71875 -1.71875 -0.71875q-0.78125 0 -1.46875 0.421875q-0.671875 0.421875 -1.234375 1.15625l0 9.0625l-2.140625 0z" fill-rule="nonzero"/><path fill="#000000" fill-opacity="0.0" d="m221.36745 507.979l118.42522 0" fill-rule="evenodd"/><path stroke="#6a7fdb" stroke-width="1.0" stroke-linejoin="round" stroke-linecap="butt" d="m221.36745 507.979l112.42522 0" fill-rule="evenodd"/><path fill="#6a7fdb" stroke="#6a7fdb" stroke-width="1.0" stroke-linecap="butt" d="m333.79266 509.63074l4.538086 -1.6517334l-4.538086 -1.6517334z" fill-rule="evenodd"/><path fill="#000000" fill-opacity="0.0" d="m467.87402 94.65879l-117.88977 0" fill-rule="evenodd"/><path stroke="#e08dac" stroke-width="1.0" stroke-linejoin="round" stroke-linecap="butt" d="m467.87402 94.65879l-111.88977 0" fill-rule="evenodd"/><path fill="#e08dac" stroke="#e08dac" stroke-width="1.0" stroke-linecap="butt" d="m355.98425 93.00706l-4.538086 1.6517334l4.538086 1.6517334z" fill-rule="evenodd"/><path fill="#000000" fill-opacity="0.0" d="m482.35696 259.3176l-46.992126 0" fill-rule="evenodd"/><path stroke="#e08dac" stroke-width="1.0" stroke-linejoin="round" stroke-linecap="butt" d="m482.35696 259.3176l-40.992126 0" fill-rule="evenodd"/><path fill="#e08dac" stroke="#e08dac" stroke-width="1.0" stroke-linecap="butt" d="m441.36484 257.66586l-4.5381165 1.6517334l4.5381165 1.6517334z" fill-rule="evenodd"/><path fill="#000000" fill-opacity="0.0" d="m468.46457 427.63492l492.126 0l0 82.92914l-492.126 0z" fill-rule="evenodd"/><path fill="#595959" d="m488.01144 453.45618q0.171875 0.296875 0.296875 0.609375q0.125 0.3125 0.25 0.640625q0.109375 -0.328125 0.234375 -0.640625q0.140625 -0.3125 0.3125 -0.625l5.8125 -10.5625q0.15625 -0.28125 0.328125 -0.34375q0.171875 -0.0625 0.484375 -0.0625l1.71875 0l0 17.203125l-2.046875 0l0 -12.640625q0 -0.25 0.015625 -0.53125q0.015625 -0.296875 0.03125 -0.59375l-5.890625 10.75q-0.296875 0.546875 -0.84375 0.546875l-0.328125 0q-0.546875 0 -0.84375 -0.546875l-6.015625 -10.78125q0.03125 0.3125 0.046875 0.609375q0.015625 0.296875 0.015625 0.546875l0 12.640625l-2.03125 0l0 -17.203125l1.703125 0q0.3125 0 0.484375 0.0625q0.171875 0.0625 0.328125 0.34375l5.9375 10.578125l0 0zm15.658264 -5.9375l0 12.15625l-2.140625 0l0 -12.15625l2.140625 0zm0.484375 -3.8125q0 0.3125 -0.125 0.578125q-0.125 0.265625 -0.34375 0.484375q-0.203125 0.203125 -0.484375 0.328125q-0.265625 0.125 -0.578125 0.125q-0.3125 0 -0.59375 -0.125q-0.265625 -0.125 -0.484375 -0.328125q-0.203125 -0.21875 -0.328125 -0.484375q-0.109375 -0.265625 -0.109375 -0.578125q0 -0.3125 0.109375 -0.59375q0.125 -0.28125 0.328125 -0.484375q0.21875 -0.21875 0.484375 -0.34375q0.28125 -0.125 0.59375 -0.125q0.3125 0 0.578125 0.125q0.28125 0.125 0.484375 0.34375q0.21875 0.203125 0.34375 0.484375q0.125 0.28125 0.125 0.59375zm3.284668 15.96875l0 -12.15625l1.28125 0q0.453125 0 0.5625 0.4375l0.171875 1.328125q0.796875 -0.875 1.765625 -1.40625q0.9844055 -0.546875 2.2656555 -0.546875q1.0 0 1.75 0.328125q0.765625 0.328125 1.28125 0.9375q0.515625 0.609375 0.78125 1.46875q0.265625 0.84375 0.265625 1.875l0 7.734375l-2.140625 0l0 -7.734375q0 -1.390625 -0.640625 -2.140625q-0.625 -0.765625 -1.921875 -0.765625q-0.9375305 0 -1.7656555 0.453125q-0.828125 0.453125 -1.515625 1.234375l0 8.953125l-2.140625 0zm15.719086 -12.15625l0 12.15625l-2.140625 0l0 -12.15625l2.140625 0zm0.484375 -3.8125q0 0.3125 -0.125 0.578125q-0.125 0.265625 -0.34375 0.484375q-0.203125 0.203125 -0.484375 0.328125q-0.265625 0.125 -0.578125 0.125q-0.3125 0 -0.59375 -0.125q-0.265625 -0.125 -0.484375 -0.328125q-0.203125 -0.21875 -0.328125 -0.484375q-0.109375 -0.265625 -0.109375 -0.578125q0 -0.3125 0.109375 -0.59375q0.125 -0.28125 0.328125 -0.484375q0.21875 -0.21875 0.484375 -0.34375q0.28125 -0.125 0.59375 -0.125q0.3125 0 0.578125 0.125q0.28125 0.125 0.484375 0.34375q0.21875 0.203125 0.34375 0.484375q0.125 0.28125 0.125 0.59375zm3.284668 15.96875l0 -12.15625l1.28125 0q0.453125 0 0.5625 0.4375l0.15625 1.25q0.671875 -0.828125 1.5 -1.34375q0.84375 -0.53125 1.953125 -0.53125q1.234375 0 1.984375 0.6875q0.765625 0.671875 1.109375 1.84375q0.25 -0.65625 0.65625 -1.140625q0.421875 -0.484375 0.9375 -0.796875q0.515625 -0.3125 1.09375 -0.453125q0.59375 -0.140625 1.1875 -0.140625q0.953125 0 1.703125 0.3125q0.75 0.296875 1.265625 0.890625q0.53125 0.578125 0.8125 1.4375q0.28125 0.859375 0.28125 1.96875l0 7.734375l-2.140625 0l0 -7.734375q0 -1.4375 -0.625 -2.171875q-0.625 -0.734375 -1.8125 -0.734375q-0.53125 0 -1.0 0.1875q-0.46875 0.1875 -0.84375 0.546875q-0.359375 0.359375 -0.5625 0.90625q-0.203125 0.546875 -0.203125 1.265625l0 7.734375l-2.140625 0l0 -7.734375q0 -1.46875 -0.59375 -2.1875q-0.578125 -0.71875 -1.71875 -0.71875q-0.78125 0 -1.46875 0.421875q-0.671875 0.421875 -1.234375 1.15625l0 9.0625l-2.140625 0zm21.547913 -12.15625l0 7.75q0 1.375 0.640625 2.140625q0.640625 0.75 1.921875 0.75q0.9375 0 1.765625 -0.4375q0.828125 -0.453125 1.515625 -1.234375l0 -8.96875l2.140625 0l0 12.15625l-1.265625 0q-0.453125 0 -0.578125 -0.4375l-0.171875 -1.3125q-0.796875 0.875 -1.78125 1.40625q-0.984375 0.53125 -2.25 0.53125q-1.0 0 -1.765625 -0.328125q-0.75 -0.328125 -1.265625 -0.921875q-0.515625 -0.609375 -0.78125 -1.453125q-0.25 -0.859375 -0.25 -1.890625l0 -7.75l2.125 0zm11.500366 12.15625l0 -12.15625l1.28125 0q0.453125 0 0.5625 0.4375l0.15625 1.25q0.671875 -0.828125 1.5 -1.34375q0.84375 -0.53125 1.953125 -0.53125q1.234375 0 1.984375 0.6875q0.765625 0.671875 1.109375 1.84375q0.25 -0.65625 0.65625 -1.140625q0.421875 -0.484375 0.9375 -0.796875q0.515625 -0.3125 1.09375 -0.453125q0.59375 -0.140625 1.1875 -0.140625q0.953125 0 1.703125 0.3125q0.75 0.296875 1.265625 0.890625q0.53125 0.578125 0.8125 1.4375q0.28125 0.859375 0.28125 1.96875l0 7.734375l-2.140625 0l0 -7.734375q0 -1.4375 -0.625 -2.171875q-0.625 -0.734375 -1.8125 -0.734375q-0.53125 0 -1.0 0.1875q-0.46875 0.1875 -0.84375 0.546875q-0.359375 0.359375 -0.5625 0.90625q-0.203125 0.546875 -0.203125 1.265625l0 7.734375l-2.140625 0l0 -7.734375q0 -1.46875 -0.59375 -2.1875q-0.578125 -0.71875 -1.71875 -0.71875q-0.78125 0 -1.46875 0.421875q-0.671875 0.421875 -1.234375 1.15625l0 9.0625l-2.140625 0zm24.33612 4.109375l0 -16.265625l1.28125 0q0.453125 0 0.5625 0.4375l0.1875 1.453125q0.78125 -0.953125 1.78125 -1.53125q1.0 -0.578125 2.3125 -0.578125q1.046875 0 1.890625 0.40625q0.859375 0.40625 1.453125 1.1875q0.59375 0.78125 0.921875 1.953125q0.328125 1.15625 0.328125 2.671875q0 1.34375 -0.359375 2.5q-0.359375 1.15625 -1.03125 2.015625q-0.671875 0.84375 -1.65625 1.328125q-0.96875 0.484375 -2.203125 0.484375q-1.125 0 -1.921875 -0.375q-0.796875 -0.375 -1.40625 -1.0625l0 5.375l-2.140625 0zm5.40625 -14.75q-1.03125 0 -1.828125 0.484375q-0.78125 0.46875 -1.4375 1.34375l0 5.890625q0.578125 0.78125 1.28125 1.109375q0.703125 0.328125 1.578125 0.328125q1.6875 0 2.59375 -1.203125q0.921875 -1.21875 0.921875 -3.46875q0 -1.1875 -0.21875 -2.03125q-0.203125 -0.859375 -0.609375 -1.40625q-0.390625 -0.546875 -0.96875 -0.796875q-0.578125 -0.25 -1.3125 -0.25zm12.763733 -1.703125q1.328125 0 2.40625 0.453125q1.078125 0.4375 1.828125 1.25q0.75 0.8125 1.140625 1.96875q0.40625 1.15625 0.40625 2.59375q0 1.4375 -0.40625 2.59375q-0.390625 1.140625 -1.140625 1.96875q-0.75 0.8125 -1.828125 1.25q-1.078125 0.4375 -2.40625 0.4375q-1.328125 0 -2.40625 -0.4375q-1.078125 -0.4375 -1.828125 -1.25q-0.75 -0.828125 -1.171875 -1.96875q-0.40625 -1.15625 -0.40625 -2.59375q0 -1.4375 0.40625 -2.59375q0.421875 -1.15625 1.171875 -1.96875q0.75 -0.8125 1.828125 -1.25q1.078125 -0.453125 2.40625 -0.453125zm0 10.84375q1.796875 0 2.6875 -1.203125q0.890625 -1.203125 0.890625 -3.375q0 -2.171875 -0.890625 -3.375q-0.890625 -1.21875 -2.6875 -1.21875q-0.90625 0 -1.578125 0.3125q-0.671875 0.3125 -1.125 0.90625q-0.453125 0.578125 -0.671875 1.4375q-0.21875 0.859375 -0.21875 1.9375q0 1.09375 0.21875 1.953125q0.21875 0.84375 0.671875 1.421875q0.453125 0.578125 1.125 0.890625q0.671875 0.3125 1.578125 0.3125zm10.797241 -10.65625l0 12.15625l-2.140625 0l0 -12.15625l2.140625 0zm0.484375 -3.8125q0 0.3125 -0.125 0.578125q-0.125 0.265625 -0.34375 0.484375q-0.203125 0.203125 -0.484375 0.328125q-0.265625 0.125 -0.578125 0.125q-0.3125 0 -0.59375 -0.125q-0.265625 -0.125 -0.484375 -0.328125q-0.203125 -0.21875 -0.328125 -0.484375q-0.109375 -0.265625 -0.109375 -0.578125q0 -0.3125 0.109375 -0.59375q0.125 -0.28125 0.328125 -0.484375q0.21875 -0.21875 0.484375 -0.34375q0.28125 -0.125 0.59375 -0.125q0.3125 0 0.578125 0.125q0.28125 0.125 0.484375 0.34375q0.21875 0.203125 0.34375 0.484375q0.125 0.28125 0.125 0.59375zm3.284668 15.96875l0 -12.15625l1.28125 0q0.453125 0 0.5625 0.4375l0.171875 1.328125q0.796875 -0.875 1.765625 -1.40625q0.984375 -0.546875 2.265625 -0.546875q1.0 0 1.75 0.328125q0.765625 0.328125 1.28125 0.9375q0.515625 0.609375 0.78125 1.46875q0.265625 0.84375 0.265625 1.875l0 7.734375l-2.140625 0l0 -7.734375q0 -1.390625 -0.640625 -2.140625q-0.625 -0.765625 -1.921875 -0.765625q-0.9375 0 -1.765625 0.453125q-0.828125 0.453125 -1.515625 1.234375l0 8.953125l-2.140625 0zm17.031616 0.1875q-1.4375 0 -2.21875 -0.796875q-0.765625 -0.8125 -0.765625 -2.3125l0 -7.453125l-1.46875 0q-0.1875 0 -0.328125 -0.109375q-0.125 -0.109375 -0.125 -0.359375l0 -0.84375l1.984375 -0.25l0.5 -3.765625q0.015625 -0.171875 0.140625 -0.28125q0.140625 -0.125 0.34375 -0.125l1.078125 0l0 4.1875l3.484375 0l0 1.546875l-3.484375 0l0 7.296875q0 0.78125 0.375 1.15625q0.375 0.359375 0.96875 0.359375q0.328125 0 0.578125 -0.078125q0.25 -0.09375 0.421875 -0.203125q0.1875 -0.109375 0.3125 -0.203125q0.125 -0.09375 0.21875 -0.09375q0.171875 0 0.296875 0.203125l0.625 1.03125q-0.546875 0.515625 -1.328125 0.8125q-0.78125 0.28125 -1.609375 0.28125zm8.31842 -12.34375l1.671875 0q0.265625 0 0.4375 0.140625q0.171875 0.125 0.234375 0.296875l2.328125 7.828125q0.09375 0.4375 0.171875 0.84375q0.078125 0.390625 0.140625 0.796875q0.09375 -0.40625 0.21875 -0.796875q0.125 -0.40625 0.25 -0.84375l2.578125 -7.875q0.046875 -0.171875 0.203125 -0.296875q0.15625 -0.125 0.375 -0.125l0.921875 0q0.25 0 0.40625 0.125q0.15625 0.125 0.203125 0.296875l2.515625 7.875q0.125 0.421875 0.234375 0.828125q0.109375 0.40625 0.203125 0.8125q0.046875 -0.40625 0.140625 -0.828125q0.109375 -0.4375 0.21875 -0.8125l2.375 -7.828125q0.0625 -0.1875 0.21875 -0.3125q0.171875 -0.125 0.40625 -0.125l1.609375 0l-3.9375 12.15625l-1.703125 0q-0.3125 0 -0.421875 -0.40625l-2.6875 -8.25q-0.09375 -0.265625 -0.15625 -0.546875q-0.0625 -0.28125 -0.125 -0.5625q-0.0625 0.28125 -0.125 0.5625q-0.046875 0.28125 -0.15625 0.5625l-2.71875 8.234375q-0.125 0.40625 -0.484375 0.40625l-1.609375 0l-3.9375 -12.15625zm22.33728 0l0 12.15625l-2.140625 0l0 -12.15625l2.140625 0zm0.484375 -3.8125q0 0.3125 -0.125 0.578125q-0.125 0.265625 -0.34375 0.484375q-0.203125 0.203125 -0.484375 0.328125q-0.265625 0.125 -0.578125 0.125q-0.3125 0 -0.59375 -0.125q-0.265625 -0.125 -0.484375 -0.328125q-0.203125 -0.21875 -0.328125 -0.484375q-0.109375 -0.265625 -0.109375 -0.578125q0 -0.3125 0.109375 -0.59375q0.125 -0.28125 0.328125 -0.484375q0.21875 -0.21875 0.484375 -0.34375q0.28125 -0.125 0.59375 -0.125q0.3125 0 0.578125 0.125q0.28125 0.125 0.484375 0.34375q0.21875 0.203125 0.34375 0.484375q0.125 0.28125 0.125 0.59375zm6.972168 16.15625q-1.4375 0 -2.21875 -0.796875q-0.765625 -0.8125 -0.765625 -2.3125l0 -7.453125l-1.46875 0q-0.1875 0 -0.328125 -0.109375q-0.125 -0.109375 -0.125 -0.359375l0 -0.84375l1.984375 -0.25l0.5 -3.765625q0.015625 -0.171875 0.140625 -0.28125q0.140625 -0.125 0.34375 -0.125l1.078125 0l0 4.1875l3.484375 0l0 1.546875l-3.484375 0l0 7.296875q0 0.78125 0.375 1.15625q0.375 0.359375 0.96875 0.359375q0.328125 0 0.578125 -0.078125q0.25 -0.09375 0.421875 -0.203125q0.1875 -0.109375 0.3125 -0.203125q0.125 -0.09375 0.21875 -0.09375q0.171875 0 0.296875 0.203125l0.625 1.03125q-0.546875 0.515625 -1.328125 0.8125q-0.78125 0.28125 -1.609375 0.28125zm5.2645264 -0.1875l0 -17.671875l2.140625 0l0 7.140625q0.78125 -0.828125 1.71875 -1.3125q0.953125 -0.5 2.1875 -0.5q1.0 0 1.75 0.328125q0.765625 0.328125 1.28125 0.9375q0.515625 0.609375 0.78125 1.46875q0.265625 0.84375 0.265625 1.875l0 7.734375l-2.140625 0l0 -7.734375q0 -1.390625 -0.640625 -2.140625q-0.625 -0.765625 -1.921875 -0.765625q-0.9375 0 -1.765625 0.453125q-0.828125 0.453125 -1.515625 1.234375l0 8.953125l-2.140625 0zm15.719116 -12.15625l0 12.15625l-2.140625 0l0 -12.15625l2.140625 0zm0.484375 -3.8125q0 0.3125 -0.125 0.578125q-0.125 0.265625 -0.34375 0.484375q-0.203125 0.203125 -0.484375 0.328125q-0.265625 0.125 -0.578125 0.125q-0.3125 0 -0.59375 -0.125q-0.265625 -0.125 -0.484375 -0.328125q-0.203125 -0.21875 -0.328125 -0.484375q-0.109375 -0.265625 -0.109375 -0.578125q0 -0.3125 0.109375 -0.59375q0.125 -0.28125 0.328125 -0.484375q0.21875 -0.21875 0.484375 -0.34375q0.28125 -0.125 0.59375 -0.125q0.3125 0 0.578125 0.125q0.28125 0.125 0.484375 0.34375q0.21875 0.203125 0.34375 0.484375q0.125 0.28125 0.125 0.59375zm3.284668 15.96875l0 -12.15625l1.28125 0q0.453125 0 0.5625 0.4375l0.171875 1.328125q0.796875 -0.875 1.765625 -1.40625q0.984375 -0.546875 2.265625 -0.546875q1.0 0 1.75 0.328125q0.765625 0.328125 1.28125 0.9375q0.515625 0.609375 0.78125 1.46875q0.265625 0.84375 0.265625 1.875l0 7.734375l-2.140625 0l0 -7.734375q0 -1.390625 -0.640625 -2.140625q-0.625 -0.765625 -1.921875 -0.765625q-0.9375 0 -1.765625 0.453125q-0.828125 0.453125 -1.515625 1.234375l0 8.953125l-2.140625 0zm19.663635 -1.625l3.703125 0l0 -11.734375q0 -0.53125 0.03125 -1.0625l-3.0625 2.625q-0.125 0.09375 -0.25 0.140625q-0.109375 0.046875 -0.21875 0.046875q-0.1875 0 -0.328125 -0.078125q-0.140625 -0.078125 -0.21875 -0.1875l-0.671875 -0.921875l5.109375 -4.4375l1.75 0l0 15.609375l3.375 0l0 1.625l-9.21875 0l0 -1.625zm11.545105 0.3125q0 -0.3125 0.109375 -0.59375q0.109375 -0.28125 0.3125 -0.484375q0.203125 -0.203125 0.46875 -0.3125q0.28125 -0.125 0.59375 -0.125q0.3125 0 0.578125 0.125q0.28125 0.109375 0.484375 0.3125q0.203125 0.203125 0.3125 0.484375q0.125 0.28125 0.125 0.59375q0 0.3125 -0.125 0.59375q-0.109375 0.265625 -0.3125 0.46875q-0.203125 0.203125 -0.484375 0.3125q-0.265625 0.125 -0.578125 0.125q-0.3125 0 -0.59375 -0.125q-0.265625 -0.109375 -0.46875 -0.3125q-0.203125 -0.203125 -0.3125 -0.46875q-0.109375 -0.28125 -0.109375 -0.59375zm15.759888 -14.953125q0 0.46875 -0.296875 0.765625q-0.28125 0.28125 -0.96875 0.28125l-5.390625 0l-0.796875 4.515625q1.34375 -0.28125 2.484375 -0.28125q1.34375 0 2.375 0.390625q1.03125 0.390625 1.71875 1.09375q0.703125 0.6875 1.046875 1.640625q0.359375 0.953125 0.359375 2.0625q0 1.375 -0.484375 2.484375q-0.484375 1.09375 -1.3125 1.890625q-0.828125 0.78125 -1.96875 1.203125q-1.125 0.40625 -2.421875 0.40625q-0.765625 0 -1.46875 -0.15625q-0.6875 -0.140625 -1.296875 -0.390625q-0.59375 -0.25 -1.109375 -0.578125q-0.515625 -0.328125 -0.90625 -0.6875l0.640625 -0.90625q0.21875 -0.3125 0.578125 -0.3125q0.234375 0 0.53125 0.1875q0.3125 0.1875 0.734375 0.421875q0.4375 0.21875 1.015625 0.40625q0.59375 0.1875 1.390625 0.1875q0.90625 0 1.625 -0.28125q0.71875 -0.296875 1.21875 -0.828125q0.515625 -0.53125 0.796875 -1.28125q0.28125 -0.75 0.28125 -1.671875q0 -0.796875 -0.234375 -1.4375q-0.234375 -0.65625 -0.71875 -1.109375q-0.46875 -0.46875 -1.1875 -0.71875q-0.703125 -0.25 -1.640625 -0.25q-0.65625 0 -1.359375 0.109375q-0.6875 0.109375 -1.421875 0.34375l-1.34375 -0.390625l1.390625 -8.046875l8.140625 0l0 0.9375zm12.255249 16.453125q-1.4375 0 -2.21875 -0.796875q-0.765625 -0.8125 -0.765625 -2.3125l0 -7.453125l-1.46875 0q-0.1875 0 -0.328125 -0.109375q-0.125 -0.109375 -0.125 -0.359375l0 -0.84375l1.984375 -0.25l0.5 -3.765625q0.015625 -0.171875 0.140625 -0.28125q0.140625 -0.125 0.34375 -0.125l1.078125 0l0 4.1875l3.484375 0l0 1.546875l-3.484375 0l0 7.296875q0 0.78125 0.375 1.15625q0.375 0.359375 0.96875 0.359375q0.328125 0 0.578125 -0.078125q0.25 -0.09375 0.421875 -0.203125q0.1875 -0.109375 0.3125 -0.203125q0.125 -0.09375 0.21875 -0.09375q0.171875 0 0.296875 0.203125l0.625 1.03125q-0.546875 0.515625 -1.328125 0.8125q-0.78125 0.28125 -1.609375 0.28125zm7.6395874 -12.34375l0 12.15625l-2.140625 0l0 -12.15625l2.140625 0zm0.484375 -3.8125q0 0.3125 -0.125 0.578125q-0.125 0.265625 -0.34375 0.484375q-0.203125 0.203125 -0.484375 0.328125q-0.265625 0.125 -0.578125 0.125q-0.3125 0 -0.59375 -0.125q-0.265625 -0.125 -0.484375 -0.328125q-0.203125 -0.21875 -0.328125 -0.484375q-0.109375 -0.265625 -0.109375 -0.578125q0 -0.3125 0.109375 -0.59375q0.125 -0.28125 0.328125 -0.484375q0.21875 -0.21875 0.484375 -0.34375q0.28125 -0.125 0.59375 -0.125q0.3125 0 0.578125 0.125q0.28125 0.125 0.484375 0.34375q0.21875 0.203125 0.34375 0.484375q0.125 0.28125 0.125 0.59375zm3.284668 15.96875l0 -12.15625l1.28125 0q0.453125 0 0.5625 0.4375l0.15625 1.25q0.671875 -0.828125 1.5 -1.34375q0.84375 -0.53125 1.953125 -0.53125q1.234375 0 1.984375 0.6875q0.765625 0.671875 1.109375 1.84375q0.25 -0.65625 0.65625 -1.140625q0.421875 -0.484375 0.9375 -0.796875q0.515625 -0.3125 1.09375 -0.453125q0.59375 -0.140625 1.1875 -0.140625q0.953125 0 1.703125 0.3125q0.75 0.296875 1.265625 0.890625q0.53125 0.578125 0.8125 1.4375q0.28125 0.859375 0.28125 1.96875l0 7.734375l-2.140625 0l0 -7.734375q0 -1.4375 -0.625 -2.171875q-0.625 -0.734375 -1.8125 -0.734375q-0.53125 0 -1.0 0.1875q-0.46875 0.1875 -0.84375 0.546875q-0.359375 0.359375 -0.5625 0.90625q-0.203125 0.546875 -0.203125 1.265625l0 7.734375l-2.140625 0l0 -7.734375q0 -1.46875 -0.59375 -2.1875q-0.578125 -0.71875 -1.71875 -0.71875q-0.78125 0 -1.46875 0.421875q-0.671875 0.421875 -1.234375 1.15625l0 9.0625l-2.140625 0zm24.516602 -12.34375q1.09375 0 2.015625 0.375q0.921875 0.359375 1.59375 1.046875q0.671875 0.6875 1.046875 1.703125q0.390625 1.015625 0.390625 2.3125q0 0.5 -0.109375 0.671875q-0.109375 0.15625 -0.40625 0.15625l-8.09375 0q0.03125 1.15625 0.3125 2.015625q0.28125 0.84375 0.78125 1.421875q0.515625 0.5625 1.203125 0.84375q0.703125 0.28125 1.5625 0.28125q0.8125 0 1.390625 -0.1875q0.578125 -0.1875 1.0 -0.390625q0.421875 -0.21875 0.703125 -0.40625q0.28125 -0.1875 0.484375 -0.1875q0.265625 0 0.40625 0.203125l0.609375 0.78125q-0.40625 0.484375 -0.953125 0.84375q-0.546875 0.34375 -1.1875 0.578125q-0.625 0.21875 -1.296875 0.328125q-0.671875 0.125 -1.328125 0.125q-1.265625 0 -2.328125 -0.421875q-1.0625 -0.4375 -1.84375 -1.25q-0.765625 -0.828125 -1.203125 -2.03125q-0.421875 -1.21875 -0.421875 -2.796875q0 -1.265625 0.390625 -2.359375q0.390625 -1.109375 1.109375 -1.921875q0.734375 -0.8125 1.796875 -1.265625q1.0625 -0.46875 2.375 -0.46875zm0.046875 1.5625q-1.546875 0 -2.4375 0.90625q-0.890625 0.890625 -1.09375 2.46875l6.609375 0q0 -0.734375 -0.203125 -1.359375q-0.203125 -0.625 -0.609375 -1.0625q-0.390625 -0.453125 -0.96875 -0.703125q-0.5625 -0.25 -1.296875 -0.25zm14.685486 0.625q-0.15625 0.265625 -0.453125 0.265625q-0.171875 0 -0.40625 -0.125q-0.234375 -0.140625 -0.5625 -0.296875q-0.328125 -0.15625 -0.78125 -0.296875q-0.453125 -0.140625 -1.078125 -0.140625q-0.546875 0 -0.984375 0.140625q-0.421875 0.140625 -0.734375 0.375q-0.296875 0.234375 -0.46875 0.5625q-0.15625 0.3125 -0.15625 0.6875q0 0.46875 0.265625 0.78125q0.28125 0.3125 0.71875 0.546875q0.453125 0.21875 1.015625 0.390625q0.5625 0.171875 1.15625 0.375q0.59375 0.1875 1.15625 0.4375q0.5625 0.234375 1.0 0.59375q0.453125 0.359375 0.71875 0.890625q0.265625 0.515625 0.265625 1.25q0 0.84375 -0.296875 1.5625q-0.296875 0.703125 -0.890625 1.234375q-0.578125 0.515625 -1.4375 0.8125q-0.84375 0.296875 -1.96875 0.296875q-1.265625 0 -2.296875 -0.40625q-1.03125 -0.421875 -1.75 -1.0625l0.5 -0.8125q0.09375 -0.15625 0.21875 -0.234375q0.140625 -0.09375 0.359375 -0.09375q0.21875 0 0.453125 0.171875q0.234375 0.15625 0.578125 0.359375q0.34375 0.203125 0.828125 0.375q0.484375 0.171875 1.21875 0.171875q0.625 0 1.09375 -0.15625q0.46875 -0.171875 0.78125 -0.4375q0.3125 -0.28125 0.453125 -0.640625q0.15625 -0.359375 0.15625 -0.765625q0 -0.515625 -0.265625 -0.84375q-0.265625 -0.328125 -0.71875 -0.5625q-0.4375 -0.234375 -1.015625 -0.40625q-0.5625 -0.171875 -1.15625 -0.359375q-0.59375 -0.203125 -1.171875 -0.4375q-0.5625 -0.25 -1.015625 -0.625q-0.4375 -0.375 -0.71875 -0.921875q-0.265625 -0.546875 -0.265625 -1.3125q0 -0.703125 0.28125 -1.34375q0.296875 -0.640625 0.84375 -1.125q0.5625 -0.484375 1.359375 -0.765625q0.8125 -0.296875 1.84375 -0.296875q1.203125 0 2.15625 0.375q0.953125 0.375 1.640625 1.03125l-0.46875 0.78125zm11.766846 10.34375q-1.4375 0 -2.21875 -0.796875q-0.765625 -0.8125 -0.765625 -2.3125l0 -7.453125l-1.46875 0q-0.1875 0 -0.328125 -0.109375q-0.125 -0.109375 -0.125 -0.359375l0 -0.84375l1.984375 -0.25l0.5 -3.765625q0.015625 -0.171875 0.140625 -0.28125q0.140625 -0.125 0.34375 -0.125l1.078125 0l0 4.1875l3.484375 0l0 1.546875l-3.484375 0l0 7.296875q0 0.78125 0.375 1.15625q0.375 0.359375 0.96875 0.359375q0.328125 0 0.578125 -0.078125q0.25 -0.09375 0.421875 -0.203125q0.1875 -0.109375 0.3125 -0.203125q0.125 -0.09375 0.21875 -0.09375q0.171875 0 0.296875 0.203125l0.625 1.03125q-0.546875 0.515625 -1.328125 0.8125q-0.78125 0.28125 -1.609375 0.28125zm5.2645874 -0.1875l0 -17.671875l2.140625 0l0 7.140625q0.78125 -0.828125 1.71875 -1.3125q0.953125 -0.5 2.1875 -0.5q1.0 0 1.75 0.328125q0.765625 0.328125 1.28125 0.9375q0.515625 0.609375 0.78125 1.46875q0.265625 0.84375 0.265625 1.875l0 7.734375l-2.140625 0l0 -7.734375q0 -1.390625 -0.640625 -2.140625q-0.625 -0.765625 -1.921875 -0.765625q-0.9375 0 -1.765625 0.453125q-0.828125 0.453125 -1.515625 1.234375l0 8.953125l-2.140625 0zm18.156555 -12.34375q1.09375 0 2.015625 0.375q0.921875 0.359375 1.59375 1.046875q0.671875 0.6875 1.046875 1.703125q0.390625 1.015625 0.390625 2.3125q0 0.5 -0.109375 0.671875q-0.109375 0.15625 -0.40625 0.15625l-8.09375 0q0.03125 1.15625 0.3125 2.015625q0.28125 0.84375 0.78125 1.421875q0.515625 0.5625 1.203125 0.84375q0.703125 0.28125 1.5625 0.28125q0.8125 0 1.390625 -0.1875q0.578125 -0.1875 1.0 -0.390625q0.421875 -0.21875 0.703125 -0.40625q0.28125 -0.1875 0.484375 -0.1875q0.265625 0 0.40625 0.203125l0.609375 0.78125q-0.40625 0.484375 -0.953125 0.84375q-0.546875 0.34375 -1.1875 0.578125q-0.625 0.21875 -1.296875 0.328125q-0.671875 0.125 -1.328125 0.125q-1.265625 0 -2.328125 -0.421875q-1.0625 -0.4375 -1.84375 -1.25q-0.765625 -0.828125 -1.203125 -2.03125q-0.421875 -1.21875 -0.421875 -2.796875q0 -1.265625 0.390625 -2.359375q0.390625 -1.109375 1.109375 -1.921875q0.734375 -0.8125 1.796875 -1.265625q1.0625 -0.46875 2.375 -0.46875zm0.046875 1.5625q-1.546875 0 -2.4375 0.90625q-0.890625 0.890625 -1.09375 2.46875l6.609375 0q0 -0.734375 -0.203125 -1.359375q-0.203125 -0.625 -0.609375 -1.0625q-0.390625 -0.453125 -0.96875 -0.703125q-0.5625 -0.25 -1.296875 -0.25zm15.442505 10.78125l-2.328125 0l0 -17.203125l2.328125 0l0 17.203125zm20.586792 -8.59375q0 1.21875 -0.25 2.3125q-0.25 1.078125 -0.71875 2.03125q-0.46875 0.9375 -1.140625 1.703125q-0.671875 0.765625 -1.5 1.328125l4.40625 4.765625l-1.921875 0q-0.421875 0 -0.765625 -0.125q-0.328125 -0.109375 -0.609375 -0.40625l-3.015625 -3.296875q-0.6875 0.21875 -1.4375 0.34375q-0.734375 0.125 -1.53125 0.125q-1.890625 0 -3.453125 -0.640625q-1.5625 -0.65625 -2.6875 -1.8125q-1.109375 -1.171875 -1.71875 -2.78125q-0.609375 -1.609375 -0.609375 -3.546875q0 -1.9375 0.609375 -3.546875q0.609375 -1.609375 1.71875 -2.78125q1.125 -1.171875 2.6875 -1.8125q1.5625 -0.65625 3.453125 -0.65625q1.890625 0 3.453125 0.65625q1.578125 0.640625 2.6875 1.8125q1.125 1.171875 1.734375 2.78125q0.609375 1.609375 0.609375 3.546875zm-2.390625 0q0 -1.578125 -0.4375 -2.84375q-0.421875 -1.265625 -1.21875 -2.125q-0.796875 -0.875 -1.921875 -1.34375q-1.125 -0.46875 -2.515625 -0.46875q-1.375 0 -2.515625 0.46875q-1.125 0.46875 -1.921875 1.34375q-0.796875 0.859375 -1.234375 2.125q-0.421875 1.265625 -0.421875 2.84375q0 1.578125 0.421875 2.84375q0.4375 1.25 1.234375 2.125q0.796875 0.859375 1.921875 1.328125q1.140625 0.453125 2.515625 0.453125q1.390625 0 2.515625 -0.453125q1.125 -0.46875 1.921875 -1.328125q0.796875 -0.875 1.21875 -2.125q0.4375 -1.265625 0.4375 -2.84375zm8.120911 1.421875l0 7.171875l-2.3125 0l0 -17.203125l4.859375 0q1.625 0 2.8125 0.34375q1.203125 0.328125 1.96875 0.953125q0.78125 0.625 1.140625 1.5q0.375 0.875 0.375 1.96875q0 0.921875 -0.296875 1.71875q-0.28125 0.78125 -0.828125 1.421875q-0.546875 0.625 -1.328125 1.078125q-0.78125 0.4375 -1.78125 0.65625q0.4375 0.25 0.765625 0.734375l5.015625 6.828125l-2.0625 0q-0.625 0 -0.9375 -0.484375l-4.453125 -6.15625q-0.203125 -0.28125 -0.453125 -0.40625q-0.234375 -0.125 -0.71875 -0.125l-1.765625 0zm0 -1.703125l2.4375 0q1.015625 0 1.78125 -0.234375q0.78125 -0.25 1.296875 -0.703125q0.53125 -0.453125 0.796875 -1.078125q0.265625 -0.625 0.265625 -1.375q0 -1.53125 -1.015625 -2.3125q-1.015625 -0.78125 -3.015625 -0.78125l-2.546875 0l0 6.484375z" fill-rule="nonzero"/><path fill="#595959" d="m479.2927 488.4749l0 -17.671875l2.140625 0l0 7.265625q0.765625 -0.875 1.734375 -1.40625q0.984375 -0.53125 2.234375 -0.53125q1.0625 0 1.90625 0.390625q0.859375 0.390625 1.453125 1.1875q0.609375 0.78125 0.921875 1.9375q0.328125 1.15625 0.328125 2.671875q0 1.34375 -0.359375 2.5q-0.359375 1.15625 -1.046875 2.015625q-0.671875 0.84375 -1.65625 1.328125q-0.96875 0.484375 -2.1875 0.484375q-1.171875 0 -2.0 -0.453125q-0.828125 -0.46875 -1.4375 -1.28125l-0.109375 1.109375q-0.09375 0.453125 -0.546875 0.453125l-1.375 0zm5.421875 -10.640625q-1.046875 0 -1.84375 0.484375q-0.78125 0.46875 -1.4375 1.34375l0 5.890625q0.578125 0.78125 1.28125 1.109375q0.703125 0.328125 1.5625 0.328125q1.703125 0 2.609375 -1.203125q0.921875 -1.21875 0.921875 -3.46875q0 -1.1875 -0.21875 -2.03125q-0.203125 -0.859375 -0.609375 -1.40625q-0.390625 -0.546875 -0.96875 -0.796875q-0.5625 -0.25 -1.296875 -0.25zm12.728577 -1.703125q1.09375 0 2.015625 0.375q0.921875 0.359375 1.59375 1.046875q0.671875 0.6875 1.046875 1.703125q0.390625 1.015625 0.390625 2.3125q0 0.5 -0.109375 0.671875q-0.109375 0.15625 -0.40625 0.15625l-8.09375 0q0.03125 1.15625 0.3125 2.015625q0.28125 0.84375 0.78125 1.421875q0.515625 0.5625 1.203125 0.84375q0.703125 0.28125 1.5625 0.28125q0.8125 0 1.390625 -0.1875q0.578125 -0.1875 1.0 -0.390625q0.421875 -0.21875 0.703125 -0.40625q0.28125 -0.1875 0.484375 -0.1875q0.265625 0 0.40625 0.203125l0.609375 0.78125q-0.40625 0.484375 -0.953125 0.84375q-0.546875 0.34375 -1.1875 0.578125q-0.625 0.21875 -1.296875 0.328125q-0.671875 0.125 -1.328125 0.125q-1.265625 0 -2.328125 -0.421875q-1.0625 -0.4375 -1.84375 -1.25q-0.765625 -0.828125 -1.203125 -2.03125q-0.421875 -1.21875 -0.421875 -2.796875q0 -1.265625 0.390625 -2.359375q0.390625 -1.109375 1.109375 -1.921875q0.734375 -0.8125 1.796875 -1.265625q1.0625 -0.46875 2.375 -0.46875zm0.046875 1.5625q-1.546875 0 -2.4375 0.90625q-0.890625 0.890625 -1.09375 2.46875l6.609375 0q0 -0.734375 -0.203125 -1.359375q-0.203125 -0.625 -0.609375 -1.0625q-0.390625 -0.453125 -0.96875 -0.703125q-0.5625 -0.25 -1.296875 -0.25zm10.091736 -6.890625l0 17.671875l-2.140625 0l0 -17.671875l2.140625 0zm8.690887 5.328125q1.328125 0 2.40625 0.453125q1.078125 0.4375 1.828125 1.25q0.75 0.8125 1.140625 1.96875q0.40625 1.15625 0.40625 2.59375q0 1.4375 -0.40625 2.59375q-0.390625 1.140625 -1.140625 1.96875q-0.75 0.8125 -1.828125 1.25q-1.078125 0.4375 -2.40625 0.4375q-1.328125 0 -2.40625 -0.4375q-1.078125 -0.4375 -1.828125 -1.25q-0.7499695 -0.828125 -1.1718445 -1.96875q-0.40625 -1.15625 -0.40625 -2.59375q0 -1.4375 0.40625 -2.59375q0.421875 -1.15625 1.1718445 -1.96875q0.75 -0.8125 1.828125 -1.25q1.078125 -0.453125 2.40625 -0.453125zm0 10.84375q1.796875 0 2.6875 -1.203125q0.890625 -1.203125 0.890625 -3.375q0 -2.171875 -0.890625 -3.375q-0.890625 -1.21875 -2.6875 -1.21875q-0.90625 0 -1.578125 0.3125q-0.671875 0.3125 -1.125 0.90625q-0.453125 0.578125 -0.671875 1.4375q-0.21875 0.859375 -0.21875 1.9375q0 1.09375 0.21875 1.953125q0.21875 0.84375 0.671875 1.421875q0.453125 0.578125 1.125 0.890625q0.671875 0.3125 1.578125 0.3125zm6.844116 -10.65625l1.671875 0q0.265625 0 0.4375 0.140625q0.171875 0.125 0.234375 0.296875l2.328125 7.828125q0.09375 0.4375 0.171875 0.84375q0.078125 0.390625 0.140625 0.796875q0.09375 -0.40625 0.21875 -0.796875q0.125 -0.40625 0.25 -0.84375l2.578125 -7.875q0.046875 -0.171875 0.203125 -0.296875q0.15625 -0.125 0.375 -0.125l0.921875 0q0.25 0 0.40625 0.125q0.15625 0.125 0.203125 0.296875l2.515625 7.875q0.125 0.421875 0.234375 0.828125q0.109375 0.40625 0.203125 0.8125q0.046875 -0.40625 0.140625 -0.828125q0.109375 -0.4375 0.21875 -0.8125l2.375 -7.828125q0.0625 -0.1875 0.21875 -0.3125q0.171875 -0.125 0.40625 -0.125l1.609375 0l-3.9375 12.15625l-1.703125 0q-0.3125 0 -0.421875 -0.40625l-2.6875 -8.25q-0.09375 -0.265625 -0.15625 -0.546875q-0.0625 -0.28125 -0.125 -0.5625q-0.0625 0.28125 -0.125 0.5625q-0.046875 0.28125 -0.15625 0.5625l-2.71875 8.234375q-0.125 0.40625 -0.484375 0.40625l-1.609375 0l-3.9375 -12.15625zm40.9068 3.5625q0 1.21875 -0.25 2.3125q-0.25 1.078125 -0.71875 2.03125q-0.46875 0.9375 -1.140625 1.703125q-0.671875 0.765625 -1.5 1.328125l4.40625 4.765625l-1.921875 0q-0.421875 0 -0.765625 -0.125q-0.328125 -0.109375 -0.609375 -0.40625l-3.015625 -3.296875q-0.6875 0.21875 -1.4375 0.34375q-0.734375 0.125 -1.53125 0.125q-1.890625 0 -3.453125 -0.640625q-1.5625 -0.65625 -2.6875 -1.8125q-1.109375 -1.171875 -1.71875 -2.78125q-0.609375 -1.609375 -0.609375 -3.546875q0 -1.9375 0.609375 -3.546875q0.609375 -1.609375 1.71875 -2.78125q1.125 -1.171875 2.6875 -1.8125q1.5625 -0.65625 3.453125 -0.65625q1.890625 0 3.453125 0.65625q1.578125 0.640625 2.6875 1.8125q1.125 1.171875 1.734375 2.78125q0.609375 1.609375 0.609375 3.546875zm-2.390625 0q0 -1.578125 -0.4375 -2.84375q-0.421875 -1.265625 -1.21875 -2.125q-0.796875 -0.875 -1.921875 -1.34375q-1.125 -0.46875 -2.515625 -0.46875q-1.375 0 -2.515625 0.46875q-1.125 0.46875 -1.921875 1.34375q-0.796875 0.859375 -1.234375 2.125q-0.421875 1.265625 -0.421875 2.84375q0 1.578125 0.421875 2.84375q0.4375 1.25 1.234375 2.125q0.796875 0.859375 1.921875 1.328125q1.140625 0.453125 2.515625 0.453125q1.390625 0 2.515625 -0.453125q1.125 -0.46875 1.921875 -1.328125q0.796875 -0.875 1.21875 -2.125q0.4375 -1.265625 0.4375 -2.84375zm6.9177246 6.96875l3.703125 0l0 -11.734375q0 -0.53125 0.03125 -1.0625l-3.0625 2.625q-0.125 0.09375 -0.25 0.140625q-0.109375 0.046875 -0.21875 0.046875q-0.1875 0 -0.328125 -0.078125q-0.140625 -0.078125 -0.21875 -0.1875l-0.671875 -0.921875l5.109375 -4.4375l1.75 0l0 15.609375l3.375 0l0 1.625l-9.21875 0l0 -1.625z" fill-rule="nonzero"/><path fill="#000000" fill-opacity="0.0" d="m468.46457 469.0995l-117.88977 0" fill-rule="evenodd"/><path stroke="#e08dac" stroke-width="1.0" stroke-linejoin="round" stroke-linecap="butt" d="m468.46457 469.0995l-111.88977 0" fill-rule="evenodd"/><path fill="#e08dac" stroke="#e08dac" stroke-width="1.0" stroke-linecap="butt" d="m356.5748 467.44775l-4.538086 1.6517334l4.538086 1.6517334z" fill-rule="evenodd"/></g></svg>