<svg version="1.1" viewBox="0.0 0.0 960.0 540.0" fill="none" stroke="none" stroke-linecap="square" stroke-miterlimit="10" xmlns:xlink="http://www.w3.org/1999/xlink" xmlns="http://www.w3.org/2000/svg"><clipPath id="g1ee45421c2e_0_41.0"><path d="m0 0l960.0 0l0 540.0l-960.0 0l0 -540.0z" clip-rule="nonzero"/></clipPath><g clip-path="url(#g1ee45421c2e_0_41.0)"><path fill="#ffffff" d="m0 0l960.0 0l0 540.0l-960.0 0z" fill-rule="evenodd"/><path fill="#000000" fill-opacity="0.0" d="m97.43044 79.201485l738.9921 0l0 420.34647l-738.9921 0z" fill-rule="evenodd"/><path stroke="#4285f4" stroke-width="4.0" stroke-linejoin="round" stroke-linecap="butt" d="m97.43044 79.201485l738.9921 0l0 420.34647l-738.9921 0z" fill-rule="evenodd"/><path fill="#000000" fill-opacity="0.0" d="m97.43044 19.818897l338.55118 0l0 72.18898l-338.55118 0z" fill-rule="evenodd"/><path fill="#4285f4" d="m107.99294 54.130146l3.09375 -0.265625q0.21875 1.859375 1.015625 3.046875q0.8125 1.1875 2.5 1.9375q1.6875 0.734375 3.8125 0.734375q1.875 0 3.3125 -0.5625q1.4375 -0.5625 2.140625 -1.53125q0.703125 -0.96875 0.703125 -2.125q0 -1.171875 -0.6875 -2.03125q-0.671875 -0.875 -2.21875 -1.46875q-1.0 -0.390625 -4.421875 -1.203125q-3.421875 -0.828125 -4.78125 -1.5625q-1.78125 -0.921875 -2.65625 -2.296875q-0.875 -1.390625 -0.875 -3.09375q0 -1.875 1.0625 -3.5q1.078125 -1.640625 3.125 -2.484375q2.046875 -0.859375 4.546875 -0.859375q2.765625 0 4.859375 0.890625q2.109375 0.890625 3.234375 2.625q1.140625 1.71875 1.234375 3.90625l-3.15625 0.234375q-0.25 -2.359375 -1.71875 -3.5625q-1.453125 -1.203125 -4.3125 -1.203125q-2.984375 0 -4.34375 1.09375q-1.359375 1.09375 -1.359375 2.640625q0 1.328125 0.96875 2.1875q0.9375 0.875 4.9375 1.78125q4.0 0.90625 5.5 1.578125q2.15625 1.0 3.1875 2.53125q1.046875 1.53125 1.046875 3.53125q0 1.96875 -1.140625 3.734375q-1.140625 1.75 -3.265625 2.71875q-2.109375 0.96875 -4.765625 0.96875q-3.375 0 -5.65625 -0.984375q-2.265625 -0.984375 -3.5625 -2.953125q-1.296875 -1.96875 -1.359375 -4.453125zm35.56858 5.75q-1.703125 1.4375 -3.265625 2.03125q-1.5625 0.59375 -3.359375 0.59375q-2.953125 0 -4.546875 -1.4375q-1.59375 -1.453125 -1.59375 -3.703125q0 -1.328125 0.59375 -2.40625q0.609375 -1.09375 1.578125 -1.75q0.984375 -0.671875 2.203125 -1.015625q0.890625 -0.234375 2.703125 -0.453125q3.6875 -0.4375 5.421875 -1.046875q0.03125 -0.625 0.03125 -0.796875q0 -1.859375 -0.875 -2.625q-1.15625 -1.03125 -3.46875 -1.03125q-2.140625 0 -3.171875 0.765625q-1.015625 0.75 -1.515625 2.65625l-2.96875 -0.40625q0.40625 -1.90625 1.328125 -3.078125q0.9375 -1.1875 2.6875 -1.8125q1.765625 -0.640625 4.078125 -0.640625q2.3125 0 3.75 0.546875q1.4375 0.53125 2.109375 1.359375q0.6875 0.8125 0.953125 2.0625q0.15625 0.78125 0.15625 2.8125l0 4.0625q0 4.25 0.1875 5.375q0.203125 1.125 0.765625 2.15625l-3.171875 0q-0.484375 -0.953125 -0.609375 -2.21875zm-0.265625 -6.796875q-1.65625 0.671875 -4.96875 1.140625q-1.875 0.28125 -2.65625 0.625q-0.78125 0.328125 -1.203125 0.984375q-0.421875 0.640625 -0.421875 1.4375q0 1.21875 0.921875 2.03125q0.921875 0.8125 2.703125 0.8125q1.75 0 3.125 -0.765625q1.375 -0.765625 2.015625 -2.109375q0.484375 -1.03125 0.484375 -3.046875l0 -1.109375zm7.8054047 9.015625l0 -17.96875l2.734375 0l0 2.515625q0.84375 -1.3125 2.25 -2.109375q1.40625 -0.8125 3.1875 -0.8125q2.0 0 3.28125 0.828125q1.28125 0.828125 1.796875 2.3125q2.140625 -3.140625 5.546875 -3.140625q2.6875 0 4.125 1.484375q1.4375 1.46875 1.4375 4.546875l0 12.34375l-3.03125 0l0 -11.328125q0 -1.8125 -0.296875 -2.609375q-0.296875 -0.8125 -1.078125 -1.296875q-0.78125 -0.5 -1.828125 -0.5q-1.890625 0 -3.140625 1.265625q-1.25 1.25 -1.25 4.03125l0 10.4375l-3.046875 0l0 -11.671875q0 -2.03125 -0.75 -3.046875q-0.75 -1.015625 -2.4375 -1.015625q-1.28125 0 -2.375 0.671875q-1.09375 0.671875 -1.59375 1.984375q-0.484375 1.296875 -0.484375 3.75l0 9.328125l-3.046875 0zm28.868927 6.890629l0 -24.859379l2.78125 0l0 2.328125q0.984375 -1.359375 2.21875 -2.046875q1.234375 -0.6875 2.984375 -0.6875q2.3125 0 4.0625 1.1875q1.765625 1.171875 2.65625 3.34375q0.90625 2.15625 0.90625 4.71875q0 2.765625 -1.0 4.96875q-0.984375 2.203125 -2.875 3.390625q-1.875 1.171875 -3.96875 1.171875q-1.515625 0 -2.734375 -0.640625q-1.203125 -0.640625 -1.984375 -1.625l0 8.750004l-3.046875 0zm2.765625 -15.781254q0 3.46875 1.40625 5.140625q1.40625 1.65625 3.390625 1.65625q2.03125 0 3.46875 -1.71875q1.453125 -1.71875 1.453125 -5.328125q0 -3.4375 -1.40625 -5.140625q-1.40625 -1.703125 -3.375 -1.703125q-1.953125 0 -3.453125 1.8125q-1.484375 1.8125 -1.484375 5.28125zm16.44603 8.890625l0 -24.8125l3.046875 0l0 24.8125l-3.046875 0zm20.074509 -5.78125l3.140625 0.390625q-0.75 2.75 -2.765625 4.28125q-2.0 1.515625 -5.140625 1.515625q-3.9375 0 -6.25 -2.421875q-2.3125 -2.4375 -2.3125 -6.8125q0 -4.546875 2.328125 -7.046875q2.34375 -2.5 6.0625 -2.5q3.609375 0 5.890625 2.453125q2.28125 2.453125 2.28125 6.90625q0 0.265625 -0.015625 0.8125l-13.390625 0q0.15625 2.953125 1.65625 4.53125q1.515625 1.578125 3.765625 1.578125q1.6875 0 2.859375 -0.875q1.1875 -0.890625 1.890625 -2.8125zm-10.015625 -4.9375l10.046875 0q-0.203125 -2.265625 -1.15625 -3.390625q-1.453125 -1.765625 -3.765625 -1.765625q-2.109375 0 -3.546875 1.40625q-1.421875 1.40625 -1.578125 3.75zm25.887146 2.75l3.09375 -0.265625q0.21875 1.859375 1.015625 3.046875q0.8125 1.1875 2.5 1.9375q1.6875 0.734375 3.8125 0.734375q1.875 0 3.3125 -0.5625q1.4375 -0.5625 2.140625 -1.53125q0.703125 -0.96875 0.703125 -2.125q0 -1.171875 -0.6875 -2.03125q-0.671875 -0.875 -2.21875 -1.46875q-1.0 -0.390625 -4.421875 -1.203125q-3.421875 -0.828125 -4.78125 -1.5625q-1.78125 -0.921875 -2.65625 -2.296875q-0.875 -1.390625 -0.875 -3.09375q0 -1.875 1.0625 -3.5q1.078125 -1.640625 3.125 -2.484375q2.046875 -0.859375 4.546875 -0.859375q2.765625 0 4.859375 0.890625q2.109375 0.890625 3.234375 2.625q1.140625 1.71875 1.234375 3.90625l-3.15625 0.234375q-0.25 -2.359375 -1.71875 -3.5625q-1.453125 -1.203125 -4.3125 -1.203125q-2.984375 0 -4.34375 1.09375q-1.359375 1.09375 -1.359375 2.640625q0 1.328125 0.96875 2.1875q0.9375 0.875 4.9375 1.78125q4.0 0.90625 5.5 1.578125q2.15625 1.0 3.1875 2.53125q1.046875 1.53125 1.046875 3.53125q0 1.96875 -1.140625 3.734375q-1.140625 1.75 -3.265625 2.71875q-2.109375 0.96875 -4.765625 0.96875q-3.375 0 -5.65625 -0.984375q-2.265625 -0.984375 -3.5625 -2.953125q-1.296875 -1.96875 -1.359375 -4.453125zm23.834183 14.859379l0 -24.859379l2.78125 0l0 2.328125q0.984375 -1.359375 2.21875 -2.046875q1.234375 -0.6875 2.984375 -0.6875q2.3125 0 4.0625 1.1875q1.765625 1.171875 2.65625 3.34375q0.90625 2.15625 0.90625 4.71875q0 2.765625 -1.0 4.96875q-0.984375 2.203125 -2.875 3.390625q-1.875 1.171875 -3.96875 1.171875q-1.515625 0 -2.734375 -0.640625q-1.203125 -0.640625 -1.984375 -1.625l0 8.750004l-3.046875 0zm2.765625 -15.781254q0 3.46875 1.40625 5.140625q1.40625 1.65625 3.390625 1.65625q2.03125 0 3.46875 -1.71875q1.453125 -1.71875 1.453125 -5.328125q0 -3.4375 -1.40625 -5.140625q-1.40625 -1.703125 -3.375 -1.703125q-1.953125 0 -3.453125 1.8125q-1.484375 1.8125 -1.484375 5.28125zm28.24292 6.671875q-1.703125 1.4375 -3.265625 2.03125q-1.5625 0.59375 -3.359375 0.59375q-2.953125 0 -4.546875 -1.4375q-1.59375 -1.453125 -1.59375 -3.703125q0 -1.328125 0.59375 -2.40625q0.609375 -1.09375 1.578125 -1.75q0.984375 -0.671875 2.203125 -1.015625q0.890625 -0.234375 2.703125 -0.453125q3.6875 -0.4375 5.421875 -1.046875q0.03125 -0.625 0.03125 -0.796875q0 -1.859375 -0.875 -2.625q-1.15625 -1.03125 -3.46875 -1.03125q-2.140625 0 -3.171875 0.765625q-1.015625 0.75 -1.515625 2.65625l-2.96875 -0.40625q0.40625 -1.90625 1.328125 -3.078125q0.9375 -1.1875 2.6875 -1.8125q1.765625 -0.640625 4.078125 -0.640625q2.3125 0 3.75 0.546875q1.4375 0.53125 2.109375 1.359375q0.6875 0.8125 0.953125 2.0625q0.15625 0.78125 0.15625 2.8125l0 4.0625q0 4.25 0.1875 5.375q0.203125 1.125 0.765625 2.15625l-3.171875 0q-0.484375 -0.953125 -0.609375 -2.21875zm-0.265625 -6.796875q-1.65625 0.671875 -4.96875 1.140625q-1.875 0.28125 -2.65625 0.625q-0.78125 0.328125 -1.203125 0.984375q-0.421875 0.640625 -0.421875 1.4375q0 1.21875 0.921875 2.03125q0.921875 0.8125 2.703125 0.8125q1.75 0 3.125 -0.765625q1.375 -0.765625 2.015625 -2.109375q0.484375 -1.03125 0.484375 -3.046875l0 -1.109375zm19.539764 2.4375l2.984375 0.390625q-0.484375 3.09375 -2.515625 4.84375q-2.015625 1.75 -4.953125 1.75q-3.6875 0 -5.9375 -2.40625q-2.234375 -2.421875 -2.234375 -6.921875q0 -2.90625 0.953125 -5.078125q0.96875 -2.1875 2.9375 -3.28125q1.96875 -1.09375 4.296875 -1.09375q2.921875 0 4.78125 1.484375q1.859375 1.46875 2.390625 4.203125l-2.96875 0.453125q-0.421875 -1.8125 -1.5 -2.71875q-1.0625 -0.921875 -2.59375 -0.921875q-2.296875 0 -3.734375 1.65625q-1.4375 1.640625 -1.4375 5.21875q0 3.625 1.390625 5.265625q1.390625 1.640625 3.625 1.640625q1.78125 0 2.984375 -1.09375q1.203125 -1.109375 1.53125 -3.390625zm17.90625 0.796875l3.140625 0.390625q-0.75 2.75 -2.765625 4.28125q-2.0 1.515625 -5.140625 1.515625q-3.9375 0 -6.25 -2.421875q-2.3125 -2.4375 -2.3125 -6.8125q0 -4.546875 2.328125 -7.046875q2.34375 -2.5 6.0625 -2.5q3.609375 0 5.890625 2.453125q2.28125 2.453125 2.28125 6.90625q0 0.265625 -0.015625 0.8125l-13.390625 0q0.15625 2.953125 1.65625 4.53125q1.515625 1.578125 3.765625 1.578125q1.6875 0 2.859375 -0.875q1.1875 -0.890625 1.890625 -2.8125zm-10.015625 -4.9375l10.046875 0q-0.203125 -2.265625 -1.15625 -3.390625q-1.453125 -1.765625 -3.765625 -1.765625q-2.109375 0 -3.546875 1.40625q-1.421875 1.40625 -1.578125 3.75z" fill-rule="nonzero"/><path fill="#000000" fill-opacity="0.0" d="m139.09235 316.09448l0 0c0 -75.884796 94.823975 -137.40157 211.79529 -137.40157l0 0c116.97128 0 211.79529 61.51677 211.79529 137.40157l0 0c0 75.884796 -94.824005 137.40158 -211.79529 137.40158l0 0c-116.97131 0 -211.79529 -61.516785 -211.79529 -137.40158z" fill-rule="evenodd"/><path stroke="#ff00ff" stroke-width="4.0" stroke-linejoin="round" stroke-linecap="butt" d="m139.09235 316.09448l0 0c0 -75.884796 94.823975 -137.40157 211.79529 -137.40157l0 0c116.97128 0 211.79529 61.51677 211.79529 137.40157l0 0c0 75.884796 -94.824005 137.40158 -211.79529 137.40158l0 0c-116.97131 0 -211.79529 -61.516785 -211.79529 -137.40158z" fill-rule="evenodd"/><path fill="#000000" fill-opacity="0.0" d="m147.73753 82.14698l357.6693 0l0 72.18897l-357.6693 0z" fill-rule="evenodd"/><path fill="#ff00ff" d="m190.59686 103.786354l0 3.53125l-3.265625 0l0 -2.796875q0 -2.265625 0.546875 -3.28125q0.703125 -1.34375 2.25 -2.046875l0.734375 1.1875q-0.921875 0.390625 -1.375 1.171875q-0.4375 0.765625 -0.484375 2.234375l1.59375 0zm5.25 0l0 3.53125l-3.265625 0l0 -2.796875q0 -2.265625 0.53125 -3.28125q0.71875 -1.34375 2.25 -2.046875l0.75 1.1875q-0.9375 0.390625 -1.375 1.171875q-0.4375 0.765625 -0.484375 2.234375l1.59375 0zm1.572052 20.640625l9.515625 -24.8125l3.546875 0l10.15625 24.8125l-3.75 0l-2.890625 -7.515625l-10.375 0l-2.71875 7.515625l-3.484375 0zm7.15625 -10.1875l8.40625 0l-2.59375 -6.875q-1.171875 -3.125 -1.75 -5.140625q-0.484375 2.390625 -1.34375 4.734375l-2.71875 7.28125zm24.943573 7.46875l0.4375 2.6875q-1.28125 0.265625 -2.296875 0.265625q-1.65625 0 -2.578125 -0.515625q-0.90625 -0.53125 -1.28125 -1.375q-0.375 -0.859375 -0.375 -3.609375l0 -10.34375l-2.234375 0l0 -2.359375l2.234375 0l0 -4.453125l3.03125 -1.828125l0 6.28125l3.0625 0l0 2.359375l-3.0625 0l0 10.515625q0 1.296875 0.15625 1.671875q0.15625 0.375 0.515625 0.59375q0.375 0.21875 1.046875 0.21875q0.515625 0 1.34375 -0.109375zm12.538483 2.71875l0 -24.8125l3.046875 0l0 24.8125l-3.046875 0zm20.074524 -5.78125l3.140625 0.390625q-0.75 2.75 -2.765625 4.28125q-2.0 1.515625 -5.140625 1.515625q-3.9375153 0 -6.2500153 -2.421875q-2.3125 -2.4375 -2.3125 -6.8125q0 -4.546875 2.328125 -7.046875q2.34375 -2.5 6.0625153 -2.5q3.609375 0 5.890625 2.453125q2.28125 2.453125 2.28125 6.90625q0 0.265625 -0.015625 0.8125l-13.39064 0q0.15625 2.953125 1.65625 4.53125q1.515625 1.578125 3.7656403 1.578125q1.6875 0 2.859375 -0.875q1.1875 -0.890625 1.890625 -2.8125zm-10.01564 -4.9375l10.04689 0q-0.203125 -2.265625 -1.15625 -3.390625q-1.453125 -1.765625 -3.765625 -1.765625q-2.1093903 0 -3.5468903 1.40625q-1.421875 1.40625 -1.578125 3.75zm28.711655 8.5q-1.703125 1.4375 -3.265625 2.03125q-1.5625 0.59375 -3.359375 0.59375q-2.953125 0 -4.546875 -1.4375q-1.59375 -1.453125 -1.59375 -3.703125q0 -1.328125 0.59375 -2.40625q0.609375 -1.09375 1.578125 -1.75q0.984375 -0.671875 2.203125 -1.015625q0.890625 -0.234375 2.703125 -0.453125q3.6875 -0.4375 5.421875 -1.046875q0.03125 -0.625 0.03125 -0.796875q0 -1.859375 -0.875 -2.625q-1.15625 -1.03125 -3.46875 -1.03125q-2.140625 0 -3.171875 0.765625q-1.015625 0.75 -1.515625 2.65625l-2.96875 -0.40625q0.40625 -1.90625 1.328125 -3.078125q0.9375 -1.1875 2.6875 -1.8125q1.765625 -0.640625 4.078125 -0.640625q2.3125 0 3.75 0.546875q1.4375 0.53125 2.109375 1.359375q0.6875 0.8125 0.953125 2.0625q0.15625 0.78125 0.15625 2.8125l0 4.0625q0 4.25 0.1875 5.375q0.203125 1.125 0.765625 2.15625l-3.171875 0q-0.484375 -0.953125 -0.609375 -2.21875zm-0.265625 -6.796875q-1.65625 0.671875 -4.96875 1.140625q-1.875 0.28125 -2.65625 0.625q-0.78125 0.328125 -1.203125 0.984375q-0.421875 0.640625 -0.421875 1.4375q0 1.21875 0.921875 2.03125q0.921875 0.8125 2.703125 0.8125q1.75 0 3.125 -0.765625q1.375 -0.765625 2.015625 -2.109375q0.484375 -1.03125 0.484375 -3.046875l0 -1.109375zm6.58667 3.65625l3.015625 -0.484375q0.25 1.8125 1.40625 2.78125q1.171875 0.96875 3.25 0.96875q2.09375 0 3.109375 -0.859375q1.015625 -0.859375 1.015625 -2.0q0 -1.03125 -0.890625 -1.625q-0.625 -0.40625 -3.125 -1.03125q-3.34375 -0.859375 -4.640625 -1.46875q-1.296875 -0.625 -1.96875 -1.703125q-0.65625 -1.09375 -0.65625 -2.421875q0 -1.203125 0.546875 -2.21875q0.546875 -1.03125 1.5 -1.703125q0.703125 -0.53125 1.921875 -0.890625q1.234375 -0.359375 2.640625 -0.359375q2.125 0 3.71875 0.609375q1.59375 0.609375 2.359375 1.65625q0.765625 1.03125 1.046875 2.78125l-2.96875 0.40625q-0.203125 -1.390625 -1.1875 -2.171875q-0.96875 -0.78125 -2.75 -0.78125q-2.09375 0 -3.0 0.703125q-0.890625 0.6875 -0.890625 1.625q0 0.578125 0.375 1.0625q0.375 0.484375 1.171875 0.8125q0.453125 0.171875 2.6875 0.78125q3.234375 0.859375 4.5 1.40625q1.28125 0.546875 2.0 1.59375q0.734375 1.046875 0.734375 2.609375q0 1.53125 -0.890625 2.875q-0.875 1.34375 -2.5625 2.078125q-1.671875 0.734375 -3.78125 0.734375q-3.5 0 -5.34375 -1.453125q-1.828125 -1.453125 -2.34375 -4.3125zm25.203125 2.640625l0.4375 2.6875q-1.28125 0.265625 -2.296875 0.265625q-1.65625 0 -2.578125 -0.515625q-0.90625 -0.53125 -1.28125 -1.375q-0.375 -0.859375 -0.375 -3.609375l0 -10.34375l-2.234375 0l0 -2.359375l2.234375 0l0 -4.453125l3.03125 -1.828125l0 6.28125l3.0625 0l0 2.359375l-3.0625 0l0 10.515625q0 1.296875 0.15625 1.671875q0.15625 0.375 0.515625 0.59375q0.375 0.21875 1.046875 0.21875q0.515625 0 1.34375 -0.109375zm11.475983 -6.265625q0 -5.0 2.765625 -7.390625q2.328125 -2.0 5.65625 -2.0q3.703125 0 6.046875 2.4375q2.359375 2.421875 2.359375 6.703125q0 3.46875 -1.046875 5.453125q-1.03125 1.984375 -3.015625 3.09375q-1.984375 1.09375 -4.34375 1.09375q-3.78125 0 -6.109375 -2.421875q-2.3125 -2.421875 -2.3125 -6.96875zm3.125 0q0 3.453125 1.5 5.171875q1.515625 1.71875 3.796875 1.71875q2.265625 0 3.765625 -1.71875q1.515625 -1.734375 1.515625 -5.28125q0 -3.328125 -1.515625 -5.046875q-1.515625 -1.71875 -3.765625 -1.71875q-2.28125 0 -3.796875 1.71875q-1.5 1.703125 -1.5 5.15625zm17.27414 8.984375l0 -17.96875l2.75 0l0 2.546875q1.96875 -2.953125 5.71875 -2.953125q1.625 0 2.984375 0.59375q1.359375 0.578125 2.03125 1.53125q0.6875 0.9375 0.953125 2.234375q0.171875 0.84375 0.171875 2.96875l0 11.046875l-3.046875 0l0 -10.9375q0 -1.859375 -0.359375 -2.78125q-0.359375 -0.921875 -1.265625 -1.46875q-0.890625 -0.546875 -2.109375 -0.546875q-1.953125 0 -3.375 1.234375q-1.40625 1.234375 -1.40625 4.6875l0 9.8125l-3.046875 0zm31.58667 -5.78125l3.140625 0.390625q-0.75 2.75 -2.765625 4.28125q-2.0 1.515625 -5.140625 1.515625q-3.9375 0 -6.25 -2.421875q-2.3125 -2.4375 -2.3125 -6.8125q0 -4.546875 2.328125 -7.046875q2.34375 -2.5 6.0625 -2.5q3.609375 0 5.890625 2.453125q2.28125 2.453125 2.28125 6.90625q0 0.265625 -0.015625 0.8125l-13.390625 0q0.15625 2.953125 1.65625 4.53125q1.515625 1.578125 3.765625 1.578125q1.6875 0 2.859375 -0.875q1.1875 -0.890625 1.890625 -2.8125zm-10.015625 -4.9375l10.046875 0q-0.203125 -2.265625 -1.15625 -3.390625q-1.453125 -1.765625 -3.765625 -1.765625q-2.109375 0 -3.546875 1.40625q-1.421875 1.40625 -1.578125 3.75zm26.605896 10.71875l0 -24.8125l3.046875 0l0 8.90625q2.140625 -2.46875 5.390625 -2.46875q1.984375 0 3.453125 0.796875q1.484375 0.78125 2.109375 2.171875q0.640625 1.375 0.640625 4.015625l0 11.390625l-3.046875 0l0 -11.390625q0 -2.28125 -1.0 -3.3125q-0.984375 -1.046875 -2.796875 -1.046875q-1.34375 0 -2.546875 0.703125q-1.1875 0.703125 -1.703125 1.90625q-0.5 1.1875 -0.5 3.3125l0 9.828125l-3.046875 0zm31.58667 -5.78125l3.140625 0.390625q-0.75 2.75 -2.765625 4.28125q-2.0 1.515625 -5.140625 1.515625q-3.9375 0 -6.25 -2.421875q-2.3125 -2.4375 -2.3125 -6.8125q0 -4.546875 2.328125 -7.046875q2.34375 -2.5 6.0625 -2.5q3.609375 0 5.890625 2.453125q2.28125 2.453125 2.28125 6.90625q0 0.265625 -0.015625 0.8125l-13.390625 0q0.15625 2.953125 1.65625 4.53125q1.515625 1.578125 3.765625 1.578125q1.6875 0 2.859375 -0.875q1.1875 -0.890625 1.890625 -2.8125zm-10.015625 -4.9375l10.046875 0q-0.203125 -2.265625 -1.15625 -3.390625q-1.453125 -1.765625 -3.765625 -1.765625q-2.109375 0 -3.546875 1.40625q-1.421875 1.40625 -1.578125 3.75zm28.71164 8.5q-1.703125 1.4375 -3.265625 2.03125q-1.5625 0.59375 -3.359375 0.59375q-2.953125 0 -4.546875 -1.4375q-1.59375 -1.453125 -1.59375 -3.703125q0 -1.328125 0.59375 -2.40625q0.609375 -1.09375 1.578125 -1.75q0.984375 -0.671875 2.203125 -1.015625q0.890625 -0.234375 2.703125 -0.453125q3.6875 -0.4375 5.421875 -1.046875q0.03125 -0.625 0.03125 -0.796875q0 -1.859375 -0.875 -2.625q-1.15625 -1.03125 -3.46875 -1.03125q-2.140625 0 -3.171875 0.765625q-1.015625 0.75 -1.515625 2.65625l-2.96875 -0.40625q0.40625 -1.90625 1.328125 -3.078125q0.9375 -1.1875 2.6875 -1.8125q1.765625 -0.640625 4.078125 -0.640625q2.3125 0 3.75 0.546875q1.4375 0.53125 2.109375 1.359375q0.6875 0.8125 0.953125 2.0625q0.15625 0.78125 0.15625 2.8125l0 4.0625q0 4.25 0.1875 5.375q0.203125 1.125 0.765625 2.15625l-3.171875 0q-0.484375 -0.953125 -0.609375 -2.21875zm-0.265625 -6.796875q-1.65625 0.671875 -4.96875 1.140625q-1.875 0.28125 -2.65625 0.625q-0.78125 0.328125 -1.203125 0.984375q-0.421875 0.640625 -0.421875 1.4375q0 1.21875 0.921875 2.03125q0.921875 0.8125 2.703125 0.8125q1.75 0 3.125 -0.765625q1.375 -0.765625 2.015625 -2.109375q0.484375 -1.03125 0.484375 -3.046875l0 -1.109375zm19.46164 9.015625l0 -2.265625q-1.703125 2.671875 -5.015625 2.671875q-2.15625 0 -3.953125 -1.1875q-1.796875 -1.1875 -2.796875 -3.296875q-0.984375 -2.125 -0.984375 -4.890625q0 -2.6875 0.890625 -4.875q0.90625 -2.203125 2.6875 -3.359375q1.796875 -1.171875 4.015625 -1.171875q1.625 0 2.890625 0.6875q1.28125 0.6875 2.0625 1.78125l0 -8.90625l3.03125 0l0 24.8125l-2.828125 0zm-9.625 -8.96875q0 3.453125 1.453125 5.171875q1.453125 1.703125 3.4375 1.703125q2.0 0 3.390625 -1.625q1.40625 -1.640625 1.40625 -5.0q0 -3.6875 -1.421875 -5.40625q-1.421875 -1.734375 -3.515625 -1.734375q-2.015625 0 -3.390625 1.65625q-1.359375 1.65625 -1.359375 5.234375z" fill-rule="nonzero"/><path fill="#ff00ff" d="m278.94098 163.80823q-1.703125 1.4375 -3.265625 2.03125q-1.5625 0.59375 -3.359375 0.59375q-2.953125 0 -4.546875 -1.4375q-1.59375 -1.453125 -1.59375 -3.703125q0 -1.328125 0.59375 -2.40625q0.609375 -1.09375 1.578125 -1.75q0.984375 -0.671875 2.203125 -1.015625q0.890625 -0.234375 2.703125 -0.453125q3.6875 -0.4375 5.421875 -1.046875q0.03125 -0.625 0.03125 -0.796875q0 -1.859375 -0.875 -2.625q-1.15625 -1.03125 -3.46875 -1.03125q-2.140625 0 -3.171875 0.765625q-1.015625 0.75 -1.515625 2.65625l-2.96875 -0.40625q0.40625 -1.90625 1.328125 -3.078125q0.9375 -1.1875 2.6875 -1.8125q1.765625 -0.640625 4.078125 -0.640625q2.3125 0 3.75 0.546875q1.4375 0.53125 2.109375 1.359375q0.6875 0.8125 0.953125 2.0625q0.15625 0.78125 0.15625 2.8125l0 4.0625q0 4.25 0.1875 5.375q0.203125 1.125 0.765625 2.15625l-3.171875 0q-0.484375 -0.953125 -0.609375 -2.21875zm-0.265625 -6.796875q-1.65625 0.671875 -4.96875 1.140625q-1.875 0.28125 -2.65625 0.625q-0.78125 0.328125 -1.203125 0.984375q-0.421875 0.640625 -0.421875 1.4375q0 1.21875 0.921875 2.03125q0.921875 0.8125 2.703125 0.8125q1.75 0 3.125 -0.765625q1.375 -0.765625 2.015625 -2.109375q0.484375 -1.03125 0.484375 -3.046875l0 -1.109375zm7.8053894 9.015625l0 -17.96875l2.75 0l0 2.546875q1.96875 -2.953125 5.71875 -2.953125q1.625 0 2.984375 0.59375q1.359375 0.578125 2.03125 1.53125q0.6875 0.9375 0.953125 2.234375q0.171875 0.84375 0.171875 2.96875l0 11.046875l-3.046875 0l0 -10.9375q0 -1.859375 -0.359375 -2.78125q-0.359375 -0.921875 -1.265625 -1.46875q-0.890625 -0.546875 -2.109375 -0.546875q-1.953125 0 -3.375 1.234375q-1.40625 1.234375 -1.40625 4.6875l0 9.8125l-3.046875 0zm30.93042 0l0 -2.265625q-1.703125 2.671875 -5.015625 2.671875q-2.15625 0 -3.953125 -1.1875q-1.796875 -1.1875 -2.796875 -3.296875q-0.984375 -2.125 -0.984375 -4.890625q0 -2.6875 0.890625 -4.875q0.90625 -2.203125 2.6875 -3.359375q1.796875 -1.171875 4.015625 -1.171875q1.625 0 2.890625 0.6875q1.28125 0.6875 2.0625 1.78125l0 -8.90625l3.03125 0l0 24.8125l-2.828125 0zm-9.625 -8.96875q0 3.453125 1.453125 5.171875q1.453125 1.703125 3.4375 1.703125q2.0 0 3.390625 -1.625q1.40625 -1.640625 1.40625 -5.0q0 -3.6875 -1.421875 -5.40625q-1.421875 -1.734375 -3.515625 -1.734375q-2.015625 0 -3.390625 1.65625q-1.359375 1.65625 -1.359375 5.234375zm33.52777 6.25l0.4375 2.6875q-1.28125 0.265625 -2.296875 0.265625q-1.65625 0 -2.578125 -0.515625q-0.90625 -0.53125 -1.28125 -1.375q-0.375 -0.859375 -0.375 -3.609375l0 -10.34375l-2.234375 0l0 -2.359375l2.234375 0l0 -4.453125l3.03125 -1.828125l0 6.28125l3.0625 0l0 2.359375l-3.0625 0l0 10.515625q0 1.296875 0.15625 1.671875q0.15625 0.375 0.515625 0.59375q0.375 0.21875 1.046875 0.21875q0.515625 0 1.34375 -0.109375zm14.706726 0.5q-1.703125 1.4375 -3.265625 2.03125q-1.5625 0.59375 -3.359375 0.59375q-2.953125 0 -4.546875 -1.4375q-1.59375 -1.453125 -1.59375 -3.703125q0 -1.328125 0.59375 -2.40625q0.609375 -1.09375 1.578125 -1.75q0.984375 -0.671875 2.203125 -1.015625q0.890625 -0.234375 2.703125 -0.453125q3.6875 -0.4375 5.421875 -1.046875q0.03125 -0.625 0.03125 -0.796875q0 -1.859375 -0.875 -2.625q-1.15625 -1.03125 -3.46875 -1.03125q-2.140625 0 -3.171875 0.765625q-1.015625 0.75 -1.515625 2.65625l-2.96875 -0.40625q0.40625 -1.90625 1.328125 -3.078125q0.9375 -1.1875 2.6875 -1.8125q1.765625 -0.640625 4.078125 -0.640625q2.3125 0 3.75 0.546875q1.4375 0.53125 2.109375 1.359375q0.6875 0.8125 0.953125 2.0625q0.15625 0.78125 0.15625 2.8125l0 4.0625q0 4.25 0.1875 5.375q0.203125 1.125 0.765625 2.15625l-3.171875 0q-0.484375 -0.953125 -0.609375 -2.21875zm-0.265625 -6.796875q-1.65625 0.671875 -4.96875 1.140625q-1.875 0.28125 -2.65625 0.625q-0.78125 0.328125 -1.203125 0.984375q-0.421875 0.640625 -0.421875 1.4375q0 1.21875 0.921875 2.03125q0.921875 0.8125 2.703125 0.8125q1.75 0 3.125 -0.765625q1.375 -0.765625 2.015625 -2.109375q0.484375 -1.03125 0.484375 -3.046875l0 -1.109375zm7.821045 -12.296875l0 -3.5l3.046875 0l0 3.5l-3.046875 0zm0 21.3125l0 -17.96875l3.046875 0l0 17.96875l-3.046875 0zm7.6213684 0l0 -24.8125l3.046875 0l0 24.8125l-3.046875 0zm6.949524 -21.53125l0 -3.53125l3.265625 0l0 2.796875q0 2.265625 -0.515625 3.265625q-0.734375 1.375 -2.265625 2.0625l-0.75 -1.203125q0.90625 -0.375 1.359375 -1.171875q0.453125 -0.8125 0.5 -2.21875l-1.59375 0zm5.25 0l0 -3.53125l3.265625 0l0 2.796875q0 2.265625 -0.53125 3.265625q-0.71875 1.375 -2.265625 2.0625l-0.734375 -1.203125q0.90625 -0.375 1.359375 -1.171875q0.453125 -0.8125 0.5 -2.21875l-1.59375 0z" fill-rule="nonzero"/><path fill="#000000" fill-opacity="0.0" d="m435.98175 270.0l0 0c0 -75.884796 84.938965 -137.40158 189.71655 -137.40158l0 0c104.77753 0 189.71655 61.516785 189.71655 137.40158l0 0c0 75.884796 -84.939026 137.40158 -189.71655 137.40158l0 0c-104.77759 0 -189.71655 -61.516785 -189.71655 -137.40158z" fill-rule="evenodd"/><path stroke="#ff9900" stroke-width="4.0" stroke-linejoin="round" stroke-linecap="butt" d="m435.98175 270.0l0 0c0 -75.884796 84.938965 -137.40158 189.71655 -137.40158l0 0c104.77753 0 189.71655 61.516785 189.71655 137.40158l0 0c0 75.884796 -84.939026 137.40158 -189.71655 137.40158l0 0c-104.77759 0 -189.71655 -61.516785 -189.71655 -137.40158z" fill-rule="evenodd"/><path fill="#000000" fill-opacity="0.0" d="m511.86877 395.7979l299.1181 0l0 72.188965l-299.1181 0z" fill-rule="evenodd"/><path fill="#ff9900" d="m525.54065 417.4373l0 3.53125l-3.265625 0l0 -2.796875q0 -2.265625 0.546875 -3.28125q0.703125 -1.34375 2.25 -2.046875l0.734375 1.1875q-0.921875 0.390625 -1.375 1.171875q-0.4375 0.765625 -0.484375 2.234375l1.59375 0zm5.25 0l0 3.53125l-3.265625 0l0 -2.796875q0 -2.265625 0.53125 -3.28125q0.71875 -1.34375 2.25 -2.046875l0.75 1.1875q-0.9375 0.390625 -1.375 1.171875q-0.4375 0.765625 -0.484375 2.234375l1.59375 0zm15.9001465 10.90625l0 -2.90625l10.515625 -0.015625l0 9.203125q-2.421875 1.9375 -5.0 2.90625q-2.5625 0.96875 -5.28125 0.96875q-3.65625 0 -6.640625 -1.5625q-2.984375 -1.5625 -4.515625 -4.515625q-1.515625 -2.96875 -1.515625 -6.625q0 -3.625 1.515625 -6.765625q1.515625 -3.140625 4.359375 -4.65625q2.84375 -1.53125 6.546875 -1.53125q2.6875 0 4.859375 0.875q2.1875 0.875 3.421875 2.4375q1.234375 1.546875 1.875 4.046875l-2.96875 0.8125q-0.546875 -1.890625 -1.390625 -2.96875q-0.828125 -1.09375 -2.375 -1.734375q-1.53125 -0.65625 -3.40625 -0.65625q-2.25 0 -3.890625 0.6875q-1.640625 0.6875 -2.65625 1.8125q-1.0 1.109375 -1.5625 2.4375q-0.9375 2.3125 -0.9375 5.0q0 3.3125 1.140625 5.546875q1.140625 2.234375 3.3125 3.328125q2.1875 1.078125 4.640625 1.078125q2.140625 0 4.171875 -0.828125q2.03125 -0.828125 3.078125 -1.75l0 -4.625l-7.296875 0zm26.691162 7.515625q-1.703125 1.4375 -3.265625 2.03125q-1.5625 0.59375 -3.359375 0.59375q-2.953125 0 -4.546875 -1.4375q-1.59375 -1.453125 -1.59375 -3.703125q0 -1.328125 0.59375 -2.40625q0.609375 -1.09375 1.578125 -1.75q0.984375 -0.671875 2.203125 -1.015625q0.890625 -0.234375 2.703125 -0.453125q3.6875 -0.4375 5.421875 -1.046875q0.03125 -0.625 0.03125 -0.796875q0 -1.859375 -0.875 -2.625q-1.15625 -1.03125 -3.46875 -1.03125q-2.140625 0 -3.171875 0.765625q-1.015625 0.75 -1.515625 2.65625l-2.96875 -0.40625q0.40625 -1.90625 1.328125 -3.078125q0.9375 -1.1875 2.6875 -1.8125q1.765625 -0.640625 4.078125 -0.640625q2.3125 0 3.75 0.546875q1.4375 0.53125 2.109375 1.359375q0.6875 0.8125 0.953125 2.0625q0.15625 0.78125 0.15625 2.8125l0 4.0625q0 4.25 0.1875 5.375q0.203125 1.125 0.765625 2.15625l-3.171875 0q-0.484375 -0.953125 -0.609375 -2.21875zm-0.265625 -6.796875q-1.65625 0.671875 -4.96875 1.140625q-1.875 0.28125 -2.65625 0.625q-0.78125 0.328125 -1.203125 0.984375q-0.421875 0.640625 -0.421875 1.4375q0 1.21875 0.921875 2.03125q0.921875 0.8125 2.703125 0.8125q1.75 0 3.125 -0.765625q1.375 -0.765625 2.015625 -2.109375q0.484375 -1.03125 0.484375 -3.046875l0 -1.109375zm7.805359 9.015625l0 -17.96875l2.734375 0l0 2.515625q0.84375 -1.3125 2.25 -2.109375q1.40625 -0.8125 3.1875 -0.8125q2.0 0 3.28125 0.828125q1.28125 0.828125 1.796875 2.3125q2.140625 -3.140625 5.546875 -3.140625q2.6875 0 4.125 1.484375q1.4375 1.46875 1.4375 4.546875l0 12.34375l-3.03125 0l0 -11.328125q0 -1.8125 -0.296875 -2.609375q-0.296875 -0.8125 -1.078125 -1.296875q-0.78125 -0.5 -1.828125 -0.5q-1.890625 0 -3.140625 1.265625q-1.25 1.25 -1.25 4.03125l0 10.4375l-3.046875 0l0 -11.671875q0 -2.03125 -0.75 -3.046875q-0.75 -1.015625 -2.4375 -1.015625q-1.28125 0 -2.375 0.671875q-1.09375 0.671875 -1.59375 1.984375q-0.484375 1.296875 -0.484375 3.75l0 9.328125l-3.046875 0zm41.181458 -5.78125l3.140625 0.390625q-0.75 2.75 -2.765625 4.28125q-2.0 1.515625 -5.140625 1.515625q-3.9375 0 -6.25 -2.421875q-2.3125 -2.4375 -2.3125 -6.8125q0 -4.546875 2.328125 -7.046875q2.34375 -2.5 6.0625 -2.5q3.609375 0 5.890625 2.453125q2.28125 2.453125 2.28125 6.90625q0 0.265625 -0.015625 0.8125l-13.390625 0q0.15625 2.953125 1.65625 4.53125q1.515625 1.578125 3.765625 1.578125q1.6875 0 2.859375 -0.875q1.1875 -0.890625 1.890625 -2.8125zm-10.015625 -4.9375l10.046875 0q-0.203125 -2.265625 -1.15625 -3.390625q-1.453125 -1.765625 -3.765625 -1.765625q-2.109375 0 -3.546875 1.40625q-1.421875 1.40625 -1.578125 3.75zm15.758545 5.359375l3.015625 -0.484375q0.25 1.8125 1.40625 2.78125q1.171875 0.96875 3.25 0.96875q2.09375 0 3.109375 -0.859375q1.015625 -0.859375 1.015625 -2.0q0 -1.03125 -0.890625 -1.625q-0.625 -0.40625 -3.125 -1.03125q-3.34375 -0.859375 -4.640625 -1.46875q-1.296875 -0.625 -1.96875 -1.703125q-0.65625 -1.09375 -0.65625 -2.421875q0 -1.203125 0.546875 -2.21875q0.546875 -1.03125 1.5 -1.703125q0.703125 -0.53125 1.921875 -0.890625q1.234375 -0.359375 2.640625 -0.359375q2.125 0 3.71875 0.609375q1.59375 0.609375 2.359375 1.65625q0.765625 1.03125 1.046875 2.78125l-2.96875 0.40625q-0.203125 -1.390625 -1.1875 -2.171875q-0.96875 -0.78125 -2.75 -0.78125q-2.09375 0 -3.0 0.703125q-0.890625 0.6875 -0.890625 1.625q0 0.578125 0.375 1.0625q0.375 0.484375 1.171875 0.8125q0.453125 0.171875 2.6875 0.78125q3.234375 0.859375 4.5 1.40625q1.28125 0.546875 2.0 1.59375q0.734375 1.046875 0.734375 2.609375q0 1.53125 -0.890625 2.875q-0.875 1.34375 -2.5625 2.078125q-1.671875 0.734375 -3.78125 0.734375q-3.5 0 -5.34375 -1.453125q-1.828125 -1.453125 -2.34375 -4.3125zm31.487976 5.359375l-5.5 -17.96875l3.15625 0l2.859375 10.375l1.0625 3.859375q0.078125 -0.296875 0.9375 -3.71875l2.859375 -10.515625l3.125 0l2.6875 10.421875l0.90625 3.4375l1.03125 -3.46875l3.078125 -10.390625l2.953125 0l-5.609375 17.96875l-3.171875 0l-2.859375 -10.765625l-0.6875 -3.0625l-3.640625 13.828125l-3.1875 0zm20.590149 -8.984375q0 -5.0 2.765625 -7.390625q2.328125 -2.0 5.65625 -2.0q3.703125 0 6.046875 2.4375q2.359375 2.421875 2.359375 6.703125q0 3.46875 -1.046875 5.453125q-1.03125 1.984375 -3.015625 3.09375q-1.984375 1.09375 -4.34375 1.09375q-3.78125 0 -6.109375 -2.421875q-2.3125 -2.421875 -2.3125 -6.96875zm3.125 0q0 3.453125 1.5 5.171875q1.515625 1.71875 3.796875 1.71875q2.265625 0 3.765625 -1.71875q1.515625 -1.734375 1.515625 -5.28125q0 -3.328125 -1.515625 -5.046875q-1.515625 -1.71875 -3.765625 -1.71875q-2.28125 0 -3.796875 1.71875q-1.5 1.703125 -1.5 5.15625zm17.274109 8.984375l0 -17.96875l2.75 0l0 2.546875q1.96875 -2.953125 5.71875 -2.953125q1.625 0 2.984375 0.59375q1.359375 0.578125 2.03125 1.53125q0.6875 0.9375 0.953125 2.234375q0.171875 0.84375 0.171875 2.96875l0 11.046875l-3.046875 0l0 -10.9375q0 -1.859375 -0.359375 -2.78125q-0.359375 -0.921875 -1.265625 -1.46875q-0.890625 -0.546875 -2.109375 -0.546875q-1.953125 0 -3.375 1.234375q-1.40625 1.234375 -1.40625 4.6875l0 9.8125l-3.046875 0zm31.715271 0l-2.828125 0l0 -24.8125l3.046875 0l0 8.859375q1.9375 -2.421875 4.921875 -2.421875q1.65625 0 3.140625 0.671875q1.484375 0.65625 2.4375 1.875q0.953125 1.203125 1.5 2.921875q0.546875 1.703125 0.546875 3.65625q0 4.609375 -2.296875 7.140625q-2.28125 2.515625 -5.484375 2.515625q-3.171875 0 -4.984375 -2.65625l0 2.25zm-0.03125 -9.125q0 3.234375 0.875 4.671875q1.4375 2.359375 3.890625 2.359375q2.0 0 3.453125 -1.734375q1.453125 -1.734375 1.453125 -5.171875q0 -3.515625 -1.390625 -5.1875q-1.390625 -1.6875 -3.375 -1.6875q-2.0 0 -3.453125 1.734375q-1.453125 1.734375 -1.453125 5.015625zm16.36792 16.046875l-0.34375 -2.859375q1.0 0.265625 1.734375 0.265625q1.015625 0 1.625 -0.34375q0.609375 -0.328125 1.0 -0.9375q0.296875 -0.453125 0.9375 -2.265625q0.078125 -0.25 0.265625 -0.75l-6.8125 -18.0l3.28125 0l3.734375 10.40625q0.734375 1.984375 1.3125 4.15625q0.515625 -2.09375 1.25 -4.09375l3.84375 -10.46875l3.046875 0l-6.84375 18.265625q-1.09375 2.96875 -1.703125 4.078125q-0.8125 1.515625 -1.875 2.21875q-1.046875 0.703125 -2.5 0.703125q-0.875 0 -1.953125 -0.375z" fill-rule="nonzero"/><path fill="#ff9900" d="m522.4313 471.70914l3.09375 -0.265625q0.21875 1.859375 1.015625 3.046875q0.8125 1.1875 2.5 1.9375q1.6875 0.734375 3.8125 0.734375q1.875 0 3.3125 -0.5625q1.4375 -0.5625 2.140625 -1.53125q0.703125 -0.96875 0.703125 -2.125q0 -1.171875 -0.6875 -2.03125q-0.671875 -0.875 -2.21875 -1.46875q-1.0 -0.390625 -4.421875 -1.203125q-3.421875 -0.828125 -4.78125 -1.5625q-1.78125 -0.921875 -2.65625 -2.296875q-0.875 -1.390625 -0.875 -3.09375q0 -1.875 1.0625 -3.5q1.078125 -1.640625 3.125 -2.484375q2.046875 -0.859375 4.546875 -0.859375q2.765625 0 4.859375 0.890625q2.109375 0.890625 3.234375 2.625q1.140625 1.71875 1.234375 3.90625l-3.15625 0.234375q-0.25 -2.359375 -1.71875 -3.5625q-1.453125 -1.203125 -4.3125 -1.203125q-2.984375 0 -4.34375 1.09375q-1.359375 1.09375 -1.359375 2.640625q0 1.328125 0.96875 2.1875q0.9375 0.875 4.9375 1.78125q4.0 0.90625 5.5 1.578125q2.15625 1.0 3.1875 2.53125q1.046875 1.53125 1.046875 3.53125q0 1.96875 -1.140625 3.734375q-1.140625 1.75 -3.265625 2.71875q-2.109375 0.96875 -4.765625 0.96875q-3.375 0 -5.65625 -0.984375q-2.265625 -0.984375 -3.5625 -2.953125q-1.296875 -1.96875 -1.359375 -4.453125zm35.568542 5.75q-1.703125 1.4375 -3.265625 2.03125q-1.5625 0.59375 -3.359375 0.59375q-2.953125 0 -4.546875 -1.4375q-1.59375 -1.453125 -1.59375 -3.703125q0 -1.328125 0.59375 -2.40625q0.609375 -1.09375 1.578125 -1.75q0.984375 -0.671875 2.203125 -1.015625q0.890625 -0.234375 2.703125 -0.453125q3.6875 -0.4375 5.421875 -1.046875q0.03125 -0.625 0.03125 -0.796875q0 -1.859375 -0.875 -2.625q-1.15625 -1.03125 -3.46875 -1.03125q-2.140625 0 -3.171875 0.765625q-1.015625 0.75 -1.515625 2.65625l-2.96875 -0.40625q0.40625 -1.90625 1.328125 -3.078125q0.9375 -1.1875 2.6875 -1.8125q1.765625 -0.640625 4.078125 -0.640625q2.3125 0 3.75 0.546875q1.4375 0.53125 2.109375 1.359375q0.6875 0.8125 0.953125 2.0625q0.15625 0.78125 0.15625 2.8125l0 4.0625q0 4.25 0.1875 5.375q0.203125 1.125 0.765625 2.15625l-3.171875 0q-0.484375 -0.953125 -0.609375 -2.21875zm-0.265625 -6.796875q-1.65625 0.671875 -4.96875 1.140625q-1.875 0.28125 -2.65625 0.625q-0.78125 0.328125 -1.203125 0.984375q-0.421875 0.640625 -0.421875 1.4375q0 1.21875 0.921875 2.03125q0.921875 0.8125 2.703125 0.8125q1.75 0 3.125 -0.765625q1.375 -0.765625 2.015625 -2.109375q0.484375 -1.03125 0.484375 -3.046875l0 -1.109375zm19.46167 9.015625l0 -2.265625q-1.703125 2.671875 -5.015625 2.671875q-2.15625 0 -3.953125 -1.1875q-1.796875 -1.1875 -2.796875 -3.296875q-0.984375 -2.125 -0.984375 -4.890625q0 -2.6875 0.890625 -4.875q0.90625 -2.203125 2.6875 -3.359375q1.796875 -1.171875 4.015625 -1.171875q1.625 0 2.890625 0.6875q1.28125 0.6875 2.0625 1.78125l0 -8.90625l3.03125 0l0 24.8125l-2.828125 0zm-9.625 -8.96875q0 3.453125 1.453125 5.171875q1.453125 1.703125 3.4375 1.703125q2.0 0 3.390625 -1.625q1.40625 -1.640625 1.40625 -5.0q0 -3.6875 -1.421875 -5.40625q-1.421875 -1.734375 -3.515625 -1.734375q-2.015625 0 -3.390625 1.65625q-1.359375 1.65625 -1.359375 5.234375zm17.258545 -12.34375l0 -3.5l3.046875 0l0 3.5l-3.046875 0zm0 21.3125l0 -17.96875l3.046875 0l0 17.96875l-3.046875 0zm19.996399 -5.78125l3.140625 0.390625q-0.75 2.75 -2.765625 4.28125q-2.0 1.515625 -5.140625 1.515625q-3.9375 0 -6.25 -2.421875q-2.3125 -2.4375 -2.3125 -6.8125q0 -4.546875 2.328125 -7.046875q2.34375 -2.5 6.0625 -2.5q3.609375 0 5.890625 2.453125q2.28125 2.453125 2.28125 6.90625q0 0.265625 -0.015625 0.8125l-13.390625 0q0.15625 2.953125 1.65625 4.53125q1.515625 1.578125 3.765625 1.578125q1.6875 0 2.859375 -0.875q1.1875 -0.890625 1.890625 -2.8125zm-10.015625 -4.9375l10.046875 0q-0.203125 -2.265625 -1.15625 -3.390625q-1.453125 -1.765625 -3.765625 -1.765625q-2.109375 0 -3.546875 1.40625q-1.421875 1.40625 -1.578125 3.75zm16.164734 -10.8125l0 -3.53125l3.265625 0l0 2.796875q0 2.265625 -0.515625 3.265625q-0.734375 1.375 -2.265625 2.0625l-0.75 -1.203125q0.90625 -0.375 1.359375 -1.171875q0.453125 -0.8125 0.5 -2.21875l-1.59375 0zm5.25 0l0 -3.53125l3.265625 0l0 2.796875q0 2.265625 -0.53125 3.265625q-0.71875 1.375 -2.265625 2.0625l-0.734375 -1.203125q0.90625 -0.375 1.359375 -1.171875q0.453125 -0.8125 0.5 -2.21875l-1.59375 0z" fill-rule="nonzero"/><path fill="#000000" fill-opacity="0.0" d="m621.8714 239.66667l126.36218 0l0 42.866135l-126.36218 0z" fill-rule="evenodd"/><path fill="#595959" d="m636.4808 276.75354q-1.734375 -2.203125 -2.953125 -5.15625q-1.203125 -2.953125 -1.203125 -6.109375q0 -2.796875 0.90625 -5.34375q1.046875 -2.96875 3.25 -5.90625l1.515625 0q-1.421875 2.4375 -1.875 3.46875q-0.71875 1.625 -1.125 3.375q-0.5 2.203125 -0.5 4.40625q0 5.640625 3.5 11.265625l-1.515625 0zm4.3046875 -5.046875l0 -17.1875l2.28125 0l0 7.0625l8.921875 0l0 -7.0625l2.28125 0l0 17.1875l-2.28125 0l0 -8.09375l-8.921875 0l0 8.09375l-2.28125 0zm17.550781 0l0 -2.40625l2.390625 0l0 2.40625q0 1.328125 -0.46875 2.140625q-0.46875 0.8125 -1.484375 1.265625l-0.578125 -0.90625q0.65625 -0.296875 0.96875 -0.875q0.328125 -0.5625 0.359375 -1.625l-1.1875 0zm6.4492188 0l0 -17.1875l2.28125 0l0 7.0625l8.921875 0l0 -7.0625l2.28125 0l0 17.1875l-2.28125 0l0 -8.09375l-8.921875 0l0 8.09375l-2.28125 0zm17.550781 0l0 -2.40625l2.390625 0l0 2.40625q0 1.328125 -0.46875 2.140625q-0.46875 0.8125 -1.484375 1.265625l-0.578125 -0.90625q0.65625 -0.296875 0.96875 -0.875q0.328125 -0.5625 0.359375 -1.625l-1.1875 0zm6.4492188 0l0 -17.1875l2.28125 0l0 7.0625l8.921875 0l0 -7.0625l2.28125 0l0 17.1875l-2.28125 0l0 -8.09375l-8.921875 0l0 8.09375l-2.28125 0zm18.378906 5.046875l-1.515625 0q3.5 -5.625 3.5 -11.265625q0 -2.203125 -0.5 -4.359375q-0.390625 -1.765625 -1.109375 -3.375q-0.453125 -1.0625 -1.890625 -3.515625l1.515625 0q2.203125 2.9375 3.25 5.90625q0.90625 2.546875 0.90625 5.34375q0 3.15625 -1.21875 6.109375q-1.203125 2.953125 -2.9375 5.15625z" fill-rule="nonzero"/><path fill="#000000" fill-opacity="0.0" d="m441.40683 264.5656l126.36221 0l0 42.86615l-126.36221 0z" fill-rule="evenodd"/><path fill="#595959" d="m456.0162 301.6525q-1.734375 -2.203125 -2.953125 -5.15625q-1.203125 -2.953125 -1.203125 -6.109375q0 -2.796875 0.90625 -5.34375q1.046875 -2.96875 3.25 -5.90625l1.515625 0q-1.421875 2.4375 -1.875 3.46875q-0.71875 1.625 -1.125 3.375q-0.5 2.203125 -0.5 4.40625q0 5.640625 3.5 11.265625l-1.515625 0zm4.3046875 -5.046875l0 -17.1875l2.28125 0l0 7.0625l8.921875 0l0 -7.0625l2.28125 0l0 17.1875l-2.28125 0l0 -8.09375l-8.921875 0l0 8.09375l-2.28125 0zm17.550781 0l0 -2.40625l2.390625 0l0 2.40625q0 1.328125 -0.46875 2.140625q-0.46875 0.8125 -1.484375 1.265625l-0.578125 -0.90625q0.65625 -0.296875 0.96875 -0.875q0.328125 -0.5625 0.359375 -1.625l-1.1875 0zm6.4492188 0l0 -17.1875l2.28125 0l0 7.0625l8.921875 0l0 -7.0625l2.28125 0l0 17.1875l-2.28125 0l0 -8.09375l-8.921875 0l0 8.09375l-2.28125 0zm17.550781 0l0 -2.40625l2.390625 0l0 2.40625q0 1.328125 -0.46875 2.140625q-0.46875 0.8125 -1.484375 1.265625l-0.578125 -0.90625q0.65625 -0.296875 0.96875 -0.875q0.328125 -0.5625 0.359375 -1.625l-1.1875 0zm10.746063 0l0 -15.15625l-5.6562195 0l0 -2.03125l13.6249695 0l0 2.03125l-5.6875 0l0 15.15625l-2.28125 0zm11.410156 5.046875l-1.515625 0q3.5 -5.625 3.5 -11.265625q0 -2.203125 -0.5 -4.359375q-0.390625 -1.765625 -1.109375 -3.375q-0.453125 -1.0625 -1.890625 -3.515625l1.515625 0q2.203125 2.9375 3.25 5.90625q0.90625 2.546875 0.90625 5.34375q0 3.15625 -1.21875 6.109375q-1.203125 2.953125 -2.9375 5.15625z" fill-rule="nonzero"/><path fill="#000000" fill-opacity="0.0" d="m441.40683 226.45932l126.36221 0l0 42.86615l-126.36221 0z" fill-rule="evenodd"/><path fill="#595959" d="m456.0162 263.5462q-1.734375 -2.203125 -2.953125 -5.15625q-1.203125 -2.9531403 -1.203125 -6.1093903q0 -2.796875 0.90625 -5.34375q1.046875 -2.96875 3.25 -5.90625l1.515625 0q-1.421875 2.4375 -1.875 3.46875q-0.71875 1.625 -1.125 3.375q-0.5 2.203125 -0.5 4.40625q0 5.6406403 3.5 11.26564l-1.515625 0zm4.3046875 -5.046875l0 -17.187515l2.28125 0l0 7.0625l8.921875 0l0 -7.0625l2.28125 0l0 17.187515l-2.28125 0l0 -8.093765l-8.921875 0l0 8.093765l-2.28125 0zm17.550781 0l0 -2.40625l2.390625 0l0 2.40625q0 1.328125 -0.46875 2.140625q-0.46875 0.8125 -1.484375 1.265625l-0.578125 -0.90625q0.65625 -0.296875 0.96875 -0.875q0.328125 -0.5625 0.359375 -1.625l-1.1875 0zm10.746094 0l0 -15.156265l-5.65625 0l0 -2.03125l13.625 0l0 2.03125l-5.6875 0l0 15.156265l-2.28125 0zm7.921875 0l0 -2.40625l2.390625 0l0 2.40625q0 1.328125 -0.46875 2.140625q-0.46875 0.8125 -1.484375 1.265625l-0.578125 -0.90625q0.65625 -0.296875 0.96875 -0.875q0.328125 -0.5625 0.359375 -1.625l-1.1875 0zm6.4492188 0l0 -17.187515l2.28125 0l0 7.0625l8.9218445 0l0 -7.0625l2.28125 0l0 17.187515l-2.28125 0l0 -8.093765l-8.9218445 0l0 8.093765l-2.28125 0zm18.378876 5.046875l-1.515625 0q3.5 -5.625 3.5 -11.26564q0 -2.203125 -0.5 -4.359375q-0.390625 -1.765625 -1.109375 -3.375q-0.453125 -1.0625 -1.890625 -3.515625l1.515625 0q2.203125 2.9375 3.25 5.90625q0.90625 2.546875 0.90625 5.34375q0 3.15625 -1.21875 6.1093903q-1.203125 2.953125 -2.9375 5.15625z" fill-rule="nonzero"/><path fill="#000000" fill-opacity="0.0" d="m467.2966 310.6601l126.36221 0l0 42.86615l-126.36221 0z" fill-rule="evenodd"/><path fill="#595959" d="m481.90598 347.74698q-1.734375 -2.203125 -2.953125 -5.15625q-1.203125 -2.953125 -1.203125 -6.109375q0 -2.796875 0.90625 -5.34375q1.046875 -2.96875 3.25 -5.90625l1.515625 0q-1.421875 2.4375 -1.875 3.46875q-0.71875 1.625 -1.125 3.375q-0.5 2.203125 -0.5 4.40625q0 5.640625 3.5 11.265625l-1.515625 0zm8.6015625 -5.046875l0 -15.15625l-5.65625 0l0 -2.03125l13.625 0l0 2.03125l-5.6875 0l0 15.15625l-2.28125 0zm7.921875 0l0 -2.40625l2.390625 0l0 2.40625q0 1.328125 -0.46875 2.140625q-0.46875 0.8125 -1.484375 1.265625l-0.578125 -0.90625q0.65625 -0.296875 0.96875 -0.875q0.328125 -0.5625 0.359375 -1.625l-1.1875 0zm6.4492188 0l0 -17.1875l2.28125 0l0 7.0625l8.9218445 0l0 -7.0625l2.28125 0l0 17.1875l-2.28125 0l0 -8.09375l-8.9218445 0l0 8.09375l-2.28125 0zm17.55075 0l0 -2.40625l2.390625 0l0 2.40625q0 1.328125 -0.46875 2.140625q-0.46875 0.8125 -1.484375 1.265625l-0.578125 -0.90625q0.65625 -0.296875 0.96875 -0.875q0.328125 -0.5625 0.359375 -1.625l-1.1875 0zm6.4492188 0l0 -17.1875l2.28125 0l0 7.0625l8.921875 0l0 -7.0625l2.28125 0l0 17.1875l-2.28125 0l0 -8.09375l-8.921875 0l0 8.09375l-2.28125 0zm18.378906 5.046875l-1.515625 0q3.5 -5.625 3.5 -11.265625q0 -2.203125 -0.5 -4.359375q-0.390625 -1.765625 -1.109375 -3.375q-0.453125 -1.0625 -1.890625 -3.515625l1.515625 0q2.203125 2.9375 3.25 5.90625q0.90625 2.546875 0.90625 5.34375q0 3.15625 -1.21875 6.109375q-1.203125 2.953125 -2.9375 5.15625z" fill-rule="nonzero"/><path fill="#000000" fill-opacity="0.0" d="m183.18898 253.32414l126.3622 0l0 42.866135l-126.3622 0z" fill-rule="evenodd"/><path fill="#595959" d="m197.79836 290.411q-1.734375 -2.203125 -2.953125 -5.15625q-1.203125 -2.953125 -1.203125 -6.109375q0 -2.796875 0.90625 -5.34375q1.046875 -2.96875 3.25 -5.90625l1.515625 0q-1.421875 2.4375 -1.875 3.46875q-0.71875 1.625 -1.125 3.375q-0.5 2.203125 -0.5 4.40625q0 5.640625 3.5 11.265625l-1.515625 0zm4.3046875 -5.046875l0 -17.1875l2.28125 0l0 7.0625l8.921875 0l0 -7.0625l2.28125 0l0 17.1875l-2.28125 0l0 -8.09375l-8.921875 0l0 8.09375l-2.28125 0zm17.550781 0l0 -2.40625l2.390625 0l0 2.40625q0 1.328125 -0.46875 2.140625q-0.46875 0.8125 -1.484375 1.265625l-0.578125 -0.90625q0.65625 -0.296875 0.96875 -0.875q0.328125 -0.5625 0.359375 -1.625l-1.1875 0zm10.746094 0l0 -15.15625l-5.65625 0l0 -2.03125l13.625 0l0 2.03125l-5.6875 0l0 15.15625l-2.28125 0zm7.921875 0l0 -2.40625l2.390625 0l0 2.40625q0 1.328125 -0.46875 2.140625q-0.46875 0.8125 -1.484375 1.265625l-0.578125 -0.90625q0.65625 -0.296875 0.96875 -0.875q0.328125 -0.5625 0.359375 -1.625l-1.1875 0zm10.746094 0l0 -15.15625l-5.65625 0l0 -2.03125l13.624985 0l0 2.03125l-5.6874847 0l0 15.15625l-2.28125 0zm11.410141 5.046875l-1.515625 0q3.5 -5.625 3.5 -11.265625q0 -2.203125 -0.5 -4.359375q-0.390625 -1.765625 -1.109375 -3.375q-0.453125 -1.0625 -1.890625 -3.515625l1.515625 0q2.203125 2.9375 3.25 5.90625q0.90625 2.546875 0.90625 5.34375q0 3.15625 -1.21875 6.109375q-1.203125 2.953125 -2.9375 5.15625z" fill-rule="nonzero"/><path fill="#000000" fill-opacity="0.0" d="m353.6378 356.7546l126.36221 0l0 42.86612l-126.36221 0z" fill-rule="evenodd"/><path fill="#595959" d="m368.24716 393.84146q-1.734375 -2.203125 -2.953125 -5.15625q-1.203125 -2.953125 -1.203125 -6.109375q0 -2.796875 0.90625 -5.34375q1.046875 -2.96875 3.25 -5.90625l1.515625 0q-1.421875 2.4375 -1.875 3.46875q-0.71875 1.625 -1.125 3.375q-0.5 2.203125 -0.5 4.40625q0 5.640625 3.5 11.265625l-1.515625 0zm8.6015625 -5.046875l0 -15.15625l-5.65625 0l0 -2.03125l13.625 0l0 2.03125l-5.6875 0l0 15.15625l-2.28125 0zm7.921875 0l0 -2.40625l2.390625 0l0 2.40625q0 1.328125 -0.46875 2.140625q-0.46875 0.8125 -1.484375 1.265625l-0.578125 -0.90625q0.65625 -0.296875 0.96875 -0.875q0.328125 -0.5625 0.359375 -1.625l-1.1875 0zm6.4492188 0l0 -17.1875l2.28125 0l0 7.0625l8.921875 0l0 -7.0625l2.28125 0l0 17.1875l-2.28125 0l0 -8.09375l-8.921875 0l0 8.09375l-2.28125 0zm17.550781 0l0 -2.40625l2.390625 0l0 2.40625q0 1.328125 -0.46875 2.140625q-0.46875 0.8125 -1.484375 1.265625l-0.578125 -0.90625q0.65625 -0.296875 0.96875 -0.875q0.328125 -0.5625 0.359375 -1.625l-1.1875 0zm10.746094 0l0 -15.15625l-5.65625 0l0 -2.03125l13.625 0l0 2.03125l-5.6875 0l0 15.15625l-2.28125 0zm11.410156 5.046875l-1.515625 0q3.5 -5.625 3.5 -11.265625q0 -2.203125 -0.5 -4.359375q-0.390625 -1.765625 -1.109375 -3.375q-0.453125 -1.0625 -1.890625 -3.515625l1.515625 0q2.203125 2.9375 3.25 5.90625q0.90625 2.546875 0.90625 5.34375q0 3.15625 -1.21875 6.109375q-1.203125 2.953125 -2.9375 5.15625z" fill-rule="nonzero"/><path fill="#000000" fill-opacity="0.0" d="m293.03412 282.5315l126.36221 0l0 42.86615l-126.36221 0z" fill-rule="evenodd"/><path fill="#595959" d="m307.6435 319.61838q-1.734375 -2.203125 -2.953125 -5.15625q-1.203125 -2.953125 -1.203125 -6.109375q0 -2.796875 0.90625 -5.34375q1.046875 -2.96875 3.25 -5.90625l1.515625 0q-1.421875 2.4375 -1.875 3.46875q-0.71875 1.625 -1.125 3.375q-0.5 2.203125 -0.5 4.40625q0 5.640625 3.5 11.265625l-1.515625 0zm8.6015625 -5.046875l0 -15.15625l-5.65625 0l0 -2.03125l13.625 0l0 2.03125l-5.6875 0l0 15.15625l-2.28125 0zm7.921875 0l0 -2.40625l2.390625 0l0 2.40625q0 1.328125 -0.46875 2.140625q-0.46875 0.8125 -1.484375 1.265625l-0.578125 -0.90625q0.65625 -0.296875 0.96875 -0.875q0.328125 -0.5625 0.359375 -1.625l-1.1875 0zm10.746094 0l0 -15.15625l-5.65625 0l0 -2.03125l13.625 0l0 2.03125l-5.6875 0l0 15.15625l-2.28125 0zm7.921875 0l0 -2.40625l2.390625 0l0 2.40625q0 1.328125 -0.46875 2.140625q-0.46875 0.8125 -1.484375 1.265625l-0.578125 -0.90625q0.65625 -0.296875 0.96875 -0.875q0.328125 -0.5625 0.359375 -1.625l-1.1875 0zm6.4492188 0l0 -17.1875l2.28125 0l0 7.0625l8.921875 0l0 -7.0625l2.28125 0l0 17.1875l-2.28125 0l0 -8.09375l-8.921875 0l0 8.09375l-2.28125 0zm18.378906 5.046875l-1.515625 0q3.5 -5.625 3.5 -11.265625q0 -2.203125 -0.5 -4.359375q-0.390625 -1.765625 -1.109375 -3.375q-0.453125 -1.0625 -1.890625 -3.515625l1.515625 0q2.203125 2.9375 3.25 5.90625q0.90625 2.546875 0.90625 5.34375q0 3.15625 -1.21875 6.109375q-1.203125 2.953125 -2.9375 5.15625z" fill-rule="nonzero"/><path fill="#000000" fill-opacity="0.0" d="m698.7953 92.00656l126.36218 0l0 42.866135l-126.36218 0z" fill-rule="evenodd"/><path fill="#595959" d="m713.40466 129.09344q-1.734375 -2.2031326 -2.953125 -5.1562576q-1.203125 -2.953125 -1.203125 -6.109375q0 -2.796875 0.90625 -5.34375q1.046875 -2.96875 3.25 -5.90625l1.515625 0q-1.421875 2.4375 -1.875 3.46875q-0.71875 1.625 -1.125 3.375q-0.5 2.203125 -0.5 4.40625q0 5.640625 3.5 11.265633l-1.515625 0zm8.6015625 -5.0468826l0 -15.15625l-5.65625 0l0 -2.03125l13.625 0l0 2.03125l-5.6875 0l0 15.15625l-2.28125 0zm7.921875 0l0 -2.40625l2.390625 0l0 2.40625q0 1.328125 -0.46875 2.140625q-0.46875 0.8125 -1.484375 1.265625l-0.578125 -0.90625q0.65625 -0.296875 0.96875 -0.875q0.328125 -0.5625 0.359375 -1.625l-1.1875 0zm10.746094 0l0 -15.15625l-5.65625 0l0 -2.03125l13.625 0l0 2.03125l-5.6875 0l0 15.15625l-2.28125 0zm7.921875 0l0 -2.40625l2.390625 0l0 2.40625q0 1.328125 -0.46875 2.140625q-0.46875 0.8125 -1.484375 1.265625l-0.578125 -0.90625q0.65625 -0.296875 0.96875 -0.875q0.328125 -0.5625 0.359375 -1.625l-1.1875 0zm10.746094 0l0 -15.15625l-5.65625 0l0 -2.03125l13.625 0l0 2.03125l-5.6875 0l0 15.15625l-2.28125 0zm11.410156 5.0468826l-1.515625 0q3.5 -5.6250076 3.5 -11.265633q0 -2.203125 -0.5 -4.359375q-0.390625 -1.765625 -1.109375 -3.375q-0.453125 -1.0625 -1.890625 -3.515625l1.515625 0q2.203125 2.9375 3.25 5.90625q0.90625 2.546875 0.90625 5.34375q0 3.15625 -1.21875 6.109375q-1.203125 2.953125 -2.9375 5.1562576z" fill-rule="nonzero"/></g></svg>