<svg version="1.1" viewBox="0.0 0.0 960.0 540.0" fill="none" stroke="none" stroke-linecap="square" stroke-miterlimit="10" xmlns:xlink="http://www.w3.org/1999/xlink" xmlns="http://www.w3.org/2000/svg"><clipPath id="g1ee45421c2e_0_20.0"><path d="m0 0l960.0 0l0 540.0l-960.0 0l0 -540.0z" clip-rule="nonzero"/></clipPath><g clip-path="url(#g1ee45421c2e_0_20.0)"><path fill="#ffffff" d="m0 0l960.0 0l0 540.0l-960.0 0z" fill-rule="evenodd"/><path fill="#000000" fill-opacity="0.0" d="m97.43044 79.201485l738.9921 0l0 420.34647l-738.9921 0z" fill-rule="evenodd"/><path stroke="#4285f4" stroke-width="4.0" stroke-linejoin="round" stroke-linecap="butt" d="m97.43044 79.201485l738.9921 0l0 420.34647l-738.9921 0z" fill-rule="evenodd"/><path fill="#000000" fill-opacity="0.0" d="m97.43044 19.818897l338.55118 0l0 72.18898l-338.55118 0z" fill-rule="evenodd"/><path fill="#4285f4" d="m122.16482 41.14577q-0.15625 0.265625 -0.328125 0.390625q-0.171875 0.125 -0.453125 0.125q-0.296875 0 -0.6875 -0.28125q-0.390625 -0.296875 -0.984375 -0.65625q-0.59375 -0.359375 -1.4375 -0.640625q-0.84375 -0.296875 -2.03125 -0.296875q-1.125 0 -2.0 0.296875q-0.859375 0.296875 -1.453125 0.828125q-0.578125 0.515625 -0.875 1.21875q-0.28125 0.703125 -0.28125 1.515625q0 1.03125 0.5 1.71875q0.515625 0.6875 1.359375 1.171875q0.84375 0.484375 1.90625 0.84375q1.0625 0.359375 2.171875 0.734375q1.125 0.375 2.1875 0.859375q1.078125 0.46875 1.90625 1.203125q0.84375 0.734375 1.359375 1.796875q0.515625 1.046875 0.515625 2.59375q0 1.625 -0.5625 3.0625q-0.546875 1.421875 -1.625 2.484375q-1.0625 1.046875 -2.609375 1.65625q-1.546875 0.609375 -3.53125 0.609375q-2.40625 0 -4.390625 -0.875q-1.984375 -0.875 -3.390625 -2.375l0.96875 -1.59375q0.140625 -0.1875 0.34375 -0.3125q0.203125 -0.125 0.4375 -0.125q0.375 0 0.84375 0.390625q0.46875 0.375 1.15625 0.84375q0.703125 0.46875 1.703125 0.859375q1.0 0.390625 2.4375 0.390625q1.1875 0 2.125 -0.328125q0.9375 -0.328125 1.578125 -0.921875q0.65625 -0.59375 1.0 -1.421875q0.359375 -0.84375 0.359375 -1.859375q0 -1.125 -0.515625 -1.84375q-0.515625 -0.71875 -1.34375 -1.203125q-0.828125 -0.5 -1.90625 -0.828125q-1.0625 -0.34375 -2.1875 -0.6875q-1.109375 -0.359375 -2.171875 -0.828125q-1.0625 -0.46875 -1.890625 -1.21875q-0.828125 -0.75 -1.34375 -1.859375q-0.515625 -1.125 -0.515625 -2.765625q0 -1.3125 0.515625 -2.546875q0.515625 -1.234375 1.484375 -2.1875q0.96875 -0.953125 2.390625 -1.515625q1.4375 -0.578125 3.28125 -0.578125q2.078125 0 3.796875 0.65625q1.71875 0.65625 3.0 1.90625l-0.8125 1.59375zm18.055214 20.953125l-1.375 0q-0.4375 0 -0.71875 -0.140625q-0.28125 -0.140625 -0.359375 -0.59375l-0.359375 -1.625q-0.6875 0.625 -1.34375 1.125q-0.65625 0.484375 -1.390625 0.828125q-0.71875 0.34375 -1.546875 0.515625q-0.828125 0.171875 -1.828125 0.171875q-1.03125 0 -1.921875 -0.28125q-0.890625 -0.296875 -1.5468826 -0.859375q-0.65625 -0.578125 -1.046875 -1.453125q-0.390625 -0.875 -0.390625 -2.078125q0 -1.03125 0.5625 -1.984375q0.578125 -0.96875 1.8437576 -1.71875q1.28125 -0.75 3.34375 -1.21875q2.0625 -0.484375 5.046875 -0.546875l0 -1.375q0 -2.03125 -0.875 -3.078125q-0.875 -1.0625 -2.59375 -1.0625q-1.125 0 -1.90625 0.296875q-0.765625 0.28125 -1.328125 0.640625q-0.5625 0.34375 -0.96875 0.640625q-0.40625 0.28125 -0.796875 0.28125q-0.3125 0 -0.546875 -0.15625q-0.23438263 -0.171875 -0.37500763 -0.421875l-0.5625 -0.984375q1.4687576 -1.40625 3.1406326 -2.09375q1.6875 -0.6875 3.734375 -0.6875q1.46875 0 2.609375 0.484375q1.140625 0.484375 1.921875 1.359375q0.78125 0.859375 1.171875 2.09375q0.40625 1.21875 0.40625 2.6875l0 11.234375zm-8.0 -1.890625q0.8125 0 1.484375 -0.15625q0.671875 -0.171875 1.265625 -0.46875q0.609375 -0.3125 1.15625 -0.734375q0.546875 -0.4375 1.0625 -1.0l0 -3.65625q-2.125 0.078125 -3.625 0.34375q-1.484375 0.265625 -2.421875 0.703125q-0.9375 0.4375 -1.359375 1.03125q-0.421875 0.578125 -0.421875 1.3125q0 0.6875 0.21875 1.1875q0.21875 0.5 0.59375 0.828125q0.390625 0.3125 0.90625 0.46875q0.53125 0.140625 1.140625 0.140625zm12.679993 1.890625l0 -17.546875l1.828125 0q0.671875 0 0.84375 0.640625l0.21875 1.796875q0.96875 -1.203125 2.171875 -1.953125q1.203125 -0.765625 2.796875 -0.765625q1.796875 0 2.890625 0.984375q1.09375 0.984375 1.59375 2.671875q0.359375 -0.953125 0.953125 -1.640625q0.59375 -0.703125 1.34375 -1.15625q0.75 -0.453125 1.578125 -0.65625q0.84375 -0.203125 1.71875 -0.203125q1.375 0 2.453125 0.4375q1.09375 0.4375 1.84375 1.296875q0.765625 0.84375 1.15625 2.09375q0.40625 1.234375 0.40625 2.828125l0 11.171875l-3.09375 0l0 -11.171875q0 -2.0625 -0.90625 -3.125q-0.890625 -1.078125 -2.609375 -1.078125q-0.765625 0 -1.453125 0.28125q-0.671875 0.265625 -1.203125 0.78125q-0.515625 0.515625 -0.828125 1.3125q-0.296875 0.78125 -0.296875 1.828125l0 11.171875l-3.078125 0l0 -11.171875q0 -2.125 -0.859375 -3.15625q-0.84375 -1.046875 -2.46875 -1.046875q-1.140625 0 -2.125 0.625q-0.984375 0.609375 -1.796875 1.671875l0 13.078125l-3.078125 0zm28.452621 5.937504l0 -23.484379l1.828125 0q0.671875 0 0.84375 0.640625l0.25 2.078125q1.125 -1.375 2.578125 -2.203125q1.453125 -0.828125 3.328125 -0.828125q1.515625 0 2.734375 0.578125q1.234375 0.578125 2.09375 1.71875q0.875 1.125 1.34375 2.8125q0.46875 1.671875 0.46875 3.859375q0 1.9375 -0.515625 3.609375q-0.515625 1.671875 -1.5 2.90625q-0.96875 1.21875 -2.375 1.921875q-1.40625 0.703125 -3.171875 0.703125q-1.640625 0 -2.796875 -0.53125q-1.140625 -0.546875 -2.03125 -1.53125l0 7.750004l-3.078125 0zm7.8125 -21.312504q-1.5 0 -2.640625 0.703125q-1.140625 0.6875 -2.09375 1.953125l0 8.484375q0.859375 1.15625 1.859375 1.625q1.015625 0.453125 2.265625 0.453125q2.453125 0 3.765625 -1.75q1.3125 -1.75 1.3125 -4.984375q0 -1.71875 -0.3125 -2.9375q-0.296875 -1.234375 -0.875 -2.015625q-0.5625 -0.796875 -1.390625 -1.15625q-0.828125 -0.375 -1.890625 -0.375zm14.739517 -10.15625l0 25.53125l-3.078125 0l0 -25.53125l3.078125 0zm12.403198 7.703125q1.578125 0 2.90625 0.53125q1.328125 0.515625 2.296875 1.515625q0.984375 1.0 1.515625 2.46875q0.546875 1.453125 0.546875 3.328125q0 0.734375 -0.15625 0.984375q-0.15625 0.234375 -0.578125 0.234375l-11.6875 0q0.03125 1.65625 0.453125 2.890625q0.421875 1.234375 1.140625 2.0625q0.734375 0.8125 1.734375 1.21875q1.0 0.40625 2.25 0.40625q1.171875 0 2.0 -0.265625q0.84375 -0.265625 1.453125 -0.578125q0.609375 -0.3125 1.015625 -0.578125q0.40625 -0.265625 0.703125 -0.265625q0.375 0 0.59375 0.28125l0.859375 1.140625q-0.578125 0.6875 -1.375 1.203125q-0.796875 0.5 -1.703125 0.828125q-0.90625 0.328125 -1.875 0.5q-0.96875 0.171875 -1.921875 0.171875q-1.828125 0 -3.359375 -0.609375q-1.53125 -0.625 -2.65625 -1.8125q-1.109375 -1.1875 -1.734375 -2.9375q-0.625 -1.75 -0.625 -4.015625q0 -1.84375 0.5625 -3.4375q0.5625 -1.59375 1.609375 -2.765625q1.0625 -1.171875 2.59375 -1.828125q1.53125 -0.671875 3.4375 -0.671875zm0.0625 2.265625q-2.234375 0 -3.515625 1.296875q-1.28125 1.28125 -1.59375 3.578125l9.546875 0q0 -1.078125 -0.296875 -1.96875q-0.296875 -0.890625 -0.875 -1.53125q-0.5625 -0.65625 -1.390625 -1.015625q-0.8125 -0.359375 -1.875 -0.359375zm31.035889 -5.390625q-0.15625 0.265625 -0.328125 0.390625q-0.171875 0.125 -0.453125 0.125q-0.296875 0 -0.6875 -0.28125q-0.390625 -0.296875 -0.984375 -0.65625q-0.59375 -0.359375 -1.4375 -0.640625q-0.84375 -0.296875 -2.03125 -0.296875q-1.125 0 -2.0 0.296875q-0.859375 0.296875 -1.453125 0.828125q-0.578125 0.515625 -0.875 1.21875q-0.28125 0.703125 -0.28125 1.515625q0 1.03125 0.5 1.71875q0.515625 0.6875 1.359375 1.171875q0.84375 0.484375 1.90625 0.84375q1.0625 0.359375 2.171875 0.734375q1.125 0.375 2.1875 0.859375q1.078125 0.46875 1.90625 1.203125q0.84375 0.734375 1.359375 1.796875q0.515625 1.046875 0.515625 2.59375q0 1.625 -0.5625 3.0625q-0.546875 1.421875 -1.625 2.484375q-1.0625 1.046875 -2.609375 1.65625q-1.546875 0.609375 -3.53125 0.609375q-2.40625 0 -4.390625 -0.875q-1.984375 -0.875 -3.390625 -2.375l0.96875 -1.59375q0.140625 -0.1875 0.34375 -0.3125q0.203125 -0.125 0.4375 -0.125q0.375 0 0.84375 0.390625q0.46875 0.375 1.15625 0.84375q0.703125 0.46875 1.703125 0.859375q1.0 0.390625 2.4375 0.390625q1.1875 0 2.125 -0.328125q0.9375 -0.328125 1.578125 -0.921875q0.65625 -0.59375 1.0 -1.421875q0.359375 -0.84375 0.359375 -1.859375q0 -1.125 -0.515625 -1.84375q-0.515625 -0.71875 -1.34375 -1.203125q-0.828125 -0.5 -1.90625 -0.828125q-1.0625 -0.34375 -2.1875 -0.6875q-1.109375 -0.359375 -2.171875 -0.828125q-1.0625 -0.46875 -1.890625 -1.21875q-0.828125 -0.75 -1.34375 -1.859375q-0.515625 -1.125 -0.515625 -2.765625q0 -1.3125 0.515625 -2.546875q0.515625 -1.234375 1.484375 -2.1875q0.96875 -0.953125 2.390625 -1.515625q1.4375 -0.578125 3.28125 -0.578125q2.078125 0 3.796875 0.65625q1.71875 0.65625 3.0 1.90625l-0.8125 1.59375zm5.1645813 26.890629l0 -23.484379l1.828125 0q0.671875 0 0.84375 0.640625l0.25 2.078125q1.125 -1.375 2.578125 -2.203125q1.453125 -0.828125 3.328125 -0.828125q1.515625 0 2.734375 0.578125q1.234375 0.578125 2.09375 1.71875q0.875 1.125 1.34375 2.8125q0.46875 1.671875 0.46875 3.859375q0 1.9375 -0.515625 3.609375q-0.515625 1.671875 -1.5 2.90625q-0.96875 1.21875 -2.375 1.921875q-1.40625 0.703125 -3.171875 0.703125q-1.640625 0 -2.796875 -0.53125q-1.140625 -0.546875 -2.03125 -1.53125l0 7.750004l-3.078125 0zm7.8125 -21.312504q-1.5 0 -2.640625 0.703125q-1.140625 0.6875 -2.09375 1.953125l0 8.484375q0.859375 1.15625 1.859375 1.625q1.015625 0.453125 2.265625 0.453125q2.453125 0 3.765625 -1.75q1.3125 -1.75 1.3125 -4.984375q0 -1.71875 -0.3125 -2.9375q-0.296875 -1.234375 -0.875 -2.015625q-0.5625 -0.796875 -1.390625 -1.15625q-0.828125 -0.375 -1.890625 -0.375zm24.208252 15.375l-1.375 0q-0.4375 0 -0.71875 -0.140625q-0.28125 -0.140625 -0.359375 -0.59375l-0.359375 -1.625q-0.6875 0.625 -1.34375 1.125q-0.65625 0.484375 -1.390625 0.828125q-0.71875 0.34375 -1.546875 0.515625q-0.828125 0.171875 -1.828125 0.171875q-1.03125 0 -1.921875 -0.28125q-0.890625 -0.296875 -1.546875 -0.859375q-0.65625 -0.578125 -1.046875 -1.453125q-0.390625 -0.875 -0.390625 -2.078125q0 -1.03125 0.5625 -1.984375q0.578125 -0.96875 1.84375 -1.71875q1.28125 -0.75 3.34375 -1.21875q2.0625 -0.484375 5.046875 -0.546875l0 -1.375q0 -2.03125 -0.875 -3.078125q-0.875 -1.0625 -2.59375 -1.0625q-1.125 0 -1.90625 0.296875q-0.765625 0.28125 -1.328125 0.640625q-0.5625 0.34375 -0.96875 0.640625q-0.40625 0.28125 -0.796875 0.28125q-0.3125 0 -0.546875 -0.15625q-0.234375 -0.171875 -0.375 -0.421875l-0.5625 -0.984375q1.46875 -1.40625 3.140625 -2.09375q1.6875 -0.6875 3.734375 -0.6875q1.46875 0 2.609375 0.484375q1.140625 0.484375 1.921875 1.359375q0.78125 0.859375 1.171875 2.09375q0.40625 1.21875 0.40625 2.6875l0 11.234375zm-8.0 -1.890625q0.8125 0 1.484375 -0.15625q0.671875 -0.171875 1.265625 -0.46875q0.609375 -0.3125 1.15625 -0.734375q0.546875 -0.4375 1.0625 -1.0l0 -3.65625q-2.125 0.078125 -3.625 0.34375q-1.484375 0.265625 -2.421875 0.703125q-0.9375 0.4375 -1.359375 1.03125q-0.421875 0.578125 -0.421875 1.3125q0 0.6875 0.21875 1.1875q0.21875 0.5 0.59375 0.828125q0.390625 0.3125 0.90625 0.46875q0.53125 0.140625 1.140625 0.140625zm24.648743 -12.546875q-0.140625 0.1875 -0.28125 0.296875q-0.125 0.109375 -0.390625 0.109375q-0.265625 0 -0.5625 -0.21875q-0.296875 -0.21875 -0.765625 -0.46875q-0.46875 -0.265625 -1.140625 -0.484375q-0.671875 -0.21875 -1.640625 -0.21875q-1.28125 0 -2.265625 0.46875q-0.984375 0.453125 -1.65625 1.328125q-0.671875 0.859375 -1.015625 2.09375q-0.328125 1.21875 -0.328125 2.75q0 1.59375 0.359375 2.828125q0.375 1.234375 1.03125 2.078125q0.65625 0.84375 1.59375 1.28125q0.953125 0.4375 2.125 0.4375q1.125 0 1.84375 -0.265625q0.734375 -0.265625 1.21875 -0.59375q0.5 -0.328125 0.796875 -0.59375q0.3125 -0.265625 0.625 -0.265625q0.40625 0 0.59375 0.28125l0.875 1.140625q-1.15625 1.390625 -2.875 2.046875q-1.703125 0.65625 -3.609375 0.65625q-1.65625 0 -3.0625 -0.609375q-1.40625 -0.609375 -2.453125 -1.765625q-1.03125 -1.15625 -1.640625 -2.828125q-0.59375 -1.6875 -0.59375 -3.828125q0 -1.96875 0.546875 -3.625q0.546875 -1.671875 1.59375 -2.875q1.046875 -1.203125 2.59375 -1.875q1.546875 -0.671875 3.53125 -0.671875q1.84375 0 3.25 0.59375q1.421875 0.59375 2.515625 1.6875l-0.8125 1.109375zm11.168762 -3.390625q1.578125 0 2.90625 0.53125q1.328125 0.515625 2.296875 1.515625q0.984375 1.0 1.515625 2.46875q0.546875 1.453125 0.546875 3.328125q0 0.734375 -0.15625 0.984375q-0.15625 0.234375 -0.578125 0.234375l-11.6875 0q0.03125 1.65625 0.453125 2.890625q0.421875 1.234375 1.140625 2.0625q0.734375 0.8125 1.734375 1.21875q1.0 0.40625 2.25 0.40625q1.171875 0 2.0 -0.265625q0.84375 -0.265625 1.453125 -0.578125q0.609375 -0.3125 1.015625 -0.578125q0.40625 -0.265625 0.703125 -0.265625q0.375 0 0.59375 0.28125l0.859375 1.140625q-0.578125 0.6875 -1.375 1.203125q-0.796875 0.5 -1.703125 0.828125q-0.90625 0.328125 -1.875 0.5q-0.96875 0.171875 -1.921875 0.171875q-1.828125 0 -3.359375 -0.609375q-1.53125 -0.625 -2.65625 -1.8125q-1.109375 -1.1875 -1.734375 -2.9375q-0.625 -1.75 -0.625 -4.015625q0 -1.84375 0.5625 -3.4375q0.5625 -1.59375 1.609375 -2.765625q1.0625 -1.171875 2.59375 -1.828125q1.53125 -0.671875 3.4375 -0.671875zm0.0625 2.265625q-2.234375 0 -3.515625 1.296875q-1.28125 1.28125 -1.59375 3.578125l9.546875 0q0 -1.078125 -0.296875 -1.96875q-0.296875 -0.890625 -0.875 -1.53125q-0.5625 -0.65625 -1.390625 -1.015625q-0.8125 -0.359375 -1.875 -0.359375z" fill-rule="nonzero"/><path fill="#ff0000" d="m218.16191 324.02026l0 0c0 -75.88481 59.422745 -137.40158 132.72441 -137.40158l0 0c35.200714 0 68.95969 14.476196 93.85034 40.243988c24.890656 25.767792 38.874084 60.71643 38.874084 97.15759l0 0c0 75.884796 -59.42276 137.40155 -132.72443 137.40155l0 0c-73.30167 0 -132.72441 -61.516754 -132.72441 -137.40155z" fill-rule="evenodd"/><path stroke="#ff00ff" stroke-width="4.0" stroke-linejoin="round" stroke-linecap="butt" d="m218.16191 324.02026l0 0c0 -75.88481 59.422745 -137.40158 132.72441 -137.40158l0 0c35.200714 0 68.95969 14.476196 93.85034 40.243988c24.890656 25.767792 38.874084 60.71643 38.874084 97.15759l0 0c0 75.884796 -59.42276 137.40155 -132.72443 137.40155l0 0c-73.30167 0 -132.72441 -61.516754 -132.72441 -137.40155z" fill-rule="evenodd"/><path fill="#000000" fill-opacity="0.0" d="m279.47244 127.099144l142.83466 0l0 72.18897l-142.83466 0z" fill-rule="evenodd"/><path fill="#ff00ff" d="m306.78494 144.55103l0 2.734375l-11.921875 0l0 8.25l9.65625 0l0 2.625l-9.65625 0l0 8.484375l11.921875 0l0 2.734375l-15.296875 0l0 -24.828125l15.296875 0zm2.1351624 7.28125l2.53125 0q0.359375 0 0.59375 0.1875q0.25 0.1875 0.359375 0.453125l4.453125 11.296875q0.234375 0.625 0.375 1.25q0.140625 0.609375 0.265625 1.21875q0.140625 -0.609375 0.296875 -1.21875q0.15625 -0.625 0.390625 -1.25l4.515625 -11.296875q0.09375 -0.28125 0.328125 -0.453125q0.234375 -0.1875 0.578125 -0.1875l2.421875 0l-7.15625 17.546875l-2.796875 0l-7.15625 -17.546875zm26.465118 -0.28125q1.578125 0 2.90625 0.53125q1.328125 0.515625 2.296875 1.515625q0.984375 1.0 1.515625 2.46875q0.546875 1.453125 0.546875 3.328125q0 0.734375 -0.15625 0.984375q-0.15625 0.234375 -0.578125 0.234375l-11.6875 0q0.03125 1.65625 0.453125 2.890625q0.421875 1.234375 1.140625 2.0625q0.734375 0.8125 1.734375 1.21875q1.0 0.40625 2.25 0.40625q1.171875 0 2.0 -0.265625q0.84375 -0.265625 1.453125 -0.578125q0.609375 -0.3125 1.015625 -0.578125q0.40625 -0.265625 0.703125 -0.265625q0.375 0 0.59375 0.28125l0.859375 1.140625q-0.578125 0.6875 -1.375 1.203125q-0.796875 0.5 -1.703125 0.828125q-0.90625 0.328125 -1.875 0.5q-0.96875 0.171875 -1.921875 0.171875q-1.828125 0 -3.359375 -0.609375q-1.53125 -0.625 -2.65625 -1.8125q-1.109375 -1.1875 -1.734375 -2.9375q-0.625 -1.75 -0.625 -4.015625q0 -1.84375 0.5625 -3.4375q0.5625 -1.59375 1.609375 -2.765625q1.0625 -1.171875 2.59375 -1.828125q1.53125 -0.671875 3.4375 -0.671875zm0.0625 2.265625q-2.234375 0 -3.515625 1.296875q-1.28125 1.28125 -1.59375 3.578125l9.546875 0q0 -1.078125 -0.296875 -1.96875q-0.296875 -0.890625 -0.875 -1.53125q-0.5625 -0.65625 -1.390625 -1.015625q-0.8125 -0.359375 -1.875 -0.359375zm11.1441345 15.5625l0 -17.546875l1.828125 0q0.671875 0 0.84375 0.640625l0.234375 1.90625q1.140625 -1.265625 2.546875 -2.046875q1.421875 -0.78125 3.28125 -0.78125q1.4375 0 2.53125 0.484375q1.109375 0.46875 1.84375 1.34375q0.734375 0.875 1.109375 2.109375q0.390625 1.21875 0.390625 2.71875l0 11.171875l-3.09375 0l0 -11.171875q0 -2.0 -0.90625 -3.09375q-0.90625 -1.109375 -2.78125 -1.109375q-1.359375 0 -2.546875 0.671875q-1.1875 0.65625 -2.203125 1.78125l0 12.921875l-3.078125 0zm24.581268 0.28125q-2.078125 0 -3.203125 -1.15625q-1.109375 -1.171875 -1.109375 -3.359375l0 -10.734375l-2.109375 0q-0.28125 0 -0.46875 -0.15625q-0.1875 -0.171875 -0.1875 -0.515625l0 -1.234375l2.875 -0.359375l0.703125 -5.4375q0.046875 -0.25 0.234375 -0.40625q0.1875 -0.171875 0.484375 -0.171875l1.5625 0l0 6.046875l5.015625 0l0 2.234375l-5.015625 0l0 10.53125q0 1.109375 0.53125 1.65625q0.53125 0.53125 1.390625 0.53125q0.484375 0 0.828125 -0.125q0.359375 -0.140625 0.625 -0.296875q0.265625 -0.15625 0.4375 -0.28125q0.1875 -0.125 0.328125 -0.125q0.234375 0 0.421875 0.28125l0.90625 1.484375q-0.796875 0.734375 -1.921875 1.171875q-1.125 0.421875 -2.328125 0.421875zm35.209076 -0.28125l-2.59375 0q-0.453125 0 -0.734375 -0.21875q-0.265625 -0.234375 -0.40625 -0.578125l-2.328125 -6.0l-11.140625 0l-2.3125 6.0q-0.125 0.3125 -0.421875 0.5625q-0.296875 0.234375 -0.734375 0.234375l-2.59375 0l9.9375 -24.828125l3.40625 0l9.921875 24.828125zm-16.265625 -9.21875l9.265625 0l-3.890625 -10.109375q-0.375 -0.921875 -0.75 -2.328125q-0.1875 0.703125 -0.375 1.3125q-0.171875 0.59375 -0.34375 1.046875l-3.90625 10.078125z" fill-rule="nonzero"/><path fill="#ff0000" d="m450.23593 314.2527l0 0c0 -75.88478 59.42273 -137.40157 132.7244 -137.40157l0 0c35.200684 0 68.959656 14.476196 93.85034 40.243988c24.890625 25.767792 38.874084 60.716415 38.874084 97.15758l0 0c0 75.884796 -59.42273 137.40158 -132.72443 137.40158l0 0c-73.30167 0 -132.7244 -61.516785 -132.7244 -137.40158z" fill-rule="evenodd"/><path stroke="#ff9900" stroke-width="4.0" stroke-linejoin="round" stroke-linecap="butt" d="m450.23593 314.2527l0 0c0 -75.88478 59.42273 -137.40157 132.7244 -137.40157l0 0c35.200684 0 68.959656 14.476196 93.85034 40.243988c24.890625 25.767792 38.874084 60.716415 38.874084 97.15758l0 0c0 75.884796 -59.42273 137.40158 -132.72443 137.40158l0 0c-73.30167 0 -132.7244 -61.516785 -132.7244 -137.40158z" fill-rule="evenodd"/><path fill="#000000" fill-opacity="0.0" d="m511.54645 117.33159l142.83466 0l0 72.18898l-142.83466 0z" fill-rule="evenodd"/><path fill="#ff9900" d="m538.85895 134.78346l0 2.734375l-11.921875 0l0 8.25l9.65625 0l0 2.625l-9.65625 0l0 8.484375l11.921875 0l0 2.734375l-15.296875 0l0 -24.828125l15.296875 0zm2.1351929 7.28125l2.53125 0q0.359375 0 0.59375 0.1875q0.25 0.1875 0.359375 0.453125l4.453125 11.296875q0.234375 0.625 0.375 1.25q0.140625 0.609375 0.265625 1.21875q0.140625 -0.609375 0.296875 -1.21875q0.15625 -0.625 0.390625 -1.25l4.515625 -11.296875q0.09375 -0.28125 0.328125 -0.453125q0.234375 -0.1875 0.578125 -0.1875l2.421875 0l-7.15625 17.546875l-2.796875 0l-7.15625 -17.546875zm26.465088 -0.28125q1.578125 0 2.90625 0.53125q1.328125 0.515625 2.296875 1.515625q0.984375 1.0 1.515625 2.46875q0.546875 1.453125 0.546875 3.328125q0 0.734375 -0.15625 0.984375q-0.15625 0.234375 -0.578125 0.234375l-11.6875 0q0.03125 1.65625 0.453125 2.890625q0.421875 1.234375 1.140625 2.0625q0.734375 0.8125 1.734375 1.21875q1.0 0.40625 2.25 0.40625q1.171875 0 2.0 -0.265625q0.84375 -0.265625 1.453125 -0.578125q0.609375 -0.3125 1.015625 -0.578125q0.40625 -0.265625 0.703125 -0.265625q0.375 0 0.59375 0.28125l0.859375 1.140625q-0.578125 0.6875 -1.375 1.203125q-0.796875 0.5 -1.703125 0.828125q-0.90625 0.328125 -1.875 0.5q-0.96875 0.171875 -1.921875 0.171875q-1.828125 0 -3.359375 -0.609375q-1.53125 -0.625 -2.65625 -1.8125q-1.109375 -1.1875 -1.734375 -2.9375q-0.625 -1.75 -0.625 -4.015625q0 -1.84375 0.5625 -3.4375q0.5625 -1.59375 1.609375 -2.765625q1.0625 -1.171875 2.59375 -1.828125q1.53125 -0.671875 3.4375 -0.671875zm0.0625 2.265625q-2.234375 0 -3.515625 1.296875q-1.28125 1.28125 -1.59375 3.578125l9.546875 0q0 -1.078125 -0.296875 -1.96875q-0.296875 -0.890625 -0.875 -1.53125q-0.5625 -0.65625 -1.390625 -1.015625q-0.8125 -0.359375 -1.875 -0.359375zm11.144165 15.5625l0 -17.546875l1.828125 0q0.671875 0 0.84375 0.640625l0.234375 1.90625q1.140625 -1.265625 2.546875 -2.046875q1.421875 -0.78125 3.28125 -0.78125q1.4375 0 2.53125 0.484375q1.109375 0.46875 1.84375 1.34375q0.734375 0.875 1.109375 2.109375q0.390625 1.21875 0.390625 2.71875l0 11.171875l-3.09375 0l0 -11.171875q0 -2.0 -0.90625 -3.09375q-0.90625 -1.109375 -2.78125 -1.109375q-1.359375 0 -2.546875 0.671875q-1.1875 0.65625 -2.203125 1.78125l0 12.921875l-3.078125 0zm24.581238 0.28125q-2.078125 0 -3.203125 -1.15625q-1.109375 -1.171875 -1.109375 -3.359375l0 -10.734375l-2.109375 0q-0.28125 0 -0.46875 -0.15625q-0.1875 -0.171875 -0.1875 -0.515625l0 -1.234375l2.875 -0.359375l0.703125 -5.4375q0.046875 -0.25 0.234375 -0.40625q0.1875 -0.171875 0.484375 -0.171875l1.5625 0l0 6.046875l5.015625 0l0 2.234375l-5.015625 0l0 10.53125q0 1.109375 0.53125 1.65625q0.53125 0.53125 1.390625 0.53125q0.484375 0 0.828125 -0.125q0.359375 -0.140625 0.625 -0.296875q0.265625 -0.15625 0.4375 -0.28125q0.1875 -0.125 0.328125 -0.125q0.234375 0 0.421875 0.28125l0.90625 1.484375q-0.796875 0.734375 -1.921875 1.171875q-1.125 0.421875 -2.328125 0.421875zm14.787231 -0.28125l0 -24.828125l7.921875 0q2.28125 0 3.9375 0.453125q1.65625 0.4375 2.71875 1.28125q1.0625 0.828125 1.578125 2.03125q0.515625 1.203125 0.515625 2.71875q0 0.90625 -0.296875 1.765625q-0.28125 0.84375 -0.859375 1.578125q-0.578125 0.71875 -1.453125 1.296875q-0.875 0.5625 -2.0625 0.9375q2.734375 0.53125 4.109375 1.953125q1.390625 1.421875 1.390625 3.75q0 1.5625 -0.578125 2.875q-0.578125 1.296875 -1.703125 2.234375q-1.109375 0.9375 -2.734375 1.453125q-1.625 0.5 -3.703125 0.5l-8.78125 0zm3.359375 -11.3125l0 8.640625l5.375 0q1.4375 0 2.46875 -0.328125q1.03125 -0.328125 1.6875 -0.921875q0.671875 -0.59375 0.984375 -1.421875q0.3125 -0.828125 0.3125 -1.8125q0 -1.921875 -1.359375 -3.03125q-1.359375 -1.125 -4.109375 -1.125l-5.359375 0zm0 -2.390625l4.4375 0q1.421875 0 2.453125 -0.3125q1.046875 -0.3125 1.734375 -0.859375q0.6875 -0.5625 1.015625 -1.34375q0.328125 -0.796875 0.328125 -1.734375q0 -2.1875 -1.328125 -3.203125q-1.3125 -1.03125 -4.078125 -1.03125l-4.5625 0l0 8.484375z" fill-rule="nonzero"/><path fill="#000000" fill-opacity="0.0" d="m218.16454 324.02026l0 0c0 -75.88481 59.422745 -137.40158 132.72441 -137.40158l0 0c35.200714 0 68.95969 14.476196 93.85034 40.243988c24.890656 25.767792 38.874084 60.71643 38.874084 97.15759l0 0c0 75.884796 -59.42276 137.40155 -132.72443 137.40155l0 0c-73.30167 0 -132.72441 -61.516754 -132.72441 -137.40155z" fill-rule="evenodd"/><path stroke="#ff00ff" stroke-width="4.0" stroke-linejoin="round" stroke-linecap="butt" d="m218.16454 324.02026l0 0c0 -75.88481 59.422745 -137.40158 132.72441 -137.40158l0 0c35.200714 0 68.95969 14.476196 93.85034 40.243988c24.890656 25.767792 38.874084 60.71643 38.874084 97.15759l0 0c0 75.884796 -59.42276 137.40155 -132.72443 137.40155l0 0c-73.30167 0 -132.72441 -61.516754 -132.72441 -137.40155z" fill-rule="evenodd"/></g></svg>