<svg version="1.1" viewBox="0.0 0.0 960.0 540.0" fill="none" stroke="none" stroke-linecap="square" stroke-miterlimit="10" xmlns:xlink="http://www.w3.org/1999/xlink" xmlns="http://www.w3.org/2000/svg"><clipPath id="g1ee45421c2e_0_41.0"><path d="m0 0l960.0 0l0 540.0l-960.0 0l0 -540.0z" clip-rule="nonzero"/></clipPath><g clip-path="url(#g1ee45421c2e_0_41.0)"><path fill="#ffffff" d="m0 0l960.0 0l0 540.0l-960.0 0z" fill-rule="evenodd"/><path fill="#000000" fill-opacity="0.0" d="m97.43044 79.201485l738.9921 0l0 420.34647l-738.9921 0z" fill-rule="evenodd"/><path stroke="#4285f4" stroke-width="4.0" stroke-linejoin="round" stroke-linecap="butt" d="m97.43044 79.201485l738.9921 0l0 420.34647l-738.9921 0z" fill-rule="evenodd"/><path fill="#000000" fill-opacity="0.0" d="m97.43044 19.818897l338.55118 0l0 72.18898l-338.55118 0z" fill-rule="evenodd"/><path fill="#4285f4" d="m122.16482 41.14577q-0.15625 0.265625 -0.328125 0.390625q-0.171875 0.125 -0.453125 0.125q-0.296875 0 -0.6875 -0.28125q-0.390625 -0.296875 -0.984375 -0.65625q-0.59375 -0.359375 -1.4375 -0.640625q-0.84375 -0.296875 -2.03125 -0.296875q-1.125 0 -2.0 0.296875q-0.859375 0.296875 -1.453125 0.828125q-0.578125 0.515625 -0.875 1.21875q-0.28125 0.703125 -0.28125 1.515625q0 1.03125 0.5 1.71875q0.515625 0.6875 1.359375 1.171875q0.84375 0.484375 1.90625 0.84375q1.0625 0.359375 2.171875 0.734375q1.125 0.375 2.1875 0.859375q1.078125 0.46875 1.90625 1.203125q0.84375 0.734375 1.359375 1.796875q0.515625 1.046875 0.515625 2.59375q0 1.625 -0.5625 3.0625q-0.546875 1.421875 -1.625 2.484375q-1.0625 1.046875 -2.609375 1.65625q-1.546875 0.609375 -3.53125 0.609375q-2.40625 0 -4.390625 -0.875q-1.984375 -0.875 -3.390625 -2.375l0.96875 -1.59375q0.140625 -0.1875 0.34375 -0.3125q0.203125 -0.125 0.4375 -0.125q0.375 0 0.84375 0.390625q0.46875 0.375 1.15625 0.84375q0.703125 0.46875 1.703125 0.859375q1.0 0.390625 2.4375 0.390625q1.1875 0 2.125 -0.328125q0.9375 -0.328125 1.578125 -0.921875q0.65625 -0.59375 1.0 -1.421875q0.359375 -0.84375 0.359375 -1.859375q0 -1.125 -0.515625 -1.84375q-0.515625 -0.71875 -1.34375 -1.203125q-0.828125 -0.5 -1.90625 -0.828125q-1.0625 -0.34375 -2.1875 -0.6875q-1.109375 -0.359375 -2.171875 -0.828125q-1.0625 -0.46875 -1.890625 -1.21875q-0.828125 -0.75 -1.34375 -1.859375q-0.515625 -1.125 -0.515625 -2.765625q0 -1.3125 0.515625 -2.546875q0.515625 -1.234375 1.484375 -2.1875q0.96875 -0.953125 2.390625 -1.515625q1.4375 -0.578125 3.28125 -0.578125q2.078125 0 3.796875 0.65625q1.71875 0.65625 3.0 1.90625l-0.8125 1.59375zm18.055214 20.953125l-1.375 0q-0.4375 0 -0.71875 -0.140625q-0.28125 -0.140625 -0.359375 -0.59375l-0.359375 -1.625q-0.6875 0.625 -1.34375 1.125q-0.65625 0.484375 -1.390625 0.828125q-0.71875 0.34375 -1.546875 0.515625q-0.828125 0.171875 -1.828125 0.171875q-1.03125 0 -1.921875 -0.28125q-0.890625 -0.296875 -1.5468826 -0.859375q-0.65625 -0.578125 -1.046875 -1.453125q-0.390625 -0.875 -0.390625 -2.078125q0 -1.03125 0.5625 -1.984375q0.578125 -0.96875 1.8437576 -1.71875q1.28125 -0.75 3.34375 -1.21875q2.0625 -0.484375 5.046875 -0.546875l0 -1.375q0 -2.03125 -0.875 -3.078125q-0.875 -1.0625 -2.59375 -1.0625q-1.125 0 -1.90625 0.296875q-0.765625 0.28125 -1.328125 0.640625q-0.5625 0.34375 -0.96875 0.640625q-0.40625 0.28125 -0.796875 0.28125q-0.3125 0 -0.546875 -0.15625q-0.23438263 -0.171875 -0.37500763 -0.421875l-0.5625 -0.984375q1.4687576 -1.40625 3.1406326 -2.09375q1.6875 -0.6875 3.734375 -0.6875q1.46875 0 2.609375 0.484375q1.140625 0.484375 1.921875 1.359375q0.78125 0.859375 1.171875 2.09375q0.40625 1.21875 0.40625 2.6875l0 11.234375zm-8.0 -1.890625q0.8125 0 1.484375 -0.15625q0.671875 -0.171875 1.265625 -0.46875q0.609375 -0.3125 1.15625 -0.734375q0.546875 -0.4375 1.0625 -1.0l0 -3.65625q-2.125 0.078125 -3.625 0.34375q-1.484375 0.265625 -2.421875 0.703125q-0.9375 0.4375 -1.359375 1.03125q-0.421875 0.578125 -0.421875 1.3125q0 0.6875 0.21875 1.1875q0.21875 0.5 0.59375 0.828125q0.390625 0.3125 0.90625 0.46875q0.53125 0.140625 1.140625 0.140625zm12.679993 1.890625l0 -17.546875l1.828125 0q0.671875 0 0.84375 0.640625l0.21875 1.796875q0.96875 -1.203125 2.171875 -1.953125q1.203125 -0.765625 2.796875 -0.765625q1.796875 0 2.890625 0.984375q1.09375 0.984375 1.59375 2.671875q0.359375 -0.953125 0.953125 -1.640625q0.59375 -0.703125 1.34375 -1.15625q0.75 -0.453125 1.578125 -0.65625q0.84375 -0.203125 1.71875 -0.203125q1.375 0 2.453125 0.4375q1.09375 0.4375 1.84375 1.296875q0.765625 0.84375 1.15625 2.09375q0.40625 1.234375 0.40625 2.828125l0 11.171875l-3.09375 0l0 -11.171875q0 -2.0625 -0.90625 -3.125q-0.890625 -1.078125 -2.609375 -1.078125q-0.765625 0 -1.453125 0.28125q-0.671875 0.265625 -1.203125 0.78125q-0.515625 0.515625 -0.828125 1.3125q-0.296875 0.78125 -0.296875 1.828125l0 11.171875l-3.078125 0l0 -11.171875q0 -2.125 -0.859375 -3.15625q-0.84375 -1.046875 -2.46875 -1.046875q-1.140625 0 -2.125 0.625q-0.984375 0.609375 -1.796875 1.671875l0 13.078125l-3.078125 0zm28.452621 5.937504l0 -23.484379l1.828125 0q0.671875 0 0.84375 0.640625l0.25 2.078125q1.125 -1.375 2.578125 -2.203125q1.453125 -0.828125 3.328125 -0.828125q1.515625 0 2.734375 0.578125q1.234375 0.578125 2.09375 1.71875q0.875 1.125 1.34375 2.8125q0.46875 1.671875 0.46875 3.859375q0 1.9375 -0.515625 3.609375q-0.515625 1.671875 -1.5 2.90625q-0.96875 1.21875 -2.375 1.921875q-1.40625 0.703125 -3.171875 0.703125q-1.640625 0 -2.796875 -0.53125q-1.140625 -0.546875 -2.03125 -1.53125l0 7.750004l-3.078125 0zm7.8125 -21.312504q-1.5 0 -2.640625 0.703125q-1.140625 0.6875 -2.09375 1.953125l0 8.484375q0.859375 1.15625 1.859375 1.625q1.015625 0.453125 2.265625 0.453125q2.453125 0 3.765625 -1.75q1.3125 -1.75 1.3125 -4.984375q0 -1.71875 -0.3125 -2.9375q-0.296875 -1.234375 -0.875 -2.015625q-0.5625 -0.796875 -1.390625 -1.15625q-0.828125 -0.375 -1.890625 -0.375zm14.739517 -10.15625l0 25.53125l-3.078125 0l0 -25.53125l3.078125 0zm12.403198 7.703125q1.578125 0 2.90625 0.53125q1.328125 0.515625 2.296875 1.515625q0.984375 1.0 1.515625 2.46875q0.546875 1.453125 0.546875 3.328125q0 0.734375 -0.15625 0.984375q-0.15625 0.234375 -0.578125 0.234375l-11.6875 0q0.03125 1.65625 0.453125 2.890625q0.421875 1.234375 1.140625 2.0625q0.734375 0.8125 1.734375 1.21875q1.0 0.40625 2.25 0.40625q1.171875 0 2.0 -0.265625q0.84375 -0.265625 1.453125 -0.578125q0.609375 -0.3125 1.015625 -0.578125q0.40625 -0.265625 0.703125 -0.265625q0.375 0 0.59375 0.28125l0.859375 1.140625q-0.578125 0.6875 -1.375 1.203125q-0.796875 0.5 -1.703125 0.828125q-0.90625 0.328125 -1.875 0.5q-0.96875 0.171875 -1.921875 0.171875q-1.828125 0 -3.359375 -0.609375q-1.53125 -0.625 -2.65625 -1.8125q-1.109375 -1.1875 -1.734375 -2.9375q-0.625 -1.75 -0.625 -4.015625q0 -1.84375 0.5625 -3.4375q0.5625 -1.59375 1.609375 -2.765625q1.0625 -1.171875 2.59375 -1.828125q1.53125 -0.671875 3.4375 -0.671875zm0.0625 2.265625q-2.234375 0 -3.515625 1.296875q-1.28125 1.28125 -1.59375 3.578125l9.546875 0q0 -1.078125 -0.296875 -1.96875q-0.296875 -0.890625 -0.875 -1.53125q-0.5625 -0.65625 -1.390625 -1.015625q-0.8125 -0.359375 -1.875 -0.359375zm31.035889 -5.390625q-0.15625 0.265625 -0.328125 0.390625q-0.171875 0.125 -0.453125 0.125q-0.296875 0 -0.6875 -0.28125q-0.390625 -0.296875 -0.984375 -0.65625q-0.59375 -0.359375 -1.4375 -0.640625q-0.84375 -0.296875 -2.03125 -0.296875q-1.125 0 -2.0 0.296875q-0.859375 0.296875 -1.453125 0.828125q-0.578125 0.515625 -0.875 1.21875q-0.28125 0.703125 -0.28125 1.515625q0 1.03125 0.5 1.71875q0.515625 0.6875 1.359375 1.171875q0.84375 0.484375 1.90625 0.84375q1.0625 0.359375 2.171875 0.734375q1.125 0.375 2.1875 0.859375q1.078125 0.46875 1.90625 1.203125q0.84375 0.734375 1.359375 1.796875q0.515625 1.046875 0.515625 2.59375q0 1.625 -0.5625 3.0625q-0.546875 1.421875 -1.625 2.484375q-1.0625 1.046875 -2.609375 1.65625q-1.546875 0.609375 -3.53125 0.609375q-2.40625 0 -4.390625 -0.875q-1.984375 -0.875 -3.390625 -2.375l0.96875 -1.59375q0.140625 -0.1875 0.34375 -0.3125q0.203125 -0.125 0.4375 -0.125q0.375 0 0.84375 0.390625q0.46875 0.375 1.15625 0.84375q0.703125 0.46875 1.703125 0.859375q1.0 0.390625 2.4375 0.390625q1.1875 0 2.125 -0.328125q0.9375 -0.328125 1.578125 -0.921875q0.65625 -0.59375 1.0 -1.421875q0.359375 -0.84375 0.359375 -1.859375q0 -1.125 -0.515625 -1.84375q-0.515625 -0.71875 -1.34375 -1.203125q-0.828125 -0.5 -1.90625 -0.828125q-1.0625 -0.34375 -2.1875 -0.6875q-1.109375 -0.359375 -2.171875 -0.828125q-1.0625 -0.46875 -1.890625 -1.21875q-0.828125 -0.75 -1.34375 -1.859375q-0.515625 -1.125 -0.515625 -2.765625q0 -1.3125 0.515625 -2.546875q0.515625 -1.234375 1.484375 -2.1875q0.96875 -0.953125 2.390625 -1.515625q1.4375 -0.578125 3.28125 -0.578125q2.078125 0 3.796875 0.65625q1.71875 0.65625 3.0 1.90625l-0.8125 1.59375zm5.1645813 26.890629l0 -23.484379l1.828125 0q0.671875 0 0.84375 0.640625l0.25 2.078125q1.125 -1.375 2.578125 -2.203125q1.453125 -0.828125 3.328125 -0.828125q1.515625 0 2.734375 0.578125q1.234375 0.578125 2.09375 1.71875q0.875 1.125 1.34375 2.8125q0.46875 1.671875 0.46875 3.859375q0 1.9375 -0.515625 3.609375q-0.515625 1.671875 -1.5 2.90625q-0.96875 1.21875 -2.375 1.921875q-1.40625 0.703125 -3.171875 0.703125q-1.640625 0 -2.796875 -0.53125q-1.140625 -0.546875 -2.03125 -1.53125l0 7.750004l-3.078125 0zm7.8125 -21.312504q-1.5 0 -2.640625 0.703125q-1.140625 0.6875 -2.09375 1.953125l0 8.484375q0.859375 1.15625 1.859375 1.625q1.015625 0.453125 2.265625 0.453125q2.453125 0 3.765625 -1.75q1.3125 -1.75 1.3125 -4.984375q0 -1.71875 -0.3125 -2.9375q-0.296875 -1.234375 -0.875 -2.015625q-0.5625 -0.796875 -1.390625 -1.15625q-0.828125 -0.375 -1.890625 -0.375zm24.208252 15.375l-1.375 0q-0.4375 0 -0.71875 -0.140625q-0.28125 -0.140625 -0.359375 -0.59375l-0.359375 -1.625q-0.6875 0.625 -1.34375 1.125q-0.65625 0.484375 -1.390625 0.828125q-0.71875 0.34375 -1.546875 0.515625q-0.828125 0.171875 -1.828125 0.171875q-1.03125 0 -1.921875 -0.28125q-0.890625 -0.296875 -1.546875 -0.859375q-0.65625 -0.578125 -1.046875 -1.453125q-0.390625 -0.875 -0.390625 -2.078125q0 -1.03125 0.5625 -1.984375q0.578125 -0.96875 1.84375 -1.71875q1.28125 -0.75 3.34375 -1.21875q2.0625 -0.484375 5.046875 -0.546875l0 -1.375q0 -2.03125 -0.875 -3.078125q-0.875 -1.0625 -2.59375 -1.0625q-1.125 0 -1.90625 0.296875q-0.765625 0.28125 -1.328125 0.640625q-0.5625 0.34375 -0.96875 0.640625q-0.40625 0.28125 -0.796875 0.28125q-0.3125 0 -0.546875 -0.15625q-0.234375 -0.171875 -0.375 -0.421875l-0.5625 -0.984375q1.46875 -1.40625 3.140625 -2.09375q1.6875 -0.6875 3.734375 -0.6875q1.46875 0 2.609375 0.484375q1.140625 0.484375 1.921875 1.359375q0.78125 0.859375 1.171875 2.09375q0.40625 1.21875 0.40625 2.6875l0 11.234375zm-8.0 -1.890625q0.8125 0 1.484375 -0.15625q0.671875 -0.171875 1.265625 -0.46875q0.609375 -0.3125 1.15625 -0.734375q0.546875 -0.4375 1.0625 -1.0l0 -3.65625q-2.125 0.078125 -3.625 0.34375q-1.484375 0.265625 -2.421875 0.703125q-0.9375 0.4375 -1.359375 1.03125q-0.421875 0.578125 -0.421875 1.3125q0 0.6875 0.21875 1.1875q0.21875 0.5 0.59375 0.828125q0.390625 0.3125 0.90625 0.46875q0.53125 0.140625 1.140625 0.140625zm24.648743 -12.546875q-0.140625 0.1875 -0.28125 0.296875q-0.125 0.109375 -0.390625 0.109375q-0.265625 0 -0.5625 -0.21875q-0.296875 -0.21875 -0.765625 -0.46875q-0.46875 -0.265625 -1.140625 -0.484375q-0.671875 -0.21875 -1.640625 -0.21875q-1.28125 0 -2.265625 0.46875q-0.984375 0.453125 -1.65625 1.328125q-0.671875 0.859375 -1.015625 2.09375q-0.328125 1.21875 -0.328125 2.75q0 1.59375 0.359375 2.828125q0.375 1.234375 1.03125 2.078125q0.65625 0.84375 1.59375 1.28125q0.953125 0.4375 2.125 0.4375q1.125 0 1.84375 -0.265625q0.734375 -0.265625 1.21875 -0.59375q0.5 -0.328125 0.796875 -0.59375q0.3125 -0.265625 0.625 -0.265625q0.40625 0 0.59375 0.28125l0.875 1.140625q-1.15625 1.390625 -2.875 2.046875q-1.703125 0.65625 -3.609375 0.65625q-1.65625 0 -3.0625 -0.609375q-1.40625 -0.609375 -2.453125 -1.765625q-1.03125 -1.15625 -1.640625 -2.828125q-0.59375 -1.6875 -0.59375 -3.828125q0 -1.96875 0.546875 -3.625q0.546875 -1.671875 1.59375 -2.875q1.046875 -1.203125 2.59375 -1.875q1.546875 -0.671875 3.53125 -0.671875q1.84375 0 3.25 0.59375q1.421875 0.59375 2.515625 1.6875l-0.8125 1.109375zm11.168762 -3.390625q1.578125 0 2.90625 0.53125q1.328125 0.515625 2.296875 1.515625q0.984375 1.0 1.515625 2.46875q0.546875 1.453125 0.546875 3.328125q0 0.734375 -0.15625 0.984375q-0.15625 0.234375 -0.578125 0.234375l-11.6875 0q0.03125 1.65625 0.453125 2.890625q0.421875 1.234375 1.140625 2.0625q0.734375 0.8125 1.734375 1.21875q1.0 0.40625 2.25 0.40625q1.171875 0 2.0 -0.265625q0.84375 -0.265625 1.453125 -0.578125q0.609375 -0.3125 1.015625 -0.578125q0.40625 -0.265625 0.703125 -0.265625q0.375 0 0.59375 0.28125l0.859375 1.140625q-0.578125 0.6875 -1.375 1.203125q-0.796875 0.5 -1.703125 0.828125q-0.90625 0.328125 -1.875 0.5q-0.96875 0.171875 -1.921875 0.171875q-1.828125 0 -3.359375 -0.609375q-1.53125 -0.625 -2.65625 -1.8125q-1.109375 -1.1875 -1.734375 -2.9375q-0.625 -1.75 -0.625 -4.015625q0 -1.84375 0.5625 -3.4375q0.5625 -1.59375 1.609375 -2.765625q1.0625 -1.171875 2.59375 -1.828125q1.53125 -0.671875 3.4375 -0.671875zm0.0625 2.265625q-2.234375 0 -3.515625 1.296875q-1.28125 1.28125 -1.59375 3.578125l9.546875 0q0 -1.078125 -0.296875 -1.96875q-0.296875 -0.890625 -0.875 -1.53125q-0.5625 -0.65625 -1.390625 -1.015625q-0.8125 -0.359375 -1.875 -0.359375z" fill-rule="nonzero"/><path fill="#000000" fill-opacity="0.0" d="m139.09235 316.09448l0 0c0 -75.884796 94.823975 -137.40157 211.79529 -137.40157l0 0c116.97128 0 211.79529 61.51677 211.79529 137.40157l0 0c0 75.884796 -94.824005 137.40158 -211.79529 137.40158l0 0c-116.97131 0 -211.79529 -61.516785 -211.79529 -137.40158z" fill-rule="evenodd"/><path stroke="#ff00ff" stroke-width="4.0" stroke-linejoin="round" stroke-linecap="butt" d="m139.09235 316.09448l0 0c0 -75.884796 94.823975 -137.40157 211.79529 -137.40157l0 0c116.97128 0 211.79529 61.51677 211.79529 137.40157l0 0c0 75.884796 -94.824005 137.40158 -211.79529 137.40158l0 0c-116.97131 0 -211.79529 -61.516785 -211.79529 -137.40158z" fill-rule="evenodd"/><path fill="#000000" fill-opacity="0.0" d="m147.73753 82.14698l357.6693 0l0 72.18897l-357.6693 0z" fill-rule="evenodd"/><path fill="#ff00ff" d="m162.26169 106.89573q-0.5 -0.84375 -0.734375 -1.671875q-0.234375 -0.84375 -0.234375 -1.671875q0 -1.5625 0.765625 -2.984375q0.78125 -1.4375 2.171875 -2.640625l0.953125 0.59375q0.140625 0.09375 0.171875 0.203125q0.046875 0.09375 0.046875 0.203125q0 0.234375 -0.171875 0.40625q-0.28125 0.34375 -0.546875 0.734375q-0.25 0.375 -0.46875 0.796875q-0.203125 0.421875 -0.328125 0.890625q-0.109375 0.46875 -0.109375 1.0q0 0.546875 0.15625 1.140625q0.171875 0.59375 0.5625 1.25q0.125 0.1875 0.125 0.390625q0 0.421875 -0.46875 0.59375l-1.890625 0.765625zm5.28125 0q-0.515625 -0.84375 -0.75 -1.671875q-0.234375 -0.84375 -0.234375 -1.671875q0 -1.5625 0.765625 -2.984375q0.78125 -1.4375 2.171875 -2.640625l0.953125 0.59375q0.140625 0.09375 0.171875 0.203125q0.046875 0.09375 0.046875 0.203125q0 0.234375 -0.171875 0.40625q-0.28125 0.34375 -0.546875 0.734375q-0.25 0.375 -0.453125 0.796875q-0.203125 0.421875 -0.328125 0.890625q-0.125 0.46875 -0.125 1.0q0 0.546875 0.15625 1.140625q0.171875 0.59375 0.578125 1.25q0.109375 0.1875 0.109375 0.390625q0 0.421875 -0.46875 0.59375l-1.875 0.765625zm25.647644 17.53125l-2.59375 0q-0.453125 0 -0.734375 -0.21875q-0.265625 -0.234375 -0.40625 -0.578125l-2.328125 -6.0l-11.140625 0l-2.3125 6.0q-0.125 0.3125 -0.421875 0.5625q-0.296875 0.234375 -0.734375 0.234375l-2.59375 0l9.9375 -24.828125l3.40625 0l9.921875 24.828125zm-16.265625 -9.21875l9.265625 0l-3.890625 -10.109375q-0.375 -0.921875 -0.75 -2.328125q-0.1875 0.703125 -0.375 1.3125q-0.171875 0.59375 -0.34375 1.046875l-3.90625 10.078125zm24.237991 9.5q-2.078125 0 -3.203125 -1.15625q-1.109375 -1.171875 -1.109375 -3.359375l0 -10.734375l-2.109375 0q-0.28125 0 -0.46875 -0.15625q-0.1875 -0.171875 -0.1875 -0.515625l0 -1.234375l2.875 -0.359375l0.703125 -5.4375q0.046875 -0.25 0.234375 -0.40625q0.1875 -0.171875 0.484375 -0.171875l1.5625 0l0 6.046875l5.015625 0l0 2.234375l-5.015625 0l0 10.53125q0 1.109375 0.53125 1.65625q0.53125 0.53125 1.390625 0.53125q0.484375 0 0.828125 -0.125q0.359375 -0.140625 0.625 -0.296875q0.265625 -0.15625 0.4375 -0.28125q0.1875 -0.125 0.328125 -0.125q0.234375 0 0.421875 0.28125l0.90625 1.484375q-0.796875 0.734375 -1.921875 1.171875q-1.125 0.421875 -2.328125 0.421875zm17.7247 -25.8125l0 25.53125l-3.078125 0l0 -25.53125l3.078125 0zm12.403198 7.703125q1.578125 0 2.90625 0.53125q1.328125 0.515625 2.296875 1.515625q0.984375 1.0 1.515625 2.46875q0.546875 1.453125 0.546875 3.328125q0 0.734375 -0.15625 0.984375q-0.15625 0.234375 -0.578125 0.234375l-11.6875 0q0.03125 1.65625 0.453125 2.890625q0.421875 1.234375 1.140625 2.0625q0.734375 0.8125 1.734375 1.21875q1.0 0.40625 2.25 0.40625q1.171875 0 2.0 -0.265625q0.84375 -0.265625 1.453125 -0.578125q0.609375 -0.3125 1.015625 -0.578125q0.40625 -0.265625 0.703125 -0.265625q0.375 0 0.59375 0.28125l0.859375 1.140625q-0.578125 0.6875 -1.375 1.203125q-0.796875 0.5 -1.703125 0.828125q-0.90625 0.328125 -1.875 0.5q-0.96875 0.171875 -1.921875 0.171875q-1.828125 0 -3.359375 -0.609375q-1.53125 -0.625 -2.65625 -1.8125q-1.109375 -1.1875 -1.734375 -2.9375q-0.625 -1.75 -0.625 -4.015625q0 -1.84375 0.5625 -3.4375q0.5625 -1.59375 1.609375 -2.765625q1.0625 -1.171875 2.59375 -1.828125q1.53125 -0.671875 3.4375 -0.671875zm0.0625 2.265625q-2.234375 0 -3.515625 1.296875q-1.28125 1.28125 -1.59375 3.578125l9.546875 0q0 -1.078125 -0.296875 -1.96875q-0.296875 -0.890625 -0.875 -1.53125q-0.5625 -0.65625 -1.390625 -1.015625q-0.8125 -0.359375 -1.875 -0.359375zm24.034775 15.5625l-1.375 0q-0.4375 0 -0.71875 -0.140625q-0.28125 -0.140625 -0.359375 -0.59375l-0.359375 -1.625q-0.6875 0.625 -1.34375 1.125q-0.65625 0.484375 -1.390625 0.828125q-0.71875 0.34375 -1.546875 0.515625q-0.828125 0.171875 -1.828125 0.171875q-1.03125 0 -1.921875 -0.28125q-0.890625 -0.296875 -1.546875 -0.859375q-0.65625 -0.578125 -1.046875 -1.453125q-0.390625 -0.875 -0.390625 -2.078125q0 -1.03125 0.5625 -1.984375q0.578125 -0.96875 1.84375 -1.71875q1.28125 -0.75 3.34375 -1.21875q2.0625 -0.484375 5.046875 -0.546875l0 -1.375q0 -2.03125 -0.875 -3.078125q-0.875 -1.0625 -2.59375 -1.0625q-1.125 0 -1.90625 0.296875q-0.765625 0.28125 -1.328125 0.640625q-0.5625 0.34375 -0.96875 0.640625q-0.40625 0.28125 -0.796875 0.28125q-0.3125 0 -0.546875 -0.15625q-0.234375 -0.171875 -0.375 -0.421875l-0.5625 -0.984375q1.46875 -1.40625 3.140625 -2.09375q1.6875 -0.6875 3.734375 -0.6875q1.46875 0 2.609375 0.484375q1.140625 0.484375 1.921875 1.359375q0.78125 0.859375 1.171875 2.09375q0.40625 1.21875 0.40625 2.6875l0 11.234375zm-8.0 -1.890625q0.8125 0 1.484375 -0.15625q0.671875 -0.171875 1.265625 -0.46875q0.609375 -0.3125 1.15625 -0.734375q0.546875 -0.4375 1.0625 -1.0l0 -3.65625q-2.125 0.078125 -3.625 0.34375q-1.484375 0.265625 -2.421875 0.703125q-0.9375 0.4375 -1.359375 1.03125q-0.421875 0.578125 -0.421875 1.3125q0 0.6875 0.21875 1.1875q0.21875 0.5 0.59375 0.828125q0.390625 0.3125 0.90625 0.46875q0.53125 0.140625 1.140625 0.140625zm22.726868 -12.765625q-0.203125 0.375 -0.640625 0.375q-0.265625 0 -0.59375 -0.1875q-0.328125 -0.1875 -0.8125 -0.421875q-0.46875 -0.234375 -1.125 -0.4375q-0.65625 -0.203125 -1.5625 -0.203125q-0.78125 0 -1.40625 0.203125q-0.609375 0.203125 -1.0625 0.546875q-0.4375 0.34375 -0.671875 0.8125q-0.234375 0.453125 -0.234375 0.984375q0 0.6875 0.390625 1.140625q0.390625 0.4375 1.03125 0.765625q0.640625 0.328125 1.453125 0.59375q0.8125 0.25 1.671875 0.53125q0.859375 0.28125 1.671875 0.640625q0.8125 0.34375 1.453125 0.859375q0.640625 0.515625 1.03125 1.28125q0.390625 0.75 0.390625 1.796875q0 1.21875 -0.4375 2.25q-0.421875 1.03125 -1.28125 1.78125q-0.84375 0.75 -2.078125 1.1875q-1.21875 0.4375 -2.828125 0.4375q-1.84375 0 -3.34375 -0.59375q-1.484375 -0.609375 -2.515625 -1.546875l0.71875 -1.171875q0.140625 -0.21875 0.328125 -0.34375q0.203125 -0.125 0.515625 -0.125q0.3125 0 0.65625 0.25q0.34375 0.234375 0.828125 0.53125q0.5 0.296875 1.203125 0.546875q0.703125 0.234375 1.765625 0.234375q0.890625 0 1.5625 -0.234375q0.6875 -0.234375 1.125 -0.625q0.453125 -0.40625 0.671875 -0.921875q0.21875 -0.53125 0.21875 -1.109375q0 -0.734375 -0.390625 -1.203125q-0.390625 -0.484375 -1.03125 -0.8125q-0.640625 -0.34375 -1.46875 -0.59375q-0.8125 -0.25 -1.671875 -0.53125q-0.859375 -0.28125 -1.6875 -0.625q-0.8125 -0.359375 -1.453125 -0.890625q-0.640625 -0.546875 -1.03125 -1.328125q-0.390625 -0.796875 -0.390625 -1.921875q0 -1.0 0.40625 -1.921875q0.421875 -0.9375 1.21875 -1.640625q0.796875 -0.703125 1.953125 -1.109375q1.171875 -0.421875 2.65625 -0.421875q1.734375 0 3.109375 0.546875q1.375 0.546875 2.375 1.5l-0.6875 1.125zm10.306366 14.9375q-2.078125 0 -3.203125 -1.15625q-1.109375 -1.171875 -1.109375 -3.359375l0 -10.734375l-2.109375 0q-0.28125 0 -0.46875 -0.15625q-0.1875 -0.171875 -0.1875 -0.515625l0 -1.234375l2.875 -0.359375l0.703125 -5.4375q0.046875 -0.25 0.234375 -0.40625q0.1875 -0.171875 0.484375 -0.171875l1.5625 0l0 6.046875l5.015625 0l0 2.234375l-5.015625 0l0 10.53125q0 1.109375 0.53125 1.65625q0.53125 0.53125 1.390625 0.53125q0.484375 0 0.828125 -0.125q0.359375 -0.140625 0.625 -0.296875q0.265625 -0.15625 0.4375 -0.28125q0.1875 -0.125 0.328125 -0.125q0.234375 0 0.421875 0.28125l0.90625 1.484375q-0.796875 0.734375 -1.921875 1.171875q-1.125 0.421875 -2.328125 0.421875zm21.4122 -18.109375q1.921875 0 3.46875 0.640625q1.546875 0.640625 2.625 1.828125q1.09375 1.171875 1.671875 2.84375q0.578125 1.671875 0.578125 3.734375q0 2.078125 -0.578125 3.75q-0.578125 1.65625 -1.671875 2.84375q-1.078125 1.171875 -2.625 1.8125q-1.546875 0.625 -3.46875 0.625q-1.921875 0 -3.484375 -0.625q-1.546875 -0.640625 -2.640625 -1.8125q-1.09375 -1.1875 -1.6875 -2.84375q-0.578125 -1.671875 -0.578125 -3.75q0 -2.0625 0.578125 -3.734375q0.59375 -1.671875 1.6875 -2.84375q1.09375 -1.1875 2.640625 -1.828125q1.5625 -0.640625 3.484375 -0.640625zm0 15.65625q2.59375 0 3.875 -1.734375q1.28125 -1.75 1.28125 -4.859375q0 -3.140625 -1.28125 -4.890625q-1.28125 -1.75 -3.875 -1.75q-1.328125 0 -2.296875 0.453125q-0.96875 0.453125 -1.625 1.296875q-0.640625 0.84375 -0.96875 2.09375q-0.3125 1.234375 -0.3125 2.796875q0 1.5625 0.3125 2.796875q0.328125 1.21875 0.96875 2.0625q0.65625 0.84375 1.625 1.296875q0.96875 0.4375 2.296875 0.4375zm12.159393 2.171875l0 -17.546875l1.828125 0q0.671875 0 0.84375 0.640625l0.234375 1.90625q1.140625 -1.265625 2.546875 -2.046875q1.421875 -0.78125 3.28125 -0.78125q1.4375 0 2.53125 0.484375q1.109375 0.46875 1.84375 1.34375q0.734375 0.875 1.109375 2.109375q0.390625 1.21875 0.390625 2.71875l0 11.171875l-3.09375 0l0 -11.171875q0 -2.0 -0.90625 -3.09375q-0.90625 -1.109375 -2.78125 -1.109375q-1.359375 0 -2.546875 0.671875q-1.1875 0.65625 -2.203125 1.78125l0 12.921875l-3.078125 0zm26.221893 -17.828125q1.578125 0 2.90625 0.53125q1.328125 0.515625 2.296875 1.515625q0.984375 1.0 1.515625 2.46875q0.546875 1.453125 0.546875 3.328125q0 0.734375 -0.15625 0.984375q-0.15625 0.234375 -0.578125 0.234375l-11.6875 0q0.03125 1.65625 0.453125 2.890625q0.421875 1.234375 1.140625 2.0625q0.734375 0.8125 1.734375 1.21875q1.0 0.40625 2.25 0.40625q1.171875 0 2.0 -0.265625q0.84375 -0.265625 1.453125 -0.578125q0.609375 -0.3125 1.015625 -0.578125q0.40625 -0.265625 0.703125 -0.265625q0.375 0 0.59375 0.28125l0.859375 1.140625q-0.578125 0.6875 -1.375 1.203125q-0.796875 0.5 -1.703125 0.828125q-0.90625 0.328125 -1.875 0.5q-0.96875 0.171875 -1.921875 0.171875q-1.828125 0 -3.359375 -0.609375q-1.53125 -0.625 -2.65625 -1.8125q-1.109375 -1.1875 -1.734375 -2.9375q-0.625 -1.75 -0.625 -4.015625q0 -1.84375 0.5625 -3.4375q0.5625 -1.59375 1.609375 -2.765625q1.0625 -1.171875 2.59375 -1.828125q1.53125 -0.671875 3.4375 -0.671875zm0.0625 2.265625q-2.234375 0 -3.515625 1.296875q-1.28125 1.28125 -1.59375 3.578125l9.546875 0q0 -1.078125 -0.296875 -1.96875q-0.296875 -0.890625 -0.875 -1.53125q-0.5625 -0.65625 -1.390625 -1.015625q-0.8125 -0.359375 -1.875 -0.359375zm17.832764 15.5625l0 -25.53125l3.078125 0l0 10.328125q1.125 -1.1875 2.5 -1.90625q1.375 -0.71875 3.15625 -0.71875q1.4375 0 2.53125 0.484375q1.109375 0.46875 1.84375 1.34375q0.734375 0.875 1.109375 2.109375q0.390625 1.21875 0.390625 2.71875l0 11.171875l-3.09375 0l0 -11.171875q0 -2.0 -0.90625 -3.09375q-0.90625 -1.109375 -2.78125 -1.109375q-1.359375 0 -2.546875 0.671875q-1.1875 0.65625 -2.203125 1.78125l0 12.921875l-3.078125 0zm26.221893 -17.828125q1.578125 0 2.90625 0.53125q1.328125 0.515625 2.296875 1.515625q0.984375 1.0 1.515625 2.46875q0.546875 1.453125 0.546875 3.328125q0 0.734375 -0.15625 0.984375q-0.15625 0.234375 -0.578125 0.234375l-11.6875 0q0.03125 1.65625 0.453125 2.890625q0.421875 1.234375 1.140625 2.0625q0.734375 0.8125 1.734375 1.21875q1.0 0.40625 2.25 0.40625q1.171875 0 2.0 -0.265625q0.84375 -0.265625 1.453125 -0.578125q0.609375 -0.3125 1.015625 -0.578125q0.40625 -0.265625 0.703125 -0.265625q0.375 0 0.59375 0.28125l0.859375 1.140625q-0.578125 0.6875 -1.375 1.203125q-0.796875 0.5 -1.703125 0.828125q-0.90625 0.328125 -1.875 0.5q-0.96875 0.171875 -1.921875 0.171875q-1.828125 0 -3.359375 -0.609375q-1.53125 -0.625 -2.65625 -1.8125q-1.109375 -1.1875 -1.734375 -2.9375q-0.625 -1.75 -0.625 -4.015625q0 -1.84375 0.5625 -3.4375q0.5625 -1.59375 1.609375 -2.765625q1.0625 -1.171875 2.59375 -1.828125q1.53125 -0.671875 3.4375 -0.671875zm0.0625 2.265625q-2.234375 0 -3.515625 1.296875q-1.28125 1.28125 -1.59375 3.578125l9.546875 0q0 -1.078125 -0.296875 -1.96875q-0.296875 -0.890625 -0.875 -1.53125q-0.5625 -0.65625 -1.390625 -1.015625q-0.8125 -0.359375 -1.875 -0.359375zm24.03476 15.5625l-1.375 0q-0.4375 0 -0.71875 -0.140625q-0.28125 -0.140625 -0.359375 -0.59375l-0.359375 -1.625q-0.6875 0.625 -1.34375 1.125q-0.65625 0.484375 -1.390625 0.828125q-0.71875 0.34375 -1.546875 0.515625q-0.828125 0.171875 -1.828125 0.171875q-1.03125 0 -1.921875 -0.28125q-0.890625 -0.296875 -1.546875 -0.859375q-0.65625 -0.578125 -1.046875 -1.453125q-0.390625 -0.875 -0.390625 -2.078125q0 -1.03125 0.5625 -1.984375q0.578125 -0.96875 1.84375 -1.71875q1.28125 -0.75 3.34375 -1.21875q2.0625 -0.484375 5.046875 -0.546875l0 -1.375q0 -2.03125 -0.875 -3.078125q-0.875 -1.0625 -2.59375 -1.0625q-1.125 0 -1.90625 0.296875q-0.765625 0.28125 -1.328125 0.640625q-0.5625 0.34375 -0.96875 0.640625q-0.40625 0.28125 -0.796875 0.28125q-0.3125 0 -0.546875 -0.15625q-0.234375 -0.171875 -0.375 -0.421875l-0.5625 -0.984375q1.46875 -1.40625 3.140625 -2.09375q1.6875 -0.6875 3.734375 -0.6875q1.46875 0 2.609375 0.484375q1.140625 0.484375 1.921875 1.359375q0.78125 0.859375 1.171875 2.09375q0.40625 1.21875 0.40625 2.6875l0 11.234375zm-8.0 -1.890625q0.8125 0 1.484375 -0.15625q0.671875 -0.171875 1.265625 -0.46875q0.609375 -0.3125 1.15625 -0.734375q0.546875 -0.4375 1.0625 -1.0l0 -3.65625q-2.125 0.078125 -3.625 0.34375q-1.484375 0.265625 -2.421875 0.703125q-0.9375 0.4375 -1.359375 1.03125q-0.421875 0.578125 -0.421875 1.3125q0 0.6875 0.21875 1.1875q0.21875 0.5 0.59375 0.828125q0.390625 0.3125 0.90625 0.46875q0.53125 0.140625 1.140625 0.140625zm25.039368 1.890625q-0.671875 0 -0.84375 -0.640625l-0.265625 -2.125q-1.125 1.359375 -2.578125 2.1875q-1.453125 0.828125 -3.3125 0.828125q-1.515625 0 -2.75 -0.578125q-1.21875 -0.59375 -2.09375 -1.71875q-0.859375 -1.125 -1.328125 -2.796875q-0.46875 -1.6875 -0.46875 -3.875q0 -1.9375 0.515625 -3.609375q0.515625 -1.671875 1.5 -2.90625q0.984375 -1.234375 2.375 -1.921875q1.40625 -0.703125 3.203125 -0.703125q1.609375 0 2.75 0.546875q1.140625 0.53125 2.046875 1.53125l0 -9.75l3.078125 0l0 25.53125l-1.828125 0zm-5.984375 -2.25q1.515625 0 2.640625 -0.6875q1.140625 -0.703125 2.09375 -1.96875l0 -8.484375q-0.859375 -1.140625 -1.875 -1.59375q-1.0 -0.46875 -2.234375 -0.46875q-2.46875 0 -3.78125 1.75q-1.3125 1.75 -1.3125 4.984375q0 1.71875 0.296875 2.9375q0.296875 1.21875 0.859375 2.015625q0.578125 0.78125 1.40625 1.15625q0.828125 0.359375 1.90625 0.359375zm32.576965 2.25l-1.375 0q-0.4375 0 -0.71875 -0.140625q-0.28125 -0.140625 -0.359375 -0.59375l-0.359375 -1.625q-0.6875 0.625 -1.34375 1.125q-0.65625 0.484375 -1.390625 0.828125q-0.71875 0.34375 -1.546875 0.515625q-0.828125 0.171875 -1.828125 0.171875q-1.03125 0 -1.921875 -0.28125q-0.890625 -0.296875 -1.546875 -0.859375q-0.65625 -0.578125 -1.046875 -1.453125q-0.390625 -0.875 -0.390625 -2.078125q0 -1.03125 0.5625 -1.984375q0.578125 -0.96875 1.84375 -1.71875q1.28125 -0.75 3.34375 -1.21875q2.0625 -0.484375 5.046875 -0.546875l0 -1.375q0 -2.03125 -0.875 -3.078125q-0.875 -1.0625 -2.59375 -1.0625q-1.125 0 -1.90625 0.296875q-0.765625 0.28125 -1.328125 0.640625q-0.5625 0.34375 -0.96875 0.640625q-0.40625 0.28125 -0.796875 0.28125q-0.3125 0 -0.546875 -0.15625q-0.234375 -0.171875 -0.375 -0.421875l-0.5625 -0.984375q1.46875 -1.40625 3.140625 -2.09375q1.6875 -0.6875 3.734375 -0.6875q1.46875 0 2.609375 0.484375q1.140625 0.484375 1.921875 1.359375q0.78125 0.859375 1.171875 2.09375q0.40625 1.21875 0.40625 2.6875l0 11.234375zm-8.0 -1.890625q0.8125 0 1.484375 -0.15625q0.671875 -0.171875 1.265625 -0.46875q0.609375 -0.3125 1.15625 -0.734375q0.546875 -0.4375 1.0625 -1.0l0 -3.65625q-2.125 0.078125 -3.625 0.34375q-1.484375 0.265625 -2.421875 0.703125q-0.9375 0.4375 -1.359375 1.03125q-0.421875 0.578125 -0.421875 1.3125q0 0.6875 0.21875 1.1875q0.21875 0.5 0.59375 0.828125q0.390625 0.3125 0.90625 0.46875q0.53125 0.140625 1.140625 0.140625zm12.679993 1.890625l0 -17.546875l1.828125 0q0.671875 0 0.84375 0.640625l0.234375 1.90625q1.140625 -1.265625 2.546875 -2.046875q1.421875 -0.78125 3.28125 -0.78125q1.4375 0 2.53125 0.484375q1.109375 0.46875 1.84375 1.34375q0.734375 0.875 1.109375 2.109375q0.390625 1.21875 0.390625 2.71875l0 11.171875l-3.09375 0l0 -11.171875q0 -2.0 -0.90625 -3.09375q-0.90625 -1.109375 -2.78125 -1.109375q-1.359375 0 -2.546875 0.671875q-1.1875 0.65625 -2.203125 1.78125l0 12.921875l-3.078125 0zm31.628113 0q-0.671875 0 -0.84375 -0.640625l-0.265625 -2.125q-1.125 1.359375 -2.578125 2.1875q-1.453125 0.828125 -3.3125 0.828125q-1.515625 0 -2.75 -0.578125q-1.21875 -0.59375 -2.09375 -1.71875q-0.859375 -1.125 -1.328125 -2.796875q-0.46875 -1.6875 -0.46875 -3.875q0 -1.9375 0.515625 -3.609375q0.515625 -1.671875 1.5 -2.90625q0.984375 -1.234375 2.375 -1.921875q1.40625 -0.703125 3.203125 -0.703125q1.609375 0 2.75 0.546875q1.140625 0.53125 2.046875 1.53125l0 -9.75l3.078125 0l0 25.53125l-1.828125 0zm-5.984375 -2.25q1.515625 0 2.640625 -0.6875q1.140625 -0.703125 2.09375 -1.96875l0 -8.484375q-0.859375 -1.140625 -1.875 -1.59375q-1.0 -0.46875 -2.234375 -0.46875q-2.46875 0 -3.78125 1.75q-1.3125 1.75 -1.3125 4.984375q0 1.71875 0.296875 2.9375q0.296875 1.21875 0.859375 2.015625q0.578125 0.78125 1.40625 1.15625q0.828125 0.359375 1.90625 0.359375z" fill-rule="nonzero"/><path fill="#ff00ff" d="m303.9879 166.30823q-2.078125 0 -3.203125 -1.15625q-1.109375 -1.171875 -1.109375 -3.359375l0 -10.734375l-2.109375 0q-0.28125 0 -0.46875 -0.15625q-0.1875 -0.171875 -0.1875 -0.515625l0 -1.234375l2.875 -0.359375l0.703125 -5.4375q0.046875 -0.25 0.234375 -0.40625q0.1875 -0.171875 0.484375 -0.171875l1.5625 0l0 6.046875l5.015625 0l0 2.234375l-5.015625 0l0 10.53125q0 1.109375 0.53125 1.65625q0.53125 0.53125 1.390625 0.53125q0.484375 0 0.828125 -0.125q0.359375 -0.140625 0.625 -0.296875q0.265625 -0.15625 0.4375 -0.28125q0.1875 -0.125 0.328125 -0.125q0.234375 0 0.421875 0.28125l0.90625 1.484375q-0.796875 0.734375 -1.921875 1.171875q-1.125 0.421875 -2.328125 0.421875zm20.504822 -0.28125l-1.375 0q-0.4375 0 -0.71875 -0.140625q-0.28125 -0.140625 -0.359375 -0.59375l-0.359375 -1.625q-0.6875 0.625 -1.34375 1.125q-0.65625 0.484375 -1.390625 0.828125q-0.71875 0.34375 -1.546875 0.515625q-0.828125 0.171875 -1.828125 0.171875q-1.03125 0 -1.921875 -0.28125q-0.890625 -0.296875 -1.546875 -0.859375q-0.65625 -0.578125 -1.046875 -1.453125q-0.390625 -0.875 -0.390625 -2.078125q0 -1.03125 0.5625 -1.984375q0.578125 -0.96875 1.84375 -1.71875q1.28125 -0.75 3.34375 -1.21875q2.0625 -0.484375 5.046875 -0.546875l0 -1.375q0 -2.03125 -0.875 -3.078125q-0.875 -1.0625 -2.59375 -1.0625q-1.125 0 -1.90625 0.296875q-0.765625 0.28125 -1.328125 0.640625q-0.5625 0.34375 -0.96875 0.640625q-0.40625 0.28125 -0.796875 0.28125q-0.3125 0 -0.546875 -0.15625q-0.234375 -0.171875 -0.375 -0.421875l-0.5625 -0.984375q1.46875 -1.40625 3.140625 -2.09375q1.6875 -0.6875 3.734375 -0.6875q1.46875 0 2.609375 0.484375q1.140625 0.484375 1.921875 1.359375q0.78125 0.859375 1.171875 2.09375q0.40625 1.21875 0.40625 2.6875l0 11.234375zm-8.0 -1.890625q0.8125 0 1.484375 -0.15625q0.671875 -0.171875 1.265625 -0.46875q0.609375 -0.3125 1.15625 -0.734375q0.546875 -0.4375 1.0625 -1.0l0 -3.65625q-2.125 0.078125 -3.625 0.34375q-1.484375 0.265625 -2.421875 0.703125q-0.9375 0.4375 -1.359375 1.03125q-0.421875 0.578125 -0.421875 1.3125q0 0.6875 0.21875 1.1875q0.21875 0.5 0.59375 0.828125q0.390625 0.3125 0.90625 0.46875q0.53125 0.140625 1.140625 0.140625zm16.101868 -15.65625l0 17.546875l-3.078125 0l0 -17.546875l3.078125 0zm0.703125 -5.515625q0 0.453125 -0.1875 0.84375q-0.171875 0.390625 -0.484375 0.6875q-0.296875 0.296875 -0.703125 0.484375q-0.390625 0.171875 -0.84375 0.171875q-0.453125 0 -0.84375 -0.171875q-0.390625 -0.1875 -0.703125 -0.484375q-0.296875 -0.296875 -0.46875 -0.6875q-0.171875 -0.390625 -0.171875 -0.84375q0 -0.453125 0.171875 -0.859375q0.171875 -0.40625 0.46875 -0.703125q0.3125 -0.3125 0.703125 -0.484375q0.390625 -0.171875 0.84375 -0.171875q0.453125 0 0.84375 0.171875q0.40625 0.171875 0.703125 0.484375q0.3125 0.296875 0.484375 0.703125q0.1875 0.40625 0.1875 0.859375zm8.168823 -2.46875l0 25.53125l-3.078125 0l0 -25.53125l3.078125 0zm7.6219482 -0.59375q0.5 0.828125 0.71875 1.65625q0.234375 0.828125 0.234375 1.671875q0 1.5625 -0.78125 3.0q-0.765625 1.421875 -2.140625 2.625l-0.953125 -0.59375q-0.140625 -0.078125 -0.1875 -0.1875q-0.03125 -0.109375 -0.03125 -0.203125q0 -0.25 0.171875 -0.421875q0.28125 -0.328125 0.53125 -0.71875q0.265625 -0.390625 0.46875 -0.8125q0.21875 -0.421875 0.328125 -0.890625q0.125 -0.46875 0.125 -0.984375q0 -0.5625 -0.171875 -1.140625q-0.15625 -0.59375 -0.5625 -1.25q-0.109375 -0.203125 -0.109375 -0.390625q0 -0.40625 0.46875 -0.609375l1.890625 -0.75zm5.265625 0q0.5 0.828125 0.71875 1.65625q0.234375 0.828125 0.234375 1.671875q0 1.5625 -0.78125 3.0q-0.765625 1.421875 -2.140625 2.625l-0.953125 -0.59375q-0.140625 -0.078125 -0.1875 -0.1875q-0.03125 -0.109375 -0.03125 -0.203125q0 -0.25 0.171875 -0.421875q0.28125 -0.328125 0.53125 -0.71875q0.265625 -0.390625 0.46875 -0.8125q0.21875 -0.421875 0.328125 -0.890625q0.125 -0.46875 0.125 -0.984375q0 -0.5625 -0.171875 -1.140625q-0.15625 -0.59375 -0.546875 -1.25q-0.125 -0.203125 -0.125 -0.390625q0 -0.40625 0.46875 -0.609375l1.890625 -0.75z" fill-rule="nonzero"/><path fill="#000000" fill-opacity="0.0" d="m435.98175 270.0l0 0c0 -75.884796 84.938965 -137.40158 189.71655 -137.40158l0 0c104.77753 0 189.71655 61.516785 189.71655 137.40158l0 0c0 75.884796 -84.939026 137.40158 -189.71655 137.40158l0 0c-104.77759 0 -189.71655 -61.516785 -189.71655 -137.40158z" fill-rule="evenodd"/><path stroke="#ff9900" stroke-width="4.0" stroke-linejoin="round" stroke-linecap="butt" d="m435.98175 270.0l0 0c0 -75.884796 84.938965 -137.40158 189.71655 -137.40158l0 0c104.77753 0 189.71655 61.516785 189.71655 137.40158l0 0c0 75.884796 -84.939026 137.40158 -189.71655 137.40158l0 0c-104.77759 0 -189.71655 -61.516785 -189.71655 -137.40158z" fill-rule="evenodd"/><path fill="#000000" fill-opacity="0.0" d="m511.86877 395.7979l299.1181 0l0 72.188965l-299.1181 0z" fill-rule="evenodd"/><path fill="#ff9900" d="m522.8375 420.54666q-0.5 -0.84375 -0.734375 -1.671875q-0.234375 -0.84375 -0.234375 -1.671875q0 -1.5625 0.765625 -2.984375q0.78125 -1.4375 2.171875 -2.640625l0.953125 0.59375q0.140625 0.09375 0.171875 0.203125q0.046875 0.09375 0.046875 0.203125q0 0.234375 -0.171875 0.40625q-0.28125 0.34375 -0.546875 0.734375q-0.25 0.375 -0.46875 0.796875q-0.203125 0.421875 -0.328125 0.890625q-0.109375 0.46875 -0.109375 1.0q0 0.546875 0.15625 1.140625q0.171875 0.59375 0.5625 1.25q0.125 0.1875 0.125 0.390625q0 0.421875 -0.46875 0.59375l-1.890625 0.765625zm5.28125 0q-0.515625 -0.84375 -0.75 -1.671875q-0.234375 -0.84375 -0.234375 -1.671875q0 -1.5625 0.765625 -2.984375q0.78125 -1.4375 2.171875 -2.640625l0.953125 0.59375q0.140625 0.09375 0.171875 0.203125q0.046875 0.09375 0.046875 0.203125q0 0.234375 -0.171875 0.40625q-0.28125 0.34375 -0.546875 0.734375q-0.25 0.375 -0.453125 0.796875q-0.203125 0.421875 -0.328125 0.890625q-0.125 0.46875 -0.125 1.0q0 0.546875 0.15625 1.140625q0.171875 0.59375 0.578125 1.25q0.109375 0.1875 0.109375 0.390625q0 0.421875 -0.46875 0.59375l-1.875 0.765625zm18.661194 15.09375q1.0 0 1.84375 -0.09375q0.84375 -0.109375 1.578125 -0.296875q0.75 -0.1875 1.40625 -0.453125q0.65625 -0.265625 1.3125 -0.625l0 -5.46875l-3.84375 0q-0.328125 0 -0.53125 -0.1875q-0.1875 -0.1875 -0.1875 -0.46875l0 -1.90625l7.609375 0l0 9.53125q-0.921875 0.671875 -1.9375 1.171875q-1.015625 0.5 -2.171875 0.84375q-1.15625 0.34375 -2.46875 0.5q-1.3125 0.171875 -2.859375 0.171875q-2.703125 0 -4.953125 -0.921875q-2.25 -0.9375 -3.890625 -2.609375q-1.625 -1.671875 -2.53125 -4.0q-0.90625 -2.34375 -0.90625 -5.15625q0 -2.84375 0.890625 -5.171875q0.890625 -2.34375 2.546875 -4.015625q1.65625 -1.671875 4.0 -2.59375q2.34375 -0.921875 5.265625 -0.921875q1.46875 0 2.734375 0.21875q1.265625 0.21875 2.34375 0.625q1.09375 0.40625 2.0 0.984375q0.921875 0.578125 1.71875 1.3125l-0.953125 1.515625q-0.296875 0.46875 -0.765625 0.46875q-0.265625 0 -0.609375 -0.1875q-0.421875 -0.234375 -0.96875 -0.578125q-0.53125 -0.359375 -1.3125 -0.671875q-0.765625 -0.328125 -1.8125 -0.546875q-1.046875 -0.234375 -2.484375 -0.234375q-2.09375 0 -3.796875 0.6875q-1.703125 0.6875 -2.90625 1.96875q-1.1875 1.265625 -1.828125 3.078125q-0.640625 1.8125 -0.640625 4.0625q0 2.359375 0.671875 4.203125q0.671875 1.84375 1.875 3.125q1.21875 1.28125 2.875 1.96875q1.671875 0.671875 3.6875 0.671875zm26.765686 2.4375l-1.375 0q-0.4375 0 -0.71875 -0.140625q-0.28125 -0.140625 -0.359375 -0.59375l-0.359375 -1.625q-0.6875 0.625 -1.34375 1.125q-0.65625 0.484375 -1.390625 0.828125q-0.71875 0.34375 -1.546875 0.515625q-0.828125 0.171875 -1.828125 0.171875q-1.03125 0 -1.921875 -0.28125q-0.890625 -0.296875 -1.546875 -0.859375q-0.65625 -0.578125 -1.046875 -1.453125q-0.390625 -0.875 -0.390625 -2.078125q0 -1.03125 0.5625 -1.984375q0.578125 -0.96875 1.84375 -1.71875q1.28125 -0.75 3.34375 -1.21875q2.0625 -0.484375 5.046875 -0.546875l0 -1.375q0 -2.03125 -0.875 -3.078125q-0.875 -1.0625 -2.59375 -1.0625q-1.125 0 -1.90625 0.296875q-0.765625 0.28125 -1.328125 0.640625q-0.5625 0.34375 -0.96875 0.640625q-0.40625 0.28125 -0.796875 0.28125q-0.3125 0 -0.546875 -0.15625q-0.234375 -0.171875 -0.375 -0.421875l-0.5625 -0.984375q1.46875 -1.40625 3.140625 -2.09375q1.6875 -0.6875 3.734375 -0.6875q1.46875 0 2.609375 0.484375q1.140625 0.484375 1.921875 1.359375q0.78125 0.859375 1.171875 2.09375q0.40625 1.21875 0.40625 2.6875l0 11.234375zm-8.0 -1.890625q0.8125 0 1.484375 -0.15625q0.671875 -0.171875 1.265625 -0.46875q0.609375 -0.3125 1.15625 -0.734375q0.546875 -0.4375 1.0625 -1.0l0 -3.65625q-2.125 0.078125 -3.625 0.34375q-1.484375 0.265625 -2.421875 0.703125q-0.9375 0.4375 -1.359375 1.03125q-0.421875 0.578125 -0.421875 1.3125q0 0.6875 0.21875 1.1875q0.21875 0.5 0.59375 0.828125q0.390625 0.3125 0.90625 0.46875q0.53125 0.140625 1.140625 0.140625zm12.679993 1.890625l0 -17.546875l1.828125 0q0.671875 0 0.84375 0.640625l0.21875 1.796875q0.96875 -1.203125 2.171875 -1.953125q1.203125 -0.765625 2.796875 -0.765625q1.796875 0 2.890625 0.984375q1.09375 0.984375 1.59375 2.671875q0.359375 -0.953125 0.953125 -1.640625q0.59375 -0.703125 1.34375 -1.15625q0.75 -0.453125 1.578125 -0.65625q0.84375 -0.203125 1.71875 -0.203125q1.375 0 2.453125 0.4375q1.09375 0.4375 1.84375 1.296875q0.765625 0.84375 1.15625 2.09375q0.40625 1.234375 0.40625 2.828125l0 11.171875l-3.09375 0l0 -11.171875q0 -2.0625 -0.90625 -3.125q-0.890625 -1.078125 -2.609375 -1.078125q-0.765625 0 -1.453125 0.28125q-0.671875 0.265625 -1.203125 0.78125q-0.515625 0.515625 -0.828125 1.3125q-0.296875 0.78125 -0.296875 1.828125l0 11.171875l-3.078125 0l0 -11.171875q0 -2.125 -0.859375 -3.15625q-0.84375 -1.046875 -2.46875 -1.046875q-1.140625 0 -2.125 0.625q-0.984375 0.609375 -1.796875 1.671875l0 13.078125l-3.078125 0zm35.40576 -17.828125q1.578125 0 2.90625 0.53125q1.328125 0.515625 2.296875 1.515625q0.984375 1.0 1.515625 2.46875q0.546875 1.453125 0.546875 3.328125q0 0.734375 -0.15625 0.984375q-0.15625 0.234375 -0.578125 0.234375l-11.6875 0q0.03125 1.65625 0.453125 2.890625q0.421875 1.234375 1.140625 2.0625q0.734375 0.8125 1.734375 1.21875q1.0 0.40625 2.25 0.40625q1.171875 0 2.0 -0.265625q0.84375 -0.265625 1.453125 -0.578125q0.609375 -0.3125 1.015625 -0.578125q0.40625 -0.265625 0.703125 -0.265625q0.375 0 0.59375 0.28125l0.859375 1.140625q-0.578125 0.6875 -1.375 1.203125q-0.796875 0.5 -1.703125 0.828125q-0.90625 0.328125 -1.875 0.5q-0.96875 0.171875 -1.921875 0.171875q-1.828125 0 -3.359375 -0.609375q-1.53125 -0.625 -2.65625 -1.8125q-1.109375 -1.1875 -1.734375 -2.9375q-0.625 -1.75 -0.625 -4.015625q0 -1.84375 0.5625 -3.4375q0.5625 -1.59375 1.609375 -2.765625q1.0625 -1.171875 2.59375 -1.828125q1.53125 -0.671875 3.4375 -0.671875zm0.0625 2.265625q-2.234375 0 -3.515625 1.296875q-1.28125 1.28125 -1.59375 3.578125l9.546875 0q0 -1.078125 -0.296875 -1.96875q-0.296875 -0.890625 -0.875 -1.53125q-0.5625 -0.65625 -1.390625 -1.015625q-0.8125 -0.359375 -1.875 -0.359375zm21.19104 0.90625q-0.203125 0.375 -0.640625 0.375q-0.265625 0 -0.59375 -0.1875q-0.328125 -0.1875 -0.8125 -0.421875q-0.46875 -0.234375 -1.125 -0.4375q-0.65625 -0.203125 -1.5625 -0.203125q-0.78125 0 -1.40625 0.203125q-0.609375 0.203125 -1.0625 0.546875q-0.4375 0.34375 -0.671875 0.8125q-0.234375 0.453125 -0.234375 0.984375q0 0.6875 0.390625 1.140625q0.390625 0.4375 1.03125 0.765625q0.640625 0.328125 1.453125 0.59375q0.8125 0.25 1.671875 0.53125q0.859375 0.28125 1.671875 0.640625q0.8125 0.34375 1.453125 0.859375q0.640625 0.515625 1.03125 1.28125q0.390625 0.75 0.390625 1.796875q0 1.21875 -0.4375 2.25q-0.421875 1.03125 -1.28125 1.78125q-0.84375 0.75 -2.078125 1.1875q-1.21875 0.4375 -2.828125 0.4375q-1.84375 0 -3.34375 -0.59375q-1.484375 -0.609375 -2.515625 -1.546875l0.71875 -1.171875q0.140625 -0.21875 0.328125 -0.34375q0.203125 -0.125 0.515625 -0.125q0.3125 0 0.65625 0.25q0.34375 0.234375 0.828125 0.53125q0.5 0.296875 1.203125 0.546875q0.703125 0.234375 1.765625 0.234375q0.890625 0 1.5625 -0.234375q0.6875 -0.234375 1.125 -0.625q0.453125 -0.40625 0.671875 -0.921875q0.21875 -0.53125 0.21875 -1.109375q0 -0.734375 -0.390625 -1.203125q-0.390625 -0.484375 -1.03125 -0.8125q-0.640625 -0.34375 -1.46875 -0.59375q-0.8125 -0.25 -1.671875 -0.53125q-0.859375 -0.28125 -1.6875 -0.625q-0.8125 -0.359375 -1.453125 -0.890625q-0.640625 -0.546875 -1.03125 -1.328125q-0.390625 -0.796875 -0.390625 -1.921875q0 -1.0 0.40625 -1.921875q0.421875 -0.9375 1.21875 -1.640625q0.796875 -0.703125 1.953125 -1.109375q1.171875 -0.421875 2.65625 -0.421875q1.734375 0 3.109375 0.546875q1.375 0.546875 2.375 1.5l-0.6875 1.125zm9.401184 -2.890625l2.421875 0q0.375 0 0.609375 0.1875q0.25 0.1875 0.34375 0.453125l3.359375 11.296875q0.140625 0.625 0.25 1.203125q0.125 0.578125 0.21875 1.171875q0.140625 -0.59375 0.3125 -1.171875q0.171875 -0.578125 0.359375 -1.203125l3.703125 -11.375q0.09375 -0.25 0.3125 -0.421875q0.21875 -0.1875 0.546875 -0.1875l1.328125 0q0.34375 0 0.5625 0.1875q0.234375 0.171875 0.328125 0.421875l3.625 11.375q0.1875 0.609375 0.328125 1.203125q0.15625 0.578125 0.28125 1.15625q0.09375 -0.578125 0.234375 -1.203125q0.140625 -0.625 0.296875 -1.15625l3.421875 -11.296875q0.09375 -0.28125 0.328125 -0.453125q0.25 -0.1875 0.578125 -0.1875l2.328125 0l-5.6875 17.546875l-2.453125 0q-0.4375 0 -0.609375 -0.59375l-3.890625 -11.90625q-0.140625 -0.390625 -0.234375 -0.796875q-0.078125 -0.40625 -0.15625 -0.8125q-0.09375 0.40625 -0.1875 0.828125q-0.078125 0.40625 -0.21875 0.8125l-3.9375 11.875q-0.1875 0.59375 -0.703125 0.59375l-2.328125 0l-5.671875 -17.546875zm35.937195 -0.28125q1.921875 0 3.46875 0.640625q1.546875 0.640625 2.625 1.828125q1.09375 1.171875 1.671875 2.84375q0.578125 1.671875 0.578125 3.734375q0 2.078125 -0.578125 3.75q-0.578125 1.65625 -1.671875 2.84375q-1.078125 1.171875 -2.625 1.8125q-1.546875 0.625 -3.46875 0.625q-1.921875 0 -3.484375 -0.625q-1.546875 -0.640625 -2.640625 -1.8125q-1.09375 -1.1875 -1.6875 -2.84375q-0.578125 -1.671875 -0.578125 -3.75q0 -2.0625 0.578125 -3.734375q0.59375 -1.671875 1.6875 -2.84375q1.09375 -1.1875 2.640625 -1.828125q1.5625 -0.640625 3.484375 -0.640625zm0 15.65625q2.59375 0 3.875 -1.734375q1.28125 -1.75 1.28125 -4.859375q0 -3.140625 -1.28125 -4.890625q-1.28125 -1.75 -3.875 -1.75q-1.328125 0 -2.296875 0.453125q-0.96875 0.453125 -1.625 1.296875q-0.640625 0.84375 -0.96875 2.09375q-0.3125 1.234375 -0.3125 2.796875q0 1.5625 0.3125 2.796875q0.328125 1.21875 0.96875 2.0625q0.65625 0.84375 1.625 1.296875q0.96875 0.4375 2.296875 0.4375zm12.159363 2.171875l0 -17.546875l1.828125 0q0.671875 0 0.84375 0.640625l0.234375 1.90625q1.140625 -1.265625 2.546875 -2.046875q1.421875 -0.78125 3.28125 -0.78125q1.4375 0 2.53125 0.484375q1.109375 0.46875 1.84375 1.34375q0.734375 0.875 1.109375 2.109375q0.390625 1.21875 0.390625 2.71875l0 11.171875l-3.09375 0l0 -11.171875q0 -2.0 -0.90625 -3.09375q-0.90625 -1.109375 -2.78125 -1.109375q-1.359375 0 -2.546875 0.671875q-1.1875 0.65625 -2.203125 1.78125l0 12.921875l-3.078125 0zm26.066772 0l0 -25.53125l3.09375 0l0 10.515625q1.09375 -1.265625 2.5 -2.03125q1.421875 -0.78125 3.234375 -0.78125q1.53125 0 2.75 0.578125q1.234375 0.5625 2.09375 1.703125q0.875 1.125 1.34375 2.796875q0.46875 1.671875 0.46875 3.859375q0 1.9375 -0.53125 3.609375q-0.515625 1.671875 -1.5 2.90625q-0.96875 1.21875 -2.390625 1.921875q-1.40625 0.703125 -3.171875 0.703125q-1.6875 0 -2.875 -0.65625q-1.1875 -0.671875 -2.078125 -1.84375l-0.15625 1.59375q-0.140625 0.65625 -0.796875 0.65625l-1.984375 0zm7.828125 -15.375q-1.515625 0 -2.65625 0.703125q-1.125 0.6875 -2.078125 1.953125l0 8.484375q0.828125 1.15625 1.84375 1.625q1.015625 0.453125 2.265625 0.453125q2.453125 0 3.765625 -1.75q1.328125 -1.75 1.328125 -4.984375q0 -1.71875 -0.3125 -2.9375q-0.296875 -1.234375 -0.875 -2.015625q-0.5625 -0.796875 -1.40625 -1.15625q-0.828125 -0.375 -1.875 -0.375zm16.125183 20.5625q-0.15625 0.34375 -0.390625 0.546875q-0.234375 0.203125 -0.71875 0.203125l-2.28125 0l3.203125 -6.953125l-7.234375 -16.53125l2.65625 0q0.40625 0 0.625 0.203125q0.234375 0.1875 0.328125 0.4375l4.703125 11.046875q0.15625 0.390625 0.265625 0.765625q0.109375 0.375 0.203125 0.78125q0.125 -0.40625 0.234375 -0.78125q0.125 -0.375 0.28125 -0.78125l4.5625 -11.03125q0.09375 -0.28125 0.34375 -0.453125q0.265625 -0.1875 0.546875 -0.1875l2.46875 0l-9.796875 22.734375z" fill-rule="nonzero"/><path fill="#ff9900" d="m536.60315 458.72476q-0.15625 0.265625 -0.328125 0.390625q-0.171875 0.125 -0.453125 0.125q-0.296875 0 -0.6875 -0.28125q-0.390625 -0.296875 -0.984375 -0.65625q-0.59375 -0.359375 -1.4375 -0.640625q-0.84375 -0.296875 -2.03125 -0.296875q-1.125 0 -2.0 0.296875q-0.859375 0.296875 -1.453125 0.828125q-0.578125 0.515625 -0.875 1.21875q-0.28125 0.703125 -0.28125 1.515625q0 1.03125 0.5 1.71875q0.515625 0.6875 1.359375 1.171875q0.84375 0.484375 1.90625 0.84375q1.0625 0.359375 2.171875 0.734375q1.125 0.375 2.1875 0.859375q1.078125 0.46875 1.90625 1.203125q0.84375 0.734375 1.359375 1.796875q0.515625 1.046875 0.515625 2.59375q0 1.625 -0.5625 3.0625q-0.546875 1.421875 -1.625 2.484375q-1.0625 1.046875 -2.609375 1.65625q-1.546875 0.609375 -3.53125 0.609375q-2.40625 0 -4.390625 -0.875q-1.984375 -0.875 -3.390625 -2.375l0.96875 -1.59375q0.140625 -0.1875 0.34375 -0.3125q0.203125 -0.125 0.4375 -0.125q0.375 0 0.84375 0.390625q0.46875 0.375 1.15625 0.84375q0.703125 0.46875 1.703125 0.859375q1.0 0.390625 2.4375 0.390625q1.1875 0 2.125 -0.328125q0.9375 -0.328125 1.578125 -0.921875q0.65625 -0.59375 1.0 -1.421875q0.359375 -0.84375 0.359375 -1.859375q0 -1.125 -0.515625 -1.84375q-0.515625 -0.71875 -1.34375 -1.203125q-0.828125 -0.5 -1.90625 -0.828125q-1.0625 -0.34375 -2.1875 -0.6875q-1.109375 -0.359375 -2.171875 -0.828125q-1.0625 -0.46875 -1.890625 -1.21875q-0.828125 -0.75 -1.34375 -1.859375q-0.515625 -1.125 -0.515625 -2.765625q0 -1.3125 0.515625 -2.546875q0.515625 -1.234375 1.484375 -2.1875q0.96875 -0.953125 2.390625 -1.515625q1.4375 -0.578125 3.28125 -0.578125q2.078125 0 3.796875 0.65625q1.71875 0.65625 3.0 1.90625l-0.8125 1.59375zm18.055176 20.953125l-1.375 0q-0.4375 0 -0.71875 -0.140625q-0.28125 -0.140625 -0.359375 -0.59375l-0.359375 -1.625q-0.6875 0.625 -1.34375 1.125q-0.65625 0.484375 -1.390625 0.828125q-0.71875 0.34375 -1.546875 0.515625q-0.828125 0.171875 -1.828125 0.171875q-1.03125 0 -1.921875 -0.28125q-0.890625 -0.296875 -1.546875 -0.859375q-0.65625 -0.578125 -1.046875 -1.453125q-0.390625 -0.875 -0.390625 -2.078125q0 -1.03125 0.5625 -1.984375q0.578125 -0.96875 1.84375 -1.71875q1.28125 -0.75 3.34375 -1.21875q2.0625 -0.484375 5.046875 -0.546875l0 -1.375q0 -2.03125 -0.875 -3.078125q-0.875 -1.0625 -2.59375 -1.0625q-1.125 0 -1.90625 0.296875q-0.765625 0.28125 -1.328125 0.640625q-0.5625 0.34375 -0.96875 0.640625q-0.40625 0.28125 -0.796875 0.28125q-0.3125 0 -0.546875 -0.15625q-0.234375 -0.171875 -0.375 -0.421875l-0.5625 -0.984375q1.46875 -1.40625 3.140625 -2.09375q1.6875 -0.6875 3.734375 -0.6875q1.46875 0 2.609375 0.484375q1.140625 0.484375 1.921875 1.359375q0.78125 0.859375 1.171875 2.09375q0.40625 1.21875 0.40625 2.6875l0 11.234375zm-8.0 -1.890625q0.8125 0 1.484375 -0.15625q0.671875 -0.171875 1.265625 -0.46875q0.609375 -0.3125 1.15625 -0.734375q0.546875 -0.4375 1.0625 -1.0l0 -3.65625q-2.125 0.078125 -3.625 0.34375q-1.484375 0.265625 -2.421875 0.703125q-0.9375 0.4375 -1.359375 1.03125q-0.421875 0.578125 -0.421875 1.3125q0 0.6875 0.21875 1.1875q0.21875 0.5 0.59375 0.828125q0.390625 0.3125 0.90625 0.46875q0.53125 0.140625 1.140625 0.140625zm25.039368 1.890625q-0.671875 0 -0.84375 -0.640625l-0.265625 -2.125q-1.125 1.359375 -2.578125 2.1875q-1.453125 0.828125 -3.3125 0.828125q-1.515625 0 -2.75 -0.578125q-1.21875 -0.59375 -2.09375 -1.71875q-0.859375 -1.125 -1.328125 -2.796875q-0.46875 -1.6875 -0.46875 -3.875q0 -1.9375 0.515625 -3.609375q0.515625 -1.671875 1.5 -2.90625q0.984375 -1.234375 2.375 -1.921875q1.40625 -0.703125 3.203125 -0.703125q1.609375 0 2.75 0.546875q1.140625 0.53125 2.046875 1.53125l0 -9.75l3.078125 0l0 25.53125l-1.828125 0zm-5.984375 -2.25q1.515625 0 2.640625 -0.6875q1.140625 -0.703125 2.09375 -1.96875l0 -8.484375q-0.859375 -1.140625 -1.875 -1.59375q-1.0 -0.46875 -2.234375 -0.46875q-2.46875 0 -3.78125 1.75q-1.3125 1.75 -1.3125 4.984375q0 1.71875 0.296875 2.9375q0.296875 1.21875 0.859375 2.015625q0.578125 0.78125 1.40625 1.15625q0.828125 0.359375 1.90625 0.359375zm16.419617 -15.296875l0 17.546875l-3.078125 0l0 -17.546875l3.078125 0zm0.703125 -5.515625q0 0.453125 -0.1875 0.84375q-0.171875 0.390625 -0.484375 0.6875q-0.296875 0.296875 -0.703125 0.484375q-0.390625 0.171875 -0.84375 0.171875q-0.453125 0 -0.84375 -0.171875q-0.390625 -0.1875 -0.703125 -0.484375q-0.296875 -0.296875 -0.46875 -0.6875q-0.171875 -0.390625 -0.171875 -0.84375q0 -0.453125 0.171875 -0.859375q0.171875 -0.40625 0.46875 -0.703125q0.3125 -0.3125 0.703125 -0.484375q0.390625 -0.171875 0.84375 -0.171875q0.453125 0 0.84375 0.171875q0.40625 0.171875 0.703125 0.484375q0.3125 0.296875 0.484375 0.703125q0.1875 0.40625 0.1875 0.859375zm11.700073 5.234375q1.578125 0 2.90625 0.53125q1.328125 0.515625 2.296875 1.515625q0.984375 1.0 1.515625 2.46875q0.546875 1.453125 0.546875 3.328125q0 0.734375 -0.15625 0.984375q-0.15625 0.234375 -0.578125 0.234375l-11.6875 0q0.03125 1.65625 0.453125 2.890625q0.421875 1.234375 1.140625 2.0625q0.734375 0.8125 1.734375 1.21875q1.0 0.40625 2.25 0.40625q1.171875 0 2.0 -0.265625q0.84375 -0.265625 1.453125 -0.578125q0.609375 -0.3125 1.015625 -0.578125q0.40625 -0.265625 0.703125 -0.265625q0.375 0 0.59375 0.28125l0.859375 1.140625q-0.578125 0.6875 -1.375 1.203125q-0.796875 0.5 -1.703125 0.828125q-0.90625 0.328125 -1.875 0.5q-0.96875 0.171875 -1.921875 0.171875q-1.828125 0 -3.359375 -0.609375q-1.53125 -0.625 -2.65625 -1.8125q-1.109375 -1.1875 -1.734375 -2.9375q-0.625 -1.75 -0.625 -4.015625q0 -1.84375 0.5625 -3.4375q0.5625 -1.59375 1.609375 -2.765625q1.0625 -1.171875 2.59375 -1.828125q1.53125 -0.671875 3.4375 -0.671875zm0.0625 2.265625q-2.234375 0 -3.515625 1.296875q-1.28125 1.28125 -1.59375 3.578125l9.546875 0q0 -1.078125 -0.296875 -1.96875q-0.296875 -0.890625 -0.875 -1.53125q-0.5625 -0.65625 -1.390625 -1.015625q-0.8125 -0.359375 -1.875 -0.359375zm11.7213745 -10.5625q0.5 0.828125 0.71875 1.65625q0.234375 0.828125 0.234375 1.671875q0 1.5625 -0.78125 3.0q-0.765625 1.421875 -2.140625 2.625l-0.953125 -0.59375q-0.140625 -0.078125 -0.1875 -0.1875q-0.03125 -0.109375 -0.03125 -0.203125q0 -0.25 0.171875 -0.421875q0.28125 -0.328125 0.53125 -0.71875q0.265625 -0.390625 0.46875 -0.8125q0.21875 -0.421875 0.328125 -0.890625q0.125 -0.46875 0.125 -0.984375q0 -0.5625 -0.171875 -1.140625q-0.15625 -0.59375 -0.5625 -1.25q-0.109375 -0.203125 -0.109375 -0.390625q0 -0.40625 0.46875 -0.609375l1.890625 -0.75zm5.265625 0q0.5 0.828125 0.71875 1.65625q0.234375 0.828125 0.234375 1.671875q0 1.5625 -0.78125 3.0q-0.765625 1.421875 -2.140625 2.625l-0.953125 -0.59375q-0.140625 -0.078125 -0.1875 -0.1875q-0.03125 -0.109375 -0.03125 -0.203125q0 -0.25 0.171875 -0.421875q0.28125 -0.328125 0.53125 -0.71875q0.265625 -0.390625 0.46875 -0.8125q0.21875 -0.421875 0.328125 -0.890625q0.125 -0.46875 0.125 -0.984375q0 -0.5625 -0.171875 -1.140625q-0.15625 -0.59375 -0.546875 -1.25q-0.125 -0.203125 -0.125 -0.390625q0 -0.40625 0.46875 -0.609375l1.890625 -0.75z" fill-rule="nonzero"/><path fill="#000000" fill-opacity="0.0" d="m621.8714 239.66667l126.36218 0l0 42.866135l-126.36218 0z" fill-rule="evenodd"/><path fill="#595959" d="m634.34015 264.1598q0 2.5625 0.65625 4.984375q0.65625 2.421875 1.90625 4.609375q0.078125 0.140625 0.09375 0.234375q0.03125 0.09375 0.03125 0.1875q0 0.171875 -0.09375 0.28125q-0.078125 0.109375 -0.203125 0.1875l-0.953125 0.578125q-0.890625 -1.375 -1.53125 -2.734375q-0.625 -1.359375 -1.015625 -2.71875q-0.390625 -1.375 -0.578125 -2.75q-0.171875 -1.390625 -0.171875 -2.859375q0 -1.453125 0.171875 -2.84375q0.1875 -1.390625 0.578125 -2.75q0.390625 -1.375 1.015625 -2.71875q0.640625 -1.359375 1.53125 -2.75l0.953125 0.578125q0.125 0.09375 0.203125 0.203125q0.09375 0.109375 0.09375 0.265625q0 0.1875 -0.125 0.421875q-1.25 2.171875 -1.90625 4.609375q-0.65625 2.421875 -0.65625 4.984375zm19.762573 7.546875l-2.34375 0l0 -7.828125l-9.265625 0l0 7.828125l-2.328125 0l0 -17.203125l2.328125 0l0 7.671875l9.265625 0l0 -7.671875l2.34375 0l0 17.203125zm3.237854 -1.46875q0 -0.28125 0.09375 -0.53125q0.109375 -0.25 0.296875 -0.421875q0.1875 -0.1875 0.453125 -0.296875q0.265625 -0.109375 0.578125 -0.109375q0.359375 0 0.640625 0.140625q0.28125 0.125 0.46875 0.359375q0.1875 0.234375 0.28125 0.546875q0.09375 0.296875 0.09375 0.65625q0 0.53125 -0.15625 1.125q-0.15625 0.578125 -0.453125 1.140625q-0.28125 0.578125 -0.703125 1.109375q-0.421875 0.546875 -0.96875 1.0l-0.359375 -0.34375q-0.15625 -0.140625 -0.15625 -0.34375q0 -0.15625 0.171875 -0.3125q0.125 -0.140625 0.296875 -0.359375q0.1875 -0.21875 0.375 -0.515625q0.203125 -0.28125 0.359375 -0.640625q0.171875 -0.34375 0.234375 -0.734375l-0.15625 0q-0.3125 0 -0.5625 -0.109375q-0.25 -0.109375 -0.4375 -0.296875q-0.1875 -0.203125 -0.296875 -0.46875q-0.09375 -0.28125 -0.09375 -0.59375zm19.994324 1.46875l-2.34375 0l0 -7.828125l-9.265625 0l0 7.828125l-2.328125 0l0 -17.203125l2.328125 0l0 7.671875l9.265625 0l0 -7.671875l2.34375 0l0 17.203125zm3.237854 -1.46875q0 -0.28125 0.09375 -0.53125q0.109375 -0.25 0.296875 -0.421875q0.1875 -0.1875 0.453125 -0.296875q0.265625 -0.109375 0.578125 -0.109375q0.359375 0 0.640625 0.140625q0.28125 0.125 0.46875 0.359375q0.1875 0.234375 0.28125 0.546875q0.09375 0.296875 0.09375 0.65625q0 0.53125 -0.15625 1.125q-0.15625 0.578125 -0.453125 1.140625q-0.28125 0.578125 -0.703125 1.109375q-0.421875 0.546875 -0.96875 1.0l-0.359375 -0.34375q-0.15625 -0.140625 -0.15625 -0.34375q0 -0.15625 0.171875 -0.3125q0.125 -0.140625 0.296875 -0.359375q0.1875 -0.21875 0.375 -0.515625q0.203125 -0.28125 0.359375 -0.640625q0.171875 -0.34375 0.234375 -0.734375l-0.15625 0q-0.3125 0 -0.5625 -0.109375q-0.25 -0.109375 -0.4375 -0.296875q-0.1875 -0.203125 -0.296875 -0.46875q-0.09375 -0.28125 -0.09375 -0.59375zm19.994324 1.46875l-2.34375 0l0 -7.828125l-9.265625 0l0 7.828125l-2.328125 0l0 -17.203125l2.328125 0l0 7.671875l9.265625 0l0 -7.671875l2.34375 0l0 17.203125zm5.690979 -7.546875q0 -2.5625 -0.65625 -4.984375q-0.65625 -2.4375 -1.90625 -4.609375q-0.125 -0.234375 -0.125 -0.421875q0 -0.15625 0.078125 -0.265625q0.09375 -0.109375 0.21875 -0.203125l0.953125 -0.578125q0.890625 1.390625 1.515625 2.75q0.640625 1.34375 1.03125 2.71875q0.390625 1.359375 0.5625 2.75q0.1875 1.390625 0.1875 2.84375q0 1.46875 -0.1875 2.859375q-0.171875 1.375 -0.5625 2.75q-0.390625 1.359375 -1.03125 2.71875q-0.625 1.359375 -1.515625 2.734375l-0.953125 -0.578125q-0.125 -0.078125 -0.21875 -0.1875q-0.078125 -0.109375 -0.078125 -0.28125q0 -0.09375 0.015625 -0.1875q0.03125 -0.09375 0.109375 -0.234375q1.234375 -2.1875 1.890625 -4.609375q0.671875 -2.421875 0.671875 -4.984375z" fill-rule="nonzero"/><path fill="#000000" fill-opacity="0.0" d="m452.0853 264.5656l126.36221 0l0 42.86615l-126.36221 0z" fill-rule="evenodd"/><path fill="#595959" d="m464.55405 289.05875q0 2.5625 0.65625 4.984375q0.65625 2.421875 1.90625 4.609375q0.078125 0.140625 0.09375 0.234375q0.03125 0.09375 0.03125 0.1875q0 0.171875 -0.09375 0.28125q-0.078125 0.109375 -0.203125 0.1875l-0.953125 0.578125q-0.890625 -1.375 -1.53125 -2.734375q-0.625 -1.359375 -1.015625 -2.71875q-0.390625 -1.375 -0.578125 -2.75q-0.171875 -1.390625 -0.171875 -2.859375q0 -1.453125 0.171875 -2.84375q0.1875 -1.390625 0.578125 -2.75q0.390625 -1.375 1.015625 -2.71875q0.640625 -1.359375 1.53125 -2.75l0.953125 0.578125q0.125 0.09375 0.203125 0.203125q0.09375 0.109375 0.09375 0.265625q0 0.1875 -0.125 0.421875q-1.25 2.171875 -1.90625 4.609375q-0.65625 2.421875 -0.65625 4.984375zm19.762573 7.546875l-2.34375 0l0 -7.828125l-9.265625 0l0 7.828125l-2.328125 0l0 -17.203125l2.328125 0l0 7.671875l9.265625 0l0 -7.671875l2.34375 0l0 17.203125zm3.2378845 -1.46875q0 -0.28125 0.09375 -0.53125q0.109375 -0.25 0.296875 -0.421875q0.1875 -0.1875 0.453125 -0.296875q0.265625 -0.109375 0.578125 -0.109375q0.359375 0 0.640625 0.140625q0.28125 0.125 0.46875 0.359375q0.1875 0.234375 0.28125 0.546875q0.09375 0.296875 0.09375 0.65625q0 0.53125 -0.15625 1.125q-0.15625 0.578125 -0.453125 1.140625q-0.28125 0.578125 -0.703125 1.109375q-0.421875 0.546875 -0.96875 1.0l-0.359375 -0.34375q-0.15625 -0.140625 -0.15625 -0.34375q0 -0.15625 0.171875 -0.3125q0.125 -0.140625 0.296875 -0.359375q0.1875 -0.21875 0.375 -0.515625q0.203125 -0.28125 0.359375 -0.640625q0.171875 -0.34375 0.234375 -0.734375l-0.15625 0q-0.3125 0 -0.5625 -0.109375q-0.25 -0.109375 -0.4375 -0.296875q-0.1875 -0.203125 -0.296875 -0.46875q-0.09375 -0.28125 -0.09375 -0.59375zm19.994293 1.46875l-2.34375 0l0 -7.828125l-9.265625 0l0 7.828125l-2.328125 0l0 -17.203125l2.328125 0l0 7.671875l9.265625 0l0 -7.671875l2.34375 0l0 17.203125zm3.2378845 -1.46875q0 -0.28125 0.09375 -0.53125q0.109375 -0.25 0.296875 -0.421875q0.1875 -0.1875 0.453125 -0.296875q0.265625 -0.109375 0.578125 -0.109375q0.359375 0 0.640625 0.140625q0.28125 0.125 0.46875 0.359375q0.1875 0.234375 0.28125 0.546875q0.09375 0.296875 0.09375 0.65625q0 0.53125 -0.15625 1.125q-0.15625 0.578125 -0.453125 1.140625q-0.28125 0.578125 -0.703125 1.109375q-0.421875 0.546875 -0.96875 1.0l-0.359375 -0.34375q-0.15625 -0.140625 -0.15625 -0.34375q0 -0.15625 0.171875 -0.3125q0.125 -0.140625 0.296875 -0.359375q0.1875 -0.21875 0.375 -0.515625q0.203125 -0.28125 0.359375 -0.640625q0.171875 -0.34375 0.234375 -0.734375l-0.15625 0q-0.3125 0 -0.5625 -0.109375q-0.25 -0.109375 -0.4375 -0.296875q-0.1875 -0.203125 -0.296875 -0.46875q-0.09375 -0.28125 -0.09375 -0.59375zm15.599915 -15.734375l0 1.96875l-5.546875 0l0 15.234375l-2.328125 0l0 -15.234375l-5.578125 0l0 -1.96875l13.453125 0zm3.9413452 9.65625q0 -2.5625 -0.65625 -4.984375q-0.65625 -2.4375 -1.90625 -4.609375q-0.125 -0.234375 -0.125 -0.421875q0 -0.15625 0.078125 -0.265625q0.09375 -0.109375 0.21875 -0.203125l0.953125 -0.578125q0.890625 1.390625 1.515625 2.75q0.640625 1.34375 1.03125 2.71875q0.390625 1.359375 0.5625 2.75q0.1875 1.390625 0.1875 2.84375q0 1.46875 -0.1875 2.859375q-0.171875 1.375 -0.5625 2.75q-0.390625 1.359375 -1.03125 2.71875q-0.625 1.359375 -1.515625 2.734375l-0.953125 -0.578125q-0.125 -0.078125 -0.21875 -0.1875q-0.078125 -0.109375 -0.078125 -0.28125q0 -0.09375 0.015625 -0.1875q0.03125 -0.09375 0.109375 -0.234375q1.234375 -2.1875 1.890625 -4.609375q0.671875 -2.421875 0.671875 -4.984375z" fill-rule="nonzero"/><path fill="#000000" fill-opacity="0.0" d="m441.40683 226.45932l126.36221 0l0 42.86615l-126.36221 0z" fill-rule="evenodd"/><path fill="#595959" d="m453.87558 250.95244q0 2.5625 0.65625 4.984375q0.65625 2.4218903 1.90625 4.6093903q0.078125 0.140625 0.09375 0.234375q0.03125 0.09375 0.03125 0.1875q0 0.171875 -0.09375 0.28125q-0.078125 0.109375 -0.203125 0.1875l-0.953125 0.578125q-0.890625 -1.375 -1.53125 -2.734375q-0.625 -1.359375 -1.015625 -2.71875q-0.390625 -1.3750153 -0.578125 -2.7500153q-0.171875 -1.390625 -0.171875 -2.859375q0 -1.453125 0.171875 -2.84375q0.1875 -1.390625 0.578125 -2.75q0.390625 -1.375 1.015625 -2.71875q0.640625 -1.359375 1.53125 -2.75l0.953125 0.578125q0.125 0.09375 0.203125 0.203125q0.09375 0.109375 0.09375 0.265625q0 0.1875 -0.125 0.421875q-1.25 2.171875 -1.90625 4.609375q-0.65625 2.421875 -0.65625 4.984375zm19.762543 7.5468903l-2.34375 0l0 -7.8281403l-9.265625 0l0 7.8281403l-2.328125 0l0 -17.20314l2.328125 0l0 7.671875l9.265625 0l0 -7.671875l2.34375 0l0 17.20314zm3.2378845 -1.46875q0 -0.28125 0.09375 -0.53125q0.109375 -0.25 0.296875 -0.421875q0.1875 -0.18751526 0.453125 -0.29689026q0.265625 -0.109375 0.578125 -0.109375q0.359375 0 0.640625 0.140625q0.28125 0.125 0.46875 0.35939026q0.1875 0.234375 0.28125 0.546875q0.09375 0.296875 0.09375 0.65625q0 0.53125 -0.15625 1.125q-0.15625 0.578125 -0.453125 1.140625q-0.28125 0.578125 -0.703125 1.109375q-0.421875 0.546875 -0.96875 1.0l-0.359375 -0.34375q-0.15625 -0.140625 -0.15625 -0.34375q0 -0.15625 0.171875 -0.3125q0.125 -0.140625 0.296875 -0.359375q0.1875 -0.21875 0.375 -0.515625q0.203125 -0.28125 0.359375 -0.640625q0.171875 -0.34375 0.234375 -0.734375l-0.15625 0q-0.3125 0 -0.5625 -0.109375q-0.25 -0.109375 -0.4375 -0.296875q-0.1875 -0.203125 -0.296875 -0.46875q-0.09375 -0.28125 -0.09375 -0.59375zm15.599915 -15.73439l0 1.96875l-5.546875 0l0 15.23439l-2.328125 0l0 -15.23439l-5.578125 0l0 -1.96875l13.453125 0zm-0.67178345 15.73439q0 -0.28125 0.09375 -0.53125q0.109375 -0.25 0.296875 -0.421875q0.1875 -0.18751526 0.453125 -0.29689026q0.265625 -0.109375 0.578125 -0.109375q0.359375 0 0.640625 0.140625q0.28125 0.125 0.46875 0.35939026q0.1875 0.234375 0.28125 0.546875q0.09375 0.296875 0.09375 0.65625q0 0.53125 -0.15625 1.125q-0.15625 0.578125 -0.453125 1.140625q-0.28125 0.578125 -0.703125 1.109375q-0.421875 0.546875 -0.96875 1.0l-0.359375 -0.34375q-0.15625 -0.140625 -0.15625 -0.34375q0 -0.15625 0.171875 -0.3125q0.125 -0.140625 0.296875 -0.359375q0.1875 -0.21875 0.375 -0.515625q0.203125 -0.28125 0.359375 -0.640625q0.171875 -0.34375 0.234375 -0.734375l-0.15625 0q-0.3125 0 -0.5625 -0.109375q-0.25 -0.109375 -0.4375 -0.296875q-0.1875 -0.203125 -0.296875 -0.46875q-0.09375 -0.28125 -0.09375 -0.59375zm19.994293 1.46875l-2.34375 0l0 -7.8281403l-9.265625 0l0 7.8281403l-2.328125 0l0 -17.20314l2.328125 0l0 7.671875l9.265625 0l0 -7.671875l2.34375 0l0 17.20314zm5.6910095 -7.5468903q0 -2.5625 -0.65625 -4.984375q-0.65625 -2.4375 -1.90625 -4.609375q-0.125 -0.234375 -0.125 -0.421875q0 -0.15625 0.078125 -0.265625q0.09375 -0.109375 0.21875 -0.203125l0.953125 -0.578125q0.890625 1.390625 1.515625 2.75q0.640625 1.34375 1.03125 2.71875q0.390625 1.359375 0.5625 2.75q0.1875 1.390625 0.1875 2.84375q0 1.46875 -0.1875 2.859375q-0.171875 1.375 -0.5625 2.7500153q-0.390625 1.359375 -1.03125 2.71875q-0.625 1.359375 -1.515625 2.734375l-0.953125 -0.578125q-0.125 -0.078125 -0.21875 -0.1875q-0.078125 -0.109375 -0.078125 -0.28125q0 -0.09375 0.015625 -0.1875q0.03125 -0.09375 0.109375 -0.234375q1.234375 -2.1875 1.890625 -4.6093903q0.671875 -2.421875 0.671875 -4.984375z" fill-rule="nonzero"/><path fill="#000000" fill-opacity="0.0" d="m472.25198 307.43176l126.36221 0l0 42.86615l-126.36221 0z" fill-rule="evenodd"/><path fill="#595959" d="m484.72073 331.9249q0 2.5625 0.65625 4.984375q0.65625 2.421875 1.90625 4.609375q0.078125 0.140625 0.09375 0.234375q0.03125 0.09375 0.03125 0.1875q0 0.171875 -0.09375 0.28125q-0.078125 0.109375 -0.203125 0.1875l-0.953125 0.578125q-0.890625 -1.375 -1.53125 -2.734375q-0.625 -1.359375 -1.015625 -2.71875q-0.390625 -1.375 -0.578125 -2.75q-0.171875 -1.390625 -0.171875 -2.859375q0 -1.453125 0.171875 -2.84375q0.1875 -1.390625 0.578125 -2.75q0.390625 -1.375 1.015625 -2.71875q0.640625 -1.359375 1.53125 -2.75l0.953125 0.578125q0.125 0.09375 0.203125 0.203125q0.09375 0.109375 0.09375 0.265625q0 0.1875 -0.125 0.421875q-1.25 2.171875 -1.90625 4.609375q-0.65625 2.421875 -0.65625 4.984375zm17.528168 -9.65625l0 1.96875l-5.546875 0l0 15.234375l-2.328125 0l0 -15.234375l-5.578125 0l0 -1.96875l13.453125 0zm-0.67178345 15.734375q0 -0.28125 0.09375 -0.53125q0.109375 -0.25 0.296875 -0.421875q0.1875 -0.1875 0.453125 -0.296875q0.265625 -0.109375 0.578125 -0.109375q0.359375 0 0.640625 0.140625q0.28125 0.125 0.46875 0.359375q0.1875 0.234375 0.28125 0.546875q0.09375 0.296875 0.09375 0.65625q0 0.53125 -0.15625 1.125q-0.15625 0.578125 -0.453125 1.140625q-0.28125 0.578125 -0.703125 1.109375q-0.421875 0.546875 -0.96875 1.0l-0.359375 -0.34375q-0.15625 -0.140625 -0.15625 -0.34375q0 -0.15625 0.171875 -0.3125q0.125 -0.140625 0.296875 -0.359375q0.1875 -0.21875 0.375 -0.515625q0.203125 -0.28125 0.359375 -0.640625q0.171875 -0.34375 0.234375 -0.734375l-0.15625 0q-0.3125 0 -0.5625 -0.109375q-0.25 -0.109375 -0.4375 -0.296875q-0.1875 -0.203125 -0.296875 -0.46875q-0.09375 -0.28125 -0.09375 -0.59375zm19.994293 1.46875l-2.34375 0l0 -7.828125l-9.265625 0l0 7.828125l-2.328125 0l0 -17.203125l2.328125 0l0 7.671875l9.265625 0l0 -7.671875l2.34375 0l0 17.203125zm3.237915 -1.46875q0 -0.28125 0.09375 -0.53125q0.109375 -0.25 0.296875 -0.421875q0.1875 -0.1875 0.453125 -0.296875q0.265625 -0.109375 0.578125 -0.109375q0.359375 0 0.640625 0.140625q0.28125 0.125 0.46875 0.359375q0.1875 0.234375 0.28125 0.546875q0.09375 0.296875 0.09375 0.65625q0 0.53125 -0.15625 1.125q-0.15625 0.578125 -0.453125 1.140625q-0.28125 0.578125 -0.703125 1.109375q-0.421875 0.546875 -0.96875 1.0l-0.359375 -0.34375q-0.15625 -0.140625 -0.15625 -0.34375q0 -0.15625 0.171875 -0.3125q0.125 -0.140625 0.296875 -0.359375q0.1875 -0.21875 0.375 -0.515625q0.203125 -0.28125 0.359375 -0.640625q0.171875 -0.34375 0.234375 -0.734375l-0.15625 0q-0.3125 0 -0.5625 -0.109375q-0.25 -0.109375 -0.4375 -0.296875q-0.1875 -0.203125 -0.296875 -0.46875q-0.09375 -0.28125 -0.09375 -0.59375zm19.994263 1.46875l-2.34375 0l0 -7.828125l-9.265625 0l0 7.828125l-2.328125 0l0 -17.203125l2.328125 0l0 7.671875l9.265625 0l0 -7.671875l2.34375 0l0 17.203125zm5.69104 -7.546875q0 -2.5625 -0.65625 -4.984375q-0.65625 -2.4375 -1.90625 -4.609375q-0.125 -0.234375 -0.125 -0.421875q0 -0.15625 0.078125 -0.265625q0.09375 -0.109375 0.21875 -0.203125l0.953125 -0.578125q0.890625 1.390625 1.515625 2.75q0.640625 1.34375 1.03125 2.71875q0.390625 1.359375 0.5625 2.75q0.1875 1.390625 0.1875 2.84375q0 1.46875 -0.1875 2.859375q-0.171875 1.375 -0.5625 2.75q-0.390625 1.359375 -1.03125 2.71875q-0.625 1.359375 -1.515625 2.734375l-0.953125 -0.578125q-0.125 -0.078125 -0.21875 -0.1875q-0.078125 -0.109375 -0.078125 -0.28125q0 -0.09375 0.015625 -0.1875q0.03125 -0.09375 0.109375 -0.234375q1.234375 -2.1875 1.890625 -4.609375q0.671875 -2.421875 0.671875 -4.984375z" fill-rule="nonzero"/><path fill="#000000" fill-opacity="0.0" d="m183.18898 253.32414l126.3622 0l0 42.866135l-126.3622 0z" fill-rule="evenodd"/><path fill="#595959" d="m195.65773 277.81726q0 2.5625 0.65625 4.984375q0.65625 2.421875 1.90625 4.609375q0.078125 0.140625 0.09375 0.234375q0.03125 0.09375 0.03125 0.1875q0 0.171875 -0.09375 0.28125q-0.078125 0.109375 -0.203125 0.1875l-0.953125 0.578125q-0.890625 -1.375 -1.53125 -2.734375q-0.625 -1.359375 -1.015625 -2.71875q-0.390625 -1.375 -0.578125 -2.75q-0.171875 -1.390625 -0.171875 -2.859375q0 -1.453125 0.171875 -2.84375q0.1875 -1.390625 0.578125 -2.75q0.390625 -1.375 1.015625 -2.71875q0.640625 -1.359375 1.53125 -2.75l0.953125 0.578125q0.125 0.09375 0.203125 0.203125q0.09375 0.109375 0.09375 0.265625q0 0.1875 -0.125 0.421875q-1.25 2.171875 -1.90625 4.609375q-0.65625 2.421875 -0.65625 4.984375zm19.762558 7.546875l-2.34375 0l0 -7.828125l-9.265625 0l0 7.828125l-2.328125 0l0 -17.203125l2.328125 0l0 7.671875l9.265625 0l0 -7.671875l2.34375 0l0 17.203125zm3.2378845 -1.46875q0 -0.28125 0.09375 -0.53125q0.109375 -0.25 0.296875 -0.421875q0.1875 -0.1875 0.453125 -0.296875q0.265625 -0.109375 0.578125 -0.109375q0.359375 0 0.640625 0.140625q0.28125 0.125 0.46875 0.359375q0.1875 0.234375 0.28125 0.546875q0.09375 0.296875 0.09375 0.65625q0 0.53125 -0.15625 1.125q-0.15625 0.578125 -0.453125 1.140625q-0.28125 0.578125 -0.703125 1.109375q-0.421875 0.546875 -0.96875 1.0l-0.359375 -0.34375q-0.15625 -0.140625 -0.15625 -0.34375q0 -0.15625 0.171875 -0.3125q0.125 -0.140625 0.296875 -0.359375q0.1875 -0.21875 0.375 -0.515625q0.203125 -0.28125 0.359375 -0.640625q0.171875 -0.34375 0.234375 -0.734375l-0.15625 0q-0.3125 0 -0.5625 -0.109375q-0.25 -0.109375 -0.4375 -0.296875q-0.1875 -0.203125 -0.296875 -0.46875q-0.09375 -0.28125 -0.09375 -0.59375zm15.599915 -15.734375l0 1.96875l-5.546875 0l0 15.234375l-2.328125 0l0 -15.234375l-5.578125 0l0 -1.96875l13.453125 0zm-0.67178345 15.734375q0 -0.28125 0.09375 -0.53125q0.109375 -0.25 0.296875 -0.421875q0.1875 -0.1875 0.453125 -0.296875q0.265625 -0.109375 0.578125 -0.109375q0.359375 0 0.640625 0.140625q0.28125 0.125 0.46875 0.359375q0.1875 0.234375 0.28125 0.546875q0.09375 0.296875 0.09375 0.65625q0 0.53125 -0.15625 1.125q-0.15625 0.578125 -0.453125 1.140625q-0.28125 0.578125 -0.703125 1.109375q-0.421875 0.546875 -0.96875 1.0l-0.359375 -0.34375q-0.15625 -0.140625 -0.15625 -0.34375q0 -0.15625 0.171875 -0.3125q0.125 -0.140625 0.296875 -0.359375q0.1875 -0.21875 0.375 -0.515625q0.203125 -0.28125 0.359375 -0.640625q0.171875 -0.34375 0.234375 -0.734375l-0.15625 0q-0.3125 0 -0.5625 -0.109375q-0.25 -0.109375 -0.4375 -0.296875q-0.1875 -0.203125 -0.296875 -0.46875q-0.09375 -0.28125 -0.09375 -0.59375zm15.599915 -15.734375l0 1.96875l-5.546875 0l0 15.234375l-2.328125 0l0 -15.234375l-5.578125 0l0 -1.96875l13.453125 0zm3.9413452 9.65625q0 -2.5625 -0.65625 -4.984375q-0.65625 -2.4375 -1.90625 -4.609375q-0.125 -0.234375 -0.125 -0.421875q0 -0.15625 0.078125 -0.265625q0.09375 -0.109375 0.21875 -0.203125l0.953125 -0.578125q0.890625 1.390625 1.515625 2.75q0.640625 1.34375 1.03125 2.71875q0.390625 1.359375 0.5625 2.75q0.1875 1.390625 0.1875 2.84375q0 1.46875 -0.1875 2.859375q-0.171875 1.375 -0.5625 2.75q-0.390625 1.359375 -1.03125 2.71875q-0.625 1.359375 -1.515625 2.734375l-0.953125 -0.578125q-0.125 -0.078125 -0.21875 -0.1875q-0.078125 -0.109375 -0.078125 -0.28125q0 -0.09375 0.015625 -0.1875q0.03125 -0.09375 0.109375 -0.234375q1.234375 -2.1875 1.890625 -4.609375q0.671875 -2.421875 0.671875 -4.984375z" fill-rule="nonzero"/><path fill="#000000" fill-opacity="0.0" d="m353.6378 356.7546l126.36221 0l0 42.86612l-126.36221 0z" fill-rule="evenodd"/><path fill="#595959" d="m366.10654 381.2477q0 2.5625 0.65625 4.984375q0.65625 2.421875 1.90625 4.609375q0.078125 0.140625 0.09375 0.234375q0.03125 0.09375 0.03125 0.1875q0 0.171875 -0.09375 0.28125q-0.078125 0.109375 -0.203125 0.1875l-0.953125 0.578125q-0.890625 -1.375 -1.53125 -2.734375q-0.625 -1.359375 -1.015625 -2.71875q-0.390625 -1.375 -0.578125 -2.75q-0.171875 -1.390625 -0.171875 -2.859375q0 -1.453125 0.171875 -2.84375q0.1875 -1.390625 0.578125 -2.75q0.390625 -1.375 1.015625 -2.71875q0.640625 -1.359375 1.53125 -2.75l0.953125 0.578125q0.125 0.09375 0.203125 0.203125q0.09375 0.109375 0.09375 0.265625q0 0.1875 -0.125 0.421875q-1.25 2.171875 -1.90625 4.609375q-0.65625 2.421875 -0.65625 4.984375zm17.528198 -9.65625l0 1.96875l-5.546875 0l0 15.234375l-2.328125 0l0 -15.234375l-5.578125 0l0 -1.96875l13.453125 0zm-0.67178345 15.734375q0 -0.28125 0.09375 -0.53125q0.109375 -0.25 0.296875 -0.421875q0.1875 -0.1875 0.453125 -0.296875q0.265625 -0.109375 0.578125 -0.109375q0.359375 0 0.640625 0.140625q0.28125 0.125 0.46875 0.359375q0.1875 0.234375 0.28125 0.546875q0.09375 0.296875 0.09375 0.65625q0 0.53125 -0.15625 1.125q-0.15625 0.578125 -0.453125 1.140625q-0.28125 0.578125 -0.703125 1.109375q-0.421875 0.546875 -0.96875 1.0l-0.359375 -0.34375q-0.15625 -0.140625 -0.15625 -0.34375q0 -0.15625 0.171875 -0.3125q0.125 -0.140625 0.296875 -0.359375q0.1875 -0.21875 0.375 -0.515625q0.203125 -0.28125 0.359375 -0.640625q0.171875 -0.34375 0.234375 -0.734375l-0.15625 0q-0.3125 0 -0.5625 -0.109375q-0.25 -0.109375 -0.4375 -0.296875q-0.1875 -0.203125 -0.296875 -0.46875q-0.09375 -0.28125 -0.09375 -0.59375zm19.994293 1.46875l-2.34375 0l0 -7.828125l-9.265625 0l0 7.828125l-2.328125 0l0 -17.203125l2.328125 0l0 7.671875l9.265625 0l0 -7.671875l2.34375 0l0 17.203125zm3.2378845 -1.46875q0 -0.28125 0.09375 -0.53125q0.109375 -0.25 0.296875 -0.421875q0.1875 -0.1875 0.453125 -0.296875q0.265625 -0.109375 0.578125 -0.109375q0.359375 0 0.640625 0.140625q0.28125 0.125 0.46875 0.359375q0.1875 0.234375 0.28125 0.546875q0.09375 0.296875 0.09375 0.65625q0 0.53125 -0.15625 1.125q-0.15625 0.578125 -0.453125 1.140625q-0.28125 0.578125 -0.703125 1.109375q-0.421875 0.546875 -0.96875 1.0l-0.359375 -0.34375q-0.15625 -0.140625 -0.15625 -0.34375q0 -0.15625 0.171875 -0.3125q0.125 -0.140625 0.296875 -0.359375q0.1875 -0.21875 0.375 -0.515625q0.203125 -0.28125 0.359375 -0.640625q0.171875 -0.34375 0.234375 -0.734375l-0.15625 0q-0.3125 0 -0.5625 -0.109375q-0.25 -0.109375 -0.4375 -0.296875q-0.1875 -0.203125 -0.296875 -0.46875q-0.09375 -0.28125 -0.09375 -0.59375zm15.599915 -15.734375l0 1.96875l-5.546875 0l0 15.234375l-2.328125 0l0 -15.234375l-5.578125 0l0 -1.96875l13.453125 0zm3.9413452 9.65625q0 -2.5625 -0.65625 -4.984375q-0.65625 -2.4375 -1.90625 -4.609375q-0.125 -0.234375 -0.125 -0.421875q0 -0.15625 0.078125 -0.265625q0.09375 -0.109375 0.21875 -0.203125l0.953125 -0.578125q0.890625 1.390625 1.515625 2.75q0.640625 1.34375 1.03125 2.71875q0.390625 1.359375 0.5625 2.75q0.1875 1.390625 0.1875 2.84375q0 1.46875 -0.1875 2.859375q-0.171875 1.375 -0.5625 2.75q-0.390625 1.359375 -1.03125 2.71875q-0.625 1.359375 -1.515625 2.734375l-0.953125 -0.578125q-0.125 -0.078125 -0.21875 -0.1875q-0.078125 -0.109375 -0.078125 -0.28125q0 -0.09375 0.015625 -0.1875q0.03125 -0.09375 0.109375 -0.234375q1.234375 -2.1875 1.890625 -4.609375q0.671875 -2.421875 0.671875 -4.984375z" fill-rule="nonzero"/><path fill="#000000" fill-opacity="0.0" d="m282.29922 287.48425l126.36218 0l0 42.86615l-126.36218 0z" fill-rule="evenodd"/><path fill="#595959" d="m294.76797 311.9774q0 2.5625 0.65625 4.984375q0.65625 2.421875 1.90625 4.609375q0.078125 0.140625 0.09375 0.234375q0.03125 0.09375 0.03125 0.1875q0 0.171875 -0.09375 0.28125q-0.078125 0.109375 -0.203125 0.1875l-0.953125 0.578125q-0.890625 -1.375 -1.53125 -2.734375q-0.625 -1.359375 -1.015625 -2.71875q-0.390625 -1.375 -0.578125 -2.75q-0.171875 -1.390625 -0.171875 -2.859375q0 -1.453125 0.171875 -2.84375q0.1875 -1.390625 0.578125 -2.75q0.390625 -1.375 1.015625 -2.71875q0.640625 -1.359375 1.53125 -2.75l0.953125 0.578125q0.125 0.09375 0.203125 0.203125q0.09375 0.109375 0.09375 0.265625q0 0.1875 -0.125 0.421875q-1.25 2.171875 -1.90625 4.609375q-0.65625 2.421875 -0.65625 4.984375zm17.528168 -9.65625l0 1.96875l-5.546875 0l0 15.234375l-2.328125 0l0 -15.234375l-5.578125 0l0 -1.96875l13.453125 0zm-0.67178345 15.734375q0 -0.28125 0.09375 -0.53125q0.109375 -0.25 0.296875 -0.421875q0.1875 -0.1875 0.453125 -0.296875q0.265625 -0.109375 0.578125 -0.109375q0.359375 0 0.640625 0.140625q0.28125 0.125 0.46875 0.359375q0.1875 0.234375 0.28125 0.546875q0.09375 0.296875 0.09375 0.65625q0 0.53125 -0.15625 1.125q-0.15625 0.578125 -0.453125 1.140625q-0.28125 0.578125 -0.703125 1.109375q-0.421875 0.546875 -0.96875 1.0l-0.359375 -0.34375q-0.15625 -0.140625 -0.15625 -0.34375q0 -0.15625 0.171875 -0.3125q0.125 -0.140625 0.296875 -0.359375q0.1875 -0.21875 0.375 -0.515625q0.203125 -0.28125 0.359375 -0.640625q0.171875 -0.34375 0.234375 -0.734375l-0.15625 0q-0.3125 0 -0.5625 -0.109375q-0.25 -0.109375 -0.4375 -0.296875q-0.1875 -0.203125 -0.296875 -0.46875q-0.09375 -0.28125 -0.09375 -0.59375zm15.599915 -15.734375l0 1.96875l-5.546875 0l0 15.234375l-2.328125 0l0 -15.234375l-5.578125 0l0 -1.96875l13.453125 0zm-0.67178345 15.734375q0 -0.28125 0.09375 -0.53125q0.109375 -0.25 0.296875 -0.421875q0.1875 -0.1875 0.453125 -0.296875q0.265625 -0.109375 0.578125 -0.109375q0.359375 0 0.640625 0.140625q0.28125 0.125 0.46875 0.359375q0.1875 0.234375 0.28125 0.546875q0.09375 0.296875 0.09375 0.65625q0 0.53125 -0.15625 1.125q-0.15625 0.578125 -0.453125 1.140625q-0.28125 0.578125 -0.703125 1.109375q-0.421875 0.546875 -0.96875 1.0l-0.359375 -0.34375q-0.15625 -0.140625 -0.15625 -0.34375q0 -0.15625 0.171875 -0.3125q0.125 -0.140625 0.296875 -0.359375q0.1875 -0.21875 0.375 -0.515625q0.203125 -0.28125 0.359375 -0.640625q0.171875 -0.34375 0.234375 -0.734375l-0.15625 0q-0.3125 0 -0.5625 -0.109375q-0.25 -0.109375 -0.4375 -0.296875q-0.1875 -0.203125 -0.296875 -0.46875q-0.09375 -0.28125 -0.09375 -0.59375zm19.994293 1.46875l-2.34375 0l0 -7.828125l-9.265625 0l0 7.828125l-2.328125 0l0 -17.203125l2.328125 0l0 7.671875l9.265625 0l0 -7.671875l2.34375 0l0 17.203125zm5.6910095 -7.546875q0 -2.5625 -0.65625 -4.984375q-0.65625 -2.4375 -1.90625 -4.609375q-0.125 -0.234375 -0.125 -0.421875q0 -0.15625 0.078125 -0.265625q0.09375 -0.109375 0.21875 -0.203125l0.953125 -0.578125q0.890625 1.390625 1.515625 2.75q0.640625 1.34375 1.03125 2.71875q0.390625 1.359375 0.5625 2.75q0.1875 1.390625 0.1875 2.84375q0 1.46875 -0.1875 2.859375q-0.171875 1.375 -0.5625 2.75q-0.390625 1.359375 -1.03125 2.71875q-0.625 1.359375 -1.515625 2.734375l-0.953125 -0.578125q-0.125 -0.078125 -0.21875 -0.1875q-0.078125 -0.109375 -0.078125 -0.28125q0 -0.09375 0.015625 -0.1875q0.03125 -0.09375 0.109375 -0.234375q1.234375 -2.1875 1.890625 -4.609375q0.671875 -2.421875 0.671875 -4.984375z" fill-rule="nonzero"/><path fill="#000000" fill-opacity="0.0" d="m698.7953 92.00656l126.36218 0l0 42.866135l-126.36218 0z" fill-rule="evenodd"/><path fill="#595959" d="m711.26404 116.49969q0 2.5625 0.65625 4.984375q0.65625 2.421875 1.90625 4.609375q0.078125 0.140625 0.09375 0.234375q0.03125 0.09375 0.03125 0.1875q0 0.171875 -0.09375 0.28125q-0.078125 0.109375 -0.203125 0.1875l-0.953125 0.578125q-0.890625 -1.375 -1.53125 -2.734375q-0.625 -1.359375 -1.015625 -2.71875q-0.390625 -1.375 -0.578125 -2.75q-0.171875 -1.390625 -0.171875 -2.859375q0 -1.453125 0.171875 -2.84375q0.1875 -1.390625 0.578125 -2.75q0.390625 -1.375 1.015625 -2.71875q0.640625 -1.359375 1.53125 -2.75l0.953125 0.578125q0.125 0.09375 0.203125 0.203125q0.09375 0.109375 0.09375 0.265625q0 0.1875 -0.125 0.421875q-1.25 2.171875 -1.90625 4.609375q-0.65625 2.421875 -0.65625 4.984375zm17.528198 -9.65625l0 1.96875l-5.546875 0l0 15.234375l-2.328125 0l0 -15.234375l-5.578125 0l0 -1.96875l13.453125 0zm-0.67181396 15.734375q0 -0.28125 0.09375 -0.53125q0.109375 -0.25 0.296875 -0.421875q0.1875 -0.1875 0.453125 -0.296875q0.265625 -0.109375 0.578125 -0.109375q0.359375 0 0.640625 0.140625q0.28125 0.125 0.46875 0.359375q0.1875 0.234375 0.28125 0.546875q0.09375 0.296875 0.09375 0.65625q0 0.53125 -0.15625 1.125q-0.15625 0.578125 -0.453125 1.140625q-0.28125 0.578125 -0.703125 1.109375q-0.421875 0.546875 -0.96875 1.0l-0.359375 -0.34375q-0.15625 -0.140625 -0.15625 -0.34375q0 -0.15625 0.171875 -0.3125q0.125 -0.140625 0.296875 -0.359375q0.1875 -0.21875 0.375 -0.515625q0.203125 -0.28125 0.359375 -0.640625q0.171875 -0.34375 0.234375 -0.734375l-0.15625 0q-0.3125 0 -0.5625 -0.109375q-0.25 -0.109375 -0.4375 -0.296875q-0.1875 -0.203125 -0.296875 -0.46875q-0.09375 -0.28125 -0.09375 -0.59375zm15.599915 -15.734375l0 1.96875l-5.546875 0l0 15.234375l-2.328125 0l0 -15.234375l-5.578125 0l0 -1.96875l13.453125 0zm-0.6717529 15.734375q0 -0.28125 0.09375 -0.53125q0.109375 -0.25 0.296875 -0.421875q0.1875 -0.1875 0.453125 -0.296875q0.265625 -0.109375 0.578125 -0.109375q0.359375 0 0.640625 0.140625q0.28125 0.125 0.46875 0.359375q0.1875 0.234375 0.28125 0.546875q0.09375 0.296875 0.09375 0.65625q0 0.53125 -0.15625 1.125q-0.15625 0.578125 -0.453125 1.140625q-0.28125 0.578125 -0.703125 1.109375q-0.421875 0.546875 -0.96875 1.0l-0.359375 -0.34375q-0.15625 -0.140625 -0.15625 -0.34375q0 -0.15625 0.171875 -0.3125q0.125 -0.140625 0.296875 -0.359375q0.1875 -0.21875 0.375 -0.515625q0.203125 -0.28125 0.359375 -0.640625q0.171875 -0.34375 0.234375 -0.734375l-0.15625 0q-0.3125 0 -0.5625 -0.109375q-0.25 -0.109375 -0.4375 -0.296875q-0.1875 -0.203125 -0.296875 -0.46875q-0.09375 -0.28125 -0.09375 -0.59375zm15.599915 -15.734375l0 1.96875l-5.546875 0l0 15.234375l-2.328125 0l0 -15.234375l-5.578125 0l0 -1.96875l13.453125 0zm3.9413452 9.65625q0 -2.5625 -0.65625 -4.984375q-0.65625 -2.4375 -1.90625 -4.609375q-0.125 -0.234375 -0.125 -0.421875q0 -0.15625 0.078125 -0.265625q0.09375 -0.109375 0.21875 -0.203125l0.953125 -0.578125q0.890625 1.390625 1.515625 2.75q0.640625 1.34375 1.03125 2.71875q0.390625 1.359375 0.5625 2.75q0.1875 1.390625 0.1875 2.84375q0 1.46875 -0.1875 2.859375q-0.171875 1.375 -0.5625 2.75q-0.390625 1.359375 -1.03125 2.71875q-0.625 1.359375 -1.515625 2.734375l-0.953125 -0.578125q-0.125 -0.078125 -0.21875 -0.1875q-0.078125 -0.109375 -0.078125 -0.28125q0 -0.09375 0.015625 -0.1875q0.03125 -0.09375 0.109375 -0.234375q1.234375 -2.1875 1.890625 -4.609375q0.671875 -2.421875 0.671875 -4.984375z" fill-rule="nonzero"/></g></svg>