<svg version="1.1" viewBox="0.0 0.0 960.0 540.0" fill="none" stroke="none" stroke-linecap="square" stroke-miterlimit="10" xmlns:xlink="http://www.w3.org/1999/xlink" xmlns="http://www.w3.org/2000/svg"><clipPath id="p.0"><path d="m0 0l960.0 0l0 540.0l-960.0 0l0 -540.0z" clip-rule="nonzero"/></clipPath><g clip-path="url(#p.0)"><path fill="#ffffff" d="m0 0l960.0 0l0 540.0l-960.0 0z" fill-rule="evenodd"/><path fill="#000000" fill-opacity="0.0" d="m97.43044 79.201485l738.9921 0l0 420.34647l-738.9921 0z" fill-rule="evenodd"/><path stroke="#4285f4" stroke-width="4.0" stroke-linejoin="round" stroke-linecap="butt" d="m97.43044 79.201485l738.9921 0l0 420.34647l-738.9921 0z" fill-rule="evenodd"/><path fill="#000000" fill-opacity="0.0" d="m97.43044 19.818897l338.55118 0l0 72.18898l-338.55118 0z" fill-rule="evenodd"/><path fill="#4285f4" d="m107.99294 54.130146l3.09375 -0.265625q0.21875 1.859375 1.015625 3.046875q0.8125 1.1875 2.5 1.9375q1.6875 0.734375 3.8125 0.734375q1.875 0 3.3125 -0.5625q1.4375 -0.5625 2.140625 -1.53125q0.703125 -0.96875 0.703125 -2.125q0 -1.171875 -0.6875 -2.03125q-0.671875 -0.875 -2.21875 -1.46875q-1.0 -0.390625 -4.421875 -1.203125q-3.421875 -0.828125 -4.78125 -1.5625q-1.78125 -0.921875 -2.65625 -2.296875q-0.875 -1.390625 -0.875 -3.09375q0 -1.875 1.0625 -3.5q1.078125 -1.640625 3.125 -2.484375q2.046875 -0.859375 4.546875 -0.859375q2.765625 0 4.859375 0.890625q2.109375 0.890625 3.234375 2.625q1.140625 1.71875 1.234375 3.90625l-3.15625 0.234375q-0.25 -2.359375 -1.71875 -3.5625q-1.453125 -1.203125 -4.3125 -1.203125q-2.984375 0 -4.34375 1.09375q-1.359375 1.09375 -1.359375 2.640625q0 1.328125 0.96875 2.1875q0.9375 0.875 4.9375 1.78125q4.0 0.90625 5.5 1.578125q2.15625 1.0 3.1875 2.53125q1.046875 1.53125 1.046875 3.53125q0 1.96875 -1.140625 3.734375q-1.140625 1.75 -3.265625 2.71875q-2.109375 0.96875 -4.765625 0.96875q-3.375 0 -5.65625 -0.984375q-2.265625 -0.984375 -3.5625 -2.953125q-1.296875 -1.96875 -1.359375 -4.453125zm35.56858 5.75q-1.703125 1.4375 -3.265625 2.03125q-1.5625 0.59375 -3.359375 0.59375q-2.953125 0 -4.546875 -1.4375q-1.59375 -1.453125 -1.59375 -3.703125q0 -1.328125 0.59375 -2.40625q0.609375 -1.09375 1.578125 -1.75q0.984375 -0.671875 2.203125 -1.015625q0.890625 -0.234375 2.703125 -0.453125q3.6875 -0.4375 5.421875 -1.046875q0.03125 -0.625 0.03125 -0.796875q0 -1.859375 -0.875 -2.625q-1.15625 -1.03125 -3.46875 -1.03125q-2.140625 0 -3.171875 0.765625q-1.015625 0.75 -1.515625 2.65625l-2.96875 -0.40625q0.40625 -1.90625 1.328125 -3.078125q0.9375 -1.1875 2.6875 -1.8125q1.765625 -0.640625 4.078125 -0.640625q2.3125 0 3.75 0.546875q1.4375 0.53125 2.109375 1.359375q0.6875 0.8125 0.953125 2.0625q0.15625 0.78125 0.15625 2.8125l0 4.0625q0 4.25 0.1875 5.375q0.203125 1.125 0.765625 2.15625l-3.171875 0q-0.484375 -0.953125 -0.609375 -2.21875zm-0.265625 -6.796875q-1.65625 0.671875 -4.96875 1.140625q-1.875 0.28125 -2.65625 0.625q-0.78125 0.328125 -1.203125 0.984375q-0.421875 0.640625 -0.421875 1.4375q0 1.21875 0.921875 2.03125q0.921875 0.8125 2.703125 0.8125q1.75 0 3.125 -0.765625q1.375 -0.765625 2.015625 -2.109375q0.484375 -1.03125 0.484375 -3.046875l0 -1.109375zm7.8054047 9.015625l0 -17.96875l2.734375 0l0 2.515625q0.84375 -1.3125 2.25 -2.109375q1.40625 -0.8125 3.1875 -0.8125q2.0 0 3.28125 0.828125q1.28125 0.828125 1.796875 2.3125q2.140625 -3.140625 5.546875 -3.140625q2.6875 0 4.125 1.484375q1.4375 1.46875 1.4375 4.546875l0 12.34375l-3.03125 0l0 -11.328125q0 -1.8125 -0.296875 -2.609375q-0.296875 -0.8125 -1.078125 -1.296875q-0.78125 -0.5 -1.828125 -0.5q-1.890625 0 -3.140625 1.265625q-1.25 1.25 -1.25 4.03125l0 10.4375l-3.046875 0l0 -11.671875q0 -2.03125 -0.75 -3.046875q-0.75 -1.015625 -2.4375 -1.015625q-1.28125 0 -2.375 0.671875q-1.09375 0.671875 -1.59375 1.984375q-0.484375 1.296875 -0.484375 3.75l0 9.328125l-3.046875 0zm28.868927 6.890629l0 -24.859379l2.78125 0l0 2.328125q0.984375 -1.359375 2.21875 -2.046875q1.234375 -0.6875 2.984375 -0.6875q2.3125 0 4.0625 1.1875q1.765625 1.171875 2.65625 3.34375q0.90625 2.15625 0.90625 4.71875q0 2.765625 -1.0 4.96875q-0.984375 2.203125 -2.875 3.390625q-1.875 1.171875 -3.96875 1.171875q-1.515625 0 -2.734375 -0.640625q-1.203125 -0.640625 -1.984375 -1.625l0 8.750004l-3.046875 0zm2.765625 -15.781254q0 3.46875 1.40625 5.140625q1.40625 1.65625 3.390625 1.65625q2.03125 0 3.46875 -1.71875q1.453125 -1.71875 1.453125 -5.328125q0 -3.4375 -1.40625 -5.140625q-1.40625 -1.703125 -3.375 -1.703125q-1.953125 0 -3.453125 1.8125q-1.484375 1.8125 -1.484375 5.28125zm16.44603 8.890625l0 -24.8125l3.046875 0l0 24.8125l-3.046875 0zm20.074509 -5.78125l3.140625 0.390625q-0.75 2.75 -2.765625 4.28125q-2.0 1.515625 -5.140625 1.515625q-3.9375 0 -6.25 -2.421875q-2.3125 -2.4375 -2.3125 -6.8125q0 -4.546875 2.328125 -7.046875q2.34375 -2.5 6.0625 -2.5q3.609375 0 5.890625 2.453125q2.28125 2.453125 2.28125 6.90625q0 0.265625 -0.015625 0.8125l-13.390625 0q0.15625 2.953125 1.65625 4.53125q1.515625 1.578125 3.765625 1.578125q1.6875 0 2.859375 -0.875q1.1875 -0.890625 1.890625 -2.8125zm-10.015625 -4.9375l10.046875 0q-0.203125 -2.265625 -1.15625 -3.390625q-1.453125 -1.765625 -3.765625 -1.765625q-2.109375 0 -3.546875 1.40625q-1.421875 1.40625 -1.578125 3.75zm25.887146 2.75l3.09375 -0.265625q0.21875 1.859375 1.015625 3.046875q0.8125 1.1875 2.5 1.9375q1.6875 0.734375 3.8125 0.734375q1.875 0 3.3125 -0.5625q1.4375 -0.5625 2.140625 -1.53125q0.703125 -0.96875 0.703125 -2.125q0 -1.171875 -0.6875 -2.03125q-0.671875 -0.875 -2.21875 -1.46875q-1.0 -0.390625 -4.421875 -1.203125q-3.421875 -0.828125 -4.78125 -1.5625q-1.78125 -0.921875 -2.65625 -2.296875q-0.875 -1.390625 -0.875 -3.09375q0 -1.875 1.0625 -3.5q1.078125 -1.640625 3.125 -2.484375q2.046875 -0.859375 4.546875 -0.859375q2.765625 0 4.859375 0.890625q2.109375 0.890625 3.234375 2.625q1.140625 1.71875 1.234375 3.90625l-3.15625 0.234375q-0.25 -2.359375 -1.71875 -3.5625q-1.453125 -1.203125 -4.3125 -1.203125q-2.984375 0 -4.34375 1.09375q-1.359375 1.09375 -1.359375 2.640625q0 1.328125 0.96875 2.1875q0.9375 0.875 4.9375 1.78125q4.0 0.90625 5.5 1.578125q2.15625 1.0 3.1875 2.53125q1.046875 1.53125 1.046875 3.53125q0 1.96875 -1.140625 3.734375q-1.140625 1.75 -3.265625 2.71875q-2.109375 0.96875 -4.765625 0.96875q-3.375 0 -5.65625 -0.984375q-2.265625 -0.984375 -3.5625 -2.953125q-1.296875 -1.96875 -1.359375 -4.453125zm23.834183 14.859379l0 -24.859379l2.78125 0l0 2.328125q0.984375 -1.359375 2.21875 -2.046875q1.234375 -0.6875 2.984375 -0.6875q2.3125 0 4.0625 1.1875q1.765625 1.171875 2.65625 3.34375q0.90625 2.15625 0.90625 4.71875q0 2.765625 -1.0 4.96875q-0.984375 2.203125 -2.875 3.390625q-1.875 1.171875 -3.96875 1.171875q-1.515625 0 -2.734375 -0.640625q-1.203125 -0.640625 -1.984375 -1.625l0 8.750004l-3.046875 0zm2.765625 -15.781254q0 3.46875 1.40625 5.140625q1.40625 1.65625 3.390625 1.65625q2.03125 0 3.46875 -1.71875q1.453125 -1.71875 1.453125 -5.328125q0 -3.4375 -1.40625 -5.140625q-1.40625 -1.703125 -3.375 -1.703125q-1.953125 0 -3.453125 1.8125q-1.484375 1.8125 -1.484375 5.28125zm28.24292 6.671875q-1.703125 1.4375 -3.265625 2.03125q-1.5625 0.59375 -3.359375 0.59375q-2.953125 0 -4.546875 -1.4375q-1.59375 -1.453125 -1.59375 -3.703125q0 -1.328125 0.59375 -2.40625q0.609375 -1.09375 1.578125 -1.75q0.984375 -0.671875 2.203125 -1.015625q0.890625 -0.234375 2.703125 -0.453125q3.6875 -0.4375 5.421875 -1.046875q0.03125 -0.625 0.03125 -0.796875q0 -1.859375 -0.875 -2.625q-1.15625 -1.03125 -3.46875 -1.03125q-2.140625 0 -3.171875 0.765625q-1.015625 0.75 -1.515625 2.65625l-2.96875 -0.40625q0.40625 -1.90625 1.328125 -3.078125q0.9375 -1.1875 2.6875 -1.8125q1.765625 -0.640625 4.078125 -0.640625q2.3125 0 3.75 0.546875q1.4375 0.53125 2.109375 1.359375q0.6875 0.8125 0.953125 2.0625q0.15625 0.78125 0.15625 2.8125l0 4.0625q0 4.25 0.1875 5.375q0.203125 1.125 0.765625 2.15625l-3.171875 0q-0.484375 -0.953125 -0.609375 -2.21875zm-0.265625 -6.796875q-1.65625 0.671875 -4.96875 1.140625q-1.875 0.28125 -2.65625 0.625q-0.78125 0.328125 -1.203125 0.984375q-0.421875 0.640625 -0.421875 1.4375q0 1.21875 0.921875 2.03125q0.921875 0.8125 2.703125 0.8125q1.75 0 3.125 -0.765625q1.375 -0.765625 2.015625 -2.109375q0.484375 -1.03125 0.484375 -3.046875l0 -1.109375zm19.539764 2.4375l2.984375 0.390625q-0.484375 3.09375 -2.515625 4.84375q-2.015625 1.75 -4.953125 1.75q-3.6875 0 -5.9375 -2.40625q-2.234375 -2.421875 -2.234375 -6.921875q0 -2.90625 0.953125 -5.078125q0.96875 -2.1875 2.9375 -3.28125q1.96875 -1.09375 4.296875 -1.09375q2.921875 0 4.78125 1.484375q1.859375 1.46875 2.390625 4.203125l-2.96875 0.453125q-0.421875 -1.8125 -1.5 -2.71875q-1.0625 -0.921875 -2.59375 -0.921875q-2.296875 0 -3.734375 1.65625q-1.4375 1.640625 -1.4375 5.21875q0 3.625 1.390625 5.265625q1.390625 1.640625 3.625 1.640625q1.78125 0 2.984375 -1.09375q1.203125 -1.109375 1.53125 -3.390625zm17.90625 0.796875l3.140625 0.390625q-0.75 2.75 -2.765625 4.28125q-2.0 1.515625 -5.140625 1.515625q-3.9375 0 -6.25 -2.421875q-2.3125 -2.4375 -2.3125 -6.8125q0 -4.546875 2.328125 -7.046875q2.34375 -2.5 6.0625 -2.5q3.609375 0 5.890625 2.453125q2.28125 2.453125 2.28125 6.90625q0 0.265625 -0.015625 0.8125l-13.390625 0q0.15625 2.953125 1.65625 4.53125q1.515625 1.578125 3.765625 1.578125q1.6875 0 2.859375 -0.875q1.1875 -0.890625 1.890625 -2.8125zm-10.015625 -4.9375l10.046875 0q-0.203125 -2.265625 -1.15625 -3.390625q-1.453125 -1.765625 -3.765625 -1.765625q-2.109375 0 -3.546875 1.40625q-1.421875 1.40625 -1.578125 3.75z" fill-rule="nonzero"/><path fill="#000000" fill-opacity="0.0" d="m218.16191 324.02026l0 0c0 -75.88481 59.422745 -137.40158 132.72441 -137.40158l0 0c35.200714 0 68.95969 14.476196 93.85034 40.243988c24.890656 25.767792 38.874084 60.71643 38.874084 97.15759l0 0c0 75.884796 -59.42276 137.40155 -132.72443 137.40155l0 0c-73.30167 0 -132.72441 -61.516754 -132.72441 -137.40155z" fill-rule="evenodd"/><path stroke="#ff00ff" stroke-width="4.0" stroke-linejoin="round" stroke-linecap="butt" d="m218.16191 324.02026l0 0c0 -75.88481 59.422745 -137.40158 132.72441 -137.40158l0 0c35.200714 0 68.95969 14.476196 93.85034 40.243988c24.890656 25.767792 38.874084 60.71643 38.874084 97.15759l0 0c0 75.884796 -59.42276 137.40155 -132.72443 137.40155l0 0c-73.30167 0 -132.72441 -61.516754 -132.72441 -137.40155z" fill-rule="evenodd"/><path fill="#000000" fill-opacity="0.0" d="m279.47244 127.099144l142.83466 0l0 72.18897l-142.83466 0z" fill-rule="evenodd"/><path fill="#ff00ff" d="m291.20682 169.37915l0 -24.8125l17.9375 0l0 2.9375l-14.640625 0l0 7.59375l13.71875 0l0 2.90625l-13.71875 0l0 8.453125l15.21875 0l0 2.921875l-18.515625 0zm27.662323 0l-6.84375 -17.96875l3.21875 0l3.859375 10.765625q0.625 1.734375 1.15625 3.609375q0.390625 -1.421875 1.125 -3.40625l4.0 -10.96875l3.125 0l-6.796875 17.96875l-2.84375 0zm24.640625 -5.78125l3.140625 0.390625q-0.75 2.75 -2.765625 4.28125q-2.0 1.515625 -5.140625 1.515625q-3.9375 0 -6.25 -2.421875q-2.3125 -2.4375 -2.3125 -6.8125q0 -4.546875 2.328125 -7.046875q2.34375 -2.5 6.0625 -2.5q3.609375 0 5.890625 2.453125q2.28125 2.453125 2.28125 6.90625q0 0.265625 -0.015625 0.8125l-13.390625 0q0.15625 2.953125 1.65625 4.53125q1.515625 1.578125 3.765625 1.578125q1.6875 0 2.859375 -0.875q1.1875 -0.890625 1.890625 -2.8125zm-10.015625 -4.9375l10.046875 0q-0.203125 -2.265625 -1.15625 -3.390625q-1.453125 -1.765625 -3.765625 -1.765625q-2.109375 0 -3.546875 1.40625q-1.421875 1.40625 -1.578125 3.75zm16.977295 10.71875l0 -17.96875l2.75 0l0 2.546875q1.96875 -2.953125 5.71875 -2.953125q1.625 0 2.984375 0.59375q1.359375 0.578125 2.03125 1.53125q0.6875 0.9375 0.953125 2.234375q0.171875 0.84375 0.171875 2.96875l0 11.046875l-3.046875 0l0 -10.9375q0 -1.859375 -0.359375 -2.78125q-0.359375 -0.921875 -1.265625 -1.46875q-0.890625 -0.546875 -2.109375 -0.546875q-1.953125 0 -3.375 1.234375q-1.40625 1.234375 -1.40625 4.6875l0 9.8125l-3.046875 0zm25.93039 -2.71875l0.4375 2.6875q-1.28125 0.265625 -2.296875 0.265625q-1.65625 0 -2.578125 -0.515625q-0.90625 -0.53125 -1.28125 -1.375q-0.375 -0.859375 -0.375 -3.609375l0 -10.34375l-2.234375 0l0 -2.359375l2.234375 0l0 -4.453125l3.03125 -1.828125l0 6.28125l3.0625 0l0 2.359375l-3.0625 0l0 10.515625q0 1.296875 0.15625 1.671875q0.15625 0.375 0.515625 0.59375q0.375 0.21875 1.046875 0.21875q0.515625 0 1.34375 -0.109375zm8.360107 2.71875l9.515625 -24.8125l3.546875 0l10.15625 24.8125l-3.75 0l-2.890625 -7.515625l-10.375 0l-2.71875 7.515625l-3.484375 0zm7.15625 -10.1875l8.40625 0l-2.59375 -6.875q-1.171875 -3.125 -1.75 -5.140625q-0.484375 2.390625 -1.34375 4.734375l-2.71875 7.28125z" fill-rule="nonzero"/><path fill="#000000" fill-opacity="0.0" d="m450.23593 314.2527l0 0c0 -75.88478 59.42273 -137.40157 132.7244 -137.40157l0 0c35.200684 0 68.959656 14.476196 93.85034 40.243988c24.890625 25.767792 38.874084 60.716415 38.874084 97.15758l0 0c0 75.884796 -59.42273 137.40158 -132.72443 137.40158l0 0c-73.30167 0 -132.7244 -61.516785 -132.7244 -137.40158z" fill-rule="evenodd"/><path stroke="#ff9900" stroke-width="4.0" stroke-linejoin="round" stroke-linecap="butt" d="m450.23593 314.2527l0 0c0 -75.88478 59.42273 -137.40157 132.7244 -137.40157l0 0c35.200684 0 68.959656 14.476196 93.85034 40.243988c24.890625 25.767792 38.874084 60.716415 38.874084 97.15758l0 0c0 75.884796 -59.42273 137.40158 -132.72443 137.40158l0 0c-73.30167 0 -132.7244 -61.516785 -132.7244 -137.40158z" fill-rule="evenodd"/><path fill="#000000" fill-opacity="0.0" d="m511.54645 117.33159l142.83466 0l0 72.18898l-142.83466 0z" fill-rule="evenodd"/><path fill="#ff9900" d="m523.2808 159.61159l0 -24.8125l17.9375 0l0 2.9375l-14.640625 0l0 7.59375l13.71875 0l0 2.90625l-13.71875 0l0 8.453125l15.21875 0l0 2.921875l-18.515625 0zm27.662354 0l-6.84375 -17.96875l3.21875 0l3.859375 10.765625q0.625 1.734375 1.15625 3.609375q0.390625 -1.421875 1.125 -3.40625l4.0 -10.96875l3.125 0l-6.796875 17.96875l-2.84375 0zm24.640625 -5.78125l3.140625 0.390625q-0.75 2.75 -2.765625 4.28125q-2.0 1.515625 -5.140625 1.515625q-3.9375 0 -6.25 -2.421875q-2.3125 -2.4375 -2.3125 -6.8125q0 -4.546875 2.328125 -7.046875q2.34375 -2.5 6.0625 -2.5q3.609375 0 5.890625 2.453125q2.28125 2.453125 2.28125 6.90625q0 0.265625 -0.015625 0.8125l-13.390625 0q0.15625 2.953125 1.65625 4.53125q1.515625 1.578125 3.765625 1.578125q1.6875 0 2.859375 -0.875q1.1875 -0.890625 1.890625 -2.8125zm-10.015625 -4.9375l10.046875 0q-0.203125 -2.265625 -1.15625 -3.390625q-1.453125 -1.765625 -3.765625 -1.765625q-2.109375 0 -3.546875 1.40625q-1.421875 1.40625 -1.578125 3.75zm16.977234 10.71875l0 -17.96875l2.75 0l0 2.546875q1.96875 -2.953125 5.71875 -2.953125q1.625 0 2.984375 0.59375q1.359375 0.578125 2.03125 1.53125q0.6875 0.9375 0.953125 2.234375q0.171875 0.84375 0.171875 2.96875l0 11.046875l-3.046875 0l0 -10.9375q0 -1.859375 -0.359375 -2.78125q-0.359375 -0.921875 -1.265625 -1.46875q-0.890625 -0.546875 -2.109375 -0.546875q-1.953125 0 -3.375 1.234375q-1.40625 1.234375 -1.40625 4.6875l0 9.8125l-3.046875 0zm25.93042 -2.71875l0.4375 2.6875q-1.28125 0.265625 -2.296875 0.265625q-1.65625 0 -2.578125 -0.515625q-0.90625 -0.53125 -1.28125 -1.375q-0.375 -0.859375 -0.375 -3.609375l0 -10.34375l-2.234375 0l0 -2.359375l2.234375 0l0 -4.453125l3.03125 -1.828125l0 6.28125l3.0625 0l0 2.359375l-3.0625 0l0 10.515625q0 1.296875 0.15625 1.671875q0.15625 0.375 0.515625 0.59375q0.375 0.21875 1.046875 0.21875q0.515625 0 1.34375 -0.109375zm12.851013 2.71875l0 -24.8125l9.3125 0q2.84375 0 4.5625 0.765625q1.71875 0.75 2.6875 2.3125q0.96875 1.5625 0.96875 3.265625q0 1.59375 -0.859375 3.0q-0.859375 1.40625 -2.609375 2.265625q2.25 0.65625 3.453125 2.25q1.21875 1.59375 1.21875 3.765625q0 1.734375 -0.734375 3.234375q-0.734375 1.5 -1.828125 2.3125q-1.078125 0.8125 -2.71875 1.234375q-1.625 0.40625 -3.984375 0.40625l-9.46875 0zm3.296875 -14.390625l5.359375 0q2.1875 0 3.125 -0.28125q1.25 -0.375 1.890625 -1.234375q0.640625 -0.859375 0.640625 -2.171875q0 -1.234375 -0.59375 -2.171875q-0.59375 -0.9375 -1.703125 -1.28125q-1.09375 -0.34375 -3.765625 -0.34375l-4.953125 0l0 7.484375zm0 11.46875l6.171875 0q1.59375 0 2.234375 -0.125q1.125 -0.203125 1.890625 -0.671875q0.765625 -0.484375 1.25 -1.375q0.5 -0.90625 0.5 -2.09375q0 -1.390625 -0.71875 -2.40625q-0.703125 -1.03125 -1.96875 -1.4375q-1.265625 -0.421875 -3.625 -0.421875l-5.734375 0l0 8.53125z" fill-rule="nonzero"/></g></svg>