<svg version="1.1" viewBox="0.0 0.0 960.0 540.0" fill="none" stroke="none" stroke-linecap="square" stroke-miterlimit="10" xmlns:xlink="http://www.w3.org/1999/xlink" xmlns="http://www.w3.org/2000/svg"><clipPath id="g1ee45421c2e_0_62.0"><path d="m0 0l960.0 0l0 540.0l-960.0 0l0 -540.0z" clip-rule="nonzero"/></clipPath><g clip-path="url(#g1ee45421c2e_0_62.0)"><path fill="#ffffff" d="m0 0l960.0 0l0 540.0l-960.0 0z" fill-rule="evenodd"/><path fill="#000000" fill-opacity="0.0" d="m112.01706 241.93176l123.02362 -145.00787" fill-rule="evenodd"/><path stroke="#d9ead3" stroke-width="3.0" stroke-linejoin="round" stroke-linecap="butt" d="m112.01706 241.93176l111.37877 -131.2821" fill-rule="evenodd"/><path fill="#d9ead3" stroke="#d9ead3" stroke-width="3.0" stroke-linecap="butt" d="m227.17438 113.85537l5.0290375 -13.587189l-12.586151 7.1757965z" fill-rule="evenodd"/><path fill="#000000" fill-opacity="0.0" d="m112.01706 241.92126l123.02362 0" fill-rule="evenodd"/><path stroke="#ead1dc" stroke-width="3.0" stroke-linejoin="round" stroke-linecap="butt" d="m112.01706 241.92126l105.02362 0" fill-rule="evenodd"/><path fill="#ead1dc" stroke="#ead1dc" stroke-width="3.0" stroke-linecap="butt" d="m217.04068 246.87645l13.614288 -4.955185l-13.614288 -4.9552z" fill-rule="evenodd"/><path fill="#d9ead3" d="m235.04068 68.845146l108.97638 0l0 56.15748l-108.97638 0z" fill-rule="evenodd"/><path stroke="#9900ff" stroke-width="3.0" stroke-linejoin="round" stroke-linecap="butt" d="m235.04068 68.845146l108.97638 0l0 56.15748l-108.97638 0z" fill-rule="evenodd"/><path fill="#000000" d="m261.1731 97.17201q0 1.5 -0.46875 2.75q-0.46875 1.25 -1.34375 2.15625q-0.859375 0.90625 -2.078125 1.40625q-1.21875 0.5 -2.7031097 0.5q-1.46875 0 -2.6875 -0.5q-1.203125 -0.5 -2.078125 -1.40625q-0.859375 -0.90625 -1.34375 -2.15625q-0.46875 -1.25 -0.46875 -2.75q0 -1.515625 0.46875 -2.765625q0.484375 -1.25 1.34375 -2.15625q0.875 -0.921875 2.078125 -1.421875q1.21875 -0.5 2.6875 -0.5q1.4843597 0 2.7031097 0.5q1.21875 0.5 2.078125 1.421875q0.875 0.90625 1.34375 2.15625q0.46875 1.25 0.46875 2.765625zm-1.84375 0q0 -1.234375 -0.34375 -2.21875q-0.328125 -0.984375 -0.953125 -1.65625q-0.609375 -0.671875 -1.484375 -1.03125q-0.87498474 -0.375 -1.9687347 -0.375q-1.0625 0 -1.9375 0.375q-0.875 0.359375 -1.5 1.03125q-0.625 0.671875 -0.96875 1.65625q-0.328125 0.984375 -0.328125 2.21875q0 1.21875 0.328125 2.203125q0.34375 0.96875 0.96875 1.65625q0.625 0.671875 1.5 1.03125q0.875 0.359375 1.9375 0.359375q1.09375 0 1.9687347 -0.359375q0.875 -0.359375 1.484375 -1.03125q0.625 -0.6875 0.953125 -1.65625q0.34375 -0.984375 0.34375 -2.203125zm4.0595703 9.875l0 -12.65625l0.984375 0q0.359375 0 0.453125 0.34375l0.140625 1.125q0.609375 -0.734375 1.390625 -1.1875q0.78125 -0.453125 1.796875 -0.453125q0.8125 0 1.46875 0.3125q0.65625 0.3125 1.125 0.9375q0.46875 0.609375 0.71875 1.515625q0.25 0.90625 0.25 2.078125q0 1.046875 -0.28125 1.953125q-0.28125 0.890625 -0.796875 1.546875q-0.515625 0.65625 -1.28125 1.03125q-0.765625 0.375 -1.71875 0.375q-0.875 0 -1.5 -0.28125q-0.609375 -0.296875 -1.09375 -0.828125l0 4.1875l-1.65625 0zm4.203125 -11.484375q-0.8125 0 -1.421875 0.375q-0.609375 0.375 -1.125 1.0625l0 4.5625q0.46875 0.625 1.015625 0.875q0.546875 0.25 1.21875 0.25q1.3125 0 2.015625 -0.9375q0.703125 -0.953125 0.703125 -2.6875q0 -0.921875 -0.15625 -1.578125q-0.15625 -0.671875 -0.46875 -1.09375q-0.3125 -0.421875 -0.765625 -0.625q-0.4375 -0.203125 -1.015625 -0.203125zm8.954498 8.4375q-1.109375 0 -1.71875 -0.625q-0.59375 -0.625 -0.59375 -1.8125l0 -5.78125l-1.140625 0q-0.15625 0 -0.265625 -0.078125q-0.09375 -0.09375 -0.09375 -0.28125l0 -0.65625l1.546875 -0.203125l0.390625 -2.921875q0.015625 -0.140625 0.109375 -0.21875q0.109375 -0.09375 0.265625 -0.09375l0.84375 0l0 3.25l2.703125 0l0 1.203125l-2.703125 0l0 5.671875q0 0.59375 0.28125 0.890625q0.296875 0.28125 0.75 0.28125q0.265625 0 0.453125 -0.0625q0.203125 -0.078125 0.328125 -0.15625q0.140625 -0.078125 0.234375 -0.140625q0.109375 -0.078125 0.1875 -0.078125q0.125 0 0.234375 0.15625l0.484375 0.796875q-0.4375 0.390625 -1.046875 0.625q-0.59375 0.234375 -1.25 0.234375zm5.9431763 -9.609375l0 9.453125l-1.65625 0l0 -9.453125l1.65625 0zm0.375 -2.96875q0 0.25 -0.09375 0.46875q-0.09375 0.203125 -0.265625 0.375q-0.15625 0.15625 -0.375 0.25q-0.21875 0.09375 -0.453125 0.09375q-0.25 0 -0.46875 -0.09375q-0.203125 -0.09375 -0.359375 -0.25q-0.15625 -0.171875 -0.25 -0.375q-0.09375 -0.21875 -0.09375 -0.46875q0 -0.234375 0.09375 -0.453125q0.09375 -0.21875 0.25 -0.375q0.15625 -0.171875 0.359375 -0.265625q0.21875 -0.09375 0.46875 -0.09375q0.234375 0 0.453125 0.09375q0.21875 0.09375 0.375 0.265625q0.171875 0.15625 0.265625 0.375q0.09375 0.21875 0.09375 0.453125zm6.385376 2.828125q1.03125 0 1.859375 0.34375q0.84375 0.34375 1.421875 0.984375q0.59375 0.625 0.90625 1.53125q0.3125 0.890625 0.3125 2.0q0 1.125 -0.3125 2.03125q-0.3125 0.890625 -0.90625 1.53125q-0.578125 0.625 -1.421875 0.96875q-0.828125 0.328125 -1.859375 0.328125q-1.03125 0 -1.875 -0.328125q-0.828125 -0.34375 -1.421875 -0.96875q-0.578125 -0.640625 -0.90625 -1.53125q-0.3125 -0.90625 -0.3125 -2.03125q0 -1.109375 0.3125 -2.0q0.328125 -0.90625 0.90625 -1.53125q0.59375 -0.640625 1.421875 -0.984375q0.84375 -0.34375 1.875 -0.34375zm0 8.421875q1.390625 0 2.078125 -0.9375q0.703125 -0.9375 0.703125 -2.609375q0 -1.6875 -0.703125 -2.625q-0.6875 -0.953125 -2.078125 -0.953125q-0.703125 0 -1.234375 0.25q-0.515625 0.234375 -0.875 0.703125q-0.34375 0.453125 -0.515625 1.125q-0.171875 0.65625 -0.171875 1.5q0 0.84375 0.171875 1.5q0.171875 0.65625 0.515625 1.109375q0.359375 0.453125 0.875 0.703125q0.53125 0.234375 1.234375 0.234375zm6.544739 1.171875l0 -9.453125l0.984375 0q0.359375 0 0.453125 0.34375l0.125 1.03125q0.625 -0.6875 1.375 -1.09375q0.765625 -0.421875 1.765625 -0.421875q0.78125 0 1.359375 0.265625q0.59375 0.25 0.984375 0.71875q0.40625 0.46875 0.609375 1.140625q0.203125 0.65625 0.203125 1.453125l0 6.015625l-1.65625 0l0 -6.015625q0 -1.078125 -0.5 -1.671875q-0.484375 -0.59375 -1.484375 -0.59375q-0.734375 0 -1.375 0.359375q-0.640625 0.359375 -1.1875 0.96875l0 6.953125l-1.65625 0zm15.286041 -1.265625l2.875 0l0 -9.109375q0 -0.421875 0.03125 -0.84375l-2.390625 2.046875q-0.09375 0.078125 -0.1875 0.109375q-0.09375 0.03125 -0.171875 0.03125q-0.140625 0 -0.25 -0.0625q-0.109375 -0.0625 -0.171875 -0.140625l-0.515625 -0.71875l3.96875 -3.4375l1.34375 0l0 12.125l2.640625 0l0 1.265625l-7.171875 0l0 -1.265625zm20.773773 1.265625l-1.40625 0q-0.234375 0 -0.390625 -0.125q-0.140625 -0.125 -0.21875 -0.296875l-1.25 -3.234375l-6.0 0l-1.25 3.234375q-0.0625 0.15625 -0.234375 0.296875q-0.15625 0.125 -0.375 0.125l-1.40625 0l5.34375 -13.375l1.84375 0l5.34375 13.375zm-8.765625 -4.96875l5.0 0l-2.109375 -5.4375q-0.203125 -0.5 -0.390625 -1.25q-0.109375 0.375 -0.21875 0.703125q-0.09375 0.3125 -0.1875 0.5625l-2.09375 5.421875z" fill-rule="nonzero"/><path fill="#f4cccc" d="m235.04068 213.84251l108.97638 0l0 56.157486l-108.97638 0z" fill-rule="evenodd"/><path stroke="#9900ff" stroke-width="3.0" stroke-linejoin="round" stroke-linecap="butt" d="m235.04068 213.84251l108.97638 0l0 56.157486l-108.97638 0z" fill-rule="evenodd"/><path fill="#000000" d="m261.48093 242.16939q0 1.5 -0.46875 2.75q-0.46875 1.25 -1.34375 2.15625q-0.859375 0.90625 -2.078125 1.40625q-1.21875 0.5 -2.703125 0.5q-1.46875 0 -2.6875 -0.5q-1.203125 -0.5 -2.078125 -1.40625q-0.859375 -0.90625 -1.34375 -2.15625q-0.46875 -1.25 -0.46875 -2.75q0 -1.515625 0.46875 -2.765625q0.484375 -1.25 1.34375 -2.15625q0.875 -0.921875 2.078125 -1.421875q1.21875 -0.5 2.6875 -0.5q1.484375 0 2.703125 0.5q1.21875 0.5 2.078125 1.421875q0.875 0.90625 1.34375 2.15625q0.46875 1.25 0.46875 2.765625zm-1.84375 0q0 -1.234375 -0.34375 -2.21875q-0.328125 -0.984375 -0.953125 -1.65625q-0.609375 -0.671875 -1.484375 -1.03125q-0.875 -0.375 -1.96875 -0.375q-1.0625 0 -1.9375 0.375q-0.875 0.359375 -1.5 1.03125q-0.625 0.671875 -0.96875 1.65625q-0.328125 0.984375 -0.328125 2.21875q0 1.21875 0.328125 2.203125q0.34375 0.96875 0.96875 1.65625q0.625 0.671875 1.5 1.03125q0.875 0.359375 1.9375 0.359375q1.09375 0 1.96875 -0.359375q0.875 -0.359375 1.484375 -1.03125q0.625 -0.6875 0.953125 -1.65625q0.34375 -0.984375 0.34375 -2.203125zm4.0595703 9.875l0 -12.65625l0.984375 0q0.359375 0 0.453125 0.34375l0.140625 1.125q0.609375 -0.734375 1.390625 -1.1875q0.78125 -0.453125 1.796875 -0.453125q0.8125 0 1.46875 0.3125q0.65625 0.3125 1.125 0.9375q0.46875 0.609375 0.71875 1.515625q0.25 0.90625 0.25 2.078125q0 1.046875 -0.28125 1.953125q-0.28125 0.890625 -0.796875 1.546875q-0.515625 0.65625 -1.28125 1.03125q-0.765625 0.375 -1.71875 0.375q-0.875 0 -1.5 -0.28125q-0.609375 -0.296875 -1.09375 -0.828125l0 4.1875l-1.65625 0zm4.203125 -11.484375q-0.8125 0 -1.421875 0.375q-0.609375 0.375 -1.125 1.0625l0 4.5625q0.46875 0.625 1.015625 0.875q0.546875 0.25 1.21875 0.25q1.3125 0 2.015625 -0.9375q0.703125 -0.953125 0.703125 -2.6875q0 -0.921875 -0.15625 -1.578125q-0.15625 -0.671875 -0.46875 -1.09375q-0.3125 -0.421875 -0.765625 -0.625q-0.4375 -0.203125 -1.015625 -0.203125zm8.954498 8.4375q-1.109375 0 -1.71875 -0.625q-0.59375 -0.625 -0.59375 -1.8125l0 -5.78125l-1.140625 0q-0.15625 0 -0.265625 -0.078125q-0.09375 -0.09375 -0.09375 -0.28125l0 -0.65625l1.546875 -0.203125l0.390625 -2.921875q0.015625 -0.140625 0.109375 -0.21875q0.109375 -0.09375 0.265625 -0.09375l0.84375 0l0 3.25l2.703125 0l0 1.203125l-2.703125 0l0 5.671875q0 0.59375 0.28125 0.890625q0.296875 0.28125 0.75 0.28125q0.265625 0 0.453125 -0.0625q0.203125 -0.078125 0.328125 -0.15625q0.140625 -0.078125 0.234375 -0.140625q0.109375 -0.078125 0.1875 -0.078125q0.125 0 0.234375 0.15625l0.484375 0.796875q-0.4375 0.390625 -1.046875 0.625q-0.59375 0.234375 -1.25 0.234375zm5.9431763 -9.609375l0 9.453125l-1.65625 0l0 -9.453125l1.65625 0zm0.375 -2.96875q0 0.25 -0.09375 0.46875q-0.09375 0.203125 -0.265625 0.375q-0.15625 0.15625 -0.375 0.25q-0.21875 0.09375 -0.453125 0.09375q-0.25 0 -0.46875 -0.09375q-0.203125 -0.09375 -0.359375 -0.25q-0.15625 -0.171875 -0.25 -0.375q-0.09375 -0.21875 -0.09375 -0.46875q0 -0.234375 0.09375 -0.453125q0.09375 -0.21875 0.25 -0.375q0.15625 -0.171875 0.359375 -0.265625q0.21875 -0.09375 0.46875 -0.09375q0.234375 0 0.453125 0.09375q0.21875 0.09375 0.375 0.265625q0.171875 0.15625 0.265625 0.375q0.09375 0.21875 0.09375 0.453125zm6.385376 2.828125q1.03125 0 1.859375 0.34375q0.84375 0.34375 1.421875 0.984375q0.59375 0.625 0.90625 1.53125q0.3125 0.890625 0.3125 2.0q0 1.125 -0.3125 2.03125q-0.3125 0.890625 -0.90625 1.53125q-0.578125 0.625 -1.421875 0.96875q-0.828125 0.328125 -1.859375 0.328125q-1.03125 0 -1.875 -0.328125q-0.828125 -0.34375 -1.421875 -0.96875q-0.578125 -0.640625 -0.90625 -1.53125q-0.3125 -0.90625 -0.3125 -2.03125q0 -1.109375 0.3125 -2.0q0.328125 -0.90625 0.90625 -1.53125q0.59375 -0.640625 1.421875 -0.984375q0.84375 -0.34375 1.875 -0.34375zm0 8.421875q1.390625 0 2.078125 -0.9375q0.703125 -0.9375 0.703125 -2.609375q0 -1.6875 -0.703125 -2.625q-0.6875 -0.953125 -2.078125 -0.953125q-0.703125 0 -1.234375 0.25q-0.515625 0.234375 -0.875 0.703125q-0.34375 0.453125 -0.515625 1.125q-0.171875 0.65625 -0.171875 1.5q0 0.84375 0.171875 1.5q0.171875 0.65625 0.515625 1.109375q0.359375 0.453125 0.875 0.703125q0.53125 0.234375 1.234375 0.234375zm6.544739 1.171875l0 -9.453125l0.984375 0q0.359375 0 0.453125 0.34375l0.125 1.03125q0.625 -0.6875 1.375 -1.09375q0.765625 -0.421875 1.765625 -0.421875q0.78125 0 1.359375 0.265625q0.59375 0.25 0.984375 0.71875q0.40625 0.46875 0.609375 1.140625q0.203125 0.65625 0.203125 1.453125l0 6.015625l-1.65625 0l0 -6.015625q0 -1.078125 -0.5 -1.671875q-0.484375 -0.59375 -1.484375 -0.59375q-0.734375 0 -1.375 0.359375q-0.640625 0.359375 -1.1875 0.96875l0 6.953125l-1.65625 0zm15.286041 -1.265625l2.875 0l0 -9.109375q0 -0.421875 0.03125 -0.84375l-2.390625 2.046875q-0.09375 0.078125 -0.1875 0.109375q-0.09375 0.03125 -0.171875 0.03125q-0.140625 0 -0.25 -0.0625q-0.109375 -0.0625 -0.171875 -0.140625l-0.515625 -0.71875l3.96875 -3.4375l1.34375 0l0 12.125l2.640625 0l0 1.265625l-7.171875 0l0 -1.265625zm9.773773 1.265625l0 -13.375l4.265625 0q1.234375 0 2.125 0.25q0.890625 0.25 1.453125 0.703125q0.578125 0.4375 0.84375 1.09375q0.28125 0.640625 0.28125 1.453125q0 0.484375 -0.15625 0.953125q-0.15625 0.453125 -0.46875 0.84375q-0.3125 0.390625 -0.78125 0.703125q-0.46875 0.296875 -1.09375 0.5q1.453125 0.296875 2.203125 1.0625q0.75 0.75 0.75 2.0q0 0.859375 -0.3125 1.5625q-0.3125 0.6875 -0.921875 1.203125q-0.59375 0.5 -1.46875 0.78125q-0.875 0.265625 -1.984375 0.265625l-4.734375 0zm1.8125 -6.09375l0 4.65625l2.890625 0q0.765625 0 1.3125 -0.171875q0.5625 -0.1875 0.921875 -0.5q0.359375 -0.328125 0.53125 -0.765625q0.171875 -0.453125 0.171875 -0.984375q0 -1.03125 -0.734375 -1.625q-0.734375 -0.609375 -2.21875 -0.609375l-2.875 0zm0 -1.28125l2.390625 0q0.75 0 1.3125 -0.171875q0.5625 -0.171875 0.921875 -0.46875q0.375 -0.296875 0.546875 -0.71875q0.1875 -0.421875 0.1875 -0.921875q0 -1.1875 -0.71875 -1.734375q-0.703125 -0.546875 -2.1875 -0.546875l-2.453125 0l0 4.5625z" fill-rule="nonzero"/><path fill="#d0e0e3" d="m235.04068 358.8399l108.97638 0l0 56.15747l-108.97638 0z" fill-rule="evenodd"/><path stroke="#9900ff" stroke-width="3.0" stroke-linejoin="round" stroke-linecap="butt" d="m235.04068 358.8399l108.97638 0l0 56.15747l-108.97638 0z" fill-rule="evenodd"/><path fill="#000000" d="m261.12646 387.16675q0 1.5 -0.46875 2.75q-0.46875 1.25 -1.34375 2.15625q-0.859375 0.90625 -2.078125 1.40625q-1.21875 0.5 -2.703125 0.5q-1.46875 0 -2.6875 -0.5q-1.203125 -0.5 -2.078125 -1.40625q-0.859375 -0.90625 -1.34375 -2.15625q-0.46875 -1.25 -0.46875 -2.75q0 -1.515625 0.46875 -2.765625q0.484375 -1.25 1.34375 -2.15625q0.875 -0.921875 2.078125 -1.421875q1.21875 -0.5 2.6875 -0.5q1.484375 0 2.703125 0.5q1.21875 0.5 2.078125 1.421875q0.875 0.90625 1.34375 2.15625q0.46875 1.25 0.46875 2.765625zm-1.84375 0q0 -1.234375 -0.34375 -2.21875q-0.328125 -0.984375 -0.953125 -1.65625q-0.609375 -0.671875 -1.484375 -1.03125q-0.875 -0.375 -1.96875 -0.375q-1.0625 0 -1.9375 0.375q-0.875 0.359375 -1.5 1.03125q-0.625 0.671875 -0.96875 1.65625q-0.328125 0.984375 -0.328125 2.21875q0 1.21875 0.328125 2.203125q0.34375 0.96875 0.96875 1.65625q0.625 0.671875 1.5 1.03125q0.875 0.359375 1.9375 0.359375q1.09375 0 1.96875 -0.359375q0.875 -0.359375 1.484375 -1.03125q0.625 -0.6875 0.953125 -1.65625q0.34375 -0.984375 0.34375 -2.203125zm4.0595703 9.875l0 -12.65625l0.984375 0q0.359375 0 0.453125 0.34375l0.140625 1.125q0.609375 -0.734375 1.390625 -1.1875q0.78125 -0.453125 1.796875 -0.453125q0.8125 0 1.46875 0.3125q0.65625 0.3125 1.125 0.9375q0.46875 0.609375 0.71875 1.515625q0.25 0.90625 0.25 2.078125q0 1.046875 -0.28125 1.953125q-0.28125 0.890625 -0.796875 1.546875q-0.515625 0.65625 -1.28125 1.03125q-0.765625 0.375 -1.71875 0.375q-0.875 0 -1.5 -0.28125q-0.609375 -0.296875 -1.09375 -0.828125l0 4.1875l-1.65625 0zm4.203125 -11.484375q-0.8125 0 -1.421875 0.375q-0.609375 0.375 -1.125 1.0625l0 4.5625q0.46875 0.625 1.015625 0.875q0.546875 0.25 1.21875 0.25q1.3125 0 2.015625 -0.9375q0.703125 -0.953125 0.703125 -2.6875q0 -0.921875 -0.15625 -1.578125q-0.15625 -0.671875 -0.46875 -1.09375q-0.3125 -0.421875 -0.765625 -0.625q-0.4375 -0.203125 -1.015625 -0.203125zm8.954498 8.4375q-1.109375 0 -1.71875 -0.625q-0.59375 -0.625 -0.59375 -1.8125l0 -5.78125l-1.140625 0q-0.15625 0 -0.265625 -0.078125q-0.09375 -0.09375 -0.09375 -0.28125l0 -0.65625l1.546875 -0.203125l0.390625 -2.921875q0.015625 -0.140625 0.109375 -0.21875q0.109375 -0.09375 0.265625 -0.09375l0.84375 0l0 3.25l2.703125 0l0 1.203125l-2.703125 0l0 5.671875q0 0.59375 0.28125 0.890625q0.296875 0.28125 0.75 0.28125q0.265625 0 0.453125 -0.0625q0.203125 -0.078125 0.328125 -0.15625q0.140625 -0.078125 0.234375 -0.140625q0.109375 -0.078125 0.1875 -0.078125q0.125 0 0.234375 0.15625l0.484375 0.796875q-0.4375 0.390625 -1.046875 0.625q-0.59375 0.234375 -1.25 0.234375zm5.9431458 -9.609375l0 9.453125l-1.65625 0l0 -9.453125l1.65625 0zm0.375 -2.96875q0 0.25 -0.09375 0.46875q-0.09375 0.203125 -0.265625 0.375q-0.15625 0.15625 -0.375 0.25q-0.21875 0.09375 -0.453125 0.09375q-0.25 0 -0.46875 -0.09375q-0.203125 -0.09375 -0.359375 -0.25q-0.15625 -0.171875 -0.25 -0.375q-0.09375 -0.21875 -0.09375 -0.46875q0 -0.234375 0.09375 -0.453125q0.09375 -0.21875 0.25 -0.375q0.15625 -0.171875 0.359375 -0.265625q0.21875 -0.09375 0.46875 -0.09375q0.234375 0 0.453125 0.09375q0.21875 0.09375 0.375 0.265625q0.171875 0.15625 0.265625 0.375q0.09375 0.21875 0.09375 0.453125zm6.385376 2.828125q1.03125 0 1.859375 0.34375q0.84375 0.34375 1.421875 0.984375q0.59375 0.625 0.90625 1.53125q0.3125 0.890625 0.3125 2.0q0 1.125 -0.3125 2.03125q-0.3125 0.890625 -0.90625 1.53125q-0.578125 0.625 -1.421875 0.96875q-0.828125 0.328125 -1.859375 0.328125q-1.03125 0 -1.875 -0.328125q-0.828125 -0.34375 -1.421875 -0.96875q-0.578125 -0.640625 -0.90625 -1.53125q-0.3125 -0.90625 -0.3125 -2.03125q0 -1.109375 0.3125 -2.0q0.328125 -0.90625 0.90625 -1.53125q0.59375 -0.640625 1.421875 -0.984375q0.84375 -0.34375 1.875 -0.34375zm0 8.421875q1.390625 0 2.078125 -0.9375q0.703125 -0.9375 0.703125 -2.609375q0 -1.6875 -0.703125 -2.625q-0.6875 -0.953125 -2.078125 -0.953125q-0.703125 0 -1.234375 0.25q-0.515625 0.234375 -0.875 0.703125q-0.34375 0.453125 -0.515625 1.125q-0.171875 0.65625 -0.171875 1.5q0 0.84375 0.171875 1.5q0.171875 0.65625 0.515625 1.109375q0.359375 0.453125 0.875 0.703125q0.53125 0.234375 1.234375 0.234375zm6.5447693 1.171875l0 -9.453125l0.984375 0q0.359375 0 0.453125 0.34375l0.125 1.03125q0.625 -0.6875 1.375 -1.09375q0.765625 -0.421875 1.765625 -0.421875q0.78125 0 1.359375 0.265625q0.59375 0.25 0.984375 0.71875q0.40625 0.46875 0.609375 1.140625q0.203125 0.65625 0.203125 1.453125l0 6.015625l-1.65625 0l0 -6.015625q0 -1.078125 -0.5 -1.671875q-0.484375 -0.59375 -1.484375 -0.59375q-0.734375 0 -1.375 0.359375q-0.640625 0.359375 -1.1875 0.96875l0 6.953125l-1.65625 0zm15.286041 -1.265625l2.875 0l0 -9.109375q0 -0.421875 0.03125 -0.84375l-2.390625 2.046875q-0.09375 0.078125 -0.1875 0.109375q-0.09375 0.03125 -0.171875 0.03125q-0.140625 0 -0.25 -0.0625q-0.109375 -0.0625 -0.171875 -0.140625l-0.515625 -0.71875l3.96875 -3.4375l1.34375 0l0 12.125l2.640625 0l0 1.265625l-7.171875 0l0 -1.265625zm19.195618 -1.5q0.140625 0 0.265625 0.125l0.71875 0.78125q-0.828125 0.9375 -2.0 1.484375q-1.171875 0.53125 -2.828125 0.53125q-1.4375 0 -2.609375 -0.5q-1.171875 -0.5 -2.015625 -1.40625q-0.828125 -0.90625 -1.28125 -2.15625q-0.453125 -1.265625 -0.453125 -2.765625q0 -1.515625 0.484375 -2.765625q0.484375 -1.265625 1.375 -2.171875q0.890625 -0.90625 2.125 -1.40625q1.234375 -0.5 2.734375 -0.5q1.46875 0 2.53125 0.453125q1.078125 0.453125 1.90625 1.25l-0.59375 0.828125q-0.0625 0.09375 -0.15625 0.15625q-0.078125 0.046875 -0.234375 0.046875q-0.125 0 -0.265625 -0.078125q-0.125 -0.09375 -0.3125 -0.21875q-0.1875 -0.140625 -0.4375 -0.28125q-0.25 -0.15625 -0.59375 -0.28125q-0.34375 -0.125 -0.8125 -0.21875q-0.453125 -0.09375 -1.046875 -0.09375q-1.078125 0 -1.96875 0.375q-0.890625 0.359375 -1.53125 1.046875q-0.640625 0.6875 -1.0 1.671875q-0.359375 0.96875 -0.359375 2.1875q0 1.25 0.359375 2.234375q0.359375 0.96875 0.96875 1.640625q0.625 0.671875 1.46875 1.03125q0.859375 0.359375 1.84375 0.359375q0.59375 0 1.0625 -0.0625q0.484375 -0.078125 0.890625 -0.21875q0.40625 -0.15625 0.75 -0.375q0.34375 -0.234375 0.703125 -0.5625q0.15625 -0.140625 0.3125 -0.140625z" fill-rule="nonzero"/><path fill="#000000" fill-opacity="0.0" d="m112.01706 241.91077l123.02362 145.00787" fill-rule="evenodd"/><path stroke="#d0e0e3" stroke-width="3.0" stroke-linejoin="round" stroke-linecap="butt" d="m112.01706 241.91077l111.37877 131.28207" fill-rule="evenodd"/><path fill="#d0e0e3" stroke="#d0e0e3" stroke-width="3.0" stroke-linecap="butt" d="m219.61726 376.39856l12.586151 7.1757812l-5.0290375 -13.587189z" fill-rule="evenodd"/><path fill="#c9daf8" d="m509.46326 35.107613l108.97638 0l0 56.15748l-108.97638 0z" fill-rule="evenodd"/><path stroke="#980000" stroke-width="3.0" stroke-linejoin="round" stroke-linecap="butt" d="m509.46326 35.107613l108.97638 0l0 56.15748l-108.97638 0z" fill-rule="evenodd"/><path fill="#000000" d="m535.5957 63.43448q0 1.5 -0.46875 2.75q-0.46875 1.25 -1.34375 2.15625q-0.859375 0.90625 -2.078125 1.40625q-1.21875 0.5 -2.703125 0.5q-1.46875 0 -2.6875 -0.5q-1.203125 -0.5 -2.078125 -1.40625q-0.859375 -0.90625 -1.34375 -2.15625q-0.46875 -1.25 -0.46875 -2.75q0 -1.515625 0.46875 -2.765625q0.484375 -1.25 1.34375 -2.15625q0.875 -0.921875 2.078125 -1.421875q1.21875 -0.5 2.6875 -0.5q1.484375 0 2.703125 0.5q1.21875 0.5 2.078125 1.421875q0.875 0.90625 1.34375 2.15625q0.46875 1.25 0.46875 2.765625zm-1.84375 0q0 -1.234375 -0.34375 -2.21875q-0.328125 -0.984375 -0.953125 -1.65625q-0.609375 -0.671875 -1.484375 -1.03125q-0.875 -0.375 -1.96875 -0.375q-1.0625 0 -1.9375 0.375q-0.875 0.359375 -1.5 1.03125q-0.625 0.671875 -0.96875 1.65625q-0.328125 0.984375 -0.328125 2.21875q0 1.21875 0.328125 2.203125q0.34375 0.96875 0.96875 1.65625q0.625 0.671875 1.5 1.03125q0.875 0.359375 1.9375 0.359375q1.09375 0 1.96875 -0.359375q0.875 -0.359375 1.484375 -1.03125q0.625 -0.6875 0.953125 -1.65625q0.34375 -0.984375 0.34375 -2.203125zm4.0595703 9.875l0 -12.65625l0.984375 0q0.359375 0 0.453125 0.34375l0.140625 1.125q0.609375 -0.734375 1.390625 -1.1875q0.78125 -0.453125 1.796875 -0.453125q0.8125 0 1.46875 0.3125q0.65625 0.3125 1.125 0.9375q0.46875 0.609375 0.71875 1.515625q0.25 0.90625 0.25 2.078125q0 1.046875 -0.28125 1.953125q-0.28125 0.890625 -0.796875 1.546875q-0.515625 0.65625 -1.28125 1.03125q-0.765625 0.375 -1.71875 0.375q-0.875 0 -1.5 -0.28125q-0.609375 -0.296875 -1.09375 -0.828125l0 4.1875l-1.65625 0zm4.203125 -11.484375q-0.8125 0 -1.421875 0.375q-0.609375 0.375 -1.125 1.0625l0 4.5625q0.46875 0.625 1.015625 0.875q0.546875 0.25 1.21875 0.25q1.3125 0 2.015625 -0.9375q0.703125 -0.953125 0.703125 -2.6875q0 -0.921875 -0.15625 -1.578125q-0.15625 -0.671875 -0.46875 -1.09375q-0.3125 -0.421875 -0.765625 -0.625q-0.4375 -0.203125 -1.015625 -0.203125zm8.954468 8.4375q-1.109375 0 -1.71875 -0.625q-0.59375 -0.625 -0.59375 -1.8125l0 -5.78125l-1.140625 0q-0.15625 0 -0.265625 -0.078125q-0.09375 -0.09375 -0.09375 -0.28125l0 -0.65625l1.546875 -0.203125l0.390625 -2.921875q0.015625 -0.140625 0.109375 -0.21875q0.109375 -0.09375 0.265625 -0.09375l0.84375 0l0 3.25l2.703125 0l0 1.203125l-2.703125 0l0 5.671875q0 0.59375 0.28125 0.890625q0.296875 0.28125 0.75 0.28125q0.265625 0 0.453125 -0.0625q0.203125 -0.078125 0.328125 -0.15625q0.140625 -0.078125 0.234375 -0.140625q0.109375 -0.078125 0.1875 -0.078125q0.125 0 0.234375 0.15625l0.484375 0.796875q-0.4375 0.390625 -1.046875 0.625q-0.59375 0.234375 -1.25 0.234375zm5.9431763 -9.609375l0 9.453125l-1.65625 0l0 -9.453125l1.65625 0zm0.375 -2.96875q0 0.25 -0.09375 0.46875q-0.09375 0.203125 -0.265625 0.375q-0.15625 0.15625 -0.375 0.25q-0.21875 0.09375 -0.453125 0.09375q-0.25 0 -0.46875 -0.09375q-0.203125 -0.09375 -0.359375 -0.25q-0.15625 -0.171875 -0.25 -0.375q-0.09375 -0.21875 -0.09375 -0.46875q0 -0.234375 0.09375 -0.453125q0.09375 -0.21875 0.25 -0.375q0.15625 -0.171875 0.359375 -0.265625q0.21875 -0.09375 0.46875 -0.09375q0.234375 0 0.453125 0.09375q0.21875 0.09375 0.375 0.265625q0.171875 0.15625 0.265625 0.375q0.09375 0.21875 0.09375 0.453125zm6.385376 2.828125q1.03125 0 1.859375 0.34375q0.84375 0.34375 1.421875 0.984375q0.59375 0.625 0.90625 1.53125q0.3125 0.890625 0.3125 2.0q0 1.125 -0.3125 2.03125q-0.3125 0.890625 -0.90625 1.53125q-0.578125 0.625 -1.421875 0.96875q-0.828125 0.328125 -1.859375 0.328125q-1.03125 0 -1.875 -0.328125q-0.828125 -0.34375 -1.421875 -0.96875q-0.578125 -0.640625 -0.90625 -1.53125q-0.3125 -0.90625 -0.3125 -2.03125q0 -1.109375 0.3125 -2.0q0.328125 -0.90625 0.90625 -1.53125q0.59375 -0.640625 1.421875 -0.984375q0.84375 -0.34375 1.875 -0.34375zm0 8.421875q1.390625 0 2.078125 -0.9375q0.703125 -0.9375 0.703125 -2.609375q0 -1.6875 -0.703125 -2.625q-0.6875 -0.953125 -2.078125 -0.953125q-0.703125 0 -1.234375 0.25q-0.515625 0.234375 -0.875 0.703125q-0.34375 0.453125 -0.515625 1.125q-0.171875 0.65625 -0.171875 1.5q0 0.84375 0.171875 1.5q0.171875 0.65625 0.515625 1.109375q0.359375 0.453125 0.875 0.703125q0.53125 0.234375 1.234375 0.234375zm6.544739 1.171875l0 -9.453125l0.984375 0q0.359375 0 0.453125 0.34375l0.125 1.03125q0.625 -0.6875 1.375 -1.09375q0.765625 -0.421875 1.765625 -0.421875q0.78125 0 1.359375 0.265625q0.59375 0.25 0.984375 0.71875q0.40625 0.46875 0.609375 1.140625q0.203125 0.65625 0.203125 1.453125l0 6.015625l-1.65625 0l0 -6.015625q0 -1.078125 -0.5 -1.671875q-0.484375 -0.59375 -1.484375 -0.59375q-0.734375 0 -1.375 0.359375q-0.640625 0.359375 -1.1875 0.96875l0 6.953125l-1.65625 0zm18.223572 -13.515625q0.84375 0 1.578125 0.25q0.734375 0.25 1.265625 0.734375q0.546875 0.484375 0.859375 1.171875q0.3125 0.6875 0.3125 1.5625q0 0.75 -0.234375 1.390625q-0.21875 0.625 -0.609375 1.21875q-0.375 0.578125 -0.875 1.125q-0.5 0.546875 -1.0625 1.109375l-3.515625 3.59375q0.375 -0.09375 0.75 -0.15625q0.390625 -0.0625 0.75 -0.0625l4.46875 0q0.28125 0 0.4375 0.15625q0.15625 0.15625 0.15625 0.421875l0 1.0l-8.921875 0l0 -0.5625q0 -0.1875 0.0625 -0.375q0.078125 -0.1875 0.234375 -0.34375l4.28125 -4.296875q0.53125 -0.546875 0.96875 -1.046875q0.4375 -0.5 0.75 -1.0q0.3125 -0.5 0.484375 -1.015625q0.171875 -0.515625 0.171875 -1.109375q0 -0.578125 -0.1875 -1.015625q-0.1875 -0.453125 -0.515625 -0.734375q-0.328125 -0.296875 -0.765625 -0.4375q-0.4375 -0.15625 -0.9375 -0.15625q-0.5 0 -0.9375 0.15625q-0.421875 0.140625 -0.765625 0.40625q-0.328125 0.265625 -0.5625 0.640625q-0.21875 0.359375 -0.3125 0.796875q-0.078125 0.265625 -0.234375 0.390625q-0.140625 0.125 -0.375 0.125q-0.046875 0 -0.109375 0q-0.046875 -0.015625 -0.109375 -0.015625l-0.875 -0.15625q0.140625 -0.90625 0.515625 -1.609375q0.375 -0.71875 0.9375 -1.1875q0.578125 -0.46875 1.3125 -0.71875q0.75 -0.25 1.609375 -0.25zm17.836243 13.515625l-1.40625 0q-0.234375 0 -0.390625 -0.125q-0.140625 -0.125 -0.21875 -0.296875l-1.25 -3.234375l-6.0 0l-1.25 3.234375q-0.0625 0.15625 -0.234375 0.296875q-0.15625 0.125 -0.375 0.125l-1.40625 0l5.34375 -13.375l1.84375 0l5.34375 13.375zm-8.765625 -4.96875l5.0 0l-2.109375 -5.4375q-0.203125 -0.5 -0.390625 -1.25q-0.109375 0.375 -0.21875 0.703125q-0.09375 0.3125 -0.1875 0.5625l-2.09375 5.421875z" fill-rule="nonzero"/><path fill="#fff2cc" d="m509.46326 102.580055l108.97638 0l0 56.15748l-108.97638 0z" fill-rule="evenodd"/><path stroke="#980000" stroke-width="3.0" stroke-linejoin="round" stroke-linecap="butt" d="m509.46326 102.580055l108.97638 0l0 56.15748l-108.97638 0z" fill-rule="evenodd"/><path fill="#000000" d="m535.9035 130.90692q0 1.5 -0.46875 2.75q-0.46875 1.25 -1.34375 2.15625q-0.859375 0.90625 -2.078125 1.40625q-1.21875 0.5 -2.703125 0.5q-1.46875 0 -2.6875 -0.5q-1.203125 -0.5 -2.078125 -1.40625q-0.859375 -0.90625 -1.34375 -2.15625q-0.46875 -1.25 -0.46875 -2.75q0 -1.515625 0.46875 -2.765625q0.484375 -1.25 1.34375 -2.15625q0.875 -0.921875 2.078125 -1.421875q1.21875 -0.5 2.6875 -0.5q1.484375 0 2.703125 0.5q1.21875 0.5 2.078125 1.421875q0.875 0.90625 1.34375 2.15625q0.46875 1.25 0.46875 2.765625zm-1.84375 0q0 -1.234375 -0.34375 -2.21875q-0.328125 -0.984375 -0.953125 -1.65625q-0.609375 -0.671875 -1.484375 -1.03125q-0.875 -0.375 -1.96875 -0.375q-1.0625 0 -1.9375 0.375q-0.875 0.359375 -1.5 1.03125q-0.625 0.671875 -0.96875 1.65625q-0.328125 0.984375 -0.328125 2.21875q0 1.21875 0.328125 2.203125q0.34375 0.96875 0.96875 1.65625q0.625 0.671875 1.5 1.03125q0.875 0.359375 1.9375 0.359375q1.09375 0 1.96875 -0.359375q0.875 -0.359375 1.484375 -1.03125q0.625 -0.6875 0.953125 -1.65625q0.34375 -0.984375 0.34375 -2.203125zm4.0595703 9.875l0 -12.65625l0.984375 0q0.359375 0 0.453125 0.34375l0.140625 1.125q0.609375 -0.734375 1.390625 -1.1875q0.78125 -0.453125 1.796875 -0.453125q0.8125 0 1.46875 0.3125q0.65625 0.3125 1.125 0.9375q0.46875 0.609375 0.71875 1.515625q0.25 0.90625 0.25 2.078125q0 1.046875 -0.28125 1.953125q-0.28125 0.890625 -0.796875 1.546875q-0.515625 0.65625 -1.28125 1.03125q-0.765625 0.375 -1.71875 0.375q-0.875 0 -1.5 -0.28125q-0.609375 -0.296875 -1.09375 -0.828125l0 4.1875l-1.65625 0zm4.203125 -11.484375q-0.8125 0 -1.421875 0.375q-0.609375 0.375 -1.125 1.0625l0 4.5625q0.46875 0.625 1.015625 0.875q0.546875 0.25 1.21875 0.25q1.3125 0 2.015625 -0.9375q0.703125 -0.953125 0.703125 -2.6875q0 -0.921875 -0.15625 -1.578125q-0.15625 -0.671875 -0.46875 -1.09375q-0.3125 -0.421875 -0.765625 -0.625q-0.4375 -0.203125 -1.015625 -0.203125zm8.954468 8.4375q-1.109375 0 -1.71875 -0.625q-0.59375 -0.625 -0.59375 -1.8125l0 -5.78125l-1.140625 0q-0.15625 0 -0.265625 -0.078125q-0.09375 -0.09375 -0.09375 -0.28125l0 -0.65625l1.546875 -0.203125l0.390625 -2.921875q0.015625 -0.140625 0.109375 -0.21875q0.109375 -0.09375 0.265625 -0.09375l0.84375 0l0 3.25l2.703125 0l0 1.203125l-2.703125 0l0 5.671875q0 0.59375 0.28125 0.890625q0.296875 0.28125 0.75 0.28125q0.265625 0 0.453125 -0.0625q0.203125 -0.078125 0.328125 -0.15625q0.140625 -0.078125 0.234375 -0.140625q0.109375 -0.078125 0.1875 -0.078125q0.125 0 0.234375 0.15625l0.484375 0.796875q-0.4375 0.390625 -1.046875 0.625q-0.59375 0.234375 -1.25 0.234375zm5.9431763 -9.609375l0 9.453125l-1.65625 0l0 -9.453125l1.65625 0zm0.375 -2.96875q0 0.25 -0.09375 0.46875q-0.09375 0.203125 -0.265625 0.375q-0.15625 0.15625 -0.375 0.25q-0.21875 0.09375 -0.453125 0.09375q-0.25 0 -0.46875 -0.09375q-0.203125 -0.09375 -0.359375 -0.25q-0.15625 -0.171875 -0.25 -0.375q-0.09375 -0.21875 -0.09375 -0.46875q0 -0.234375 0.09375 -0.453125q0.09375 -0.21875 0.25 -0.375q0.15625 -0.171875 0.359375 -0.265625q0.21875 -0.09375 0.46875 -0.09375q0.234375 0 0.453125 0.09375q0.21875 0.09375 0.375 0.265625q0.171875 0.15625 0.265625 0.375q0.09375 0.21875 0.09375 0.453125zm6.385376 2.828125q1.03125 0 1.859375 0.34375q0.84375 0.34375 1.421875 0.984375q0.59375 0.625 0.90625 1.53125q0.3125 0.890625 0.3125 2.0q0 1.125 -0.3125 2.03125q-0.3125 0.890625 -0.90625 1.53125q-0.578125 0.625 -1.421875 0.96875q-0.828125 0.328125 -1.859375 0.328125q-1.03125 0 -1.875 -0.328125q-0.828125 -0.34375 -1.421875 -0.96875q-0.578125 -0.640625 -0.90625 -1.53125q-0.3125 -0.90625 -0.3125 -2.03125q0 -1.109375 0.3125 -2.0q0.328125 -0.90625 0.90625 -1.53125q0.59375 -0.640625 1.421875 -0.984375q0.84375 -0.34375 1.875 -0.34375zm0 8.421875q1.390625 0 2.078125 -0.9375q0.703125 -0.9375 0.703125 -2.609375q0 -1.6875 -0.703125 -2.625q-0.6875 -0.953125 -2.078125 -0.953125q-0.703125 0 -1.234375 0.25q-0.515625 0.234375 -0.875 0.703125q-0.34375 0.453125 -0.515625 1.125q-0.171875 0.65625 -0.171875 1.5q0 0.84375 0.171875 1.5q0.171875 0.65625 0.515625 1.109375q0.359375 0.453125 0.875 0.703125q0.53125 0.234375 1.234375 0.234375zm6.544739 1.171875l0 -9.453125l0.984375 0q0.359375 0 0.453125 0.34375l0.125 1.03125q0.625 -0.6875 1.375 -1.09375q0.765625 -0.421875 1.765625 -0.421875q0.78125 0 1.359375 0.265625q0.59375 0.25 0.984375 0.71875q0.40625 0.46875 0.609375 1.140625q0.203125 0.65625 0.203125 1.453125l0 6.015625l-1.65625 0l0 -6.015625q0 -1.078125 -0.5 -1.671875q-0.484375 -0.59375 -1.484375 -0.59375q-0.734375 0 -1.375 0.359375q-0.640625 0.359375 -1.1875 0.96875l0 6.953125l-1.65625 0zm18.223572 -13.515625q0.84375 0 1.578125 0.25q0.734375 0.25 1.265625 0.734375q0.546875 0.484375 0.859375 1.171875q0.3125 0.6875 0.3125 1.5625q0 0.75 -0.234375 1.390625q-0.21875 0.625 -0.609375 1.21875q-0.375 0.578125 -0.875 1.125q-0.5 0.546875 -1.0625 1.109375l-3.515625 3.59375q0.375 -0.09375 0.75 -0.15625q0.390625 -0.0625 0.75 -0.0625l4.46875 0q0.28125 0 0.4375 0.15625q0.15625 0.15625 0.15625 0.421875l0 1.0l-8.921875 0l0 -0.5625q0 -0.1875 0.0625 -0.375q0.078125 -0.1875 0.234375 -0.34375l4.28125 -4.296875q0.53125 -0.546875 0.96875 -1.046875q0.4375 -0.5 0.75 -1.0q0.3125 -0.5 0.484375 -1.015625q0.171875 -0.515625 0.171875 -1.109375q0 -0.578125 -0.1875 -1.015625q-0.1875 -0.453125 -0.515625 -0.734375q-0.328125 -0.296875 -0.765625 -0.4375q-0.4375 -0.15625 -0.9375 -0.15625q-0.5 0 -0.9375 0.15625q-0.421875 0.140625 -0.765625 0.40625q-0.328125 0.265625 -0.5625 0.640625q-0.21875 0.359375 -0.3125 0.796875q-0.078125 0.265625 -0.234375 0.390625q-0.140625 0.125 -0.375 0.125q-0.046875 0 -0.109375 0q-0.046875 -0.015625 -0.109375 -0.015625l-0.875 -0.15625q0.140625 -0.90625 0.515625 -1.609375q0.375 -0.71875 0.9375 -1.1875q0.578125 -0.46875 1.3125 -0.71875q0.75 -0.25 1.609375 -0.25zm6.8362427 13.515625l0 -13.375l4.265625 0q1.234375 0 2.125 0.25q0.890625 0.25 1.453125 0.703125q0.578125 0.4375 0.84375 1.09375q0.28125 0.640625 0.28125 1.453125q0 0.484375 -0.15625 0.953125q-0.15625 0.453125 -0.46875 0.84375q-0.3125 0.390625 -0.78125 0.703125q-0.46875 0.296875 -1.09375 0.5q1.453125 0.296875 2.203125 1.0625q0.75 0.75 0.75 2.0q0 0.859375 -0.3125 1.5625q-0.3125 0.6875 -0.921875 1.203125q-0.59375 0.5 -1.46875 0.78125q-0.875 0.265625 -1.984375 0.265625l-4.734375 0zm1.8125 -6.09375l0 4.65625l2.890625 0q0.765625 0 1.3125 -0.171875q0.5625 -0.1875 0.921875 -0.5q0.359375 -0.328125 0.53125 -0.765625q0.171875 -0.453125 0.171875 -0.984375q0 -1.03125 -0.734375 -1.625q-0.734375 -0.609375 -2.21875 -0.609375l-2.875 0zm0 -1.28125l2.390625 0q0.75 0 1.3125 -0.171875q0.5625 -0.171875 0.921875 -0.46875q0.375 -0.296875 0.546875 -0.71875q0.1875 -0.421875 0.1875 -0.921875q0 -1.1875 -0.71875 -1.734375q-0.703125 -0.546875 -2.1875 -0.546875l-2.453125 0l0 4.5625z" fill-rule="nonzero"/><path fill="#c9daf8" d="m509.46326 180.98163l108.97638 0l0 56.157486l-108.97638 0z" fill-rule="evenodd"/><path stroke="#980000" stroke-width="3.0" stroke-linejoin="round" stroke-linecap="butt" d="m509.46326 180.98163l108.97638 0l0 56.157486l-108.97638 0z" fill-rule="evenodd"/><path fill="#000000" d="m535.5957 209.30849q0 1.5 -0.46875 2.75q-0.46875 1.25 -1.34375 2.15625q-0.859375 0.90625 -2.078125 1.40625q-1.21875 0.5 -2.703125 0.5q-1.46875 0 -2.6875 -0.5q-1.203125 -0.5 -2.078125 -1.40625q-0.859375 -0.90625 -1.34375 -2.15625q-0.46875 -1.25 -0.46875 -2.75q0 -1.515625 0.46875 -2.765625q0.484375 -1.25 1.34375 -2.15625q0.875 -0.921875 2.078125 -1.421875q1.21875 -0.5 2.6875 -0.5q1.484375 0 2.703125 0.5q1.21875 0.5 2.078125 1.421875q0.875 0.90625 1.34375 2.15625q0.46875 1.25 0.46875 2.765625zm-1.84375 0q0 -1.234375 -0.34375 -2.21875q-0.328125 -0.984375 -0.953125 -1.65625q-0.609375 -0.671875 -1.484375 -1.03125q-0.875 -0.375 -1.96875 -0.375q-1.0625 0 -1.9375 0.375q-0.875 0.359375 -1.5 1.03125q-0.625 0.671875 -0.96875 1.65625q-0.328125 0.984375 -0.328125 2.21875q0 1.21875 0.328125 2.203125q0.34375 0.96875 0.96875 1.65625q0.625 0.671875 1.5 1.03125q0.875 0.359375 1.9375 0.359375q1.09375 0 1.96875 -0.359375q0.875 -0.359375 1.484375 -1.03125q0.625 -0.6875 0.953125 -1.65625q0.34375 -0.984375 0.34375 -2.203125zm4.0595703 9.875l0 -12.65625l0.984375 0q0.359375 0 0.453125 0.34375l0.140625 1.125q0.609375 -0.734375 1.390625 -1.1875q0.78125 -0.453125 1.796875 -0.453125q0.8125 0 1.46875 0.3125q0.65625 0.3125 1.125 0.9375q0.46875 0.609375 0.71875 1.515625q0.25 0.90625 0.25 2.078125q0 1.046875 -0.28125 1.953125q-0.28125 0.890625 -0.796875 1.546875q-0.515625 0.65625 -1.28125 1.03125q-0.765625 0.375 -1.71875 0.375q-0.875 0 -1.5 -0.28125q-0.609375 -0.296875 -1.09375 -0.828125l0 4.1875l-1.65625 0zm4.203125 -11.484375q-0.8125 0 -1.421875 0.375q-0.609375 0.375 -1.125 1.0625l0 4.5625q0.46875 0.625 1.015625 0.875q0.546875 0.25 1.21875 0.25q1.3125 0 2.015625 -0.9375q0.703125 -0.953125 0.703125 -2.6875q0 -0.921875 -0.15625 -1.578125q-0.15625 -0.671875 -0.46875 -1.09375q-0.3125 -0.421875 -0.765625 -0.625q-0.4375 -0.203125 -1.015625 -0.203125zm8.954468 8.4375q-1.109375 0 -1.71875 -0.625q-0.59375 -0.625 -0.59375 -1.8125l0 -5.78125l-1.140625 0q-0.15625 0 -0.265625 -0.078125q-0.09375 -0.09375 -0.09375 -0.28125l0 -0.65625l1.546875 -0.203125l0.390625 -2.921875q0.015625 -0.140625 0.109375 -0.21875q0.109375 -0.09375 0.265625 -0.09375l0.84375 0l0 3.25l2.703125 0l0 1.203125l-2.703125 0l0 5.671875q0 0.59375 0.28125 0.890625q0.296875 0.28125 0.75 0.28125q0.265625 0 0.453125 -0.0625q0.203125 -0.078125 0.328125 -0.15625q0.140625 -0.078125 0.234375 -0.140625q0.109375 -0.078125 0.1875 -0.078125q0.125 0 0.234375 0.15625l0.484375 0.796875q-0.4375 0.390625 -1.046875 0.625q-0.59375 0.234375 -1.25 0.234375zm5.9431763 -9.609375l0 9.453125l-1.65625 0l0 -9.453125l1.65625 0zm0.375 -2.96875q0 0.25 -0.09375 0.46875q-0.09375 0.203125 -0.265625 0.375q-0.15625 0.15625 -0.375 0.25q-0.21875 0.09375 -0.453125 0.09375q-0.25 0 -0.46875 -0.09375q-0.203125 -0.09375 -0.359375 -0.25q-0.15625 -0.171875 -0.25 -0.375q-0.09375 -0.21875 -0.09375 -0.46875q0 -0.234375 0.09375 -0.453125q0.09375 -0.21875 0.25 -0.375q0.15625 -0.171875 0.359375 -0.265625q0.21875 -0.09375 0.46875 -0.09375q0.234375 0 0.453125 0.09375q0.21875 0.09375 0.375 0.265625q0.171875 0.15625 0.265625 0.375q0.09375 0.21875 0.09375 0.453125zm6.385376 2.828125q1.03125 0 1.859375 0.34375q0.84375 0.34375 1.421875 0.984375q0.59375 0.625 0.90625 1.53125q0.3125 0.890625 0.3125 2.0q0 1.125 -0.3125 2.03125q-0.3125 0.890625 -0.90625 1.53125q-0.578125 0.625 -1.421875 0.96875q-0.828125 0.328125 -1.859375 0.328125q-1.03125 0 -1.875 -0.328125q-0.828125 -0.34375 -1.421875 -0.96875q-0.578125 -0.640625 -0.90625 -1.53125q-0.3125 -0.90625 -0.3125 -2.03125q0 -1.109375 0.3125 -2.0q0.328125 -0.90625 0.90625 -1.53125q0.59375 -0.640625 1.421875 -0.984375q0.84375 -0.34375 1.875 -0.34375zm0 8.421875q1.390625 0 2.078125 -0.9375q0.703125 -0.9375 0.703125 -2.609375q0 -1.6875 -0.703125 -2.625q-0.6875 -0.953125 -2.078125 -0.953125q-0.703125 0 -1.234375 0.25q-0.515625 0.234375 -0.875 0.703125q-0.34375 0.453125 -0.515625 1.125q-0.171875 0.65625 -0.171875 1.5q0 0.84375 0.171875 1.5q0.171875 0.65625 0.515625 1.109375q0.359375 0.453125 0.875 0.703125q0.53125 0.234375 1.234375 0.234375zm6.544739 1.171875l0 -9.453125l0.984375 0q0.359375 0 0.453125 0.34375l0.125 1.03125q0.625 -0.6875 1.375 -1.09375q0.765625 -0.421875 1.765625 -0.421875q0.78125 0 1.359375 0.265625q0.59375 0.25 0.984375 0.71875q0.40625 0.46875 0.609375 1.140625q0.203125 0.65625 0.203125 1.453125l0 6.015625l-1.65625 0l0 -6.015625q0 -1.078125 -0.5 -1.671875q-0.484375 -0.59375 -1.484375 -0.59375q-0.734375 0 -1.375 0.359375q-0.640625 0.359375 -1.1875 0.96875l0 6.953125l-1.65625 0zm18.223572 -13.515625q0.84375 0 1.578125 0.25q0.734375 0.25 1.265625 0.734375q0.546875 0.484375 0.859375 1.171875q0.3125 0.6875 0.3125 1.5625q0 0.75 -0.234375 1.390625q-0.21875 0.625 -0.609375 1.21875q-0.375 0.578125 -0.875 1.125q-0.5 0.546875 -1.0625 1.109375l-3.515625 3.59375q0.375 -0.09375 0.75 -0.15625q0.390625 -0.0625 0.75 -0.0625l4.46875 0q0.28125 0 0.4375 0.15625q0.15625 0.15625 0.15625 0.421875l0 1.0l-8.921875 0l0 -0.5625q0 -0.1875 0.0625 -0.375q0.078125 -0.1875 0.234375 -0.34375l4.28125 -4.296875q0.53125 -0.546875 0.96875 -1.046875q0.4375 -0.5 0.75 -1.0q0.3125 -0.5 0.484375 -1.015625q0.171875 -0.515625 0.171875 -1.109375q0 -0.578125 -0.1875 -1.015625q-0.1875 -0.453125 -0.515625 -0.734375q-0.328125 -0.296875 -0.765625 -0.4375q-0.4375 -0.15625 -0.9375 -0.15625q-0.5 0 -0.9375 0.15625q-0.421875 0.140625 -0.765625 0.40625q-0.328125 0.265625 -0.5625 0.640625q-0.21875 0.359375 -0.3125 0.796875q-0.078125 0.265625 -0.234375 0.390625q-0.140625 0.125 -0.375 0.125q-0.046875 0 -0.109375 0q-0.046875 -0.015625 -0.109375 -0.015625l-0.875 -0.15625q0.140625 -0.90625 0.515625 -1.609375q0.375 -0.71875 0.9375 -1.1875q0.578125 -0.46875 1.3125 -0.71875q0.75 -0.25 1.609375 -0.25zm17.836243 13.515625l-1.40625 0q-0.234375 0 -0.390625 -0.125q-0.140625 -0.125 -0.21875 -0.296875l-1.25 -3.234375l-6.0 0l-1.25 3.234375q-0.0625 0.15625 -0.234375 0.296875q-0.15625 0.125 -0.375 0.125l-1.40625 0l5.34375 -13.375l1.84375 0l5.34375 13.375zm-8.765625 -4.96875l5.0 0l-2.109375 -5.4375q-0.203125 -0.5 -0.390625 -1.25q-0.109375 0.375 -0.21875 0.703125q-0.09375 0.3125 -0.1875 0.5625l-2.09375 5.421875z" fill-rule="nonzero"/><path fill="#fff2cc" d="m509.46326 248.45407l108.97638 0l0 56.15747l-108.97638 0z" fill-rule="evenodd"/><path stroke="#980000" stroke-width="3.0" stroke-linejoin="round" stroke-linecap="butt" d="m509.46326 248.45407l108.97638 0l0 56.15747l-108.97638 0z" fill-rule="evenodd"/><path fill="#000000" d="m535.9035 276.78094q0 1.5 -0.46875 2.75q-0.46875 1.25 -1.34375 2.15625q-0.859375 0.90625 -2.078125 1.40625q-1.21875 0.5 -2.703125 0.5q-1.46875 0 -2.6875 -0.5q-1.203125 -0.5 -2.078125 -1.40625q-0.859375 -0.90625 -1.34375 -2.15625q-0.46875 -1.25 -0.46875 -2.75q0 -1.515625 0.46875 -2.765625q0.484375 -1.25 1.34375 -2.15625q0.875 -0.921875 2.078125 -1.421875q1.21875 -0.5 2.6875 -0.5q1.484375 0 2.703125 0.5q1.21875 0.5 2.078125 1.421875q0.875 0.90625 1.34375 2.15625q0.46875 1.25 0.46875 2.765625zm-1.84375 0q0 -1.234375 -0.34375 -2.21875q-0.328125 -0.984375 -0.953125 -1.65625q-0.609375 -0.671875 -1.484375 -1.03125q-0.875 -0.375 -1.96875 -0.375q-1.0625 0 -1.9375 0.375q-0.875 0.359375 -1.5 1.03125q-0.625 0.671875 -0.96875 1.65625q-0.328125 0.984375 -0.328125 2.21875q0 1.21875 0.328125 2.203125q0.34375 0.96875 0.96875 1.65625q0.625 0.671875 1.5 1.03125q0.875 0.359375 1.9375 0.359375q1.09375 0 1.96875 -0.359375q0.875 -0.359375 1.484375 -1.03125q0.625 -0.6875 0.953125 -1.65625q0.34375 -0.984375 0.34375 -2.203125zm4.0595703 9.875l0 -12.65625l0.984375 0q0.359375 0 0.453125 0.34375l0.140625 1.125q0.609375 -0.734375 1.390625 -1.1875q0.78125 -0.453125 1.796875 -0.453125q0.8125 0 1.46875 0.3125q0.65625 0.3125 1.125 0.9375q0.46875 0.609375 0.71875 1.515625q0.25 0.90625 0.25 2.078125q0 1.046875 -0.28125 1.953125q-0.28125 0.890625 -0.796875 1.546875q-0.515625 0.65625 -1.28125 1.03125q-0.765625 0.375 -1.71875 0.375q-0.875 0 -1.5 -0.28125q-0.609375 -0.296875 -1.09375 -0.828125l0 4.1875l-1.65625 0zm4.203125 -11.484375q-0.8125 0 -1.421875 0.375q-0.609375 0.375 -1.125 1.0625l0 4.5625q0.46875 0.625 1.015625 0.875q0.546875 0.25 1.21875 0.25q1.3125 0 2.015625 -0.9375q0.703125 -0.953125 0.703125 -2.6875q0 -0.921875 -0.15625 -1.578125q-0.15625 -0.671875 -0.46875 -1.09375q-0.3125 -0.421875 -0.765625 -0.625q-0.4375 -0.203125 -1.015625 -0.203125zm8.954468 8.4375q-1.109375 0 -1.71875 -0.625q-0.59375 -0.625 -0.59375 -1.8125l0 -5.78125l-1.140625 0q-0.15625 0 -0.265625 -0.078125q-0.09375 -0.09375 -0.09375 -0.28125l0 -0.65625l1.546875 -0.203125l0.390625 -2.921875q0.015625 -0.140625 0.109375 -0.21875q0.109375 -0.09375 0.265625 -0.09375l0.84375 0l0 3.25l2.703125 0l0 1.203125l-2.703125 0l0 5.671875q0 0.59375 0.28125 0.890625q0.296875 0.28125 0.75 0.28125q0.265625 0 0.453125 -0.0625q0.203125 -0.078125 0.328125 -0.15625q0.140625 -0.078125 0.234375 -0.140625q0.109375 -0.078125 0.1875 -0.078125q0.125 0 0.234375 0.15625l0.484375 0.796875q-0.4375 0.390625 -1.046875 0.625q-0.59375 0.234375 -1.25 0.234375zm5.9431763 -9.609375l0 9.453125l-1.65625 0l0 -9.453125l1.65625 0zm0.375 -2.96875q0 0.25 -0.09375 0.46875q-0.09375 0.203125 -0.265625 0.375q-0.15625 0.15625 -0.375 0.25q-0.21875 0.09375 -0.453125 0.09375q-0.25 0 -0.46875 -0.09375q-0.203125 -0.09375 -0.359375 -0.25q-0.15625 -0.171875 -0.25 -0.375q-0.09375 -0.21875 -0.09375 -0.46875q0 -0.234375 0.09375 -0.453125q0.09375 -0.21875 0.25 -0.375q0.15625 -0.171875 0.359375 -0.265625q0.21875 -0.09375 0.46875 -0.09375q0.234375 0 0.453125 0.09375q0.21875 0.09375 0.375 0.265625q0.171875 0.15625 0.265625 0.375q0.09375 0.21875 0.09375 0.453125zm6.385376 2.828125q1.03125 0 1.859375 0.34375q0.84375 0.34375 1.421875 0.984375q0.59375 0.625 0.90625 1.53125q0.3125 0.890625 0.3125 2.0q0 1.125 -0.3125 2.03125q-0.3125 0.890625 -0.90625 1.53125q-0.578125 0.625 -1.421875 0.96875q-0.828125 0.328125 -1.859375 0.328125q-1.03125 0 -1.875 -0.328125q-0.828125 -0.34375 -1.421875 -0.96875q-0.578125 -0.640625 -0.90625 -1.53125q-0.3125 -0.90625 -0.3125 -2.03125q0 -1.109375 0.3125 -2.0q0.328125 -0.90625 0.90625 -1.53125q0.59375 -0.640625 1.421875 -0.984375q0.84375 -0.34375 1.875 -0.34375zm0 8.421875q1.390625 0 2.078125 -0.9375q0.703125 -0.9375 0.703125 -2.609375q0 -1.6875 -0.703125 -2.625q-0.6875 -0.953125 -2.078125 -0.953125q-0.703125 0 -1.234375 0.25q-0.515625 0.234375 -0.875 0.703125q-0.34375 0.453125 -0.515625 1.125q-0.171875 0.65625 -0.171875 1.5q0 0.84375 0.171875 1.5q0.171875 0.65625 0.515625 1.109375q0.359375 0.453125 0.875 0.703125q0.53125 0.234375 1.234375 0.234375zm6.544739 1.171875l0 -9.453125l0.984375 0q0.359375 0 0.453125 0.34375l0.125 1.03125q0.625 -0.6875 1.375 -1.09375q0.765625 -0.421875 1.765625 -0.421875q0.78125 0 1.359375 0.265625q0.59375 0.25 0.984375 0.71875q0.40625 0.46875 0.609375 1.140625q0.203125 0.65625 0.203125 1.453125l0 6.015625l-1.65625 0l0 -6.015625q0 -1.078125 -0.5 -1.671875q-0.484375 -0.59375 -1.484375 -0.59375q-0.734375 0 -1.375 0.359375q-0.640625 0.359375 -1.1875 0.96875l0 6.953125l-1.65625 0zm18.223572 -13.515625q0.84375 0 1.578125 0.25q0.734375 0.25 1.265625 0.734375q0.546875 0.484375 0.859375 1.171875q0.3125 0.6875 0.3125 1.5625q0 0.75 -0.234375 1.390625q-0.21875 0.625 -0.609375 1.21875q-0.375 0.578125 -0.875 1.125q-0.5 0.546875 -1.0625 1.109375l-3.515625 3.59375q0.375 -0.09375 0.75 -0.15625q0.390625 -0.0625 0.75 -0.0625l4.46875 0q0.28125 0 0.4375 0.15625q0.15625 0.15625 0.15625 0.421875l0 1.0l-8.921875 0l0 -0.5625q0 -0.1875 0.0625 -0.375q0.078125 -0.1875 0.234375 -0.34375l4.28125 -4.296875q0.53125 -0.546875 0.96875 -1.046875q0.4375 -0.5 0.75 -1.0q0.3125 -0.5 0.484375 -1.015625q0.171875 -0.515625 0.171875 -1.109375q0 -0.578125 -0.1875 -1.015625q-0.1875 -0.453125 -0.515625 -0.734375q-0.328125 -0.296875 -0.765625 -0.4375q-0.4375 -0.15625 -0.9375 -0.15625q-0.5 0 -0.9375 0.15625q-0.421875 0.140625 -0.765625 0.40625q-0.328125 0.265625 -0.5625 0.640625q-0.21875 0.359375 -0.3125 0.796875q-0.078125 0.265625 -0.234375 0.390625q-0.140625 0.125 -0.375 0.125q-0.046875 0 -0.109375 0q-0.046875 -0.015625 -0.109375 -0.015625l-0.875 -0.15625q0.140625 -0.90625 0.515625 -1.609375q0.375 -0.71875 0.9375 -1.1875q0.578125 -0.46875 1.3125 -0.71875q0.75 -0.25 1.609375 -0.25zm6.8362427 13.515625l0 -13.375l4.265625 0q1.234375 0 2.125 0.25q0.890625 0.25 1.453125 0.703125q0.578125 0.4375 0.84375 1.09375q0.28125 0.640625 0.28125 1.453125q0 0.484375 -0.15625 0.953125q-0.15625 0.453125 -0.46875 0.84375q-0.3125 0.390625 -0.78125 0.703125q-0.46875 0.296875 -1.09375 0.5q1.453125 0.296875 2.203125 1.0625q0.75 0.75 0.75 2.0q0 0.859375 -0.3125 1.5625q-0.3125 0.6875 -0.921875 1.203125q-0.59375 0.5 -1.46875 0.78125q-0.875 0.265625 -1.984375 0.265625l-4.734375 0zm1.8125 -6.09375l0 4.65625l2.890625 0q0.765625 0 1.3125 -0.171875q0.5625 -0.1875 0.921875 -0.5q0.359375 -0.328125 0.53125 -0.765625q0.171875 -0.453125 0.171875 -0.984375q0 -1.03125 -0.734375 -1.625q-0.734375 -0.609375 -2.21875 -0.609375l-2.875 0zm0 -1.28125l2.390625 0q0.75 0 1.3125 -0.171875q0.5625 -0.171875 0.921875 -0.46875q0.375 -0.296875 0.546875 -0.71875q0.1875 -0.421875 0.1875 -0.921875q0 -1.1875 -0.71875 -1.734375q-0.703125 -0.546875 -2.1875 -0.546875l-2.453125 0l0 4.5625z" fill-rule="nonzero"/><path fill="#c9daf8" d="m509.46326 325.10367l108.97638 0l0 56.1575l-108.97638 0z" fill-rule="evenodd"/><path stroke="#980000" stroke-width="3.0" stroke-linejoin="round" stroke-linecap="butt" d="m509.46326 325.10367l108.97638 0l0 56.1575l-108.97638 0z" fill-rule="evenodd"/><path fill="#000000" d="m535.5957 353.43054q0 1.5 -0.46875 2.75q-0.46875 1.25 -1.34375 2.15625q-0.859375 0.90625 -2.078125 1.40625q-1.21875 0.5 -2.703125 0.5q-1.46875 0 -2.6875 -0.5q-1.203125 -0.5 -2.078125 -1.40625q-0.859375 -0.90625 -1.34375 -2.15625q-0.46875 -1.25 -0.46875 -2.75q0 -1.515625 0.46875 -2.765625q0.484375 -1.25 1.34375 -2.15625q0.875 -0.921875 2.078125 -1.421875q1.21875 -0.5 2.6875 -0.5q1.484375 0 2.703125 0.5q1.21875 0.5 2.078125 1.421875q0.875 0.90625 1.34375 2.15625q0.46875 1.25 0.46875 2.765625zm-1.84375 0q0 -1.234375 -0.34375 -2.21875q-0.328125 -0.984375 -0.953125 -1.65625q-0.609375 -0.671875 -1.484375 -1.03125q-0.875 -0.375 -1.96875 -0.375q-1.0625 0 -1.9375 0.375q-0.875 0.359375 -1.5 1.03125q-0.625 0.671875 -0.96875 1.65625q-0.328125 0.984375 -0.328125 2.21875q0 1.21875 0.328125 2.203125q0.34375 0.96875 0.96875 1.65625q0.625 0.671875 1.5 1.03125q0.875 0.359375 1.9375 0.359375q1.09375 0 1.96875 -0.359375q0.875 -0.359375 1.484375 -1.03125q0.625 -0.6875 0.953125 -1.65625q0.34375 -0.984375 0.34375 -2.203125zm4.0595703 9.875l0 -12.65625l0.984375 0q0.359375 0 0.453125 0.34375l0.140625 1.125q0.609375 -0.734375 1.390625 -1.1875q0.78125 -0.453125 1.796875 -0.453125q0.8125 0 1.46875 0.3125q0.65625 0.3125 1.125 0.9375q0.46875 0.609375 0.71875 1.515625q0.25 0.90625 0.25 2.078125q0 1.046875 -0.28125 1.953125q-0.28125 0.890625 -0.796875 1.546875q-0.515625 0.65625 -1.28125 1.03125q-0.765625 0.375 -1.71875 0.375q-0.875 0 -1.5 -0.28125q-0.609375 -0.296875 -1.09375 -0.828125l0 4.1875l-1.65625 0zm4.203125 -11.484375q-0.8125 0 -1.421875 0.375q-0.609375 0.375 -1.125 1.0625l0 4.5625q0.46875 0.625 1.015625 0.875q0.546875 0.25 1.21875 0.25q1.3125 0 2.015625 -0.9375q0.703125 -0.953125 0.703125 -2.6875q0 -0.921875 -0.15625 -1.578125q-0.15625 -0.671875 -0.46875 -1.09375q-0.3125 -0.421875 -0.765625 -0.625q-0.4375 -0.203125 -1.015625 -0.203125zm8.954468 8.4375q-1.109375 0 -1.71875 -0.625q-0.59375 -0.625 -0.59375 -1.8125l0 -5.78125l-1.140625 0q-0.15625 0 -0.265625 -0.078125q-0.09375 -0.09375 -0.09375 -0.28125l0 -0.65625l1.546875 -0.203125l0.390625 -2.921875q0.015625 -0.140625 0.109375 -0.21875q0.109375 -0.09375 0.265625 -0.09375l0.84375 0l0 3.25l2.703125 0l0 1.203125l-2.703125 0l0 5.671875q0 0.59375 0.28125 0.890625q0.296875 0.28125 0.75 0.28125q0.265625 0 0.453125 -0.0625q0.203125 -0.078125 0.328125 -0.15625q0.140625 -0.078125 0.234375 -0.140625q0.109375 -0.078125 0.1875 -0.078125q0.125 0 0.234375 0.15625l0.484375 0.796875q-0.4375 0.390625 -1.046875 0.625q-0.59375 0.234375 -1.25 0.234375zm5.9431763 -9.609375l0 9.453125l-1.65625 0l0 -9.453125l1.65625 0zm0.375 -2.96875q0 0.25 -0.09375 0.46875q-0.09375 0.203125 -0.265625 0.375q-0.15625 0.15625 -0.375 0.25q-0.21875 0.09375 -0.453125 0.09375q-0.25 0 -0.46875 -0.09375q-0.203125 -0.09375 -0.359375 -0.25q-0.15625 -0.171875 -0.25 -0.375q-0.09375 -0.21875 -0.09375 -0.46875q0 -0.234375 0.09375 -0.453125q0.09375 -0.21875 0.25 -0.375q0.15625 -0.171875 0.359375 -0.265625q0.21875 -0.09375 0.46875 -0.09375q0.234375 0 0.453125 0.09375q0.21875 0.09375 0.375 0.265625q0.171875 0.15625 0.265625 0.375q0.09375 0.21875 0.09375 0.453125zm6.385376 2.828125q1.03125 0 1.859375 0.34375q0.84375 0.34375 1.421875 0.984375q0.59375 0.625 0.90625 1.53125q0.3125 0.890625 0.3125 2.0q0 1.125 -0.3125 2.03125q-0.3125 0.890625 -0.90625 1.53125q-0.578125 0.625 -1.421875 0.96875q-0.828125 0.328125 -1.859375 0.328125q-1.03125 0 -1.875 -0.328125q-0.828125 -0.34375 -1.421875 -0.96875q-0.578125 -0.640625 -0.90625 -1.53125q-0.3125 -0.90625 -0.3125 -2.03125q0 -1.109375 0.3125 -2.0q0.328125 -0.90625 0.90625 -1.53125q0.59375 -0.640625 1.421875 -0.984375q0.84375 -0.34375 1.875 -0.34375zm0 8.421875q1.390625 0 2.078125 -0.9375q0.703125 -0.9375 0.703125 -2.609375q0 -1.6875 -0.703125 -2.625q-0.6875 -0.953125 -2.078125 -0.953125q-0.703125 0 -1.234375 0.25q-0.515625 0.234375 -0.875 0.703125q-0.34375 0.453125 -0.515625 1.125q-0.171875 0.65625 -0.171875 1.5q0 0.84375 0.171875 1.5q0.171875 0.65625 0.515625 1.109375q0.359375 0.453125 0.875 0.703125q0.53125 0.234375 1.234375 0.234375zm6.544739 1.171875l0 -9.453125l0.984375 0q0.359375 0 0.453125 0.34375l0.125 1.03125q0.625 -0.6875 1.375 -1.09375q0.765625 -0.421875 1.765625 -0.421875q0.78125 0 1.359375 0.265625q0.59375 0.25 0.984375 0.71875q0.40625 0.46875 0.609375 1.140625q0.203125 0.65625 0.203125 1.453125l0 6.015625l-1.65625 0l0 -6.015625q0 -1.078125 -0.5 -1.671875q-0.484375 -0.59375 -1.484375 -0.59375q-0.734375 0 -1.375 0.359375q-0.640625 0.359375 -1.1875 0.96875l0 6.953125l-1.65625 0zm18.223572 -13.515625q0.84375 0 1.578125 0.25q0.734375 0.25 1.265625 0.734375q0.546875 0.484375 0.859375 1.171875q0.3125 0.6875 0.3125 1.5625q0 0.75 -0.234375 1.390625q-0.21875 0.625 -0.609375 1.21875q-0.375 0.578125 -0.875 1.125q-0.5 0.546875 -1.0625 1.109375l-3.515625 3.59375q0.375 -0.09375 0.75 -0.15625q0.390625 -0.0625 0.75 -0.0625l4.46875 0q0.28125 0 0.4375 0.15625q0.15625 0.15625 0.15625 0.421875l0 1.0l-8.921875 0l0 -0.5625q0 -0.1875 0.0625 -0.375q0.078125 -0.1875 0.234375 -0.34375l4.28125 -4.296875q0.53125 -0.546875 0.96875 -1.046875q0.4375 -0.5 0.75 -1.0q0.3125 -0.5 0.484375 -1.015625q0.171875 -0.515625 0.171875 -1.109375q0 -0.578125 -0.1875 -1.015625q-0.1875 -0.453125 -0.515625 -0.734375q-0.328125 -0.296875 -0.765625 -0.4375q-0.4375 -0.15625 -0.9375 -0.15625q-0.5 0 -0.9375 0.15625q-0.421875 0.140625 -0.765625 0.40625q-0.328125 0.265625 -0.5625 0.640625q-0.21875 0.359375 -0.3125 0.796875q-0.078125 0.265625 -0.234375 0.390625q-0.140625 0.125 -0.375 0.125q-0.046875 0 -0.109375 0q-0.046875 -0.015625 -0.109375 -0.015625l-0.875 -0.15625q0.140625 -0.90625 0.515625 -1.609375q0.375 -0.71875 0.9375 -1.1875q0.578125 -0.46875 1.3125 -0.71875q0.75 -0.25 1.609375 -0.25zm17.836243 13.515625l-1.40625 0q-0.234375 0 -0.390625 -0.125q-0.140625 -0.125 -0.21875 -0.296875l-1.25 -3.234375l-6.0 0l-1.25 3.234375q-0.0625 0.15625 -0.234375 0.296875q-0.15625 0.125 -0.375 0.125l-1.40625 0l5.34375 -13.375l1.84375 0l5.34375 13.375zm-8.765625 -4.96875l5.0 0l-2.109375 -5.4375q-0.203125 -0.5 -0.390625 -1.25q-0.109375 0.375 -0.21875 0.703125q-0.09375 0.3125 -0.1875 0.5625l-2.09375 5.421875z" fill-rule="nonzero"/><path fill="#fff2cc" d="m509.46326 392.5761l108.97638 0l0 56.15747l-108.97638 0z" fill-rule="evenodd"/><path stroke="#980000" stroke-width="3.0" stroke-linejoin="round" stroke-linecap="butt" d="m509.46326 392.5761l108.97638 0l0 56.15747l-108.97638 0z" fill-rule="evenodd"/><path fill="#000000" d="m535.9035 420.90298q0 1.5 -0.46875 2.75q-0.46875 1.25 -1.34375 2.15625q-0.859375 0.90625 -2.078125 1.40625q-1.21875 0.5 -2.703125 0.5q-1.46875 0 -2.6875 -0.5q-1.203125 -0.5 -2.078125 -1.40625q-0.859375 -0.90625 -1.34375 -2.15625q-0.46875 -1.25 -0.46875 -2.75q0 -1.515625 0.46875 -2.765625q0.484375 -1.25 1.34375 -2.15625q0.875 -0.921875 2.078125 -1.421875q1.21875 -0.5 2.6875 -0.5q1.484375 0 2.703125 0.5q1.21875 0.5 2.078125 1.421875q0.875 0.90625 1.34375 2.15625q0.46875 1.25 0.46875 2.765625zm-1.84375 0q0 -1.234375 -0.34375 -2.21875q-0.328125 -0.984375 -0.953125 -1.65625q-0.609375 -0.671875 -1.484375 -1.03125q-0.875 -0.375 -1.96875 -0.375q-1.0625 0 -1.9375 0.375q-0.875 0.359375 -1.5 1.03125q-0.625 0.671875 -0.96875 1.65625q-0.328125 0.984375 -0.328125 2.21875q0 1.21875 0.328125 2.203125q0.34375 0.96875 0.96875 1.65625q0.625 0.671875 1.5 1.03125q0.875 0.359375 1.9375 0.359375q1.09375 0 1.96875 -0.359375q0.875 -0.359375 1.484375 -1.03125q0.625 -0.6875 0.953125 -1.65625q0.34375 -0.984375 0.34375 -2.203125zm4.0595703 9.875l0 -12.65625l0.984375 0q0.359375 0 0.453125 0.34375l0.140625 1.125q0.609375 -0.734375 1.390625 -1.1875q0.78125 -0.453125 1.796875 -0.453125q0.8125 0 1.46875 0.3125q0.65625 0.3125 1.125 0.9375q0.46875 0.609375 0.71875 1.515625q0.25 0.90625 0.25 2.078125q0 1.046875 -0.28125 1.953125q-0.28125 0.890625 -0.796875 1.546875q-0.515625 0.65625 -1.28125 1.03125q-0.765625 0.375 -1.71875 0.375q-0.875 0 -1.5 -0.28125q-0.609375 -0.296875 -1.09375 -0.828125l0 4.1875l-1.65625 0zm4.203125 -11.484375q-0.8125 0 -1.421875 0.375q-0.609375 0.375 -1.125 1.0625l0 4.5625q0.46875 0.625 1.015625 0.875q0.546875 0.25 1.21875 0.25q1.3125 0 2.015625 -0.9375q0.703125 -0.953125 0.703125 -2.6875q0 -0.921875 -0.15625 -1.578125q-0.15625 -0.671875 -0.46875 -1.09375q-0.3125 -0.421875 -0.765625 -0.625q-0.4375 -0.203125 -1.015625 -0.203125zm8.954468 8.4375q-1.109375 0 -1.71875 -0.625q-0.59375 -0.625 -0.59375 -1.8125l0 -5.78125l-1.140625 0q-0.15625 0 -0.265625 -0.078125q-0.09375 -0.09375 -0.09375 -0.28125l0 -0.65625l1.546875 -0.203125l0.390625 -2.921875q0.015625 -0.140625 0.109375 -0.21875q0.109375 -0.09375 0.265625 -0.09375l0.84375 0l0 3.25l2.703125 0l0 1.203125l-2.703125 0l0 5.671875q0 0.59375 0.28125 0.890625q0.296875 0.28125 0.75 0.28125q0.265625 0 0.453125 -0.0625q0.203125 -0.078125 0.328125 -0.15625q0.140625 -0.078125 0.234375 -0.140625q0.109375 -0.078125 0.1875 -0.078125q0.125 0 0.234375 0.15625l0.484375 0.796875q-0.4375 0.390625 -1.046875 0.625q-0.59375 0.234375 -1.25 0.234375zm5.9431763 -9.609375l0 9.453125l-1.65625 0l0 -9.453125l1.65625 0zm0.375 -2.96875q0 0.25 -0.09375 0.46875q-0.09375 0.203125 -0.265625 0.375q-0.15625 0.15625 -0.375 0.25q-0.21875 0.09375 -0.453125 0.09375q-0.25 0 -0.46875 -0.09375q-0.203125 -0.09375 -0.359375 -0.25q-0.15625 -0.171875 -0.25 -0.375q-0.09375 -0.21875 -0.09375 -0.46875q0 -0.234375 0.09375 -0.453125q0.09375 -0.21875 0.25 -0.375q0.15625 -0.171875 0.359375 -0.265625q0.21875 -0.09375 0.46875 -0.09375q0.234375 0 0.453125 0.09375q0.21875 0.09375 0.375 0.265625q0.171875 0.15625 0.265625 0.375q0.09375 0.21875 0.09375 0.453125zm6.385376 2.828125q1.03125 0 1.859375 0.34375q0.84375 0.34375 1.421875 0.984375q0.59375 0.625 0.90625 1.53125q0.3125 0.890625 0.3125 2.0q0 1.125 -0.3125 2.03125q-0.3125 0.890625 -0.90625 1.53125q-0.578125 0.625 -1.421875 0.96875q-0.828125 0.328125 -1.859375 0.328125q-1.03125 0 -1.875 -0.328125q-0.828125 -0.34375 -1.421875 -0.96875q-0.578125 -0.640625 -0.90625 -1.53125q-0.3125 -0.90625 -0.3125 -2.03125q0 -1.109375 0.3125 -2.0q0.328125 -0.90625 0.90625 -1.53125q0.59375 -0.640625 1.421875 -0.984375q0.84375 -0.34375 1.875 -0.34375zm0 8.421875q1.390625 0 2.078125 -0.9375q0.703125 -0.9375 0.703125 -2.609375q0 -1.6875 -0.703125 -2.625q-0.6875 -0.953125 -2.078125 -0.953125q-0.703125 0 -1.234375 0.25q-0.515625 0.234375 -0.875 0.703125q-0.34375 0.453125 -0.515625 1.125q-0.171875 0.65625 -0.171875 1.5q0 0.84375 0.171875 1.5q0.171875 0.65625 0.515625 1.109375q0.359375 0.453125 0.875 0.703125q0.53125 0.234375 1.234375 0.234375zm6.544739 1.171875l0 -9.453125l0.984375 0q0.359375 0 0.453125 0.34375l0.125 1.03125q0.625 -0.6875 1.375 -1.09375q0.765625 -0.421875 1.765625 -0.421875q0.78125 0 1.359375 0.265625q0.59375 0.25 0.984375 0.71875q0.40625 0.46875 0.609375 1.140625q0.203125 0.65625 0.203125 1.453125l0 6.015625l-1.65625 0l0 -6.015625q0 -1.078125 -0.5 -1.671875q-0.484375 -0.59375 -1.484375 -0.59375q-0.734375 0 -1.375 0.359375q-0.640625 0.359375 -1.1875 0.96875l0 6.953125l-1.65625 0zm18.223572 -13.515625q0.84375 0 1.578125 0.25q0.734375 0.25 1.265625 0.734375q0.546875 0.484375 0.859375 1.171875q0.3125 0.6875 0.3125 1.5625q0 0.75 -0.234375 1.390625q-0.21875 0.625 -0.609375 1.21875q-0.375 0.578125 -0.875 1.125q-0.5 0.546875 -1.0625 1.109375l-3.515625 3.59375q0.375 -0.09375 0.75 -0.15625q0.390625 -0.0625 0.75 -0.0625l4.46875 0q0.28125 0 0.4375 0.15625q0.15625 0.15625 0.15625 0.421875l0 1.0l-8.921875 0l0 -0.5625q0 -0.1875 0.0625 -0.375q0.078125 -0.1875 0.234375 -0.34375l4.28125 -4.296875q0.53125 -0.546875 0.96875 -1.046875q0.4375 -0.5 0.75 -1.0q0.3125 -0.5 0.484375 -1.015625q0.171875 -0.515625 0.171875 -1.109375q0 -0.578125 -0.1875 -1.015625q-0.1875 -0.453125 -0.515625 -0.734375q-0.328125 -0.296875 -0.765625 -0.4375q-0.4375 -0.15625 -0.9375 -0.15625q-0.5 0 -0.9375 0.15625q-0.421875 0.140625 -0.765625 0.40625q-0.328125 0.265625 -0.5625 0.640625q-0.21875 0.359375 -0.3125 0.796875q-0.078125 0.265625 -0.234375 0.390625q-0.140625 0.125 -0.375 0.125q-0.046875 0 -0.109375 0q-0.046875 -0.015625 -0.109375 -0.015625l-0.875 -0.15625q0.140625 -0.90625 0.515625 -1.609375q0.375 -0.71875 0.9375 -1.1875q0.578125 -0.46875 1.3125 -0.71875q0.75 -0.25 1.609375 -0.25zm6.8362427 13.515625l0 -13.375l4.265625 0q1.234375 0 2.125 0.25q0.890625 0.25 1.453125 0.703125q0.578125 0.4375 0.84375 1.09375q0.28125 0.640625 0.28125 1.453125q0 0.484375 -0.15625 0.953125q-0.15625 0.453125 -0.46875 0.84375q-0.3125 0.390625 -0.78125 0.703125q-0.46875 0.296875 -1.09375 0.5q1.453125 0.296875 2.203125 1.0625q0.75 0.75 0.75 2.0q0 0.859375 -0.3125 1.5625q-0.3125 0.6875 -0.921875 1.203125q-0.59375 0.5 -1.46875 0.78125q-0.875 0.265625 -1.984375 0.265625l-4.734375 0zm1.8125 -6.09375l0 4.65625l2.890625 0q0.765625 0 1.3125 -0.171875q0.5625 -0.1875 0.921875 -0.5q0.359375 -0.328125 0.53125 -0.765625q0.171875 -0.453125 0.171875 -0.984375q0 -1.03125 -0.734375 -1.625q-0.734375 -0.609375 -2.21875 -0.609375l-2.875 0zm0 -1.28125l2.390625 0q0.75 0 1.3125 -0.171875q0.5625 -0.171875 0.921875 -0.46875q0.375 -0.296875 0.546875 -0.71875q0.1875 -0.421875 0.1875 -0.921875q0 -1.1875 -0.71875 -1.734375q-0.703125 -0.546875 -2.1875 -0.546875l-2.453125 0l0 4.5625z" fill-rule="nonzero"/><path fill="#000000" fill-opacity="0.0" d="m344.01706 96.92388l165.44882 -33.73228" fill-rule="evenodd"/><path stroke="#c9daf8" stroke-width="3.0" stroke-linejoin="round" stroke-linecap="butt" d="m344.01706 96.92388l147.81168 -30.13636" fill-rule="evenodd"/><path fill="#c9daf8" stroke="#c9daf8" stroke-width="3.0" stroke-linecap="butt" d="m492.81863 71.64284l12.349945 -7.5750885l-14.329773 -2.1355324z" fill-rule="evenodd"/><path fill="#000000" fill-opacity="0.0" d="m344.01706 96.92388l165.44882 33.732292" fill-rule="evenodd"/><path stroke="#fff2cc" stroke-width="3.0" stroke-linejoin="round" stroke-linecap="butt" d="m344.01706 96.92388l147.81168 30.13636" fill-rule="evenodd"/><path fill="#fff2cc" stroke="#fff2cc" stroke-width="3.0" stroke-linecap="butt" d="m490.8388 131.91556l14.329773 -2.1355438l-12.349945 -7.575081z" fill-rule="evenodd"/><path fill="#000000" fill-opacity="0.0" d="m344.01706 241.92126l165.44882 -32.850403" fill-rule="evenodd"/><path stroke="#c9daf8" stroke-width="3.0" stroke-linejoin="round" stroke-linecap="butt" d="m344.01706 241.92126l147.79346 -29.34488" fill-rule="evenodd"/><path fill="#c9daf8" stroke="#c9daf8" stroke-width="3.0" stroke-linecap="butt" d="m492.77557 217.4367l12.38858 -7.5117188l-14.318665 -2.208908z" fill-rule="evenodd"/><path fill="#000000" fill-opacity="0.0" d="m344.01706 241.92126l165.44882 34.614166" fill-rule="evenodd"/><path stroke="#fff2cc" stroke-width="3.0" stroke-linejoin="round" stroke-linecap="butt" d="m344.01706 241.92126l147.83026 30.928131" fill-rule="evenodd"/><path fill="#fff2cc" stroke="#fff2cc" stroke-width="3.0" stroke-linecap="butt" d="m490.8326 277.6996l14.340515 -2.0622559l-12.311066 -7.6381226z" fill-rule="evenodd"/><path fill="#000000" fill-opacity="0.0" d="m344.01706 386.91864l165.44882 -33.7323" fill-rule="evenodd"/><path stroke="#c9daf8" stroke-width="3.0" stroke-linejoin="round" stroke-linecap="butt" d="m344.01706 386.91864l147.81168 -30.136353" fill-rule="evenodd"/><path fill="#c9daf8" stroke="#c9daf8" stroke-width="3.0" stroke-linecap="butt" d="m492.81863 361.63757l12.349945 -7.5750732l-14.329773 -2.1355286z" fill-rule="evenodd"/><path fill="#000000" fill-opacity="0.0" d="m344.01706 386.91864l165.44882 33.73227" fill-rule="evenodd"/><path stroke="#fff2cc" stroke-width="3.0" stroke-linejoin="round" stroke-linecap="butt" d="m344.01706 386.91864l147.81168 30.136353" fill-rule="evenodd"/><path fill="#fff2cc" stroke="#fff2cc" stroke-width="3.0" stroke-linecap="butt" d="m490.8388 421.9103l14.329773 -2.1355286l-12.349945 -7.5751038z" fill-rule="evenodd"/><path fill="#000000" fill-opacity="0.0" d="m703.48553 44.876823l0 0c0 -5.0561867 4.098877 -9.155037 9.15509 -9.155037l100.587524 0c2.4281006 0 4.756714 0.9645424 6.473633 2.681446c1.7168579 1.7169037 2.6813965 4.0455246 2.6813965 6.473591l0 36.619057c0 5.0561905 -4.098816 9.155037 -9.155029 9.155037l-100.587524 0c-5.0562134 0 -9.15509 -4.0988464 -9.15509 -9.155037z" fill-rule="evenodd"/><path stroke="#000000" stroke-width="1.0" stroke-linejoin="round" stroke-linecap="butt" d="m703.48553 44.876823l0 0c0 -5.0561867 4.098877 -9.155037 9.15509 -9.155037l100.587524 0c2.4281006 0 4.756714 0.9645424 6.473633 2.681446c1.7168579 1.7169037 2.6813965 4.0455246 2.6813965 6.473591l0 36.619057c0 5.0561905 -4.098816 9.155037 -9.155029 9.155037l-100.587524 0c-5.0562134 0 -9.15509 -4.0988464 -9.15509 -9.155037z" fill-rule="evenodd"/><path fill="#000000" d="m755.7879 75.46635l-2.59375 0q-0.453125 0 -0.734375 -0.21875q-0.265625 -0.234375 -0.40625 -0.578125l-2.328125 -6.0l-11.140625 0l-2.3125 6.0q-0.125 0.3125 -0.421875 0.5625q-0.296875 0.234375 -0.734375 0.234375l-2.59375 0l9.9375 -24.828121l3.40625 0l9.921875 24.828121zm-16.265625 -9.21875l9.265625 0l-3.890625 -10.109371q-0.375 -0.921875 -0.75 -2.328125q-0.1875 0.703125 -0.375 1.3125q-0.171875 0.59375 -0.34375 1.046875l-3.90625 10.078121zm18.019287 7.09375q0 -0.40625 0.140625 -0.75q0.15625 -0.359375 0.421875 -0.625q0.265625 -0.28125 0.640625 -0.4375q0.390625 -0.15625 0.84375 -0.15625q0.515625 0 0.921875 0.203125q0.40625 0.1875 0.671875 0.53125q0.28125 0.328125 0.421875 0.765625q0.140625 0.4375 0.140625 0.96875q0 0.78125 -0.234375 1.625q-0.21875 0.828125 -0.640625 1.65625q-0.40625 0.828125 -1.03125 1.59375q-0.609375 0.78125 -1.390625 1.453125l-0.515625 -0.515625q-0.234375 -0.203125 -0.234375 -0.484375q0 -0.21875 0.25 -0.46875q0.171875 -0.1875 0.4375 -0.515625q0.265625 -0.3125 0.546875 -0.734375q0.28125 -0.40625 0.515625 -0.90625q0.234375 -0.5 0.328125 -1.078125l-0.21875 0q-0.453125 0 -0.828125 -0.15625q-0.359375 -0.15625 -0.625 -0.4375q-0.265625 -0.296875 -0.421875 -0.671875q-0.140625 -0.390625 -0.140625 -0.859375zm35.848145 2.125l-2.59375 0q-0.453125 0 -0.734375 -0.21875q-0.265625 -0.234375 -0.40625 -0.578125l-2.328125 -6.0l-11.140625 0l-2.3125 6.0q-0.125 0.3125 -0.421875 0.5625q-0.296875 0.234375 -0.734375 0.234375l-2.59375 0l9.9375 -24.828121l3.40625 0l9.921875 24.828121zm-16.265625 -9.21875l9.265625 0l-3.890625 -10.109371q-0.375 -0.921875 -0.75 -2.328125q-0.1875 0.703125 -0.375 1.3125q-0.171875 0.59375 -0.34375 1.046875l-3.90625 10.078121z" fill-rule="nonzero"/><path fill="#000000" fill-opacity="0.0" d="m703.48553 112.349266l0 0c0 -5.0561905 4.098877 -9.155037 9.15509 -9.155037l100.587524 0c2.4281006 0 4.756714 0.9645462 6.473633 2.6814423c1.7168579 1.7169037 2.6813965 4.0455246 2.6813965 6.4735947l0 36.619057c0 5.056183 -4.098816 9.155029 -9.155029 9.155029l-100.587524 0c-5.0562134 0 -9.15509 -4.0988464 -9.15509 -9.155029z" fill-rule="evenodd"/><path stroke="#000000" stroke-width="1.0" stroke-linejoin="round" stroke-linecap="butt" d="m703.48553 112.349266l0 0c0 -5.0561905 4.098877 -9.155037 9.15509 -9.155037l100.587524 0c2.4281006 0 4.756714 0.9645462 6.473633 2.6814423c1.7168579 1.7169037 2.6813965 4.0455246 2.6813965 6.4735947l0 36.619057c0 5.056183 -4.098816 9.155029 -9.155029 9.155029l-100.587524 0c-5.0562134 0 -9.15509 -4.0988464 -9.15509 -9.155029z" fill-rule="evenodd"/><path fill="#000000" d="m756.35974 142.9388l-2.59375 0q-0.453125 0 -0.734375 -0.21875q-0.265625 -0.234375 -0.40625 -0.578125l-2.328125 -6.0l-11.140625 0l-2.3125 6.0q-0.125 0.3125 -0.421875 0.5625q-0.296875 0.234375 -0.734375 0.234375l-2.59375 0l9.9375 -24.828133l3.40625 0l9.921875 24.828133zm-16.265625 -9.21875l9.265625 0l-3.890625 -10.109383q-0.375 -0.921875 -0.75 -2.328125q-0.1875 0.703125 -0.375 1.3125q-0.171875 0.59375 -0.34375 1.046875l-3.90625 10.078133zm18.019226 7.09375q0 -0.40625 0.140625 -0.75q0.15625 -0.359375 0.421875 -0.625q0.265625 -0.28125 0.640625 -0.4375q0.390625 -0.15625 0.84375 -0.15625q0.515625 0 0.921875 0.203125q0.40625 0.1875 0.671875 0.53125q0.28125 0.328125 0.421875 0.765625q0.140625 0.4375 0.140625 0.96875q0 0.78125 -0.234375 1.625q-0.21875 0.828125 -0.640625 1.65625q-0.40625 0.828125 -1.03125 1.59375q-0.609375 0.78125 -1.390625 1.453125l-0.515625 -0.515625q-0.234375 -0.203125 -0.234375 -0.484375q0 -0.21875 0.25 -0.46875q0.171875 -0.1875 0.4375 -0.515625q0.265625 -0.3125 0.546875 -0.734375q0.28125 -0.40625 0.515625 -0.90625q0.234375 -0.5 0.328125 -1.078125l-0.21875 0q-0.453125 0 -0.828125 -0.15625q-0.359375 -0.15625 -0.625 -0.4375q-0.265625 -0.296875 -0.421875 -0.671875q-0.140625 -0.390625 -0.140625 -0.859375zm15.426331 2.125l0 -24.828133l7.921875 0q2.28125 0 3.9375 0.453125q1.65625 0.4375 2.71875 1.28125q1.0625 0.828125 1.578125 2.03125q0.515625 1.203125 0.515625 2.71875q0 0.90625 -0.296875 1.765625q-0.28125 0.84375 -0.859375 1.578125q-0.578125 0.7187576 -1.453125 1.2968826q-0.875 0.5625 -2.0625 0.9375q2.734375 0.53125 4.109375 1.953125q1.390625 1.421875 1.390625 3.75q0 1.5625 -0.578125 2.875q-0.578125 1.296875 -1.703125 2.234375q-1.109375 0.9375 -2.734375 1.453125q-1.625 0.5 -3.703125 0.5l-8.78125 0zm3.359375 -11.3125l0 8.640625l5.375 0q1.4375 0 2.46875 -0.328125q1.03125 -0.328125 1.6875 -0.921875q0.671875 -0.59375 0.984375 -1.421875q0.3125 -0.828125 0.3125 -1.8125q0 -1.921875 -1.359375 -3.03125q-1.359375 -1.125 -4.109375 -1.125l-5.359375 0zm0 -2.390625l4.4375 0q1.421875 0 2.453125 -0.3125q1.046875 -0.3125 1.734375 -0.859375q0.6875 -0.5625076 1.015625 -1.3437576q0.328125 -0.796875 0.328125 -1.734375q0 -2.1875 -1.328125 -3.203125q-1.3125 -1.03125 -4.078125 -1.03125l-4.5625 0l0 8.484383z" fill-rule="nonzero"/><path fill="#000000" fill-opacity="0.0" d="m703.48553 190.75084l0 0c0 -5.056183 4.098877 -9.155045 9.15509 -9.155045l100.587524 0c2.4281006 0 4.756714 0.96455383 6.473633 2.6814575c1.7168579 1.7169037 2.6813965 4.045517 2.6813965 6.473587l0 36.61905c0 5.056198 -4.098816 9.155045 -9.155029 9.155045l-100.587524 0c-5.0562134 0 -9.15509 -4.0988464 -9.15509 -9.155045z" fill-rule="evenodd"/><path stroke="#000000" stroke-width="1.0" stroke-linejoin="round" stroke-linecap="butt" d="m703.48553 190.75084l0 0c0 -5.056183 4.098877 -9.155045 9.15509 -9.155045l100.587524 0c2.4281006 0 4.756714 0.96455383 6.473633 2.6814575c1.7168579 1.7169037 2.6813965 4.045517 2.6813965 6.473587l0 36.61905c0 5.056198 -4.098816 9.155045 -9.155029 9.155045l-100.587524 0c-5.0562134 0 -9.15509 -4.0988464 -9.15509 -9.155045z" fill-rule="evenodd"/><path fill="#000000" d="m735.93787 221.34036l0 -24.828125l7.921875 0q2.28125 0 3.9375 0.453125q1.65625 0.4375 2.71875 1.28125q1.0625 0.828125 1.578125 2.03125q0.515625 1.203125 0.515625 2.71875q0 0.90625 -0.296875 1.765625q-0.28125 0.84375 -0.859375 1.578125q-0.578125 0.71875 -1.453125 1.296875q-0.875 0.5625 -2.0625 0.9375q2.734375 0.53125 4.109375 1.953125q1.390625 1.421875 1.390625 3.75q0 1.5625 -0.578125 2.875q-0.578125 1.296875 -1.703125 2.234375q-1.109375 0.9375 -2.734375 1.453125q-1.625 0.5 -3.703125 0.5l-8.78125 0zm3.359375 -11.3125l0 8.640625l5.375 0q1.4375 0 2.46875 -0.328125q1.03125 -0.328125 1.6875 -0.921875q0.671875 -0.59375 0.984375 -1.421875q0.3125 -0.828125 0.3125 -1.8125q0 -1.921875 -1.359375 -3.03125q-1.359375 -1.125 -4.109375 -1.125l-5.359375 0zm0 -2.390625l4.4375 0q1.421875 0 2.453125 -0.3125q1.046875 -0.3125 1.734375 -0.859375q0.6875 -0.5625 1.015625 -1.34375q0.328125 -0.796875 0.328125 -1.734375q0 -2.1875 -1.328125 -3.203125q-1.3125 -1.03125 -4.078125 -1.03125l-4.5625 0l0 8.484375zm17.672485 11.578125q0 -0.40625 0.140625 -0.75q0.15625 -0.359375 0.421875 -0.625q0.265625 -0.28125 0.640625 -0.4375q0.390625 -0.15625 0.84375 -0.15625q0.515625 0 0.921875 0.203125q0.40625 0.1875 0.671875 0.53125q0.28125 0.328125 0.421875 0.765625q0.140625 0.4375 0.140625 0.96875q0 0.78125 -0.234375 1.625q-0.21875 0.828125 -0.640625 1.65625q-0.40625 0.828125 -1.03125 1.59375q-0.609375 0.78125 -1.390625 1.453125l-0.515625 -0.515625q-0.234375 -0.203125 -0.234375 -0.484375q0 -0.21875 0.25 -0.46875q0.171875 -0.1875 0.4375 -0.515625q0.265625 -0.3125 0.546875 -0.734375q0.28125 -0.40625 0.515625 -0.90625q0.234375 -0.5 0.328125 -1.078125l-0.21875 0q-0.453125 0 -0.828125 -0.15625q-0.359375 -0.15625 -0.625 -0.4375q-0.265625 -0.296875 -0.421875 -0.671875q-0.140625 -0.390625 -0.140625 -0.859375zm35.848206 2.125l-2.59375 0q-0.453125 0 -0.734375 -0.21875q-0.265625 -0.234375 -0.40625 -0.578125l-2.328125 -6.0l-11.140625 0l-2.3125 6.0q-0.125 0.3125 -0.421875 0.5625q-0.296875 0.234375 -0.734375 0.234375l-2.59375 0l9.9375 -24.828125l3.40625 0l9.921875 24.828125zm-16.265625 -9.21875l9.265625 0l-3.890625 -10.109375q-0.375 -0.921875 -0.75 -2.328125q-0.1875 0.703125 -0.375 1.3125q-0.171875 0.59375 -0.34375 1.046875l-3.90625 10.078125z" fill-rule="nonzero"/><path fill="#000000" fill-opacity="0.0" d="m703.48553 258.22327l0 0c0 -5.0561676 4.098877 -9.155029 9.15509 -9.155029l100.587524 0c2.4281006 0 4.756714 0.96455383 6.473633 2.6814575c1.7168579 1.7169037 2.6813965 4.045517 2.6813965 6.473572l0 36.61908c0 5.056183 -4.098816 9.155029 -9.155029 9.155029l-100.587524 0c-5.0562134 0 -9.15509 -4.0988464 -9.15509 -9.155029z" fill-rule="evenodd"/><path stroke="#000000" stroke-width="1.0" stroke-linejoin="round" stroke-linecap="butt" d="m703.48553 258.22327l0 0c0 -5.0561676 4.098877 -9.155029 9.15509 -9.155029l100.587524 0c2.4281006 0 4.756714 0.96455383 6.473633 2.6814575c1.7168579 1.7169037 2.6813965 4.045517 2.6813965 6.473572l0 36.61908c0 5.056183 -4.098816 9.155029 -9.155029 9.155029l-100.587524 0c-5.0562134 0 -9.15509 -4.0988464 -9.15509 -9.155029z" fill-rule="evenodd"/><path fill="#000000" d="m736.5097 288.8128l0 -24.828125l7.921875 0q2.28125 0 3.9375 0.453125q1.65625 0.4375 2.71875 1.28125q1.0625 0.828125 1.578125 2.03125q0.515625 1.203125 0.515625 2.71875q0 0.90625 -0.296875 1.765625q-0.28125 0.84375 -0.859375 1.578125q-0.578125 0.71875 -1.453125 1.296875q-0.875 0.5625 -2.0625 0.9375q2.734375 0.53125 4.109375 1.953125q1.390625 1.421875 1.390625 3.75q0 1.5625 -0.578125 2.875q-0.578125 1.296875 -1.703125 2.234375q-1.109375 0.9375 -2.734375 1.453125q-1.625 0.5 -3.703125 0.5l-8.78125 0zm3.359375 -11.3125l0 8.640625l5.375 0q1.4375 0 2.46875 -0.328125q1.03125 -0.328125 1.6875 -0.921875q0.671875 -0.59375 0.984375 -1.421875q0.3125 -0.828125 0.3125 -1.8125q0 -1.921875 -1.359375 -3.03125q-1.359375 -1.125 -4.109375 -1.125l-5.359375 0zm0 -2.390625l4.4375 0q1.421875 0 2.453125 -0.3125q1.046875 -0.3125 1.734375 -0.859375q0.6875 -0.5625 1.015625 -1.34375q0.328125 -0.796875 0.328125 -1.734375q0 -2.1875 -1.328125 -3.203125q-1.3125 -1.03125 -4.078125 -1.03125l-4.5625 0l0 8.484375zm17.672485 11.578125q0 -0.40625 0.140625 -0.75q0.15625 -0.359375 0.421875 -0.625q0.265625 -0.28125 0.640625 -0.4375q0.390625 -0.15625 0.84375 -0.15625q0.515625 0 0.921875 0.203125q0.40625 0.1875 0.671875 0.53125q0.28125 0.328125 0.421875 0.765625q0.140625 0.4375 0.140625 0.96875q0 0.78125 -0.234375 1.625q-0.21875 0.828125 -0.640625 1.65625q-0.40625 0.828125 -1.03125 1.59375q-0.609375 0.78125 -1.390625 1.453125l-0.515625 -0.515625q-0.234375 -0.203125 -0.234375 -0.484375q0 -0.21875 0.25 -0.46875q0.171875 -0.1875 0.4375 -0.515625q0.265625 -0.3125 0.546875 -0.734375q0.28125 -0.40625 0.515625 -0.90625q0.234375 -0.5 0.328125 -1.078125l-0.21875 0q-0.453125 0 -0.828125 -0.15625q-0.359375 -0.15625 -0.625 -0.4375q-0.265625 -0.296875 -0.421875 -0.671875q-0.140625 -0.390625 -0.140625 -0.859375zm15.42627 2.125l0 -24.828125l7.921875 0q2.28125 0 3.9375 0.453125q1.65625 0.4375 2.71875 1.28125q1.0625 0.828125 1.578125 2.03125q0.515625 1.203125 0.515625 2.71875q0 0.90625 -0.296875 1.765625q-0.28125 0.84375 -0.859375 1.578125q-0.578125 0.71875 -1.453125 1.296875q-0.875 0.5625 -2.0625 0.9375q2.734375 0.53125 4.109375 1.953125q1.390625 1.421875 1.390625 3.75q0 1.5625 -0.578125 2.875q-0.578125 1.296875 -1.703125 2.234375q-1.109375 0.9375 -2.734375 1.453125q-1.625 0.5 -3.703125 0.5l-8.78125 0zm3.359375 -11.3125l0 8.640625l5.375 0q1.4375 0 2.46875 -0.328125q1.03125 -0.328125 1.6875 -0.921875q0.671875 -0.59375 0.984375 -1.421875q0.3125 -0.828125 0.3125 -1.8125q0 -1.921875 -1.359375 -3.03125q-1.359375 -1.125 -4.109375 -1.125l-5.359375 0zm0 -2.390625l4.4375 0q1.421875 0 2.453125 -0.3125q1.046875 -0.3125 1.734375 -0.859375q0.6875 -0.5625 1.015625 -1.34375q0.328125 -0.796875 0.328125 -1.734375q0 -2.1875 -1.328125 -3.203125q-1.3125 -1.03125 -4.078125 -1.03125l-4.5625 0l0 8.484375z" fill-rule="nonzero"/><path fill="#000000" fill-opacity="0.0" d="m703.48553 334.8742l0 0c0 -5.056183 4.098877 -9.15506 9.15509 -9.15506l100.587524 0c2.4281006 0 4.756714 0.9645691 6.473633 2.6814575c1.7168579 1.716919 2.6813965 4.045532 2.6813965 6.4736023l0 36.61905c0 5.056183 -4.098816 9.155029 -9.155029 9.155029l-100.587524 0c-5.0562134 0 -9.15509 -4.0988464 -9.15509 -9.155029z" fill-rule="evenodd"/><path stroke="#000000" stroke-width="1.0" stroke-linejoin="round" stroke-linecap="butt" d="m703.48553 334.8742l0 0c0 -5.056183 4.098877 -9.15506 9.15509 -9.15506l100.587524 0c2.4281006 0 4.756714 0.9645691 6.473633 2.6814575c1.7168579 1.716919 2.6813965 4.045532 2.6813965 6.4736023l0 36.61905c0 5.056183 -4.098816 9.155029 -9.155029 9.155029l-100.587524 0c-5.0562134 0 -9.15509 -4.0988464 -9.15509 -9.155029z" fill-rule="evenodd"/><path fill="#000000" d="m752.7794 360.3387q0.28125 0 0.5 0.21875l1.3125 1.4375q-1.515625 1.765625 -3.6875 2.765625q-2.171875 0.984375 -5.25 0.984375q-2.6875 0 -4.875 -0.921875q-2.171875 -0.9375 -3.71875 -2.609375q-1.546875 -1.671875 -2.390625 -4.0q-0.84375 -2.34375 -0.84375 -5.15625q0 -2.8125 0.90625 -5.140625q0.90625 -2.34375 2.546875 -4.015625q1.65625 -1.6875 3.953125 -2.609375q2.296875 -0.9375 5.0625 -0.9375q2.75 0 4.71875 0.859375q1.984375 0.84375 3.53125 2.296875l-1.09375 1.546875q-0.109375 0.171875 -0.265625 0.28125q-0.15625 0.109375 -0.453125 0.109375q-0.234375 0 -0.484375 -0.15625q-0.25 -0.171875 -0.59375 -0.40625q-0.34375 -0.25 -0.8125 -0.515625q-0.46875 -0.28125 -1.109375 -0.53125q-0.640625 -0.25 -1.5 -0.40625q-0.84375 -0.171875 -1.953125 -0.171875q-1.984375 0 -3.640625 0.6875q-1.65625 0.6875 -2.859375 1.953125q-1.1875 1.265625 -1.859375 3.09375q-0.671875 1.8125 -0.671875 4.0625q0 2.328125 0.671875 4.140625q0.671875 1.8125 1.8125 3.078125q1.15625 1.25 2.734375 1.921875q1.578125 0.65625 3.40625 0.65625q1.109375 0 1.984375 -0.125q0.890625 -0.140625 1.640625 -0.421875q0.75 -0.28125 1.390625 -0.703125q0.65625 -0.421875 1.3125 -1.015625q0.296875 -0.25 0.578125 -0.25zm4.848755 3.0q0 -0.40625 0.140625 -0.75q0.15625 -0.359375 0.421875 -0.625q0.265625 -0.28125 0.640625 -0.4375q0.390625 -0.15625 0.84375 -0.15625q0.515625 0 0.921875 0.203125q0.40625 0.1875 0.671875 0.53125q0.28125 0.328125 0.421875 0.765625q0.140625 0.4375 0.140625 0.96875q0 0.78125 -0.234375 1.625q-0.21875 0.828125 -0.640625 1.65625q-0.40625 0.828125 -1.03125 1.59375q-0.609375 0.78125 -1.390625 1.453125l-0.515625 -0.515625q-0.234375 -0.203125 -0.234375 -0.484375q0 -0.21875 0.25 -0.46875q0.171875 -0.1875 0.4375 -0.515625q0.265625 -0.3125 0.546875 -0.734375q0.28125 -0.40625 0.515625 -0.90625q0.234375 -0.5 0.328125 -1.078125l-0.21875 0q-0.453125 0 -0.828125 -0.15625q-0.359375 -0.15625 -0.625 -0.4375q-0.265625 -0.296875 -0.421875 -0.671875q-0.140625 -0.390625 -0.140625 -0.859375zm35.848206 2.125l-2.59375 0q-0.453125 0 -0.734375 -0.21875q-0.265625 -0.234375 -0.40625 -0.578125l-2.328125 -6.0l-11.140625 0l-2.3125 6.0q-0.125 0.3125 -0.421875 0.5625q-0.296875 0.234375 -0.734375 0.234375l-2.59375 0l9.9375 -24.828125l3.40625 0l9.921875 24.828125zm-16.265625 -9.21875l9.265625 0l-3.890625 -10.109375q-0.375 -0.921875 -0.75 -2.328125q-0.1875 0.703125 -0.375 1.3125q-0.171875 0.59375 -0.34375 1.046875l-3.90625 10.078125z" fill-rule="nonzero"/><path fill="#000000" fill-opacity="0.0" d="m703.48553 402.34665l0 0c0 -5.056183 4.098877 -9.15506 9.15509 -9.15506l100.587524 0c2.4281006 0 4.756714 0.9645691 6.473633 2.6814575c1.7168579 1.716919 2.6813965 4.045532 2.6813965 6.4736023l0 36.61905c0 5.056183 -4.098816 9.155029 -9.155029 9.155029l-100.587524 0c-5.0562134 0 -9.15509 -4.0988464 -9.15509 -9.155029z" fill-rule="evenodd"/><path stroke="#000000" stroke-width="1.0" stroke-linejoin="round" stroke-linecap="butt" d="m703.48553 402.34665l0 0c0 -5.056183 4.098877 -9.15506 9.15509 -9.15506l100.587524 0c2.4281006 0 4.756714 0.9645691 6.473633 2.6814575c1.7168579 1.716919 2.6813965 4.045532 2.6813965 6.4736023l0 36.61905c0 5.056183 -4.098816 9.155029 -9.155029 9.155029l-100.587524 0c-5.0562134 0 -9.15509 -4.0988464 -9.15509 -9.155029z" fill-rule="evenodd"/><path fill="#000000" d="m753.35126 427.81116q0.28125 0 0.5 0.21875l1.3125 1.4375q-1.515625 1.765625 -3.6875 2.765625q-2.171875 0.984375 -5.25 0.984375q-2.6875 0 -4.875 -0.921875q-2.171875 -0.9375 -3.71875 -2.609375q-1.546875 -1.671875 -2.390625 -4.0q-0.84375 -2.34375 -0.84375 -5.15625q0 -2.8125 0.90625 -5.140625q0.90625 -2.34375 2.546875 -4.015625q1.65625 -1.6875 3.953125 -2.609375q2.296875 -0.9375 5.0625 -0.9375q2.75 0 4.71875 0.859375q1.984375 0.84375 3.53125 2.296875l-1.09375 1.546875q-0.109375 0.171875 -0.265625 0.28125q-0.15625 0.109375 -0.453125 0.109375q-0.234375 0 -0.484375 -0.15625q-0.25 -0.171875 -0.59375 -0.40625q-0.34375 -0.25 -0.8125 -0.515625q-0.46875 -0.28125 -1.109375 -0.53125q-0.640625 -0.25 -1.5 -0.40625q-0.84375 -0.171875 -1.953125 -0.171875q-1.984375 0 -3.640625 0.6875q-1.65625 0.6875 -2.859375 1.953125q-1.1875 1.265625 -1.859375 3.09375q-0.671875 1.8125 -0.671875 4.0625q0 2.328125 0.671875 4.140625q0.671875 1.8125 1.8125 3.078125q1.15625 1.25 2.734375 1.921875q1.578125 0.65625 3.40625 0.65625q1.109375 0 1.984375 -0.125q0.890625 -0.140625 1.640625 -0.421875q0.75 -0.28125 1.390625 -0.703125q0.65625 -0.421875 1.3125 -1.015625q0.296875 -0.25 0.578125 -0.25zm4.848755 3.0q0 -0.40625 0.140625 -0.75q0.15625 -0.359375 0.421875 -0.625q0.265625 -0.28125 0.640625 -0.4375q0.390625 -0.15625 0.84375 -0.15625q0.515625 0 0.921875 0.203125q0.40625 0.1875 0.671875 0.53125q0.28125 0.328125 0.421875 0.765625q0.140625 0.4375 0.140625 0.96875q0 0.78125 -0.234375 1.625q-0.21875 0.828125 -0.640625 1.65625q-0.40625 0.828125 -1.03125 1.59375q-0.609375 0.78125 -1.390625 1.453125l-0.515625 -0.515625q-0.234375 -0.203125 -0.234375 -0.484375q0 -0.21875 0.25 -0.46875q0.171875 -0.1875 0.4375 -0.515625q0.265625 -0.3125 0.546875 -0.734375q0.28125 -0.40625 0.515625 -0.90625q0.234375 -0.5 0.328125 -1.078125l-0.21875 0q-0.453125 0 -0.828125 -0.15625q-0.359375 -0.15625 -0.625 -0.4375q-0.265625 -0.296875 -0.421875 -0.671875q-0.140625 -0.390625 -0.140625 -0.859375zm15.426331 2.125l0 -24.828125l7.921875 0q2.28125 0 3.9375 0.453125q1.65625 0.4375 2.71875 1.28125q1.0625 0.828125 1.578125 2.03125q0.515625 1.203125 0.515625 2.71875q0 0.90625 -0.296875 1.765625q-0.28125 0.84375 -0.859375 1.578125q-0.578125 0.71875 -1.453125 1.296875q-0.875 0.5625 -2.0625 0.9375q2.734375 0.53125 4.109375 1.953125q1.390625 1.421875 1.390625 3.75q0 1.5625 -0.578125 2.875q-0.578125 1.296875 -1.703125 2.234375q-1.109375 0.9375 -2.734375 1.453125q-1.625 0.5 -3.703125 0.5l-8.78125 0zm3.359375 -11.3125l0 8.640625l5.375 0q1.4375 0 2.46875 -0.328125q1.03125 -0.328125 1.6875 -0.921875q0.671875 -0.59375 0.984375 -1.421875q0.3125 -0.828125 0.3125 -1.8125q0 -1.921875 -1.359375 -3.03125q-1.359375 -1.125 -4.109375 -1.125l-5.359375 0zm0 -2.390625l4.4375 0q1.421875 0 2.453125 -0.3125q1.046875 -0.3125 1.734375 -0.859375q0.6875 -0.5625 1.015625 -1.34375q0.328125 -0.796875 0.328125 -1.734375q0 -2.1875 -1.328125 -3.203125q-1.3125 -1.03125 -4.078125 -1.03125l-4.5625 0l0 8.484375z" fill-rule="nonzero"/><path fill="#000000" fill-opacity="0.0" d="m618.43964 63.18635l85.03937 0" fill-rule="evenodd"/><path stroke="#000000" stroke-width="1.0" stroke-linejoin="round" stroke-linecap="butt" d="m618.43964 63.18635l79.03937 0" fill-rule="evenodd"/><path fill="#000000" stroke="#000000" stroke-width="1.0" stroke-linecap="butt" d="m697.479 64.83808l4.538086 -1.6517296l-4.538086 -1.6517334z" fill-rule="evenodd"/><path fill="#000000" fill-opacity="0.0" d="m618.43964 130.6588l85.03937 0" fill-rule="evenodd"/><path stroke="#000000" stroke-width="1.0" stroke-linejoin="round" stroke-linecap="butt" d="m618.43964 130.6588l79.03937 0" fill-rule="evenodd"/><path fill="#000000" stroke="#000000" stroke-width="1.0" stroke-linecap="butt" d="m697.479 132.31053l4.538086 -1.6517334l-4.538086 -1.6517334z" fill-rule="evenodd"/><path fill="#000000" fill-opacity="0.0" d="m618.43964 209.06036l85.03937 0" fill-rule="evenodd"/><path stroke="#000000" stroke-width="1.0" stroke-linejoin="round" stroke-linecap="butt" d="m618.43964 209.06036l79.03937 0" fill-rule="evenodd"/><path fill="#000000" stroke="#000000" stroke-width="1.0" stroke-linecap="butt" d="m697.479 210.7121l4.538086 -1.6517334l-4.538086 -1.6517334z" fill-rule="evenodd"/><path fill="#000000" fill-opacity="0.0" d="m618.44226 276.5328l85.03937 0" fill-rule="evenodd"/><path stroke="#000000" stroke-width="1.0" stroke-linejoin="round" stroke-linecap="butt" d="m618.44226 276.5328l79.03937 0" fill-rule="evenodd"/><path fill="#000000" stroke="#000000" stroke-width="1.0" stroke-linecap="butt" d="m697.4816 278.18454l4.538086 -1.6517334l-4.538086 -1.6517334z" fill-rule="evenodd"/><path fill="#000000" fill-opacity="0.0" d="m618.44226 353.18372l85.03937 0" fill-rule="evenodd"/><path stroke="#000000" stroke-width="1.0" stroke-linejoin="round" stroke-linecap="butt" d="m618.44226 353.18372l79.03937 0" fill-rule="evenodd"/><path fill="#000000" stroke="#000000" stroke-width="1.0" stroke-linecap="butt" d="m697.4816 354.83545l4.538086 -1.6517334l-4.538086 -1.6517334z" fill-rule="evenodd"/><path fill="#000000" fill-opacity="0.0" d="m618.43964 420.65616l85.03937 0" fill-rule="evenodd"/><path stroke="#000000" stroke-width="1.0" stroke-linejoin="round" stroke-linecap="butt" d="m618.43964 420.65616l79.03937 0" fill-rule="evenodd"/><path fill="#000000" stroke="#000000" stroke-width="1.0" stroke-linecap="butt" d="m697.479 422.3079l4.538086 -1.6517334l-4.538086 -1.6517334z" fill-rule="evenodd"/></g></svg>