<svg version="1.1" viewBox="0.0 0.0 960.0 540.0" fill="none" stroke="none" stroke-linecap="square" stroke-miterlimit="10" xmlns:xlink="http://www.w3.org/1999/xlink" xmlns="http://www.w3.org/2000/svg"><clipPath id="g2aba1eb8204_0_0.0"><path d="m0 0l960.0 0l0 540.0l-960.0 0l0 -540.0z" clip-rule="nonzero"/></clipPath><g clip-path="url(#g2aba1eb8204_0_0.0)"><path fill="#ffffff" d="m0 0l960.0 0l0 540.0l-960.0 0z" fill-rule="evenodd"/><path fill="#000000" fill-opacity="0.0" d="m100.732285 152.75183l0 0c0 -32.37816 26.24768 -58.625847 58.62584 -58.625847l671.2837 0c15.548584 0 30.460266 6.1766357 41.454773 17.171112c10.994446 10.994476 17.171082 25.906197 17.171082 41.454735l0 234.49634c0 32.378174 -26.24768 58.625854 -58.625854 58.625854l-671.2837 0c-32.37816 0 -58.62584 -26.24768 -58.62584 -58.625854z" fill-rule="evenodd"/><path stroke="#000000" stroke-width="4.0" stroke-linejoin="round" stroke-linecap="butt" d="m100.732285 152.75183l0 0c0 -32.37816 26.24768 -58.625847 58.62584 -58.625847l671.2837 0c15.548584 0 30.460266 6.1766357 41.454773 17.171112c10.994446 10.994476 17.171082 25.906197 17.171082 41.454735l0 234.49634c0 32.378174 -26.24768 58.625854 -58.625854 58.625854l-671.2837 0c-32.37816 0 -58.62584 -26.24768 -58.62584 -58.625854z" fill-rule="evenodd"/><path fill="#000000" fill-opacity="0.0" d="m217.98163 94.95538l0 350.92914" fill-rule="evenodd"/><path stroke="#000000" stroke-width="3.0" stroke-linejoin="round" stroke-linecap="butt" d="m217.98163 94.95538l0 350.92914" fill-rule="evenodd"/><path fill="#000000" fill-opacity="0.0" d="m303.3386 94.53543l0 350.92914" fill-rule="evenodd"/><path stroke="#000000" stroke-width="3.0" stroke-linejoin="round" stroke-linecap="butt" d="m303.3386 94.53543l0 350.92914" fill-rule="evenodd"/><path fill="#000000" fill-opacity="0.0" d="m480.0 94.95538l0 350.92914" fill-rule="evenodd"/><path stroke="#000000" stroke-width="3.0" stroke-linejoin="round" stroke-linecap="butt" d="m480.0 94.95538l0 350.92914" fill-rule="evenodd"/><path fill="#000000" fill-opacity="0.0" d="m530.6798 94.53543l0 350.92914" fill-rule="evenodd"/><path stroke="#000000" stroke-width="3.0" stroke-linejoin="round" stroke-linecap="butt" d="m530.6798 94.53543l0 350.92914" fill-rule="evenodd"/><path fill="#000000" fill-opacity="0.0" d="m646.58795 94.95538l0 350.92914" fill-rule="evenodd"/><path stroke="#000000" stroke-width="3.0" stroke-linejoin="round" stroke-linecap="butt" d="m646.58795 94.95538l0 350.92914" fill-rule="evenodd"/><path fill="#000000" fill-opacity="0.0" d="m772.4042 94.95538l0 350.92914" fill-rule="evenodd"/><path stroke="#000000" stroke-width="3.0" stroke-linejoin="round" stroke-linecap="butt" d="m772.4042 94.95538l0 350.92914" fill-rule="evenodd"/><path fill="#000000" fill-opacity="0.0" d="m141.1916 396.99213l61.95276 0l0 45.259857l-61.95276 0z" fill-rule="evenodd"/><path fill="#000000" d="m157.92598 420.394l0 6.078125l-2.046875 0l0 -6.078125l-5.609375 -9.203125l1.8125 0q0.28125 0 0.4375 0.140625q0.171875 0.140625 0.28125 0.34375l3.5 5.9375q0.21875 0.375 0.359375 0.703125q0.140625 0.328125 0.265625 0.65625q0.109375 -0.34375 0.25 -0.671875q0.140625 -0.328125 0.359375 -0.6875l3.484375 -5.9375q0.09375 -0.171875 0.25 -0.328125q0.171875 -0.15625 0.4375 -0.15625l1.828125 0l-5.609375 9.203125zm7.2746735 -0.046875l9.171875 0l0 1.4375l-9.171875 0l0 -1.4375zm0 -3.5625l9.171875 0l0 1.4375l-9.171875 0l0 -1.4375zm13.838974 8.234375l3.28125 0l0 -10.421875q0 -0.46875 0.03125 -0.9375l-2.734375 2.328125q-0.09375 0.09375 -0.203125 0.125q-0.109375 0.03125 -0.203125 0.03125q-0.15625 0 -0.296875 -0.0625q-0.125 -0.078125 -0.1875 -0.171875l-0.59375 -0.8125l4.546875 -3.9375l1.546875 0l0 13.859375l3.0 0l0 1.453125l-8.1875 0l0 -1.453125z" fill-rule="nonzero"/><path fill="#000000" fill-opacity="0.0" d="m231.6367 396.99213l58.047256 0l0 45.259857l-58.047256 0z" fill-rule="evenodd"/><path fill="#000000" d="m248.37108 420.394l0 6.078125l-2.046875 0l0 -6.078125l-5.609375 -9.203125l1.8125 0q0.28125 0 0.4375 0.140625q0.171875 0.140625 0.28125 0.34375l3.5 5.9375q0.21875 0.375 0.359375 0.703125q0.140625 0.328125 0.265625 0.65625q0.109375 -0.34375 0.25 -0.671875q0.140625 -0.328125 0.359375 -0.6875l3.484375 -5.9375q0.09375 -0.171875 0.25 -0.328125q0.171875 -0.15625 0.4375 -0.15625l1.828125 0l-5.609375 9.203125zm7.2746735 -0.046875l9.171875 0l0 1.4375l-9.171875 0l0 -1.4375zm0 -3.5625l9.171875 0l0 1.4375l-9.171875 0l0 -1.4375zm17.18274 -5.765625q0.96875 0 1.8125 0.296875q0.84375 0.28125 1.453125 0.828125q0.625 0.546875 0.96875 1.34375q0.359375 0.78125 0.359375 1.78125q0 0.859375 -0.265625 1.59375q-0.25 0.71875 -0.6875 1.390625q-0.4375 0.65625 -1.015625 1.28125q-0.5625 0.625 -1.203125 1.28125l-4.015625 4.109375q0.421875 -0.109375 0.859375 -0.171875q0.4375 -0.078125 0.84375 -0.078125l5.109375 0q0.3125 0 0.484375 0.1875q0.1875 0.171875 0.1875 0.453125l0 1.15625l-10.1875 0l0 -0.65625q0 -0.203125 0.078125 -0.40625q0.078125 -0.21875 0.265625 -0.40625l4.890625 -4.90625q0.609375 -0.625 1.109375 -1.1875q0.5 -0.578125 0.859375 -1.140625q0.359375 -0.578125 0.546875 -1.171875q0.1875 -0.59375 0.1875 -1.265625q0 -0.671875 -0.21875 -1.171875q-0.203125 -0.515625 -0.578125 -0.84375q-0.375 -0.328125 -0.875 -0.5q-0.5 -0.171875 -1.078125 -0.171875q-0.578125 0 -1.0625 0.171875q-0.484375 0.171875 -0.875 0.484375q-0.375 0.296875 -0.640625 0.71875q-0.25 0.40625 -0.359375 0.921875q-0.078125 0.296875 -0.25 0.4375q-0.171875 0.140625 -0.453125 0.140625q-0.046875 0 -0.109375 0q-0.0625 -0.015625 -0.140625 -0.015625l-0.984375 -0.171875q0.140625 -1.046875 0.5625 -1.84375q0.4375 -0.8125 1.09375 -1.359375q0.65625 -0.546875 1.5 -0.828125q0.84375 -0.28125 1.828125 -0.28125z" fill-rule="nonzero"/><path fill="#000000" fill-opacity="0.0" d="m360.69333 396.99213l61.95276 0l0 45.259857l-61.95276 0z" fill-rule="evenodd"/><path fill="#000000" d="m377.4277 420.394l0 6.078125l-2.046875 0l0 -6.078125l-5.609375 -9.203125l1.8125 0q0.28125 0 0.4375 0.140625q0.171875 0.140625 0.28125 0.34375l3.5 5.9375q0.21875 0.375 0.359375 0.703125q0.140625 0.328125 0.265625 0.65625q0.109375 -0.34375 0.25 -0.671875q0.140625 -0.328125 0.359375 -0.6875l3.484375 -5.9375q0.09375 -0.171875 0.25 -0.328125q0.171875 -0.15625 0.4375 -0.15625l1.828125 0l-5.609375 9.203125zm7.274658 -0.046875l9.171875 0l0 1.4375l-9.171875 0l0 -1.4375zm0 -3.5625l9.171875 0l0 1.4375l-9.171875 0l0 -1.4375zm17.385864 -5.765625q0.96875 0 1.78125 0.28125q0.828125 0.28125 1.421875 0.796875q0.59375 0.5 0.921875 1.234375q0.328125 0.71875 0.328125 1.609375q0 0.71875 -0.1875 1.296875q-0.171875 0.5625 -0.53125 1.0q-0.34375 0.421875 -0.84375 0.71875q-0.484375 0.296875 -1.09375 0.484375q1.5 0.390625 2.25 1.328125q0.75 0.921875 0.75 2.3125q0 1.0625 -0.40625 1.90625q-0.390625 0.84375 -1.09375 1.4375q-0.6875 0.59375 -1.609375 0.90625q-0.921875 0.3125 -1.96875 0.3125q-1.21875 0 -2.09375 -0.296875q-0.859375 -0.3125 -1.453125 -0.84375q-0.59375 -0.53125 -0.984375 -1.265625q-0.375 -0.734375 -0.640625 -1.578125l0.8125 -0.34375q0.21875 -0.09375 0.4375 -0.09375q0.21875 0 0.375 0.09375q0.171875 0.078125 0.265625 0.28125q0.015625 0.03125 0.03125 0.078125q0.03125 0.046875 0.046875 0.109375q0.15625 0.3125 0.359375 0.703125q0.21875 0.375 0.578125 0.71875q0.359375 0.34375 0.890625 0.578125q0.546875 0.234375 1.34375 0.234375q0.8125 0 1.40625 -0.25q0.609375 -0.265625 1.0 -0.671875q0.40625 -0.421875 0.609375 -0.9375q0.203125 -0.515625 0.203125 -1.015625q0 -0.625 -0.171875 -1.125q-0.15625 -0.515625 -0.59375 -0.890625q-0.4375 -0.375 -1.203125 -0.578125q-0.75 -0.21875 -1.953125 -0.21875l0 -1.375q0.96875 -0.015625 1.65625 -0.21875q0.6875 -0.203125 1.125 -0.546875q0.4375 -0.359375 0.640625 -0.84375q0.203125 -0.5 0.203125 -1.09375q0 -0.65625 -0.21875 -1.140625q-0.203125 -0.5 -0.5625 -0.8125q-0.359375 -0.328125 -0.859375 -0.484375q-0.5 -0.171875 -1.078125 -0.171875q-0.578125 0 -1.0625 0.171875q-0.484375 0.171875 -0.875 0.484375q-0.375 0.296875 -0.640625 0.71875q-0.25 0.421875 -0.375 0.921875q-0.078125 0.296875 -0.25 0.4375q-0.171875 0.140625 -0.4375 0.140625q-0.0625 0 -0.125 0q-0.046875 -0.015625 -0.125 -0.015625l-0.984375 -0.171875q0.140625 -1.046875 0.5625 -1.84375q0.4375 -0.8125 1.09375 -1.359375q0.65625 -0.546875 1.5 -0.828125q0.84375 -0.28125 1.828125 -0.28125z" fill-rule="nonzero"/><path fill="#000000" fill-opacity="0.0" d="m475.446 396.99213l61.95273 0l0 45.259857l-61.95273 0z" fill-rule="evenodd"/><path fill="#000000" d="m492.1804 420.394l0 6.078125l-2.046875 0l0 -6.078125l-5.609375 -9.203125l1.8125 0q0.28125 0 0.4375 0.140625q0.171875 0.140625 0.28125 0.34375l3.5 5.9375q0.21875 0.375 0.359375 0.703125q0.140625 0.328125 0.265625 0.65625q0.109375 -0.34375 0.25 -0.671875q0.140625 -0.328125 0.359375 -0.6875l3.484375 -5.9375q0.09375 -0.171875 0.25 -0.328125q0.171875 -0.15625 0.4375 -0.15625l1.828125 0l-5.609375 9.203125zm7.274658 -0.046875l9.171875 0l0 1.4375l-9.171875 0l0 -1.4375zm0 -3.5625l9.171875 0l0 1.4375l-9.171875 0l0 -1.4375zm20.401459 4.171875l2.3125 0l0 1.09375q0 0.171875 -0.109375 0.296875q-0.09375 0.109375 -0.296875 0.109375l-1.90625 0l0 4.015625l-1.671875 0l0 -4.015625l-6.7655945 0q-0.21875 0 -0.375 -0.125q-0.15625 -0.125 -0.1875 -0.3125l-0.203125 -0.96875l7.4374695 -9.859375l1.765625 0l0 9.765625zm-1.671875 -6.296875q0 -0.28125 0.015625 -0.59375q0.015625 -0.328125 0.078125 -0.671875l-5.5625 7.5625l5.46875 0l0 -6.296875z" fill-rule="nonzero"/><path fill="#000000" fill-opacity="0.0" d="m560.53284 396.99213l61.952698 0l0 45.259857l-61.952698 0z" fill-rule="evenodd"/><path fill="#000000" d="m577.2672 420.394l0 6.078125l-2.046875 0l0 -6.078125l-5.609375 -9.203125l1.8125 0q0.28125 0 0.4375 0.140625q0.171875 0.140625 0.28125 0.34375l3.5 5.9375q0.21875 0.375 0.359375 0.703125q0.140625 0.328125 0.265625 0.65625q0.109375 -0.34375 0.25 -0.671875q0.140625 -0.328125 0.359375 -0.6875l3.484375 -5.9375q0.09375 -0.171875 0.25 -0.328125q0.171875 -0.15625 0.4375 -0.15625l1.828125 0l-5.609375 9.203125zm7.274658 -0.046875l9.171875 0l0 1.4375l-9.171875 0l0 -1.4375zm0 -3.5625l9.171875 0l0 1.4375l-9.171875 0l0 -1.4375zm21.198364 -4.765625q0 0.40625 -0.25 0.671875q-0.25 0.265625 -0.859375 0.265625l-4.796875 0l-0.703125 4.0q1.1875 -0.25 2.203125 -0.25q1.1875 0 2.09375 0.359375q0.921875 0.34375 1.53125 0.96875q0.625 0.609375 0.9375 1.453125q0.328125 0.84375 0.328125 1.828125q0 1.21875 -0.4375 2.203125q-0.421875 0.984375 -1.171875 1.6875q-0.734375 0.6875 -1.734375 1.0625q-1.0 0.375 -2.171875 0.375q-0.671875 0 -1.296875 -0.140625q-0.609375 -0.125 -1.140625 -0.34375q-0.53125 -0.234375 -1.0 -0.515625q-0.453125 -0.296875 -0.796875 -0.609375l0.578125 -0.8125q0.1875 -0.28125 0.5 -0.28125q0.203125 0 0.46875 0.171875q0.28125 0.15625 0.65625 0.359375q0.390625 0.203125 0.90625 0.375q0.515625 0.15625 1.234375 0.15625q0.796875 0 1.4375 -0.25q0.640625 -0.25 1.09375 -0.71875q0.453125 -0.484375 0.703125 -1.140625q0.25 -0.671875 0.25 -1.484375q0 -0.71875 -0.21875 -1.296875q-0.203125 -0.578125 -0.625 -0.96875q-0.421875 -0.40625 -1.046875 -0.625q-0.625 -0.234375 -1.46875 -0.234375q-0.578125 0 -1.203125 0.09375q-0.609375 0.09375 -1.28125 0.3125l-1.1875 -0.359375l1.234375 -7.140625l7.234375 0l0 0.828125z" fill-rule="nonzero"/><path fill="#000000" fill-opacity="0.0" d="m678.5197 396.99213l61.952698 0l0 45.259857l-61.952698 0z" fill-rule="evenodd"/><path fill="#000000" d="m695.2541 420.394l0 6.078125l-2.046875 0l0 -6.078125l-5.609375 -9.203125l1.8125 0q0.28125 0 0.4375 0.140625q0.171875 0.140625 0.28125 0.34375l3.5 5.9375q0.21875 0.375 0.359375 0.703125q0.140625 0.328125 0.265625 0.65625q0.109375 -0.34375 0.25 -0.671875q0.140625 -0.328125 0.359375 -0.6875l3.484375 -5.9375q0.09375 -0.171875 0.25 -0.328125q0.171875 -0.15625 0.4375 -0.15625l1.828125 0l-5.609375 9.203125zm7.274658 -0.046875l9.171875 0l0 1.4375l-9.171875 0l0 -1.4375zm0 -3.5625l9.171875 0l0 1.4375l-9.171875 0l0 -1.4375zm17.71399 0.328125q0.90625 0 1.71875 0.3125q0.828125 0.296875 1.453125 0.875q0.625 0.578125 0.984375 1.4375q0.359375 0.84375 0.359375 1.921875q0 1.0625 -0.390625 1.96875q-0.375 0.90625 -1.0625 1.578125q-0.6875 0.671875 -1.65625 1.0625q-0.96875 0.375 -2.140625 0.375q-1.140625 0 -2.078125 -0.359375q-0.9375 -0.375 -1.609375 -1.046875q-0.65625 -0.6875 -1.015625 -1.640625q-0.34375 -0.96875 -0.34375 -2.171875q0 -1.0 0.4375 -2.125q0.453125 -1.140625 1.421875 -2.4375l3.875 -5.21875q0.140625 -0.1875 0.40625 -0.3125q0.28125 -0.140625 0.609375 -0.140625l1.6875 0l-5.296875 6.703125q0.546875 -0.375 1.203125 -0.578125q0.65625 -0.203125 1.4375 -0.203125zm-3.953125 4.640625q0 0.734375 0.203125 1.34375q0.21875 0.609375 0.625 1.046875q0.421875 0.4375 1.015625 0.6875q0.59375 0.234375 1.34375 0.234375q0.765625 0 1.375 -0.234375q0.625 -0.25 1.0625 -0.6875q0.453125 -0.4375 0.6875 -1.03125q0.25 -0.609375 0.25 -1.3125q0 -0.75 -0.234375 -1.34375q-0.234375 -0.609375 -0.671875 -1.03125q-0.421875 -0.421875 -1.015625 -0.640625q-0.59375 -0.21875 -1.3125 -0.21875q-0.765625 0 -1.390625 0.265625q-0.609375 0.25 -1.046875 0.703125q-0.4375 0.4375 -0.671875 1.015625q-0.21875 0.578125 -0.21875 1.203125z" fill-rule="nonzero"/><path fill="#000000" fill-opacity="0.0" d="m791.5617 396.99213l58.04724 0l0 45.259857l-58.04724 0z" fill-rule="evenodd"/><path fill="#000000" d="m808.2961 420.394l0 6.078125l-2.046875 0l0 -6.078125l-5.609375 -9.203125l1.8125 0q0.28125 0 0.4375 0.140625q0.171875 0.140625 0.28125 0.34375l3.5 5.9375q0.21875 0.375 0.359375 0.703125q0.140625 0.328125 0.265625 0.65625q0.109375 -0.34375 0.25 -0.671875q0.140625 -0.328125 0.359375 -0.6875l3.484375 -5.9375q0.09375 -0.171875 0.25 -0.328125q0.171875 -0.15625 0.4375 -0.15625l1.828125 0l-5.609375 9.203125zm7.274658 -0.046875l9.171875 0l0 1.4375l-9.171875 0l0 -1.4375zm0 -3.5625l9.171875 0l0 1.4375l-9.171875 0l0 -1.4375zm22.33899 -5.59375l0 0.859375q0 0.359375 -0.078125 0.59375q-0.078125 0.234375 -0.171875 0.390625l-6.328125 12.765625q-0.125 0.28125 -0.375 0.484375q-0.25 0.1875 -0.65625 0.1875l-1.359375 0l6.421875 -12.609375q0.140625 -0.265625 0.28125 -0.484375q0.140625 -0.21875 0.328125 -0.421875l-7.984375 0q-0.171875 0 -0.328125 -0.140625q-0.140625 -0.15625 -0.140625 -0.328125l0 -1.296875l10.390625 0z" fill-rule="nonzero"/><path fill="#ff7777" fill-opacity="0.3734" d="m179.17323 200.64305l-37.98163 84.220474l70.18373 75.96326l59.451447 -91.653564l42.934387 127.98163l94.1286 -17.338562l-48.716553 -84.22049l85.8714 37.1575l8.257233 57.797882l49.543304 -3.3044739l85.8714 -156.87926l94.95276 162.6588l16.514404 -30.548553l17.338623 18.989502l23.944824 20.643036l-4.128601 21.467194l18.165405 4.128601l-12.385864 -74.31232l-26.419922 -22.293976l-8.257263 -38.805756l33.853027 -16.514435l83.39374 90.82675l44.58789 -50.367462l-7.43042 -79.265076l-30.551208 -35.50656l4.128601 76.79004l-28.900208 -40.459335l41.28607 -90.82414l-116.42261 15.687668l18.989502 86.695526l-61.09973 -119.724396l-4.128601 113.94487l-104.03674 -23.94487l-76.79001 114.77165l0 -146.14699l-97.43045 73.48555l51.19159 -99.90813l-78.438324 -3.301834l18.165375 76.7874l-109.816284 -57.797897l-7.433075 63.577423l-42.11023 -53.66928l-80.09187 -58.622055z" fill-rule="evenodd"/><path stroke="#980000" stroke-width="4.0" stroke-linejoin="round" stroke-linecap="butt" d="m179.17323 200.64305l-37.98163 84.220474l70.18373 75.96326l59.451447 -91.653564l42.934387 127.98163l94.1286 -17.338562l-48.716553 -84.22049l85.8714 37.1575l8.257233 57.797882l49.543304 -3.3044739l85.8714 -156.87926l94.95276 162.6588l16.514404 -30.548553l17.338623 18.989502l23.944824 20.643036l-4.128601 21.467194l18.165405 4.128601l-12.385864 -74.31232l-26.419922 -22.293976l-8.257263 -38.805756l33.853027 -16.514435l83.39374 90.82675l44.58789 -50.367462l-7.43042 -79.265076l-30.551208 -35.50656l4.128601 76.79004l-28.900208 -40.459335l41.28607 -90.82414l-116.42261 15.687668l18.989502 86.695526l-61.09973 -119.724396l-4.128601 113.94487l-104.03674 -23.94487l-76.79001 114.77165l0 -146.14699l-97.43045 73.48555l51.19159 -99.90813l-78.438324 -3.301834l18.165375 76.7874l-109.816284 -57.797897l-7.433075 63.577423l-42.11023 -53.66928l-80.09187 -58.622055z" fill-rule="evenodd"/><path fill="#000000" fill-opacity="0.0" d="m153.57742 225.41208l49.543304 0l0 52.850403l-49.543304 0z" fill-rule="evenodd"/><path fill="#980000" d="m174.40555 262.0402l-11.03125 -16.25l4.5 0q0.484375 0 0.71875 0.15625q0.234375 0.15625 0.421875 0.46875l8.71875 13.390625q0.171875 -0.5 0.5 -1.078125l8.234375 -12.21875q0.203125 -0.328125 0.453125 -0.515625q0.25 -0.203125 0.59375 -0.203125l4.3125 0l-11.078125 16.046875l11.453125 17.375l-4.484375 0q-0.5 0 -0.796875 -0.265625q-0.296875 -0.265625 -0.484375 -0.59375l-8.953125 -14.03125q-0.15625 0.5 -0.421875 0.9375l-8.71875 13.09375q-0.21875 0.328125 -0.484375 0.59375q-0.265625 0.265625 -0.75 0.265625l-4.203125 0l11.5 -17.171875z" fill-rule="nonzero"/></g></svg>